<svg width="182" height="188" viewBox="0 0 182 188" fill="none" xmlns="http://www.w3.org/2000/svg">
<path d="M0 20.6341C0 9.23822 9.283 0 20.7342 0H161.266C172.717 0 182 9.23822 182 20.6341V167.366C182 178.762 172.717 188 161.266 188H147.443C135.992 188 126.709 178.762 126.709 167.366V130.703C126.709 130.692 126.7 130.683 126.689 130.683C126.678 130.683 126.669 130.674 126.669 130.662C126.696 130.099 126.709 129.533 126.709 128.963C126.709 109.021 110.464 92.8537 90.4241 92.8537C70.3845 92.8537 54.1392 109.021 54.1392 128.963C54.1392 129.533 54.1525 130.099 54.1787 130.662C54.1792 130.674 54.1702 130.683 54.159 130.683C54.1481 130.683 54.1392 130.692 54.1392 130.703V167.366C54.1392 178.762 44.8562 188 33.4051 188H20.7342C9.28301 188 0 178.762 0 167.366V20.6341Z" fill="#F2A7BE"/>
</svg>
