<svg width="184" height="184" viewBox="0 0 184 184" fill="none" xmlns="http://www.w3.org/2000/svg">
<path d="M155.636 28.7131C161.192 34.2693 161.192 43.2776 155.636 48.8338L126.359 78.1111L169.547 78.0566C177.405 78.0466 183.783 84.4087 183.793 92.2664C183.802 100.124 177.441 106.501 169.583 106.511L126.504 106.566L156.037 136.099C161.593 141.655 161.593 150.665 156.037 156.221C150.481 161.777 141.472 161.776 135.916 156.22L106.273 126.577L106.257 169.57C106.255 177.427 99.8824 183.795 92.0247 183.792C84.1672 183.79 77.7992 177.417 77.8018 169.56L77.817 126.653L48.6516 155.818C43.0953 161.375 34.0871 161.375 28.5308 155.818C22.9746 150.262 22.9746 141.254 28.5308 135.697L57.5747 106.654L14.2457 106.71C6.38817 106.719 0.0101239 100.357 2.75617e-05 92.4998C-0.00997038 84.642 6.35212 78.264 14.2098 78.254L57.893 78.1974L26.076 46.3804C20.5199 40.8242 20.52 31.8158 26.076 26.2596C31.6322 20.7034 40.6412 20.7027 46.1974 26.2589L77.8405 57.9019L77.8557 14.2229C77.8584 6.36518 84.2305 -0.00272937 92.0883 -3.22328e-05C99.946 0.00267184 106.314 6.37484 106.311 14.2326L106.297 57.9316L135.515 28.7131C141.071 23.1569 150.08 23.1569 155.636 28.7131Z" fill="#FFD168"/>
</svg>
