<svg width="48" height="50" viewBox="0 0 48 50" fill="none" xmlns="http://www.w3.org/2000/svg">
<path d="M48 44.3549C48 47.375 45.5517 49.8232 42.5316 49.8232H38.8863C35.8662 49.8232 33.418 47.375 33.418 44.3549V34.6385C33.418 34.6354 33.4154 34.6328 33.4122 34.6328C33.409 34.6328 33.4064 34.6301 33.4065 34.6268C33.4134 34.4778 33.418 34.3275 33.418 34.1768C33.4177 28.8918 29.1327 24.6074 23.8477 24.6074C18.5629 24.6077 14.2786 28.892 14.2783 34.1768C14.2783 34.3275 14.2828 34.4778 14.2898 34.6268C14.2899 34.6301 14.2873 34.6328 14.284 34.6328C14.2809 34.6328 14.2783 34.6354 14.2783 34.6385V44.3549C14.2783 47.375 11.8301 49.8232 8.80997 49.8232H5.46836C2.44827 49.8232 0 47.375 0 44.3549V5.46835C0 2.44826 2.44827 0 5.46835 0H42.5316C45.5517 0 48 2.44827 48 5.46835V44.3549Z" fill="#FFD168"/>
</svg>
