<svg width="156" height="189" viewBox="0 0 156 189" fill="none" xmlns="http://www.w3.org/2000/svg">
<g clip-path="url(#clip0_92_2332)">
<path d="M155.993 67.6638C155.993 105.034 121.073 135.328 77.9967 135.328C34.9203 135.328 0 105.034 0 67.6638C0 30.2941 34.9203 0 77.9967 0C121.073 0 155.993 30.2941 155.993 67.6638Z" fill="white"/>
<path d="M0 67.2171C0 58.7025 7.95653 51.8 17.7714 51.8H138.229C148.043 51.8 156 58.7025 156 67.2171V173.583C156 182.098 148.043 189 138.229 189H17.7714C7.95653 189 0 182.098 0 173.583V67.2171Z" fill="white"/>
<path d="M37.7686 49.2013H68.7559V68.2452C68.7559 68.4389 68.6783 68.6134 68.5498 68.7413L68.5488 68.7423C68.4206 68.8706 68.2455 68.9493 68.0498 68.9493C67.8493 68.9493 67.6696 68.8696 67.5498 68.7433V68.7423L67.2754 68.4679C65.8716 67.1272 63.9652 66.3019 61.8682 66.3019C57.5077 66.302 53.9769 69.8652 54.042 74.2365C54.105 78.4152 57.4956 81.8301 61.6787 81.9288C63.9877 81.9836 66.0798 81.038 67.5449 79.4962L67.5479 79.4943C67.6082 79.4304 67.6829 79.378 67.7686 79.3419L67.7715 79.3409C67.8561 79.3051 67.9511 79.2853 68.0498 79.2853C68.4413 79.2854 68.7557 79.6022 68.7559 79.9884V97.839H50.8701C49.3776 97.8392 48.1641 99.0488 48.1641 100.543C48.1641 100.817 48.2055 101.088 48.2861 101.348L48.3799 101.603C48.52 101.933 48.7283 102.239 49 102.495V102.496C50.079 103.518 50.7647 104.945 50.8125 106.534L50.8135 106.855C50.7401 109.956 48.1903 112.48 45.0781 112.526L44.7744 112.523C41.6537 112.41 39.1614 109.85 39.1611 106.713C39.1611 105.051 39.858 103.553 40.9795 102.493C41.5241 101.979 41.8124 101.267 41.8125 100.543C41.8125 99.7963 41.5075 99.118 41.0176 98.63C40.5289 98.142 39.8511 97.839 39.1055 97.839H20.0244V66.9113L20.0303 66.4542C20.2731 56.8862 28.12 49.2015 37.7686 49.2013Z" fill="#1E1E1E" stroke="white" stroke-width="2"/>
<path d="M39.0664 165.168C39.2556 165.168 39.4277 165.091 39.5566 164.96L39.5586 164.959C39.6881 164.827 39.7695 164.645 39.7695 164.439C39.7695 164.281 39.7227 164.137 39.6455 164.023L39.5586 163.92C38.0579 162.478 37.1231 160.437 37.123 158.18C37.123 153.784 40.6735 150.202 45.0566 150.268C49.2462 150.332 52.6498 153.771 52.748 157.989C52.8026 160.319 51.8608 162.433 50.3203 163.916L50.3174 163.918C50.253 163.979 50.2001 164.057 50.1631 164.146L50.1621 164.148L50.1191 164.288C50.1094 164.337 50.1045 164.387 50.1045 164.439C50.1045 164.855 50.4333 165.168 50.8076 165.168H68.6562V147.044C68.6562 146.296 68.9558 145.615 69.4424 145.122V145.121C69.9292 144.626 70.6084 144.315 71.3594 144.315C72.0935 144.315 72.8058 144.615 73.3174 145.164L73.3164 145.165C74.3391 146.258 75.7659 146.948 77.3506 146.997L77.6699 146.998C80.663 146.926 83.1349 144.506 83.3291 141.473L83.3408 141.178C83.3896 137.857 80.7542 135.174 77.5283 135.173C75.8712 135.173 74.3743 135.877 73.3135 137.014C73.0576 137.289 72.7513 137.5 72.4189 137.642L72.416 137.643L72.1621 137.737C71.9034 137.817 71.6326 137.858 71.3594 137.858C69.8533 137.858 68.6565 136.623 68.6562 135.13V115.796H37.7314C27.9658 115.796 20.0246 123.832 20.0244 133.776V165.168H39.0664Z" fill="#1E1E1E" stroke="white" stroke-width="2"/>
<path d="M111.664 101.209C108.412 101.16 105.746 103.803 105.746 107.088C105.746 108.772 106.446 110.288 107.569 111.359C107.84 111.618 108.047 111.926 108.186 112.259L108.187 112.262C108.325 112.595 108.397 112.955 108.397 113.318C108.397 114.813 107.193 116.038 105.691 116.038H86.6099V147.276C86.6099 157.165 94.5614 165.168 104.354 165.168H135.341V145.929C135.341 145.524 135.018 145.209 134.635 145.209C134.538 145.209 134.442 145.229 134.357 145.265C134.272 145.301 134.198 145.353 134.138 145.416V145.417C132.715 146.933 130.694 147.881 128.454 147.881C124.084 147.881 120.562 144.279 120.627 139.88C120.69 135.674 124.073 132.222 128.264 132.122H128.265C130.577 132.067 132.67 133.024 134.134 134.579V134.58C134.259 134.713 134.44 134.792 134.635 134.792C134.828 134.792 135.001 134.714 135.13 134.584L135.132 134.582C135.262 134.452 135.341 134.273 135.341 134.071V116.038H117.456C116.706 116.038 116.027 115.73 115.539 115.237L115.54 115.236C115.052 114.745 114.75 114.066 114.75 113.318C114.75 112.587 115.041 111.872 115.583 111.355C116.734 110.254 117.439 108.684 117.398 106.944C117.324 103.799 114.767 101.256 111.664 101.209Z" fill="#1E1E1E" stroke="white" stroke-width="2"/>
<path d="M117.634 49.2013C127.411 49.2013 135.342 57.145 135.342 66.9484V97.9396H116.3C115.914 97.9396 115.597 97.6245 115.597 97.2325C115.597 97.1344 115.616 97.039 115.651 96.9532C115.67 96.9101 115.692 96.8699 115.717 96.8331L115.803 96.7325C117.305 95.308 118.243 93.2879 118.243 91.0509C118.243 86.8263 114.9 83.3805 110.717 83.2286L110.31 83.2238C106.131 83.2868 102.717 86.6781 102.618 90.8615C102.563 93.1705 103.508 95.2634 105.05 96.7286H105.051C105.182 96.8527 105.262 97.034 105.262 97.2325C105.262 97.4284 105.183 97.6043 105.055 97.7325L105.054 97.7335C104.926 97.8619 104.752 97.9395 104.559 97.9396H86.71V80.0519C86.71 78.5593 85.5014 77.3449 84.0068 77.3448C83.7329 77.3448 83.4614 77.3863 83.2021 77.4669L82.9492 77.5597C82.6177 77.6999 82.3106 77.9083 82.0537 78.1808C80.9641 79.3319 79.413 80.035 77.6963 79.9943H77.6953C74.595 79.9207 72.0721 77.3707 72.0254 74.2579C71.9771 70.9962 74.6002 68.34 77.8379 68.34C79.3954 68.34 80.8088 68.9533 81.8525 69.9542L82.0566 70.1593C82.5708 70.7039 83.2831 70.9923 84.0068 70.9923C84.7534 70.9923 85.4311 70.6872 85.9189 70.1974L85.918 70.1964C86.4061 69.7077 86.7099 69.0311 86.71 68.2853V49.2013H117.634Z" fill="#1E1E1E" stroke="white" stroke-width="2"/>
<line x1="36.6099" y1="58.5201" x2="121.293" y2="58.5201" stroke="white" stroke-width="6" stroke-linecap="round"/>
<line x1="36.6099" y1="73.7416" x2="66.7562" y2="73.7416" stroke="white" stroke-width="6" stroke-linecap="round"/>
<line x1="91.1465" y1="73.7416" x2="121.293" y2="73.7416" stroke="white" stroke-width="6" stroke-linecap="round"/>
<line x1="36.6099" y1="88.963" x2="121.293" y2="88.963" stroke="white" stroke-width="6" stroke-linecap="round"/>
<line x1="36.6099" y1="58.5201" x2="121.293" y2="58.5201" stroke="white" stroke-width="6" stroke-linecap="round"/>
<line x1="36.6099" y1="73.7416" x2="66.7562" y2="73.7416" stroke="white" stroke-width="6" stroke-linecap="round"/>
<line x1="91.1465" y1="73.7416" x2="121.293" y2="73.7416" stroke="white" stroke-width="6" stroke-linecap="round"/>
<line x1="36.6099" y1="88.963" x2="121.293" y2="88.963" stroke="white" stroke-width="6" stroke-linecap="round"/>
<line x1="36.6099" y1="125.114" x2="121.293" y2="125.114" stroke="white" stroke-width="6" stroke-linecap="round"/>
<line x1="36.5776" y1="140.304" x2="61.9681" y2="140.032" stroke="white" stroke-width="6" stroke-linecap="round"/>
<line x1="91.1465" y1="140.336" x2="121.293" y2="140.336" stroke="white" stroke-width="6" stroke-linecap="round"/>
<line x1="61.9796" y1="155.98" x2="121.273" y2="155.577" stroke="white" stroke-width="6" stroke-linecap="round"/>
</g>
<defs>
<clipPath id="clip0_92_2332">
<rect width="156" height="189" fill="white"/>
</clipPath>
</defs>
</svg>
