<svg width="156" height="189" viewBox="0 0 156 189" fill="none" xmlns="http://www.w3.org/2000/svg">
<path d="M155.993 67.6551C155.993 105.02 121.073 135.31 77.9967 135.31C34.9203 135.31 0 105.02 0 67.6551C0 30.2902 34.9203 0 77.9967 0C121.073 0 155.993 30.2902 155.993 67.6551Z" fill="white"/>
<path d="M0 67.2084C0 58.6949 7.95653 51.7933 17.7714 51.7933H138.229C148.043 51.7933 156 58.6949 156 67.2084V173.561C156 182.074 148.043 188.976 138.229 188.976H17.7714C7.95653 188.976 0 182.074 0 173.561V67.2084Z" fill="white"/>
<rect x="12.4146" y="68.2195" width="59.57" height="80.8011" rx="9" fill="#1E1E1E" stroke="#1E1E1E" stroke-width="2"/>
<line x1="37.2441" y1="82.6097" x2="59.7807" y2="82.6097" stroke="#ADADAD" stroke-width="6" stroke-linecap="round"/>
<line x1="37.2441" y1="92.7561" x2="50.9027" y2="92.7561" stroke="#ADADAD" stroke-width="6" stroke-linecap="round"/>
<line x1="37.2441" y1="105.439" x2="59.7807" y2="105.439" stroke="#ADADAD" stroke-width="6" stroke-linecap="round"/>
<line x1="37.2441" y1="115.585" x2="50.9027" y2="115.585" stroke="#ADADAD" stroke-width="6" stroke-linecap="round"/>
<line x1="37.2441" y1="127" x2="59.7807" y2="127" stroke="#ADADAD" stroke-width="6" stroke-linecap="round"/>
<line x1="37.2441" y1="137.146" x2="50.9027" y2="137.146" stroke="#ADADAD" stroke-width="6" stroke-linecap="round"/>
<circle cx="23.493" cy="82.9441" r="4.32996" fill="#ADADAD"/>
<circle cx="23.493" cy="104.366" r="4.32996" fill="#ADADAD"/>
<circle cx="23.493" cy="125.788" r="4.32996" fill="#ADADAD"/>
<rect x="84.1309" y="68.2195" width="59.57" height="80.8011" rx="9" fill="#1E1E1E" stroke="#1E1E1E" stroke-width="2"/>
<line x1="108.96" y1="82.6097" x2="131.497" y2="82.6097" stroke="white" stroke-width="6" stroke-linecap="round"/>
<line x1="108.96" y1="92.7561" x2="122.619" y2="92.7561" stroke="white" stroke-width="6" stroke-linecap="round"/>
<line x1="108.96" y1="105.439" x2="131.497" y2="105.439" stroke="white" stroke-width="6" stroke-linecap="round"/>
<line x1="108.96" y1="115.585" x2="122.619" y2="115.585" stroke="white" stroke-width="6" stroke-linecap="round"/>
<line x1="108.96" y1="127" x2="131.497" y2="127" stroke="white" stroke-width="6" stroke-linecap="round"/>
<line x1="108.96" y1="137.146" x2="122.619" y2="137.146" stroke="white" stroke-width="6" stroke-linecap="round"/>
<circle cx="95.1221" cy="83.0732" r="4.43902" fill="white"/>
<path d="M92.7441 83.2318L94.3295 84.8171L97.5002 81.8049" stroke="#1E1E1E" stroke-width="2" stroke-linecap="round" stroke-linejoin="round"/>
<circle cx="95.1221" cy="104" r="4.43902" fill="white"/>
<path d="M92.7441 104.159L94.3295 105.744L97.5002 102.732" stroke="#1E1E1E" stroke-width="2" stroke-linecap="round" stroke-linejoin="round"/>
<circle cx="95.1221" cy="125.561" r="4.43902" fill="white"/>
<path d="M92.7441 125.72L94.3295 127.305L97.5002 124.293" stroke="#1E1E1E" stroke-width="2" stroke-linecap="round" stroke-linejoin="round"/>
<line x1="78.5" y1="50.5975" x2="78.5" y2="165.646" stroke="#1E1E1E" stroke-linecap="round" stroke-dasharray="6 6"/>
</svg>
