<svg width="33" height="33" viewBox="0 0 33 33" fill="none" xmlns="http://www.w3.org/2000/svg">
<path d="M16.8164 0.5C17.7848 0.500043 18.5819 1.27628 18.582 2.24805V12.2725L26.2246 4.7334C26.9009 4.06615 27.9946 4.06615 28.6709 4.7334C29.3509 5.40436 29.3509 6.4951 28.6709 7.16602L21.0879 14.6475H30.7344C31.7028 14.6475 32.4997 15.4238 32.5 16.3955C32.5 17.3674 31.7029 18.1445 30.7344 18.1445H21.0449L28.6494 25.6475C29.3295 26.3184 29.3295 27.4091 28.6494 28.0801C27.9731 28.7471 26.8794 28.7472 26.2031 28.0801L18.582 20.5605V30.752C18.5819 31.7237 17.7848 32.5 16.8164 32.5C15.8479 32.5 15.0509 31.7237 15.0508 30.752V20.6025L7.45117 28.1006C6.77486 28.7678 5.68121 28.7678 5.00488 28.1006C4.3248 27.4296 4.3248 26.3389 5.00488 25.668L12.6309 18.1445H2.26562C1.29706 18.1445 0.5 17.3674 0.5 16.3955C0.500254 15.4238 1.29722 14.6475 2.26562 14.6475H12.5879L4.9834 7.14453C4.30332 6.47358 4.30332 5.38287 4.9834 4.71191C5.65973 4.0449 6.75344 4.04477 7.42969 4.71191L15.0508 12.2305V2.24805C15.0509 1.27626 15.8479 0.5 16.8164 0.5Z" fill="#61A5DF" stroke="#1E1E1E"/>
</svg>
