<svg width="246" height="298" viewBox="0 0 246 298" fill="none" xmlns="http://www.w3.org/2000/svg">
<path d="M245.99 106.687C245.99 165.608 190.923 213.374 122.995 213.374C55.0667 213.374 0 165.608 0 106.687C0 47.7653 55.0667 0 122.995 0C190.923 0 245.99 47.7653 245.99 106.687Z" fill="white"/>
<path d="M0 105.982C0 92.5573 12.5468 81.6741 28.0241 81.6741H217.976C233.453 81.6741 246 92.5573 246 105.982V273.692C246 287.117 233.453 298 217.976 298H28.0241C12.5468 298 0 287.117 0 273.692V105.982Z" fill="white"/>
<path d="M59.5586 77H109V107.604C109 108.069 108.813 108.488 108.506 108.794L108.504 108.796C108.198 109.102 107.776 109.29 107.309 109.29C106.841 109.29 106.404 109.105 106.102 108.785C103.96 106.527 100.924 105.117 97.5615 105.117C91.1082 105.117 85.8653 110.307 85.7969 116.735L85.7979 117.042C85.8925 123.32 90.9893 128.454 97.2764 128.603C100.748 128.685 103.893 127.264 106.096 124.946L106.098 124.944C106.25 124.783 106.435 124.656 106.642 124.569L106.645 124.568C106.85 124.481 107.076 124.434 107.309 124.434C108.244 124.434 109 125.191 109 126.12V154.842H80.2188C78.1828 154.842 76.5286 156.491 76.5283 158.527C76.5283 159.025 76.6278 159.517 76.8203 159.97V159.971C76.9879 160.367 77.2275 160.737 77.5332 161.057L77.668 161.19C79.5954 163.016 80.7735 165.617 80.7051 168.493C80.582 173.694 76.3093 177.92 71.0928 177.998C65.6289 178.079 61.1768 173.685 61.1768 168.256C61.1768 165.471 62.3464 162.959 64.2256 161.184C64.9637 160.487 65.3573 159.518 65.3574 158.528C65.3574 157.51 64.9427 156.586 64.2744 155.921C63.6078 155.255 62.6843 154.842 61.667 154.842H31V105.5C31.0001 89.7617 43.7843 77 59.5586 77Z" fill="#61A5DF" stroke="#1E1E1E" stroke-width="2"/>
<path d="M61.6045 261C62.065 261 62.4835 260.812 62.79 260.5L62.791 260.498C63.0985 260.187 63.29 259.756 63.29 259.275C63.29 258.795 63.1014 258.348 62.7803 258.04C60.5234 255.873 59.1172 252.803 59.1172 249.406C59.1172 242.788 64.4606 237.408 71.042 237.508C77.3312 237.604 82.4544 242.769 82.6025 249.117C82.6848 252.624 81.2677 255.804 78.9512 258.033L78.9482 258.035L78.834 258.158C78.7256 258.287 78.6362 258.432 78.5703 258.591L78.5693 258.594C78.4813 258.804 78.4346 259.036 78.4346 259.275C78.4346 260.241 79.2031 261 80.1201 261H108.842V231.847C108.842 230.824 109.253 229.893 109.918 229.219C110.582 228.544 111.507 228.122 112.528 228.122C113.53 228.122 114.498 228.53 115.193 229.275L115.192 229.276C116.905 231.108 119.299 232.269 121.958 232.35L122.493 232.352C127.52 232.231 131.654 228.173 131.979 223.102L131.999 222.607C132.081 217.056 127.673 212.554 122.256 212.554C119.649 212.554 117.279 213.593 115.529 215.292L115.188 215.641C114.841 216.013 114.424 216.299 113.972 216.493L113.969 216.494L113.797 216.562C113.393 216.711 112.963 216.787 112.528 216.787C110.48 216.787 108.842 215.105 108.842 213.062V182H59.5C43.7734 182 31.0001 194.938 31 210.928V261H61.6045Z" fill="#61A5DF" stroke="#1E1E1E" stroke-width="2"/>
<path d="M176.093 159.001C170.638 158.919 166.177 163.353 166.177 168.849C166.177 171.667 167.35 174.206 169.229 175.999C169.597 176.35 169.879 176.77 170.069 177.225L170.071 177.228C170.26 177.682 170.357 178.174 170.357 178.671C170.357 180.713 168.712 182.383 166.667 182.383H136V232.214C136 248.119 148.793 261 164.559 261H214V230.089L213.991 229.913C213.904 229.045 213.177 228.377 212.309 228.377C212.079 228.377 211.854 228.423 211.648 228.509V228.51C211.442 228.598 211.257 228.725 211.105 228.887C208.965 231.166 205.928 232.591 202.562 232.591C195.997 232.591 190.7 227.178 190.798 220.56C190.892 214.234 195.98 209.047 202.275 208.896C205.751 208.813 208.897 210.25 211.099 212.589H211.1C211.409 212.918 211.846 213.105 212.309 213.105C212.773 213.105 213.194 212.917 213.501 212.606L213.502 212.605L213.612 212.483C213.855 212.188 214 211.809 214 211.394V182.383H185.219C184.198 182.383 183.274 181.964 182.608 181.292L182.607 181.293C181.94 180.622 181.528 179.693 181.528 178.671C181.528 177.733 181.878 176.818 182.528 176.129L182.663 175.994C184.592 174.15 185.774 171.52 185.705 168.608C185.582 163.344 181.301 159.08 176.093 159.001Z" fill="#61A5DF" stroke="#1E1E1E" stroke-width="2"/>
<path d="M185.5 77C201.238 77.0002 214 89.7843 214 105.559V155H183.396C182.467 155 181.71 154.244 181.71 153.309C181.71 153.078 181.756 152.852 181.842 152.646C181.929 152.438 182.056 152.253 182.215 152.103V152.102C184.473 149.96 185.883 146.924 185.883 143.562C185.883 137.006 180.527 131.7 173.958 131.798C167.68 131.893 162.546 136.989 162.397 143.276C162.315 146.748 163.736 149.893 166.054 152.096L166.055 152.097C166.379 152.405 166.566 152.843 166.566 153.309C166.566 153.776 166.378 154.198 166.071 154.504L166.07 154.506C165.765 154.813 165.345 155 164.88 155H136.158V126.219C136.158 124.183 134.509 122.529 132.473 122.528C131.975 122.528 131.483 122.628 131.029 122.82C130.577 123.011 130.16 123.296 129.812 123.666C127.986 125.595 125.384 126.774 122.507 126.705C117.306 126.582 113.079 122.309 113.001 117.093C112.92 111.629 117.316 107.177 122.744 107.177C125.529 107.177 128.041 108.346 129.816 110.226C130.513 110.964 131.482 111.357 132.472 111.357C133.49 111.357 134.414 110.943 135.079 110.274L135.078 110.273C135.744 109.607 136.158 108.684 136.158 107.667V77H185.5Z" fill="#61A5DF" stroke="#1E1E1E" stroke-width="2"/>
<line x1="57" y1="93" x2="192" y2="93" stroke="white" stroke-width="8" stroke-linecap="round"/>
<line x1="57" y1="117" x2="106" y2="117" stroke="white" stroke-width="8" stroke-linecap="round"/>
<line x1="143" y1="117" x2="192" y2="117" stroke="white" stroke-width="8" stroke-linecap="round"/>
<line x1="57" y1="141" x2="192" y2="141" stroke="white" stroke-width="8" stroke-linecap="round"/>
<line x1="57" y1="93" x2="192" y2="93" stroke="white" stroke-width="8" stroke-linecap="round"/>
<line x1="57" y1="117" x2="106" y2="117" stroke="white" stroke-width="8" stroke-linecap="round"/>
<line x1="143" y1="117" x2="192" y2="117" stroke="white" stroke-width="8" stroke-linecap="round"/>
<line x1="57" y1="141" x2="192" y2="141" stroke="white" stroke-width="8" stroke-linecap="round"/>
<line x1="57" y1="198" x2="192" y2="198" stroke="white" stroke-width="8" stroke-linecap="round"/>
<line x1="57" y1="222" x2="106" y2="222" stroke="white" stroke-width="8" stroke-linecap="round"/>
<line x1="143" y1="222" x2="192" y2="222" stroke="white" stroke-width="8" stroke-linecap="round"/>
<line x1="57" y1="246" x2="192" y2="246" stroke="white" stroke-width="8" stroke-linecap="round"/>
</svg>
