<svg width="195" height="195" viewBox="0 0 195 195" fill="none" xmlns="http://www.w3.org/2000/svg">
<circle cx="97.5" cy="97.5" r="96.5" fill="#1E1E1E" stroke="#1E1E1E" stroke-width="2"/>
<path d="M75.0685 166.664L81.4491 168.373L81.2612 169.075L80.0923 168.761L78.0731 176.297L79.242 176.61L79.0541 177.312L75.5475 176.372L75.7354 175.671L77.2893 176.087L79.3085 168.551L75.5957 167.556L74.7495 169.614L74.0492 169.368L75.0685 166.664Z" fill="#F3EFEB"/>
<path d="M67.846 163.856L70.8316 165.093L70.5538 165.764L69.4358 165.301L66.4503 172.508L67.5683 172.972L67.2904 173.642L64.3047 172.406L64.5826 171.735L65.6874 172.192L68.6729 164.985L67.5681 164.527L67.846 163.856Z" fill="#F3EFEB"/>
<path d="M51.6978 164.83L52.7704 165.449L56.6712 158.693L55.6232 158.088L55.9862 157.459L58.7356 159.046L58.3726 159.675L57.3739 159.099L54.1138 164.745L54.1631 164.774L60.435 160.488L60.8665 160.737L60.3082 168.338L60.3575 168.367L63.6248 162.708L62.6138 162.124L62.9768 161.495L65.7138 163.075L65.3508 163.704L64.3029 163.099L60.4021 169.855L61.4747 170.475L61.1117 171.104L59.4103 170.121L60.0395 161.657L59.9902 161.628L53.0362 166.441L51.3348 165.459L51.6978 164.83Z" fill="#F3EFEB"/>
<path d="M51.7941 154.067L54.358 156.034L53.916 156.61L52.9559 155.873L48.2067 162.063L49.1667 162.799L48.7247 163.375L46.1609 161.408L46.6029 160.832L47.5516 161.56L52.3009 155.371L51.3521 154.643L51.7941 154.067Z" fill="#F3EFEB"/>
<path d="M38.2246 150.269L38.7883 150.752L37.53 152.413L39.3923 154.276L44.9088 148.759L43.731 147.581L44.2444 147.068L47.1537 149.977L46.6403 150.491L45.4826 149.333L39.9661 154.849L41.8285 156.712L43.4895 155.453L43.9626 156.007L41.8385 157.749L36.4931 152.403L38.2246 150.269Z" fill="#F3EFEB"/>
<path d="M38.047 139.444L42.1983 144.854L41.6223 145.296L40.8856 144.336L34.6963 149.086L35.4329 150.046L34.8569 150.488L30.7923 145.19L32.6745 143.387L33.1843 143.911L31.8103 145.324L34.2023 148.442L36.9468 146.336L34.2168 142.778L34.7929 142.336L37.5228 145.894L40.3916 143.692L37.913 140.462L36.1923 141.424L35.8155 140.816L38.047 139.444Z" fill="#F3EFEB"/>
<path d="M28.4542 132.529C29.6213 131.855 30.7918 131.662 31.9656 131.949C33.1264 132.232 34.0722 133.006 34.803 134.272L36.8744 137.86L36.2579 138.216L35.6529 137.168L28.8719 141.083L29.477 142.131L28.8605 142.487L26.8034 138.924C26.0583 137.633 25.8616 136.41 26.2131 135.253C26.5564 134.102 27.3035 133.194 28.4542 132.529ZM28.8884 133.281C27.8938 133.856 27.2462 134.613 26.9455 135.554C26.6401 136.486 26.8005 137.495 27.4269 138.58L28.4662 140.38L35.2472 136.465L34.2079 134.665C33.5815 133.58 32.7923 132.934 31.8401 132.728C30.8833 132.513 29.8994 132.698 28.8884 133.281Z" fill="#F3EFEB"/>
<path d="M21.5435 112.456C22.3869 112.23 23.2074 112.212 24.0048 112.401C24.8023 112.59 25.5027 112.967 26.1062 113.533C26.6981 114.091 27.1119 114.811 27.3477 115.691C27.5835 116.571 27.5848 117.401 27.3516 118.181C27.1068 118.954 26.6863 119.621 26.0903 120.184C25.4918 120.737 24.7709 121.127 23.9275 121.353C23.0749 121.582 22.2499 121.601 21.4524 121.412C20.6525 121.214 19.9567 120.835 19.3648 120.276C18.773 119.718 18.3616 119.008 18.1307 118.146C17.8949 117.266 17.8936 116.436 18.1268 115.656C18.36 114.876 18.7746 114.205 19.3706 113.643C19.9666 113.08 20.6909 112.684 21.5435 112.456ZM21.782 113.291C20.6728 113.588 19.8353 114.167 19.2696 115.026C18.6947 115.887 18.5534 116.863 18.8457 117.954C19.143 119.063 19.7592 119.842 20.6945 120.289C21.6182 120.729 22.6164 120.805 23.689 120.518C24.7524 120.233 25.5832 119.666 26.1813 118.818C26.777 117.961 26.925 116.973 26.6253 115.855C26.328 114.746 25.7176 113.971 24.7939 113.531C23.8678 113.081 22.8638 113.001 21.782 113.291Z" fill="#F3EFEB"/>
<path d="M18.5603 104.631L18.7434 105.368L16.8187 105.909L17.3278 109.776L21.1529 109.273L20.5843 104.954L21.3041 104.859L21.8727 109.178L25.0626 108.758L24.8452 107.107L25.565 107.012L26.0463 110.667L25.3265 110.762L25.1685 109.563L17.4337 110.581L17.5917 111.781L16.8718 111.875L16.0022 105.27L18.5603 104.631Z" fill="#F3EFEB"/>
<path d="M18.3659 94.3362L18.4513 95.0907L16.4724 95.3754V99.2762H20.3305V94.9199H21.0565V99.2762H24.2739L24.2739 97.6105H25V101.298H24.2739V100.088H16.4724V101.298H15.7464L15.7464 94.6351L18.3659 94.3362Z" fill="#F3EFEB"/>
<path d="M26.0088 85.6197L25.1188 92.3806L24.3989 92.2858L24.5569 91.0861L16.8221 90.0678L16.6641 91.2675L15.9443 91.1728L16.8158 84.553L19.4218 84.6089L19.4117 85.3399L17.4409 85.3676L16.928 89.2633L20.3578 89.7148L20.9432 85.2687L21.663 85.3635L21.0777 89.8096L24.6628 90.2816L25.1942 86.2448L23.2977 85.7079L23.4612 85.0115L26.0088 85.6197Z" fill="#F3EFEB"/>
<path d="M28.7408 74.5612L28.2987 76.2114L23.9352 77.1498L23.3714 79.2537L26.5067 80.0938L26.8457 78.8287L27.547 79.0166L26.6811 82.2482L25.9798 82.0603L26.293 80.8914L18.7573 78.8722L18.4441 80.0411L17.7428 79.8532L18.7634 76.0441C19.0607 74.9348 19.517 74.2219 20.1324 73.9053C20.7386 73.5863 21.381 73.5177 22.0593 73.6994C22.6277 73.8517 23.1015 74.1555 23.4806 74.6109C23.853 75.0545 24.0275 75.6319 24.004 76.3429L27.7337 75.5146L28.0395 74.3733L28.7408 74.5612ZM21.8658 74.5319C21.2515 74.3673 20.7499 74.4245 20.3607 74.7034C19.9624 74.9799 19.6576 75.5123 19.4463 76.3007L18.971 78.0746L22.7113 79.0769L23.1977 77.2617C23.409 76.4733 23.3904 75.864 23.1421 75.434C22.8871 74.9922 22.4617 74.6916 21.8658 74.5319Z" fill="#F3EFEB"/>
<path d="M48.5013 44.6756L43.8303 49.3465L43.3169 48.8331L44.1726 47.9774L38.6561 42.4609L37.8004 43.3166L37.287 42.8032L39.854 40.2362L40.3674 40.7496L39.2299 41.8871L44.7464 47.4036L47.4644 44.6856L46.1054 42.924L46.6691 42.4408L48.5013 44.6756Z" fill="#F3EFEB"/>
<path d="M54.5439 39.8236L51.9801 41.791L51.5381 41.2149L52.4981 40.4783L47.7488 34.2889L46.7888 35.0256L46.3468 34.4496L48.9107 32.4822L49.3527 33.0583L48.4039 33.7863L53.1532 39.9756L54.1019 39.2476L54.5439 39.8236Z" fill="#F3EFEB"/>
<path d="M61.7746 25.3523L60.702 25.9716L64.6028 32.7279L65.6507 32.1229L66.0138 32.7517L63.2644 34.339L62.9014 33.7102L63.9 33.1337L60.6399 27.487L60.5906 27.5154L61.1664 35.09L60.7349 35.3391L54.4313 31.0551L54.3819 31.0836L57.6492 36.7426L58.6602 36.1589L59.0232 36.7877L56.2862 38.3679L55.9231 37.7391L56.9711 37.1341L53.0703 30.3778L51.9977 30.9971L51.6347 30.3683L53.3361 29.386L60.3518 34.1631L60.4011 34.1346L59.7102 25.7059L61.4116 24.7236L61.7746 25.3523Z" fill="#F3EFEB"/>
<path d="M71.0475 30.8176L68.0618 32.0543L67.784 31.3835L68.902 30.9204L65.9165 23.7128L64.7985 24.1759L64.5206 23.5051L67.5063 22.2684L67.7841 22.9392L66.6793 23.3968L69.6648 30.6045L70.7697 30.1468L71.0475 30.8176Z" fill="#F3EFEB"/>
<path d="M81.1215 20.9646L80.4212 21.2112L79.6119 19.291L77.0679 19.9726L79.0871 27.5083L80.696 27.0772L80.8839 27.7785L76.9098 28.8434L76.7218 28.1421L78.3032 27.7183L76.2841 20.1826L73.7401 20.8643L73.9993 22.9319L73.2833 23.0648L72.8371 20.3546L80.139 18.398L81.1215 20.9646Z" fill="#F3EFEB"/>
<path d="M90.5848 26.2231L83.8239 27.1132L83.7291 26.3934L84.9288 26.2354L83.9105 18.5007L82.7108 18.6586L82.616 17.9388L89.2358 17.0673L89.8563 19.5989L89.1476 19.7784L88.6107 17.8819L84.7151 18.3947L85.1666 21.8246L89.6127 21.2392L89.7075 21.9591L85.2614 22.5444L85.7334 26.1295L89.7701 25.5981L89.7979 23.6272L90.5129 23.6049L90.5848 26.2231Z" fill="#F3EFEB"/>
<path d="M101.369 21.3732C101.369 22.7209 100.952 23.8313 100.117 24.7045C99.2909 25.5682 98.1473 26 96.6857 26H92.5429V25.2882H93.753V17.4582H92.5429V16.7464H96.6572C98.1473 16.7464 99.3052 17.1877 100.131 18.0703C100.957 18.9435 101.369 20.0445 101.369 21.3732ZM100.501 21.3732C100.501 20.2248 100.169 19.2852 99.5045 18.5544C98.8496 17.8236 97.8958 17.4582 96.643 17.4582H94.5645V25.2882L96.643 25.2882C97.8958 25.2882 98.8496 24.9275 99.5045 24.2062C100.169 23.4849 100.501 22.5406 100.501 21.3732Z" fill="#F3EFEB"/>
<path d="M122.209 25.425C121.983 26.2684 121.589 26.9881 121.026 27.5841C120.464 28.1802 119.787 28.5981 118.995 28.8381C118.216 29.0713 117.386 29.07 116.506 28.8342C115.626 28.5984 114.906 28.1845 114.347 27.5927C113.8 26.9941 113.432 26.2961 113.243 25.4986C113.063 24.7037 113.086 23.8845 113.312 23.041C113.54 22.1885 113.936 21.4642 114.499 20.8681C115.07 20.2746 115.746 19.8612 116.526 19.628C117.306 19.3948 118.126 19.3936 118.988 19.6245C119.868 19.8603 120.588 20.2742 121.146 20.866C121.705 21.4579 122.079 22.1525 122.268 22.95C122.457 23.7474 122.438 24.5724 122.209 25.425ZM121.367 25.214C121.664 24.1047 121.582 23.0904 121.121 22.1709C120.662 21.2423 119.887 20.6319 118.796 20.3396C117.687 20.0423 116.705 20.187 115.85 20.7735C115.007 21.3533 114.442 22.1795 114.155 23.2521C113.87 24.3155 113.945 25.3182 114.38 26.2602C114.825 27.2047 115.606 27.8268 116.725 28.1265C117.834 28.4237 118.81 28.2824 119.653 27.7026C120.506 27.1253 121.077 26.2958 121.367 25.214Z" fill="#F3EFEB"/>
<path d="M130.477 26.7539L129.747 26.544L130.242 24.6069L126.638 23.1141L125.161 26.6785L129.186 28.3456L128.908 29.0164L124.884 27.3493L123.652 30.3218L125.191 30.9592L124.913 31.63L121.507 30.2189L121.785 29.5481L122.903 30.0112L125.888 22.8036L124.77 22.3405L125.048 21.6697L131.203 24.2194L130.477 26.7539Z" fill="#F3EFEB"/>
<path d="M139.49 31.7327L138.794 31.4294L139.537 29.5733L136.159 27.6229L134.23 30.9641L138.002 33.1423L137.639 33.7711L133.867 31.5929L132.258 34.3793L133.701 35.2121L133.338 35.8409L130.144 33.9973L130.507 33.3685L131.555 33.9735L135.456 27.2172L134.408 26.6122L134.771 25.9834L140.541 29.3147L139.49 31.7327Z" fill="#F3EFEB"/>
<path d="M143.218 42.7098L137.808 38.5585L138.25 37.9825L139.21 38.7191L143.959 32.5298L142.999 31.7931L143.441 31.2171L148.738 35.2817L147.387 37.5106L146.759 37.1364L147.72 35.4157L144.603 33.0237L142.497 35.7683L146.055 38.4983L145.613 39.0743L142.055 36.3443L139.854 39.2131L143.084 41.6917L144.497 40.3177L145.019 40.8075L143.218 42.7098Z" fill="#F3EFEB"/>
<path d="M151.428 50.6049L150.22 49.3969L151.589 45.1488L150.049 43.6086L147.754 45.9038L148.68 46.83L148.167 47.3434L145.801 44.9777L146.315 44.4643L147.17 45.32L152.687 39.8034L151.831 38.9478L152.344 38.4344L155.133 41.2228C155.945 42.0349 156.334 42.7865 156.301 43.4778C156.274 44.1623 156.012 44.7529 155.515 45.2495C155.099 45.6656 154.599 45.924 154.015 46.0246C153.445 46.1253 152.858 45.9877 152.254 45.6119L151.106 49.256L151.942 50.0915L151.428 50.6049ZM154.891 44.6656C155.341 44.216 155.542 43.7529 155.495 43.2764C155.455 42.7932 155.146 42.2631 154.569 41.6859L153.271 40.3873L150.532 43.1254L151.861 44.4542C152.438 45.0314 152.975 45.32 153.472 45.32C153.982 45.32 154.455 45.1018 154.891 44.6656Z" fill="#F3EFEB"/>
<path d="M167.43 82.6609L165.721 76.2803L166.422 76.0924L166.735 77.2613L174.271 75.2421L173.958 74.0732L174.659 73.8853L175.598 77.3919L174.897 77.5798L174.481 76.0259L166.945 78.0451L167.94 81.7579L170.145 81.4618L170.282 82.1916L167.43 82.6609Z" fill="#F3EFEB"/>
<path d="M168.61 90.32L168.188 87.116L168.908 87.0212L169.066 88.221L176.801 87.2027L176.643 86.0029L177.363 85.9082L177.785 89.1122L177.065 89.2069L176.909 88.0213L169.174 89.0396L169.33 90.2252L168.61 90.32Z" fill="#F3EFEB"/>
<path d="M177.528 103.818V102.579H169.726V103.789H169V100.615H169.726V101.768H176.246V101.711L169.399 98.4223V97.924L176.261 94.607V94.55H169.726V95.7174H169V92.5569H169.726V93.767H177.528V92.5285H178.254V94.4931L170.609 98.1803V98.2372L178.254 101.853V103.818H177.528Z" fill="#F3EFEB"/>
<path d="M168.157 109.116L168.579 105.912L169.299 106.006L169.141 107.206L176.876 108.224L177.034 107.025L177.754 107.119L177.332 110.323L176.612 110.229L176.768 109.043L169.033 108.025L168.877 109.21L168.157 109.116Z" fill="#F3EFEB"/>
<path d="M171.654 122.766L171.791 122.037L173.858 122.296L174.54 119.752L167.004 117.733L166.573 119.342L165.872 119.154L166.937 115.18L167.638 115.368L167.214 116.949L174.75 118.968L175.431 116.424L173.511 115.615L173.754 114.928L176.324 115.897L174.368 123.199L171.654 122.766Z" fill="#F3EFEB"/>
<path d="M162.368 128.333L164.978 122.032L165.649 122.31L165.186 123.428L172.393 126.414L172.856 125.296L173.527 125.574L170.972 131.742L168.469 131.014L168.668 130.31L170.579 130.794L172.083 127.163L168.887 125.84L167.17 129.983L166.5 129.705L168.216 125.562L164.875 124.178L163.317 127.94L165.01 128.949L164.672 129.579L162.368 128.333Z" fill="#F3EFEB"/>
<path d="M161.176 140.098C160.009 139.424 159.256 138.507 158.918 137.347C158.583 136.2 158.78 134.994 159.511 133.728L161.583 130.14L162.199 130.496L161.594 131.544L168.375 135.459L168.98 134.411L169.596 134.767L167.539 138.33C166.794 139.62 165.833 140.403 164.656 140.676C163.487 140.955 162.327 140.762 161.176 140.098ZM161.61 139.345C162.605 139.92 163.585 140.102 164.55 139.892C165.51 139.69 166.304 139.047 166.93 137.962L167.969 136.162L161.188 132.247L160.149 134.047C159.523 135.132 159.358 136.138 159.655 137.066C159.948 138.002 160.599 138.762 161.61 139.345Z" fill="#F3EFEB"/>
<path d="M147.247 156.119C146.63 155.502 146.204 154.801 145.969 154.015C145.734 153.23 145.71 152.435 145.898 151.63C146.086 150.838 146.502 150.12 147.147 149.475C147.791 148.831 148.509 148.415 149.301 148.227C150.093 148.053 150.881 148.083 151.666 148.318C152.445 148.559 153.143 148.989 153.76 149.606C154.384 150.23 154.814 150.935 155.049 151.72C155.277 152.512 155.297 153.304 155.109 154.096C154.921 154.888 154.512 155.599 153.881 156.23C153.237 156.874 152.519 157.29 151.727 157.478C150.935 157.666 150.146 157.643 149.361 157.408C148.576 157.173 147.871 156.743 147.247 156.119ZM147.851 155.495C148.663 156.307 149.583 156.743 150.609 156.804C151.643 156.871 152.559 156.505 153.358 155.707C154.17 154.894 154.535 153.972 154.455 152.938C154.374 151.918 153.942 151.015 153.156 150.23C152.378 149.452 151.472 149.016 150.438 148.922C149.398 148.834 148.469 149.2 147.65 150.019C146.838 150.831 146.472 151.747 146.553 152.767C146.626 153.794 147.059 154.703 147.851 155.495Z" fill="#F3EFEB"/>
<path d="M141.962 162.615L142.509 162.088L143.94 163.485L147.034 161.11L144.686 158.049L141.23 160.701L140.788 160.125L144.244 157.473L142.285 154.921L140.964 155.935L140.522 155.359L143.447 153.114L143.889 153.69L142.929 154.427L147.678 160.616L148.638 159.879L149.08 160.455L143.794 164.511L141.962 162.615Z" fill="#F3EFEB"/>
<path d="M133.144 167.931L133.755 167.48L134.991 169.051L138.369 167.101L136.44 163.759L132.667 165.938L132.304 165.309L136.077 163.131L134.468 160.344L133.026 161.177L132.662 160.548L135.856 158.705L136.219 159.334L135.171 159.939L139.072 166.695L140.12 166.09L140.483 166.719L134.713 170.05L133.144 167.931Z" fill="#F3EFEB"/>
<path d="M121.774 165.67L128.074 163.061L128.352 163.731L127.234 164.195L130.22 171.402L131.338 170.939L131.616 171.61L125.447 174.165L124.192 171.88L124.83 171.523L125.84 173.216L129.47 171.713L128.146 168.517L124.003 170.233L123.725 169.562L127.868 167.846L126.484 164.505L122.723 166.063L123.206 167.974L122.521 168.181L121.774 165.67Z" fill="#F3EFEB"/>
<path d="M110.831 168.834L112.481 168.392L115.475 171.701L117.579 171.138L116.739 168.002L115.474 168.341L115.286 167.64L118.518 166.774L118.706 167.475L117.537 167.789L119.556 175.324L120.725 175.011L120.913 175.712L117.104 176.733C115.994 177.03 115.149 176.992 114.567 176.617C113.988 176.251 113.607 175.729 113.425 175.051C113.273 174.483 113.299 173.92 113.504 173.365C113.702 172.82 114.115 172.38 114.742 172.045L112.16 169.229L111.019 169.535L110.831 168.834ZM114.243 174.802C114.408 175.417 114.708 175.823 115.144 176.02C115.583 176.227 116.196 176.225 116.985 176.013L118.758 175.538L117.756 171.798L115.941 172.284C115.153 172.495 114.634 172.816 114.386 173.246C114.131 173.688 114.083 174.207 114.243 174.802Z" fill="#F3EFEB"/>
<rect x="61.4027" y="93.4361" width="70.2819" height="8.67114" rx="4.33557" fill="#FFD168" stroke="#FFD168" stroke-width="3.19463"/>
<rect x="101.564" y="62.4027" width="71.1946" height="8.67114" rx="4.33557" transform="rotate(90 101.564 62.4027)" fill="#FFD168" stroke="#FFD168" stroke-width="3.19463"/>
<rect x="74.2671" y="68.7772" width="73.4765" height="8.53249" rx="4.26625" transform="rotate(45 74.2671 68.7772)" fill="#FFD168" stroke="#FFD168" stroke-width="3.19463"/>
<rect x="68.2799" y="120.779" width="73.4765" height="8.53249" rx="4.26625" transform="rotate(-45 68.2799 120.779)" fill="#FFD168" stroke="#FFD168" stroke-width="3.19463"/>
</svg>
