<svg width="156" height="189" viewBox="0 0 156 189" fill="none" xmlns="http://www.w3.org/2000/svg">
<path d="M155.993 67.6638C155.993 105.034 121.073 135.328 77.9967 135.328C34.9203 135.328 0 105.034 0 67.6638C0 30.2941 34.9203 0 77.9967 0C121.073 0 155.993 30.2941 155.993 67.6638Z" fill="white"/>
<path d="M0 67.2171C0 58.7025 7.95653 51.8 17.7714 51.8H138.229C148.043 51.8 156 58.7025 156 67.2171V173.583C156 182.098 148.043 189 138.229 189H17.7714C7.95653 189 0 182.098 0 173.583V67.2171Z" fill="white"/>
<path d="M25.366 49.467H128.754M25.366 64.6885H128.754M25.366 79.91H128.754M25.366 95.1314H128.754M25.366 110.353H128.754M25.366 125.574H128.754M25.366 140.796H128.754M25.366 156.017H128.754M31.7074 165.002H123.003C126.505 165.002 129.344 162.163 129.344 158.66V43.1274C129.344 39.6247 126.505 36.7852 123.003 36.7852H31.7074C28.2051 36.7852 25.366 39.6247 25.366 43.1274V158.66C25.366 162.163 28.2051 165.002 31.7074 165.002Z" stroke="#1E1E1E" stroke-dasharray="6 6"/>
<path d="M41.1604 60.8287H114.141C117.091 60.8287 119.482 63.2202 119.483 66.1705V168.705C119.483 171.655 117.091 174.047 114.141 174.047H41.1604C38.2106 174.047 35.8187 171.655 35.8186 168.705V66.1715L35.8254 65.8961C35.9685 63.0733 38.3027 60.8287 41.1604 60.8287Z" fill="#1E1E1E" stroke="#1E1E1E" stroke-width="2"/>
<path d="M47.4419 79.1104H106.418M47.4419 94.3318H84.8565M47.4419 109.553H106.418M47.4419 124.775H97.5395M47.4419 139.996H73.4419M47.4419 155.218H101.978" stroke="white" stroke-width="6" stroke-linecap="round"/>
<path d="M69.5936 48L85.989 32M85.3866 48L68.9912 32" stroke="#1E1E1E" stroke-width="6" stroke-linecap="round"/>
</svg>
