<svg width="246" height="298" viewBox="0 0 246 298" fill="none" xmlns="http://www.w3.org/2000/svg">
<path d="M245.99 106.687C245.99 165.608 190.923 213.374 122.995 213.374C55.0667 213.374 0 165.608 0 106.687C0 47.7653 55.0667 0 122.995 0C190.923 0 245.99 47.7653 245.99 106.687Z" fill="white"/>
<path d="M0 105.982C0 92.5573 12.5468 81.6741 28.0241 81.6741H217.976C233.453 81.6741 246 92.5573 246 105.982V273.692C246 287.117 233.453 298 217.976 298H28.0241C12.5468 298 0 287.117 0 273.692V105.982Z" fill="white"/>
<path d="M40 77.9957H203.034M40 101.996H203.034M40 125.996H203.034M40 149.996H203.034M40 173.996H203.034M40 197.996H203.034M40 221.996H203.034M40 245.996H203.034M50 260.162H193.966C199.489 260.162 203.966 255.685 203.966 250.162V68C203.966 62.4772 199.489 58 193.966 58H50C44.4772 58 40 62.4771 40 68V250.162C40 255.685 44.4771 260.162 50 260.162Z" stroke="black" stroke-dasharray="6 6"/>
<path d="M64.906 95.3333H179.992C184.962 95.3336 188.992 99.3629 188.992 104.333V266C188.992 270.971 184.962 275 179.992 275H64.906C59.9356 275 55.9062 270.971 55.906 266V104.333L55.9177 103.87C56.1587 99.115 60.0907 95.3333 64.906 95.3333Z" fill="#F2A7BE" stroke="#1E1E1E" stroke-width="2"/>
<path d="M74.812 124.735H167.812M74.812 148.735H133.812M74.812 172.735H167.812M74.812 196.735H153.812M74.812 220.735H115.812M74.812 244.735H160.812" stroke="white" stroke-width="10" stroke-linecap="round"/>
<path d="M148.091 113L205 58M202.909 113L146 58" stroke="#DC4240" stroke-width="14" stroke-linecap="round"/>
</svg>
