<svg width="32" height="33" viewBox="0 0 32 33" fill="none" xmlns="http://www.w3.org/2000/svg">
<path d="M21.6378 22.8956L21.7218 22.9044C21.6919 22.9044 21.6629 22.9005 21.6349 22.8947C21.6359 22.8949 21.6368 22.8954 21.6378 22.8956ZM10.1886 22.462C10.19 22.4931 10.1878 22.5234 10.1827 22.5529V28.5607C10.1827 30.6797 8.46482 32.3974 6.34583 32.3976H4.25696C2.13778 32.3976 0.419151 30.6798 0.419067 28.5607V4.25696C0.419067 2.13773 2.13773 0.419067 4.25696 0.419067H27.421C29.5403 0.419067 31.2589 2.13772 31.2589 4.25696V28.5607C31.2588 30.6798 29.5402 32.3976 27.421 32.3976H25.1427C23.0236 32.3975 21.3059 30.6798 21.3058 28.5607V22.5529C21.3008 22.5234 21.2985 22.4931 21.2999 22.462L21.3058 22.1993C21.3055 19.128 18.8156 16.6379 15.7443 16.6378C12.6729 16.6378 10.183 19.128 10.1827 22.1993C10.1827 22.2872 10.1846 22.3752 10.1886 22.462Z" fill="#F2A7BE" stroke="#1E1E1E" stroke-width="0.838976"/>
</svg>
