<svg width="388" height="439" viewBox="0 0 388 439" fill="none" xmlns="http://www.w3.org/2000/svg">
<mask id="path-1-inside-1_83_1187" fill="white">
<path d="M194 0C301.143 0 388 94.6783 388 211.47C388 211.978 387.997 212.485 387.994 212.992C387.997 213.13 388 213.269 388 213.408V421C388 430.941 379.941 439 370 439H18C8.05894 439 8.02376e-05 430.941 3.05176e-05 421V213.408C3.24488e-05 213.269 0.00177506 213.13 0.00491333 212.992C0.00163299 212.485 3.09783e-05 211.978 3.05176e-05 211.47C3.05176e-05 94.6783 86.8568 0 194 0Z"/>
</mask>
<path d="M194 0C301.143 0 388 94.6783 388 211.47C388 211.978 387.997 212.485 387.994 212.992C387.997 213.13 388 213.269 388 213.408V421C388 430.941 379.941 439 370 439H18C8.05894 439 8.02376e-05 430.941 3.05176e-05 421V213.408C3.24488e-05 213.269 0.00177506 213.13 0.00491333 212.992C0.00163299 212.485 3.09783e-05 211.978 3.05176e-05 211.47C3.05176e-05 94.6783 86.8568 0 194 0Z" fill="white"/>
<path d="M388 211.47H390V211.47H388ZM387.994 212.992L385.994 212.979L385.994 213.008L385.995 213.038L387.994 212.992ZM388 213.408H390V213.408L388 213.408ZM388 421H390V421H388ZM3.05176e-05 421H-1.99997V421H3.05176e-05ZM3.05176e-05 213.408L-1.99997 213.408V213.408H3.05176e-05ZM0.00491333 212.992L2.0044 213.038L2.00506 213.008L2.00487 212.979L0.00491333 212.992ZM3.05176e-05 211.47H-1.99997V211.47H3.05176e-05ZM194 0V2C299.88 2 386 95.6171 386 211.47H388H390C390 93.7396 302.407 -2 194 -2V0ZM388 211.47H386C386 211.971 385.997 212.474 385.994 212.979L387.994 212.992L389.994 213.005C389.997 212.497 390 211.984 390 211.47H388ZM387.994 212.992L385.995 213.038C385.998 213.174 386 213.293 386 213.408L388 213.408L390 213.408C390 213.245 389.997 213.087 389.994 212.947L387.994 212.992ZM388 213.408H386V421H388H390V213.408H388ZM388 421H386C386 429.837 378.837 437 370 437V439V441C381.046 441 390 432.046 390 421H388ZM370 439V437H18V439V441H370V439ZM18 439V437C9.16352 437 2.00007 429.837 2.00003 421H3.05176e-05H-1.99997C-1.99991 432.046 6.95436 441 18 441V439ZM3.05176e-05 421H2.00003V213.408H3.05176e-05H-1.99997V421H3.05176e-05ZM3.05176e-05 213.408L2.00003 213.408C2.00003 213.286 2.00157 213.162 2.0044 213.038L0.00491333 212.992L-1.99457 212.947C-1.99802 213.099 -1.99997 213.252 -1.99997 213.408L3.05176e-05 213.408ZM0.00491333 212.992L2.00487 212.979C2.00162 212.477 2.00003 211.973 2.00003 211.47H3.05176e-05H-1.99997C-1.99997 211.982 -1.99835 212.494 -1.99504 213.005L0.00491333 212.992ZM3.05176e-05 211.47H2.00003C2.00003 95.6171 88.1202 2 194 2V0V-2C85.5934 -2 -1.99997 93.7396 -1.99997 211.47H3.05176e-05Z" fill="#1E1E1E" mask="url(#path-1-inside-1_83_1187)"/>
<path d="M334 197C339 200.5 334.77 204.552 327.508 217.104C322.062 230.158 321.608 240.199 323.877 257.772C326.782 270.625 325.239 285.386 320.247 296.432C313.893 308.481 306.328 311.494 303 313" stroke="#FFD168" stroke-width="10" stroke-linecap="round"/>
<path fill-rule="evenodd" clip-rule="evenodd" d="M202.564 154.303C193.718 157.462 188.202 161.293 183.668 167.428C181.406 170.487 178.259 172.607 175.981 172.607C169.789 172.607 166.692 174.428 163.989 179.654C158.432 190.402 162.759 201.547 174.661 207.143C178.671 209.028 182.455 212.156 183.071 214.095C186.15 223.801 201.234 234.906 211.336 234.906C215.8 234.906 216.486 235.631 217.407 241.303C217.978 244.823 218.069 248.079 217.611 248.537C217.152 248.997 210.168 249.719 202.093 250.143C194.017 250.567 187.41 251.595 187.41 252.427C187.41 253.26 183.489 253.941 178.699 253.941C169.218 253.941 163.368 256.825 158.849 263.724C156.178 267.803 156.197 268.222 159.162 270.47C162.019 272.636 161.626 272.872 155.091 272.922C148.887 272.969 147.78 272.423 147.306 269.084C146.755 265.216 146.527 265.186 112.919 264.723L79.0886 264.254L68.0989 234.953C62.0555 218.836 56.2579 205.338 55.2181 204.957C52.0156 203.788 49 205.625 49 208.747C49 210.381 53.6714 224.362 59.3808 239.812C65.0902 255.264 69.7615 269.047 69.7615 270.442C69.7615 272.195 67.8584 272.977 63.5971 272.977C57.6835 272.977 57.4534 273.207 57.9742 278.601C58.3894 282.912 59.424 284.355 62.4085 284.779L66.3013 285.331V333.667V382H71.4916H76.682V333.807V285.612L126.838 284.374C154.425 283.693 177.782 283.622 178.742 284.215C179.839 284.894 180.489 300.64 180.489 326.526V367.758L176.164 370.592C171.413 373.707 170.41 379.351 174.339 380.858C175.714 381.386 187.694 381.355 200.962 380.787L225.087 379.754L226 373.522C229.559 349.241 232.518 330.368 233.286 327.056C234.397 322.271 237.584 321.896 237.584 326.551C237.584 329.579 239.006 329.993 250.992 330.444L264.4 330.95V345.086C264.4 352.861 263.852 359.768 263.182 360.436C262.513 361.104 258.29 362.338 253.798 363.177C244.272 364.956 239.314 368.805 239.314 374.42C239.314 378.868 244.544 382.54 248.637 380.969C252.828 379.361 253.835 373.507 250.547 369.873C247.758 366.79 247.9 366.595 253.701 365.506C257.04 364.878 261.399 364.882 263.385 365.512C266.89 366.624 266.996 366.124 266.996 348.371C266.996 331.239 267.214 330.084 270.456 330.084C273.683 330.084 273.916 331.239 273.916 347.166V364.248L282.759 365.422C291.278 366.552 291.492 366.714 288.657 369.847C285.081 373.801 286.485 379.633 291.389 381.188C298.852 383.559 302.953 373.216 296.769 367.618C295.065 366.076 289.615 363.944 284.658 362.879L275.646 360.947V345.515V330.084H289.487H303.328V324.46C303.328 320.104 304.697 317.744 309.397 313.992C317.136 307.816 324.129 294.046 325.302 282.675C325.851 277.368 325.001 267.917 323.185 259.117C317.51 231.628 319.737 218.956 331.874 209.697C339.086 204.194 340.088 197.525 334.038 195.275C329.13 193.451 326.211 194.46 320.038 200.117C308.14 211.019 304.067 230.82 309.212 252.751C313.06 269.146 312.825 285.3 308.621 293.544C303.406 303.768 286.541 317.163 290.394 308.02C292.863 302.161 293.302 287.346 291.293 277.672C287.21 257.996 269.989 232.665 253.963 222.758C248.136 219.155 248.122 219.117 250.8 213.612C252.463 210.194 256.234 206.761 260.675 204.622C269.079 200.574 274.932 190.734 273.153 183.644C271.437 176.807 264.501 170.877 258.22 170.877C254.162 170.877 250.995 169.125 245.968 164.096C234.879 153.004 217.308 149.039 202.564 154.303ZM207.848 172.654L213.578 176.149L218.028 172.647C227.094 165.515 242.71 169.714 246.175 180.216C247.741 184.961 247.611 187.406 245.532 192.383C244.101 195.81 241.731 199.074 240.265 199.636C238.222 200.42 237.852 202.225 238.673 207.371C242.187 229.347 206.315 238.59 194.261 218.814C192.403 215.768 190.881 211.101 190.877 208.446C190.874 205.79 189.239 201.41 187.246 198.712C180.765 189.945 183.033 175.272 191.502 171.169C197.163 168.428 201.573 168.828 207.848 172.654ZM264.833 180.01C268.24 182.648 267.447 192.922 263.535 196.834C261.632 198.738 259.49 200.295 258.778 200.294C258.065 200.294 257.388 194.907 257.277 188.324C257.068 175.909 258.087 174.789 264.833 180.01ZM176.197 189.045C176.174 196.583 175.484 200.292 174.1 200.294C171.136 200.297 166.648 193.29 166.648 188.661C166.648 184.918 172.057 177.799 174.899 177.799C175.631 177.799 176.216 182.859 176.197 189.045ZM193.23 189.035C192.631 190.598 192.971 192.705 193.984 193.719C196.621 196.357 201.614 193.946 200.926 190.371C200.159 186.387 194.616 185.425 193.23 189.035ZM335.64 199.6C336.355 201.46 334.356 204.435 329.536 208.685C317.086 219.669 314.941 229.775 320.008 253.582C325.633 280.014 322.571 297.436 310.019 310.412C305.356 315.231 304.243 315.633 299.986 314.025L295.198 312.217L301.095 307.037C314.598 295.18 317.226 282.744 311.967 255.608C307.818 234.205 308.126 225.447 313.443 213.549C319.46 200.089 332.649 191.802 335.64 199.6ZM215.033 200.719C213.9 201.04 213.282 203.756 215.957 203.756C217.384 203.756 218.552 203.024 218.552 202.128C217.867 200.719 215.957 200.458 215.033 200.719ZM205.576 202.026C206.164 202.978 207.377 203.756 208.273 203.756C209.17 203.756 209.902 202.978 209.902 202.026C209.902 201.074 208.687 200.295 207.204 200.295C205.722 200.295 204.988 201.074 205.576 202.026ZM67.2009 238.46C74.9242 259.05 78.336 270.285 77.208 271.413C76.0799 272.541 74.9104 272.361 73.7771 270.887C72.1041 268.71 50.7302 210.763 50.7302 208.403C50.7302 207.75 51.7994 207.217 53.1073 207.217C54.6022 207.217 59.8306 218.805 67.2009 238.46ZM220.566 211.935C216.5 215.377 215.5 215 209.753 215.377C205.914 214.863 203.4 215.147 203.948 216.034C205.824 219.072 218.402 217.751 222.012 214.14C223.916 212.236 225.473 209.9 225.473 208.948C225.473 206.71 225.345 206.788 220.566 211.935ZM106.203 222.59C105.015 224.812 105.29 226.803 107.153 229.465C109.887 233.369 108.997 240.097 105.75 240.097C104.736 240.097 101.264 238.462 98.0317 236.465C93.3068 233.544 91.6562 233.246 89.6095 234.946C86.715 237.349 86.1908 244.545 88.7929 246.154C91.5749 247.874 90.7842 251.889 87.4953 252.749C85.1579 253.36 85.3309 253.585 88.2583 253.741C93.6926 254.028 94.6355 251.254 91.1251 245.31C88.7462 241.283 88.5282 239.67 90.1424 238.055C91.7566 236.441 93.8206 236.88 99.421 240.028C106.359 243.929 106.712 243.96 108.956 240.892C111.691 237.15 112.027 230.377 109.554 228.849C106.757 227.12 107.57 223.097 110.852 222.436C113.715 221.858 113.717 221.761 110.878 220.643C108.893 219.861 107.31 220.52 106.203 222.59ZM257.08 227.994C273.499 239.755 289.349 267.433 290.129 285.709C290.332 290.431 289.716 291.051 283.517 292.375C279.755 293.178 265.741 293.619 252.374 293.356L228.068 292.878L227.545 283.793C227.061 275.384 227.31 274.708 230.891 274.708C233.019 274.708 237.985 273.147 241.926 271.238C249.843 267.405 264.219 255.779 262.798 254.359C262.302 253.862 258.809 256.247 255.034 259.657C251.258 263.068 245.594 267.197 242.445 268.833C235.642 272.363 216.441 273.896 200.452 272.183L188.969 270.952L189.488 262.014L190.005 253.076L211.632 251.829C235.955 250.425 239.047 249.494 244.409 241.963C249.661 234.582 245.982 235.236 240.296 242.693C236.237 248.016 234.744 248.75 227.98 248.75C220.58 248.75 220.282 248.549 220.282 243.558C220.282 240.703 220.087 237.865 219.85 237.251C219.613 236.636 222.945 235.105 227.256 233.847C231.566 232.59 237.357 229.199 240.123 226.312C242.888 223.424 245.658 221.062 246.276 221.062C246.895 221.062 251.757 224.182 257.08 227.994ZM80.317 225.333C77.0817 226.502 75.1439 227.897 76.009 228.432C77.6647 229.456 88.7929 225.372 88.7929 223.74C88.7929 222.505 87.4226 222.763 80.317 225.333ZM108.483 251.346C108.835 252.298 110.193 252.782 111.501 252.424C112.809 252.064 115.987 251.74 118.561 251.702C121.136 251.664 122.856 251.005 122.38 250.236C121.131 248.215 107.722 249.285 108.483 251.346ZM187.081 263.027C187.657 269.971 186.789 270.511 179.495 267.737C175.856 266.353 174.166 266.545 171.892 268.602C167.465 272.609 166.225 271.771 169.403 266.92C172.83 261.687 169.944 260.966 163.141 265.353C160.678 266.939 161.648 265.43 165.43 261.795C171.176 256.271 172.906 255.547 179.271 256.009C186.318 256.52 186.562 256.74 187.081 263.027ZM143.889 268.485C149.321 271.844 141.531 272.977 113.015 272.977C83.2599 272.977 78.3014 272.166 81.035 267.741C82.2859 265.716 140.525 266.406 143.889 268.485ZM183.085 271.247C185.765 272.399 184.887 272.761 179.192 272.856C175.147 272.922 171.839 272.198 171.839 271.247C171.839 269.174 178.259 269.174 183.085 271.247ZM196.061 278.169C196.061 281.571 194.907 281.63 127.721 281.63C71.9242 281.63 59.3808 281.206 59.3808 279.323C59.3808 278.053 59.8998 276.495 60.5348 275.862C61.168 275.227 91.9209 274.708 128.875 274.708C194.907 274.708 196.061 274.767 196.061 278.169ZM224.075 278.646C224.815 279.811 225.431 282.744 225.447 285.162C225.471 289.189 224.448 289.801 213.353 292.406C206.689 293.97 198.978 296.858 196.218 298.823C193.458 300.788 190.932 302.396 190.604 302.398C190.275 302.398 190.275 298.504 190.605 293.745C191.1 286.602 191.778 285.091 194.498 285.091C197.036 285.091 197.791 283.845 197.791 279.65V274.211L210.26 275.371C217.118 276.007 223.334 277.482 224.075 278.646ZM187.41 332.104C187.41 373.764 187.059 380.269 184.815 380.269C182.571 380.269 182.22 373.764 182.22 332.104C182.22 290.443 182.571 283.937 184.815 283.937C187.059 283.937 187.41 290.443 187.41 332.104ZM74.9519 332.68C74.9519 379.115 74.8688 380.269 71.4916 380.269C68.1144 380.269 68.0314 379.115 68.0314 332.68C68.0314 286.245 68.1144 285.091 71.4916 285.091C74.8688 285.091 74.9519 286.245 74.9519 332.68ZM223.736 293.311C223.732 294.026 220.14 296.085 215.753 297.89C203.491 302.934 201.336 309.216 201.289 340.035L201.251 364.695H196.061H190.87V335.43V306.165L196.138 301.73C201.007 297.634 207.685 295.1 218.552 293.23C220.931 292.819 223.073 292.378 223.31 292.248C223.547 292.118 223.739 292.596 223.736 293.311ZM290.134 299.368C287.51 314.16 277.849 319.552 251.469 320.944C240.912 321.501 231.971 322.444 231.602 323.041C231.234 323.638 230.087 330.723 229.052 338.785C225.397 367.27 226.769 364.695 215.249 364.695H205.182L204.081 356.665C203.476 352.251 202.981 341.753 202.981 333.34C202.981 313.556 205.85 306.096 215.602 300.508C222.327 296.654 225.232 296.267 254.02 295.381C271.148 294.854 286.504 294.27 288.146 294.083C290.603 293.804 290.954 294.737 290.134 299.368ZM297.705 315.6C300.769 316.422 301.598 317.889 301.598 322.5V328.354H271.321C246.933 328.354 241.044 327.895 241.044 325.999C241.044 324.253 245.035 323.415 256.437 322.764C267.082 322.157 273.887 320.817 278.496 318.424C285.572 314.749 291.354 313.899 297.705 315.6ZM199.521 367.092C199.521 367.458 197.574 369.033 195.195 370.592C191.073 373.294 190.87 373.263 190.87 369.926C190.87 367.346 192.007 366.425 195.195 366.425C197.574 366.425 199.521 366.725 199.521 367.092ZM223.419 372.915L223.962 378.539H208.28C199.372 378.539 192.6 377.819 192.6 376.871C192.6 375.954 195.521 373.204 199.088 370.76C204.301 367.192 207.275 366.415 214.227 366.804C222.606 367.275 222.895 367.467 223.419 372.915ZM264.769 369.23C262.226 371.773 263.637 378.471 267.106 380.328C271.9 382.895 275.996 379.479 275.302 373.496C274.914 370.165 273.658 368.89 270.392 368.509C267.977 368.227 265.445 368.552 264.769 369.23ZM249.694 374.213C249.694 377.341 248.765 378.539 246.336 378.539C244.488 378.539 242.475 377.722 241.857 376.725C240.004 373.726 242.431 369.886 246.18 369.886C248.776 369.886 249.694 371.018 249.694 374.213ZM273.591 373.806C274.279 377.381 269.286 379.792 266.65 377.155C264.013 374.517 266.423 369.523 269.997 370.212C271.655 370.53 273.272 372.148 273.591 373.806ZM297.273 374.237C297.273 376.483 295.925 377.866 293.38 378.227C290.513 378.634 289.487 377.913 289.487 375.486C289.487 373.676 290.034 371.648 290.7 370.98C292.996 368.685 297.273 370.804 297.273 374.237ZM179.213 379.122C177.642 381.818 174.83 377.065 176.121 373.896C177.325 370.937 177.479 370.954 178.728 374.213C179.458 376.116 179.676 378.326 179.213 379.122Z" fill="#1E1E1E"/>
<path d="M222.012 191.5C220.999 190.486 220.659 188.378 221.258 186.816C222.644 183.206 228.187 184.168 228.954 188.151C229.642 191.727 224.649 194.137 222.012 191.5Z" fill="#1E1E1E"/>
<path d="M107.153 229.465C105.29 226.804 105.014 224.812 106.203 222.59C107.31 220.52 108.893 219.861 110.878 220.643C113.717 221.761 113.715 221.858 110.852 222.436C107.57 223.097 106.757 227.12 109.554 228.849C112.027 230.377 111.691 237.15 108.956 240.892C106.712 243.96 106.359 243.929 99.421 240.028C93.8206 236.88 91.7565 236.441 90.1423 238.055C88.5281 239.67 88.7461 241.283 91.1251 245.31C94.6355 251.254 93.6925 254.028 88.2582 253.741C85.3308 253.585 85.1578 253.36 87.4952 252.749C90.7842 251.889 91.5749 247.874 88.7928 246.154C86.1907 244.545 86.715 237.349 89.6095 234.946C91.6562 233.246 93.3067 233.544 98.0317 236.465C101.264 238.462 104.736 240.097 105.75 240.097C108.997 240.097 109.887 233.369 107.153 229.465Z" fill="#FFD168"/>
<path d="M76.0089 228.432C75.1439 227.897 77.0816 226.502 80.317 225.333C87.4226 222.763 88.7928 222.505 88.7928 223.741C88.7928 225.372 77.6647 229.456 76.0089 228.432Z" fill="#FFD168"/>
<path d="M111.501 252.424C110.193 252.782 108.835 252.298 108.483 251.346C107.722 249.285 121.131 248.215 122.38 250.237C122.855 251.005 121.136 251.664 118.561 251.702C115.987 251.74 112.809 252.064 111.501 252.424Z" fill="#FFD168"/>
<path d="M134.416 163.258C135.952 164.795 135.952 167.287 134.416 168.823L126.318 176.921L138.263 176.905C140.436 176.903 142.2 178.663 142.203 180.836C142.206 183.009 140.447 184.774 138.274 184.777L126.357 184.791L134.526 192.96C136.063 194.497 136.063 196.989 134.526 198.526C132.989 200.063 130.497 200.063 128.96 198.526L120.762 190.327L120.757 202.218C120.757 204.392 118.994 206.153 116.821 206.152C114.647 206.152 112.886 204.389 112.887 202.216L112.891 190.348L104.823 198.416C103.287 199.952 100.795 199.952 99.2577 198.416C97.7209 196.879 97.7211 194.387 99.2577 192.85L107.292 184.815L95.3065 184.831C93.1331 184.834 91.369 183.074 91.3663 180.901C91.3636 178.727 93.1234 176.963 95.2968 176.961L107.379 176.945L98.5789 168.145C97.0421 166.608 97.0421 164.116 98.5789 162.579C100.116 161.042 102.608 161.042 104.145 162.579L112.898 171.332L112.901 159.25C112.902 157.076 114.665 155.315 116.838 155.316C119.011 155.317 120.773 157.079 120.772 159.253L120.769 171.339L128.85 163.258C130.387 161.721 132.879 161.721 134.416 163.258Z" fill="#FFD168"/>
</svg>
