<svg width="1695" height="916" viewBox="0 0 1695 916" fill="none" xmlns="http://www.w3.org/2000/svg">
<rect x="927" y="445.003" width="84" height="83" rx="16" fill="#F2A7BE"/>
<rect x="1031" y="445.003" width="83" height="83" rx="16" fill="#F2A7BE"/>
<mask id="path-3-inside-1_110_1093" fill="white">
<path d="M380.962 113.466C390.513 123.017 390.513 138.503 380.962 148.055L330.635 198.381L404.874 198.288C418.382 198.27 429.346 209.206 429.363 222.713C429.381 236.221 418.444 247.185 404.937 247.202L330.884 247.295L381.653 298.064C391.204 307.615 391.204 323.101 381.652 332.652C372.101 342.204 356.616 342.204 347.064 332.653L296.106 281.693L296.079 355.599C296.075 369.107 285.121 380.053 271.614 380.048C258.106 380.044 247.16 369.09 247.165 355.583L247.191 281.826L197.055 331.962C187.503 341.513 172.017 341.513 162.466 331.962C152.915 322.41 152.915 306.925 162.467 297.374L212.394 247.447L137.91 247.541C124.403 247.558 113.439 236.623 113.421 223.116C113.404 209.608 124.341 198.644 137.848 198.627L212.943 198.531L158.249 143.836C148.698 134.285 148.697 118.799 158.248 109.248C167.799 99.6967 183.286 99.6967 192.837 109.248L247.231 163.642L247.257 88.5561C247.262 75.0486 258.215 64.1025 271.723 64.1071C285.23 64.1119 296.176 75.0654 296.172 88.5727L296.146 163.694L346.374 113.466C355.925 103.915 371.411 103.915 380.962 113.466Z"/>
</mask>
<path d="M380.962 113.466C390.513 123.017 390.513 138.503 380.962 148.055L330.635 198.381L404.874 198.288C418.382 198.27 429.346 209.206 429.363 222.713C429.381 236.221 418.444 247.185 404.937 247.202L330.884 247.295L381.653 298.064C391.204 307.615 391.204 323.101 381.652 332.652C372.101 342.204 356.616 342.204 347.064 332.653L296.106 281.693L296.079 355.599C296.075 369.107 285.121 380.053 271.614 380.048C258.106 380.044 247.16 369.09 247.165 355.583L247.191 281.826L197.055 331.962C187.503 341.513 172.017 341.513 162.466 331.962C152.915 322.41 152.915 306.925 162.467 297.374L212.394 247.447L137.91 247.541C124.403 247.558 113.439 236.623 113.421 223.116C113.404 209.608 124.341 198.644 137.848 198.627L212.943 198.531L158.249 143.836C148.698 134.285 148.697 118.799 158.248 109.248C167.799 99.6967 183.286 99.6967 192.837 109.248L247.231 163.642L247.257 88.5561C247.262 75.0486 258.215 64.1025 271.723 64.1071C285.23 64.1119 296.176 75.0654 296.172 88.5727L296.146 163.694L346.374 113.466C355.925 103.915 371.411 103.915 380.962 113.466Z" fill="#AEE7C3"/>
<path d="M380.962 113.466L382.376 112.052L382.376 112.052L380.962 113.466ZM330.635 198.381L329.221 196.967L325.801 200.388L330.638 200.381L330.635 198.381ZM404.874 198.288L404.877 200.288L404.877 200.288L404.874 198.288ZM429.363 222.713L431.363 222.711L431.363 222.711L429.363 222.713ZM404.937 247.202L404.939 249.202L404.939 249.202L404.937 247.202ZM330.884 247.295L330.882 245.295L326.062 245.301L329.47 248.71L330.884 247.295ZM381.653 298.064L383.067 296.65L383.067 296.65L381.653 298.064ZM381.652 332.652L383.067 334.067V334.067L381.652 332.652ZM347.064 332.653L345.65 334.067L345.65 334.067L347.064 332.653ZM296.106 281.693L297.52 280.279L294.107 276.866L294.106 281.692L296.106 281.693ZM296.079 355.599L294.079 355.599L294.079 355.599L296.079 355.599ZM271.614 380.048L271.613 382.049V382.049L271.614 380.048ZM247.165 355.583L245.165 355.582L245.165 355.582L247.165 355.583ZM247.191 281.826L249.191 281.826L249.193 276.995L245.777 280.411L247.191 281.826ZM162.466 331.962L161.052 333.376L161.052 333.376L162.466 331.962ZM212.394 247.447L213.808 248.861L217.228 245.44L212.391 245.447L212.394 247.447ZM137.91 247.541L137.908 245.541L137.908 245.541L137.91 247.541ZM113.421 223.116L111.421 223.118L111.421 223.118L113.421 223.116ZM137.848 198.627L137.851 200.627L137.851 200.627L137.848 198.627ZM212.943 198.531L212.946 200.531L217.765 200.524L214.357 197.116L212.943 198.531ZM158.249 143.836L156.835 145.25V145.25L158.249 143.836ZM158.248 109.248L156.834 107.834V107.834L158.248 109.248ZM192.837 109.248L191.423 110.662V110.662L192.837 109.248ZM247.231 163.642L245.817 165.056L249.229 168.469L249.231 163.643L247.231 163.642ZM247.257 88.5561L249.257 88.5568L249.257 88.5568L247.257 88.5561ZM271.723 64.1071L271.724 62.1071L271.724 62.1071L271.723 64.1071ZM296.172 88.5727L298.172 88.5734L298.172 88.5734L296.172 88.5727ZM296.146 163.694L294.146 163.693L294.145 168.524L297.561 165.108L296.146 163.694ZM380.962 113.466L379.548 114.88C388.318 123.65 388.318 137.87 379.548 146.64L380.962 148.055L382.376 149.469C392.708 139.137 392.708 122.384 382.376 112.052L380.962 113.466ZM380.962 148.055L379.548 146.64L329.221 196.967L330.635 198.381L332.049 199.796L382.376 149.469L380.962 148.055ZM330.635 198.381L330.638 200.381L404.877 200.288L404.874 198.288L404.872 196.288L330.633 196.381L330.635 198.381ZM404.874 198.288L404.877 200.288C417.28 200.272 427.348 210.313 427.363 222.716L429.363 222.713L431.363 222.711C431.345 208.098 419.484 196.269 404.872 196.288L404.874 198.288ZM429.363 222.713L427.363 222.716C427.379 235.119 417.337 245.186 404.934 245.202L404.937 247.202L404.939 249.202C419.551 249.184 431.382 237.323 431.363 222.711L429.363 222.713ZM404.937 247.202L404.934 245.202L330.882 245.295L330.884 247.295L330.887 249.295L404.939 249.202L404.937 247.202ZM330.884 247.295L329.47 248.71L380.239 299.478L381.653 298.064L383.067 296.65L332.299 245.881L330.884 247.295ZM381.653 298.064L380.239 299.478C389.009 308.249 389.008 322.468 380.238 331.238L381.652 332.652L383.067 334.067C393.399 323.734 393.399 306.982 383.067 296.65L381.653 298.064ZM381.652 332.652L380.238 331.238C371.468 340.008 357.249 340.009 348.478 331.239L347.064 332.653L345.65 334.067C355.982 344.399 372.734 344.399 383.067 334.067L381.652 332.652ZM347.064 332.653L348.478 331.239L297.52 280.279L296.106 281.693L294.691 283.107L345.65 334.067L347.064 332.653ZM296.106 281.693L294.106 281.692L294.079 355.599L296.079 355.599L298.079 355.6L298.106 281.694L296.106 281.693ZM296.079 355.599L294.079 355.599C294.075 368.002 284.017 378.053 271.614 378.048L271.614 380.048L271.613 382.049C286.225 382.054 298.074 370.212 298.079 355.6L296.079 355.599ZM271.614 380.048L271.614 378.048C259.212 378.044 249.161 367.986 249.165 355.584L247.165 355.583L245.165 355.582C245.16 370.194 257.001 382.043 271.613 382.049L271.614 380.048ZM247.165 355.583L249.165 355.584L249.191 281.826L247.191 281.826L245.191 281.825L245.165 355.582L247.165 355.583ZM247.191 281.826L245.777 280.411L195.64 330.548L197.055 331.962L198.469 333.376L248.605 283.24L247.191 281.826ZM197.055 331.962L195.64 330.548C186.87 339.318 172.65 339.318 163.88 330.548L162.466 331.962L161.052 333.376C171.384 343.708 188.137 343.708 198.469 333.376L197.055 331.962ZM162.466 331.962L163.88 330.548C155.11 321.777 155.111 307.558 163.881 298.788L162.467 297.374L161.052 295.959C150.72 306.292 150.72 323.044 161.052 333.376L162.466 331.962ZM162.467 297.374L163.881 298.788L213.808 248.861L212.394 247.447L210.979 246.032L161.052 295.959L162.467 297.374ZM212.394 247.447L212.391 245.447L137.908 245.541L137.91 247.541L137.913 249.541L212.396 249.447L212.394 247.447ZM137.91 247.541L137.908 245.541C125.505 245.557 115.437 235.516 115.421 223.113L113.421 223.116L111.421 223.118C111.44 237.73 123.301 249.56 137.913 249.541L137.91 247.541ZM113.421 223.116L115.421 223.113C115.406 210.71 125.448 200.642 137.851 200.627L137.848 198.627L137.846 196.627C123.234 196.645 111.403 208.506 111.421 223.118L113.421 223.116ZM137.848 198.627L137.851 200.627L212.946 200.531L212.943 198.531L212.941 196.531L137.846 196.627L137.848 198.627ZM212.943 198.531L214.357 197.116L159.663 142.422L158.249 143.836L156.835 145.25L211.529 199.945L212.943 198.531ZM158.249 143.836L159.663 142.422C150.893 133.652 150.892 119.432 159.662 110.662L158.248 109.248L156.834 107.834C146.502 118.166 146.502 134.918 156.835 145.25L158.249 143.836ZM158.248 109.248L159.662 110.662C168.433 101.892 182.653 101.892 191.423 110.662L192.837 109.248L194.251 107.834C183.919 97.5015 167.166 97.5015 156.834 107.834L158.248 109.248ZM192.837 109.248L191.423 110.662L245.817 165.056L247.231 163.642L248.645 162.228L194.251 107.834L192.837 109.248ZM247.231 163.642L249.231 163.643L249.257 88.5568L247.257 88.5561L245.257 88.5555L245.231 163.641L247.231 163.642ZM247.257 88.5561L249.257 88.5568C249.262 76.1539 259.319 66.1028 271.722 66.1071L271.723 64.1071L271.724 62.1071C257.111 62.1021 245.262 73.9434 245.257 88.5555L247.257 88.5561ZM271.723 64.1071L271.722 66.1071C284.125 66.1115 294.176 76.1693 294.172 88.5721L296.172 88.5727L298.172 88.5734C298.177 73.9615 286.335 62.1123 271.724 62.1071L271.723 64.1071ZM296.172 88.5727L294.172 88.572L294.146 163.693L296.146 163.694L298.146 163.695L298.172 88.5734L296.172 88.5727ZM296.146 163.694L297.561 165.108L347.788 114.881L346.374 113.466L344.96 112.052L294.732 162.28L296.146 163.694ZM346.374 113.466L347.788 114.881C356.558 106.111 370.777 106.11 379.548 114.88L380.962 113.466L382.376 112.052C372.044 101.72 355.292 101.72 344.96 112.052L346.374 113.466Z" fill="#1E1E1E" mask="url(#path-3-inside-1_110_1093)"/>
<rect x="1135" y="445.003" width="83" height="83" rx="16" fill="#F2A7BE"/>
<rect x="1238" y="445.003" width="84" height="83" rx="16" fill="#F2A7BE"/>
<rect x="323" y="169.003" width="326" height="570" rx="38.7767" fill="#61A5DF" stroke="#1E1E1E" stroke-width="2"/>
<rect x="420" y="222" width="188" height="44" rx="15" fill="#F2A7BE" stroke="#1E1E1E" stroke-width="2"/>
<rect x="420" y="292" width="188" height="44" rx="15" fill="#F2A7BE" stroke="#1E1E1E" stroke-width="2"/>
<rect x="420" y="362" width="188" height="44" rx="15" fill="#F2A7BE" stroke="#1E1E1E" stroke-width="2"/>
<rect x="420" y="432" width="188" height="44" rx="15" fill="#F2A7BE" stroke="#1E1E1E" stroke-width="2"/>
<rect x="509" y="339" width="72" height="81" rx="15" fill="#F2A7BE" stroke="#1E1E1E" stroke-width="2"/>
<circle cx="378" cy="244" r="22" fill="#F2A7BE" stroke="#1E1E1E" stroke-width="2"/>
<circle cx="378" cy="314" r="22" fill="#F2A7BE" stroke="#1E1E1E" stroke-width="2"/>
<circle cx="378" cy="384" r="22" fill="#F2A7BE" stroke="#1E1E1E" stroke-width="2"/>
<circle cx="378" cy="454" r="22" fill="#F2A7BE" stroke="#1E1E1E" stroke-width="2"/>
<rect x="1" y="273.003" width="339" height="610" rx="38.7767" fill="#E46846" stroke="#1E1E1E" stroke-width="2"/>
<path d="M678.5 233.003C816.295 233.003 928 344.708 928 482.503V724.227C928 745.642 910.639 763.003 889.224 763.003H467.776C446.361 763.003 429 745.642 429 724.227V482.503C429 344.708 540.705 233.003 678.5 233.003Z" fill="#AEE7C3" stroke="#1E1E1E" stroke-width="2"/>
<mask id="path-19-outside-2_110_1093" maskUnits="userSpaceOnUse" x="866" y="203.003" width="681" height="713" fill="black">
<rect fill="white" x="866" y="203.003" width="681" height="713"/>
<path d="M1404 205.003C1416.7 205.003 1427 215.3 1427 228.003V344.003H1507.22C1528.09 344.003 1545 360.916 1545 381.779V876.227C1545 897.09 1528.09 914.003 1507.22 914.003H905.776C884.913 914.003 868 897.09 868 876.227V381.779C868 374.332 870.155 367.389 873.875 361.538C874.165 360.977 874.478 360.419 874.82 359.868L964.252 215.868C968.448 209.112 975.837 205.003 983.79 205.003H1404Z"/>
</mask>
<path d="M1404 205.003C1416.7 205.003 1427 215.3 1427 228.003V344.003H1507.22C1528.09 344.003 1545 360.916 1545 381.779V876.227C1545 897.09 1528.09 914.003 1507.22 914.003H905.776C884.913 914.003 868 897.09 868 876.227V381.779C868 374.332 870.155 367.389 873.875 361.538C874.165 360.977 874.478 360.419 874.82 359.868L964.252 215.868C968.448 209.112 975.837 205.003 983.79 205.003H1404Z" fill="#E46846"/>
<path d="M1427 344.003H1425V346.003H1427V344.003ZM1507.22 344.003V342.003V342.003V344.003ZM1545 381.779H1547V381.779L1545 381.779ZM1545 876.227H1547V876.227H1545ZM1507.22 914.003V916.003V916.003V914.003ZM905.776 914.003L905.776 916.003H905.776V914.003ZM868 876.227H866V876.227H868ZM868 381.779L866 381.779V381.779H868ZM873.875 361.538L875.563 362.611L875.611 362.535L875.652 362.455L873.875 361.538ZM874.82 359.868L873.121 358.813H873.121L874.82 359.868ZM964.252 215.868L962.553 214.813L962.553 214.813L964.252 215.868ZM983.79 205.003V203.003H983.79L983.79 205.003ZM1404 205.003V207.003C1415.6 207.003 1425 216.405 1425 228.003H1427H1429C1429 214.196 1417.81 203.003 1404 203.003V205.003ZM1427 228.003H1425V344.003H1427H1429V228.003H1427ZM1427 344.003V346.003H1507.22V344.003V342.003H1427V344.003ZM1507.22 344.003V346.003C1526.98 346.003 1543 362.021 1543 381.779L1545 381.779L1547 381.779C1547 359.812 1529.19 342.003 1507.22 342.003V344.003ZM1545 381.779H1543V876.227H1545H1547V381.779H1545ZM1545 876.227H1543C1543 895.985 1526.98 912.003 1507.22 912.003V914.003V916.003C1529.19 916.003 1547 898.194 1547 876.227H1545ZM1507.22 914.003V912.003H905.776V914.003V916.003H1507.22V914.003ZM905.776 914.003L905.776 912.003C886.018 912.003 870 895.985 870 876.227H868H866C866 898.194 883.809 916.003 905.776 916.003L905.776 914.003ZM868 876.227H870V381.779H868H866V876.227H868ZM868 381.779L870 381.779C870 374.724 872.041 368.151 875.563 362.611L873.875 361.538L872.187 360.465C868.269 366.627 866 373.941 866 381.779L868 381.779ZM873.875 361.538L875.652 362.455C875.92 361.937 876.208 361.425 876.519 360.923L874.82 359.868L873.121 358.813C872.749 359.413 872.409 360.017 872.098 360.621L873.875 361.538ZM874.82 359.868L876.519 360.923L965.951 216.923L964.252 215.868L962.553 214.813L873.121 358.813L874.82 359.868ZM964.252 215.868L965.951 216.923C969.782 210.755 976.528 207.003 983.79 207.003L983.79 205.003L983.79 203.003C975.145 203.003 967.114 207.469 962.553 214.813L964.252 215.868ZM983.79 205.003V207.003H1404V205.003V203.003H983.79V205.003Z" fill="#1E1E1E" mask="url(#path-19-outside-2_110_1093)"/>
<path d="M159.5 380.003C221.08 380.003 271 429.923 271 491.503V579.509C271 600.768 253.766 618.003 232.506 618.003H86.4941C65.2345 618.003 48.0002 600.768 48 579.509V491.503C48 429.923 97.9203 380.003 159.5 380.003Z" fill="#FFD168" stroke="#1E1E1E" stroke-width="2"/>
<mask id="path-22-outside-3_110_1093" maskUnits="userSpaceOnUse" x="1367" y="44.0029" width="328" height="662" fill="black">
<rect fill="white" x="1367" y="44.0029" width="328" height="662"/>
<path d="M1456.61 52.0029C1461.23 44.0029 1472.77 44.0029 1477.39 52.0029L1548.98 176.003H1655.22C1676.09 176.003 1693 192.916 1693 213.779V666.227C1693 687.09 1676.09 704.003 1655.22 704.003H1406.78C1385.91 704.003 1369 687.09 1369 666.227V213.779C1369 206.224 1371.22 199.188 1375.04 193.284L1456.61 52.0029Z"/>
</mask>
<path d="M1456.61 52.0029C1461.23 44.0029 1472.77 44.0029 1477.39 52.0029L1548.98 176.003H1655.22C1676.09 176.003 1693 192.916 1693 213.779V666.227C1693 687.09 1676.09 704.003 1655.22 704.003H1406.78C1385.91 704.003 1369 687.09 1369 666.227V213.779C1369 206.224 1371.22 199.188 1375.04 193.284L1456.61 52.0029Z" fill="#FFD168"/>
<path d="M1456.61 52.0029L1454.88 51.0029L1454.88 51.0029L1456.61 52.0029ZM1477.39 52.0029L1479.12 51.0029L1479.12 51.0029L1477.39 52.0029ZM1548.98 176.003L1547.25 177.003L1547.83 178.003H1548.98V176.003ZM1655.22 176.003L1655.22 174.003H1655.22V176.003ZM1693 213.779H1695V213.779L1693 213.779ZM1693 666.227H1695V666.227H1693ZM1655.22 704.003V706.003H1655.22L1655.22 704.003ZM1406.78 704.003L1406.78 706.003H1406.78V704.003ZM1369 666.227H1367V666.227H1369ZM1369 213.779L1367 213.779V213.779H1369ZM1375.04 193.284L1376.72 194.371L1376.75 194.328L1376.77 194.284L1375.04 193.284ZM1456.61 52.0029L1458.34 53.0029C1462.19 46.3363 1471.81 46.3363 1475.66 53.0029L1477.39 52.0029L1479.12 51.0029C1473.74 41.6696 1460.26 41.6696 1454.88 51.0029L1456.61 52.0029ZM1477.39 52.0029L1475.66 53.0029L1547.25 177.003L1548.98 176.003L1550.72 175.003L1479.12 51.0029L1477.39 52.0029ZM1548.98 176.003V178.003H1655.22V176.003V174.003H1548.98V176.003ZM1655.22 176.003L1655.22 178.003C1674.98 178.003 1691 194.021 1691 213.779L1693 213.779L1695 213.779C1695 191.812 1677.19 174.003 1655.22 174.003L1655.22 176.003ZM1693 213.779H1691V666.227H1693H1695V213.779H1693ZM1693 666.227H1691C1691 685.985 1674.98 702.003 1655.22 702.003L1655.22 704.003L1655.22 706.003C1677.19 706.003 1695 688.194 1695 666.227H1693ZM1655.22 704.003V702.003H1406.78V704.003V706.003H1655.22V704.003ZM1406.78 704.003L1406.78 702.003C1387.02 702.003 1371 685.985 1371 666.227H1369H1367C1367 688.194 1384.81 706.003 1406.78 706.003L1406.78 704.003ZM1369 666.227H1371V213.779H1369H1367V666.227H1369ZM1369 213.779L1371 213.779C1371 206.621 1373.1 199.961 1376.72 194.371L1375.04 193.284L1373.36 192.198C1369.34 198.415 1367 205.827 1367 213.779L1369 213.779ZM1375.04 193.284L1376.77 194.284L1458.34 53.0029L1456.61 52.0029L1454.88 51.0029L1373.31 192.284L1375.04 193.284Z" fill="#1E1E1E" mask="url(#path-22-outside-3_110_1093)"/>
<rect x="926" y="393" width="421" height="36" rx="17" fill="#F2A7BE" stroke="#1E1E1E" stroke-width="2"/>
<rect x="926" y="451" width="336" height="36" rx="17" fill="#F2A7BE" stroke="#1E1E1E" stroke-width="2"/>
<rect x="926" y="509" width="421" height="36" rx="17" fill="#F2A7BE" stroke="#1E1E1E" stroke-width="2"/>
<rect x="926" y="567" width="248" height="36" rx="17" fill="#F2A7BE" stroke="#1E1E1E" stroke-width="2"/>
<rect x="926" y="625" width="327" height="36" rx="17" fill="#F2A7BE" stroke="#1E1E1E" stroke-width="2"/>
<path d="M760.663 317.003C769.44 317.003 776.555 324.118 776.555 332.895V509.111C776.555 517.888 769.44 525.003 760.663 525.003H591.892C583.115 525.003 576 517.888 576 509.111V332.895C576 324.118 583.115 317.003 591.892 317.003H760.663ZM675.648 420.746C654.338 420.746 637.063 438.014 637.063 459.313C637.063 459.922 637.078 460.527 637.105 461.129C637.111 461.247 637.095 461.36 637.063 461.467V509.11C637.063 516.782 643.283 523.002 650.955 523.002H700.343C708.015 523.002 714.233 516.782 714.233 509.11V461.466C714.202 461.359 714.187 461.246 714.192 461.129L714.224 460.224C714.231 459.921 714.233 459.618 714.233 459.313C714.233 438.014 696.959 420.746 675.648 420.746ZM715.106 462.191C715.141 462.195 715.176 462.197 715.212 462.197C715.176 462.197 715.141 462.195 715.106 462.191Z" fill="#E46846" stroke="#1E1E1E" stroke-width="2"/>
</svg>
