<svg width="388" height="439" viewBox="0 0 388 439" fill="none" xmlns="http://www.w3.org/2000/svg">
<mask id="path-1-inside-1_83_1111" fill="white">
<path d="M194 0C301.143 0 388 94.6783 388 211.47C388 211.978 387.997 212.485 387.994 212.992C387.997 213.13 388 213.269 388 213.408V421C388 430.941 379.941 439 370 439H18C8.05891 439 4.972e-05 430.941 0 421V213.408C1.93127e-06 213.269 0.00174455 213.13 0.00488281 212.992C0.00160247 212.485 4.60728e-07 211.978 0 211.47C0 94.6783 86.8568 0 194 0Z"/>
</mask>
<path d="M194 0C301.143 0 388 94.6783 388 211.47C388 211.978 387.997 212.485 387.994 212.992C387.997 213.13 388 213.269 388 213.408V421C388 430.941 379.941 439 370 439H18C8.05891 439 4.972e-05 430.941 0 421V213.408C1.93127e-06 213.269 0.00174455 213.13 0.00488281 212.992C0.00160247 212.485 4.60728e-07 211.978 0 211.47C0 94.6783 86.8568 0 194 0Z" fill="#F3EFEB"/>
<path d="M388 211.47H390V211.47H388ZM387.994 212.992L385.994 212.979L385.994 213.008L385.995 213.038L387.994 212.992ZM388 213.408H390V213.408L388 213.408ZM388 421H390V421H388ZM0 421H-2V421H0ZM0 213.408L-2 213.408V213.408H0ZM0.00488281 212.992L2.00437 213.038L2.00503 213.008L2.00484 212.979L0.00488281 212.992ZM0 211.47H-2V211.47H0ZM194 0V2C299.88 2 386 95.6171 386 211.47H388H390C390 93.7396 302.407 -2 194 -2V0ZM388 211.47H386C386 211.971 385.997 212.474 385.994 212.979L387.994 212.992L389.994 213.005C389.997 212.497 390 211.984 390 211.47H388ZM387.994 212.992L385.995 213.038C385.998 213.174 386 213.293 386 213.408L388 213.408L390 213.408C390 213.245 389.997 213.087 389.994 212.947L387.994 212.992ZM388 213.408H386V421H388H390V213.408H388ZM388 421H386C386 429.837 378.837 437 370 437V439V441C381.046 441 390 432.046 390 421H388ZM370 439V437H18V439V441H370V439ZM18 439V437C9.16348 437 2.00004 429.837 2 421H0H-2C-1.99994 432.046 6.95433 441 18 441V439ZM0 421H2V213.408H0H-2V421H0ZM0 213.408L2 213.408C2 213.286 2.00154 213.162 2.00437 213.038L0.00488281 212.992L-1.9946 212.947C-1.99805 213.099 -2 213.252 -2 213.408L0 213.408ZM0.00488281 212.992L2.00484 212.979C2.00159 212.477 2 211.973 2 211.47H0H-2C-2 211.982 -1.99838 212.494 -1.99508 213.005L0.00488281 212.992ZM0 211.47H2C2 95.6171 88.1202 2 194 2V0V-2C85.5934 -2 -2 93.7396 -2 211.47H0Z" fill="#1E1E1E" mask="url(#path-1-inside-1_83_1111)"/>
<circle cx="147" cy="313" r="10" fill="#FFD168"/>
<path d="M148 280C148 280 106 277.626 98.101 281.827C90.202 286.029 112 341.5 112 341.5" stroke="#FFD168" stroke-width="10" stroke-linecap="round"/>
<path fill-rule="evenodd" clip-rule="evenodd" d="M70 186.698V253.396L109.538 252.989L149.076 252.58L110.405 252.064L71.7325 251.548L72.1999 187.107L72.6655 122.668L189.058 122.398C253.073 122.248 307.648 122.511 310.336 122.983L315.223 123.84V187.691V251.541L281.016 252.064L246.809 252.589L281.905 252.993L317 253.396V186.698V120H193.5H70V186.698ZM168.007 174.602L160.244 180.546L147.777 185.5C147.777 185.5 140.951 190.056 139.709 190.556C136.397 191.89 132.193 200.884 132.201 206.619C132.21 214.213 138.57 223.112 146.364 226.436C150.751 228.307 154.248 231.422 155.936 234.959C157.397 238.024 161.036 243.315 164.02 246.718C169.361 252.806 169.392 252.954 165.996 256.029C164.098 257.749 159.581 263.462 155.96 268.726L149.374 278.297H123.231C102.105 278.297 96.6636 278.811 94.8671 280.977C93.0457 283.174 94.1847 288.57 101.15 310.769C105.829 325.681 110.305 339.181 111.096 340.769C112.068 342.722 111.411 344.675 109.07 346.793C104.079 351.316 102.702 361.049 106.057 368.091C112.242 381.074 132.166 385.021 191.407 385C243.506 384.982 259.312 382.273 267.65 371.927C272.002 366.527 271.774 354.434 267.245 350.331C265.29 348.561 263.691 345.235 263.691 342.941C263.691 340.463 262.633 338.77 261.087 338.77C258.184 338.77 254.806 333.472 254.806 328.916C254.806 327.282 256.89 323.465 259.437 320.436C263.492 315.612 263.971 313.706 263.307 305.062C262.859 299.23 260.474 290.852 257.477 284.581C252.583 274.336 237.494 257.187 228.151 251.25L223.709 248.425L228.357 243.353C230.914 240.562 233.848 236.677 234.877 234.721C235.908 232.764 240.611 229.163 245.333 226.717C260.146 219.044 263.881 204.742 253.892 193.953C250.952 190.778 247.808 189.366 243.678 189.366C238.941 189.366 235.833 187.552 228.572 180.546C212.873 165.399 190.054 162.191 171.574 172.53C167.413 174.973 167.534 174.973 167.413 174.973C167.293 174.975 167.293 174.975 167.413 174.973C167.534 174.971 167.168 174.973 167.168 174.973H167.413L168.007 174.602ZM231.453 139.156C231.453 140.242 244.287 140.934 264.453 140.934C284.619 140.934 297.453 140.242 297.453 139.156C297.453 138.069 284.619 137.377 264.453 137.377C244.287 137.377 231.453 138.069 231.453 139.156ZM187.453 190.412C190.756 193.404 191.202 193.372 197.775 189.674C208.178 183.822 216.56 184.523 223.886 191.856C228.67 196.644 229.926 199.33 229.921 204.751C229.916 211.505 224.418 223.16 221.239 223.16C220.339 223.16 220.016 226.232 220.519 229.984C223.869 254.979 184.729 264.988 169.991 242.906C167.771 239.582 165.957 234.148 165.957 230.829C165.957 227.361 164.256 222.493 161.959 219.382C159.067 215.467 157.96 211.508 157.96 205.078C157.96 197.219 158.659 195.565 163.988 190.798C169.145 186.186 171.025 185.544 177.008 186.348C180.855 186.864 185.555 188.692 187.453 190.412ZM149.26 207.138C149.051 221.264 146.739 223.153 141.072 213.827C137.372 207.737 137.767 203.156 142.453 197.815C147.768 191.758 149.454 194.069 149.26 207.138ZM248.666 199.068C253.997 204.403 254.232 210.478 249.345 216.695C243.151 224.577 241.402 222.726 241.18 208.042C241.068 200.705 241.725 194.702 242.641 194.702C243.556 194.702 246.267 196.667 248.666 199.068ZM169.669 206.857C168.254 209.502 168.457 210.875 170.511 212.582C173.827 215.336 177.246 212.609 176.341 207.933C175.46 203.389 171.835 202.804 169.669 206.857ZM183.727 221.381C183.727 222.359 184.926 223.16 186.392 223.16C187.858 223.16 189.058 222.359 189.058 221.381C189.058 220.403 187.858 219.603 186.392 219.603C184.926 219.603 183.727 220.403 183.727 221.381ZM200.608 232.053C198.653 232.894 192.457 233.638 186.836 233.707C181.216 233.775 176.619 234.493 176.619 235.301C176.619 239.091 185.948 245.215 191.723 245.215C198.305 245.215 205.813 239.683 207.382 233.679C208.334 230.032 206.39 229.566 200.608 232.053ZM199.966 239.32C195.142 243.237 190.476 243.632 184.942 240.594C181.417 238.659 182.038 238.283 191.723 236.503C197.587 235.425 202.785 234.853 203.273 235.23C203.762 235.607 202.275 237.448 199.966 239.32ZM230.994 256.662C248.172 269.166 260.668 289.862 260.895 306.189C261.006 314.008 260.252 316.215 255.931 320.735C249.191 327.78 240.277 331.631 239.099 328.006C238.641 326.588 235.287 322.433 231.65 318.77L225.034 312.11L231.035 308.398C234.335 306.357 237.036 303.235 237.036 301.462C237.036 296.32 229.941 274.74 228.251 274.74C227.407 274.74 228.144 278.541 229.891 283.188C236.43 300.596 236.307 301.773 227.268 308.151C222.809 311.296 218.156 313.869 216.924 313.869C215.694 313.869 211.751 315.367 208.162 317.199L201.639 320.529L195.195 301.172C188.411 280.792 186.397 278.297 176.736 278.297C172.075 278.297 171.288 277.639 171.288 273.746C171.288 271.165 170.518 269.669 169.511 270.293C168.533 270.898 167.734 272.945 167.734 274.845C167.734 277.687 166.477 278.297 160.626 278.297C156.717 278.297 153.518 277.698 153.52 276.963C153.521 274.969 169.345 255.175 170.938 255.175C171.695 255.175 175.449 256.776 179.284 258.732C183.284 260.774 189.692 262.273 194.319 262.25C202.38 262.211 215.973 257.29 218.264 253.581C220.199 250.446 223.575 251.262 230.994 256.662ZM184.96 282.795C186.794 283.357 207.462 344.065 206.236 345.29C205.987 345.541 186.627 346.263 163.213 346.895C128.368 347.837 120.063 347.599 117.438 345.584C113.12 342.27 94.6698 285.294 96.9817 282.415C98.238 280.849 109.509 280.543 140.756 281.226C163.901 281.732 183.792 282.438 184.96 282.795ZM142.094 307.771C138.385 311.484 138.563 316.207 142.552 319.819C148.729 325.414 157.072 322.462 157.072 314.679C157.072 310.314 151.933 304.976 147.73 304.976C146.167 304.976 143.631 306.234 142.094 307.771ZM152.397 310.054C155.657 313.661 154.788 318.337 150.554 319.963C144.802 322.172 139.508 313.917 143.874 309.546C147.464 305.955 148.759 306.031 152.397 310.054ZM230.275 320.427C233.016 323.056 235.259 326.172 235.259 327.351C235.259 330.101 230.735 331.853 227.172 330.485C225.583 329.875 222.573 331.159 220.064 333.52C217.67 335.77 215.712 336.719 215.712 335.627C215.712 334.537 216.512 333.15 217.489 332.545C218.467 331.94 219.238 330.492 219.202 329.327C219.167 328.162 217.171 329.61 214.769 332.545C211.725 336.262 210.396 337.002 210.39 334.985C210.385 333.393 211.581 331.095 213.047 329.877C214.513 328.659 215.687 326.761 215.655 325.658C215.625 324.554 213.486 326.053 210.9 328.988C206.15 334.38 205.942 333.61 209.457 323.652C210.488 320.731 210.031 320.89 206.904 324.541C203.508 328.504 203.153 328.6 203.634 325.43C204.245 321.393 214.403 315.655 220.945 315.652C223.335 315.65 227.534 317.798 230.275 320.427ZM253.455 332.502C253.919 334.926 254.083 337.127 253.82 337.393C253.557 337.662 246.061 337.623 237.166 337.31C220.096 336.707 216.075 333.482 232.254 333.372C237.327 333.336 243.478 332.164 245.921 330.766C251.955 327.314 252.489 327.437 253.455 332.502ZM236.293 340.549C254.724 340.549 258.36 340.988 258.36 343.217C258.36 345.461 254.411 345.885 233.482 345.885C209.368 345.885 208.604 345.769 208.604 342.137C208.604 339.451 209.4 338.695 211.415 339.469C212.961 340.063 224.156 340.549 236.293 340.549ZM261.35 344.44C260.783 345.858 260.362 345.436 260.277 343.364C260.201 341.49 260.62 340.44 261.21 341.031C261.8 341.621 261.864 343.156 261.35 344.44ZM136.075 349.447C152.08 349.451 170.504 353.15 191.723 360.62C198.774 363.103 198.834 363.203 199.364 373.179L199.897 383.236L181.594 383.187C143.784 383.088 118.899 378.983 111.555 371.632C103.564 363.633 107.649 343.081 116.308 347.72C118.076 348.666 126.972 349.444 136.075 349.447ZM265.398 351.557C276.071 363.022 263.929 378.184 242.054 380.708C232.688 381.788 232.562 381.738 229.375 375.723C225.644 368.674 219.392 364.521 209.804 362.721C206.067 362.02 203.668 360.805 204.473 360.023C207.229 357.348 234.353 350.742 247.698 349.497C255.028 348.812 261.194 348.12 261.4 347.958C261.606 347.797 263.406 349.415 265.398 351.557ZM225.486 351.053C223.531 351.816 216.219 353.899 209.237 355.681L196.542 358.924L180.805 354.317L165.068 349.71L197.054 349.689C214.646 349.677 227.44 350.292 225.486 351.053ZM219.657 368.35C224.753 370.956 228.151 375.797 228.151 380.45C228.151 382.73 225.734 383.236 214.824 383.236H201.496V374.639C201.496 369.91 202.058 365.481 202.744 364.795C204.318 363.219 213.327 365.113 219.657 368.35Z" fill="black"/>
<path d="M208.281 212.687C206.227 210.98 206.024 209.607 207.438 206.962C209.605 202.909 213.23 203.494 214.111 208.038C215.015 212.714 211.597 215.441 208.281 212.687Z" fill="black"/>
<path d="M195.612 223.16C194.146 223.16 192.946 222.359 192.946 221.381C192.946 220.403 194.146 219.603 195.612 219.603C197.078 219.603 198.277 220.403 198.277 221.381C198.277 222.359 197.078 223.16 195.612 223.16Z" fill="black"/>
<path d="M261.23 151.693C244.12 151.693 233.23 151.001 233.23 149.915C233.23 148.828 244.12 148.136 261.23 148.136C278.341 148.136 289.23 148.828 289.23 149.915C289.23 151.001 278.341 151.693 261.23 151.693Z" fill="black"/>
<path d="M266.23 161.798C246.064 161.798 233.23 161.106 233.23 160.019C233.23 158.932 246.064 158.24 266.23 158.24C286.396 158.24 299.23 158.932 299.23 160.019C299.23 161.106 286.396 161.798 266.23 161.798Z" fill="black"/>
<path d="M257.812 171.557C242.535 171.557 232.812 170.865 232.812 169.778C232.812 168.691 242.535 168 257.812 168C273.089 168 282.812 168.691 282.812 169.778C282.812 170.865 273.089 171.557 257.812 171.557Z" fill="black"/>
<path d="M274.23 180.003C258.953 180.003 249.23 179.312 249.23 178.225C249.23 177.138 258.953 176.446 274.23 176.446C289.507 176.446 299.23 177.138 299.23 178.225C299.23 179.312 289.507 180.003 274.23 180.003Z" fill="black"/>
<path d="M261.23 151.693C244.12 151.693 233.23 151.001 233.23 149.915C233.23 148.828 244.12 148.136 261.23 148.136C278.341 148.136 289.23 148.828 289.23 149.915C289.23 151.001 278.341 151.693 261.23 151.693Z" fill="black"/>
<path d="M266.23 161.798C246.064 161.798 233.23 161.106 233.23 160.019C233.23 158.932 246.064 158.24 266.23 158.24C286.396 158.24 299.23 158.932 299.23 160.019C299.23 161.106 286.396 161.798 266.23 161.798Z" fill="black"/>
<path d="M257.812 171.557C242.535 171.557 232.812 170.865 232.812 169.778C232.812 168.691 242.535 168 257.812 168C273.089 168 282.812 168.691 282.812 169.778C282.812 170.865 273.089 171.557 257.812 171.557Z" fill="black"/>
<path d="M114.397 153.472C97.2864 153.472 86.3967 152.78 86.3967 151.693C86.3967 150.606 97.2864 149.915 114.397 149.915C131.507 149.915 142.397 150.606 142.397 151.693C142.397 152.78 131.507 153.472 114.397 153.472Z" fill="black"/>
<path d="M119.397 163.576C99.231 163.576 86.3967 162.884 86.3967 161.798C86.3967 160.711 99.231 160.019 119.397 160.019C139.562 160.019 152.397 160.711 152.397 161.798C152.397 162.884 139.562 163.576 119.397 163.576Z" fill="black"/>
<path d="M110.979 173.335C95.7015 173.335 85.9786 172.644 85.9786 171.557C85.9786 170.47 95.7015 169.778 110.979 169.778C126.256 169.778 135.979 170.47 135.979 171.557C135.979 172.644 126.256 173.335 110.979 173.335Z" fill="black"/>
<path d="M114.397 153.472C97.2864 153.472 86.3967 152.78 86.3967 151.693C86.3967 150.606 97.2864 149.915 114.397 149.915C131.507 149.915 142.397 150.606 142.397 151.693C142.397 152.78 131.507 153.472 114.397 153.472Z" fill="black"/>
<path d="M119.397 163.576C99.231 163.576 86.3967 162.884 86.3967 161.798C86.3967 160.711 99.231 160.019 119.397 160.019C139.562 160.019 152.397 160.711 152.397 161.798C152.397 162.884 139.562 163.576 119.397 163.576Z" fill="black"/>
<path d="M110.979 173.335C95.7015 173.335 85.9786 172.644 85.9786 171.557C85.9786 170.47 95.7015 169.778 110.979 169.778C126.256 169.778 135.979 170.47 135.979 171.557C135.979 172.644 126.256 173.335 110.979 173.335Z" fill="black"/>
<path d="M106.869 199.518C93.4728 199.518 84.9471 198.827 84.9471 197.74C84.9471 196.653 93.4728 195.961 106.869 195.961C120.265 195.961 128.791 196.653 128.791 197.74C128.791 198.827 120.265 199.518 106.869 199.518Z" fill="black"/>
<path d="M110.783 209.623C94.9953 209.623 84.9471 208.931 84.9471 207.844C84.9471 206.757 94.9953 206.066 110.783 206.066C126.572 206.066 136.62 206.757 136.62 207.844C136.62 208.931 126.572 209.623 110.783 209.623Z" fill="black"/>
<path d="M104.193 219.382C92.232 219.382 84.6198 218.69 84.6198 217.603C84.6198 216.517 92.232 215.825 104.193 215.825C116.153 215.825 123.766 216.517 123.766 217.603C123.766 218.69 116.153 219.382 104.193 219.382Z" fill="black"/>
<path d="M106.869 199.518C93.4728 199.518 84.9471 198.827 84.9471 197.74C84.9471 196.653 93.4728 195.961 106.869 195.961C120.265 195.961 128.791 196.653 128.791 197.74C128.791 198.827 120.265 199.518 106.869 199.518Z" fill="black"/>
<path d="M110.783 209.623C94.9953 209.623 84.9471 208.931 84.9471 207.844C84.9471 206.757 94.9953 206.066 110.783 206.066C126.572 206.066 136.62 206.757 136.62 207.844C136.62 208.931 126.572 209.623 110.783 209.623Z" fill="black"/>
<path d="M104.193 219.382C92.232 219.382 84.6198 218.69 84.6198 217.603C84.6198 216.517 92.232 215.825 104.193 215.825C116.153 215.825 123.766 216.517 123.766 217.603C123.766 218.69 116.153 219.382 104.193 219.382Z" fill="black"/>
<path d="M277.814 199.518C264.418 199.518 255.893 198.827 255.893 197.74C255.893 196.653 264.418 195.961 277.814 195.961C291.21 195.961 299.736 196.653 299.736 197.74C299.736 198.827 291.21 199.518 277.814 199.518Z" fill="black"/>
<path d="M281.729 209.623C265.941 209.623 255.893 208.931 255.893 207.844C255.893 206.757 265.941 206.066 281.729 206.066C297.517 206.066 307.565 206.757 307.565 207.844C307.565 208.931 297.517 209.623 281.729 209.623Z" fill="black"/>
<path d="M275.138 219.382C263.178 219.382 255.565 218.69 255.565 217.603C255.565 216.517 263.178 215.825 275.138 215.825C287.099 215.825 294.711 216.517 294.711 217.603C294.711 218.69 287.099 219.382 275.138 219.382Z" fill="black"/>
<path d="M277.814 199.518C264.418 199.518 255.893 198.827 255.893 197.74C255.893 196.653 264.418 195.961 277.814 195.961C291.21 195.961 299.736 196.653 299.736 197.74C299.736 198.827 291.21 199.518 277.814 199.518Z" fill="black"/>
<path d="M281.729 209.623C265.941 209.623 255.893 208.931 255.893 207.844C255.893 206.757 265.941 206.066 281.729 206.066C297.517 206.066 307.565 206.757 307.565 207.844C307.565 208.931 297.517 209.623 281.729 209.623Z" fill="black"/>
<path d="M275.138 219.382C263.178 219.382 255.565 218.69 255.565 217.603C255.565 216.517 263.178 215.825 275.138 215.825C287.099 215.825 294.711 216.517 294.711 217.603C294.711 218.69 287.099 219.382 275.138 219.382Z" fill="black"/>
<path d="M119.397 140.934C99.231 140.934 86.3967 140.242 86.3967 139.156C86.3967 138.069 99.231 137.377 119.397 137.377C139.562 137.377 152.397 138.069 152.397 139.156C152.397 140.242 139.562 140.934 119.397 140.934Z" fill="black"/>
</svg>
