<svg width="388" height="439" viewBox="0 0 388 439" fill="none" xmlns="http://www.w3.org/2000/svg">
<mask id="path-1-inside-1_83_1229" fill="white">
<path d="M194 0C301.143 0 388 94.6783 388 211.47C388 211.978 387.997 212.485 387.994 212.992C387.997 213.13 388 213.269 388 213.408V421C388 430.941 379.941 439 370 439H18C8.05893 439 7.26082e-05 430.941 2.28882e-05 421V213.408C2.48195e-05 213.269 0.00176743 213.13 0.0049057 212.992C0.00162536 212.485 2.33489e-05 211.978 2.28882e-05 211.47C2.28882e-05 94.6783 86.8568 0 194 0Z"/>
</mask>
<path d="M194 0C301.143 0 388 94.6783 388 211.47C388 211.978 387.997 212.485 387.994 212.992C387.997 213.13 388 213.269 388 213.408V421C388 430.941 379.941 439 370 439H18C8.05893 439 7.26082e-05 430.941 2.28882e-05 421V213.408C2.48195e-05 213.269 0.00176743 213.13 0.0049057 212.992C0.00162536 212.485 2.33489e-05 211.978 2.28882e-05 211.47C2.28882e-05 94.6783 86.8568 0 194 0Z" fill="#F3EFEB"/>
<path d="M388 211.47H390V211.47H388ZM387.994 212.992L385.994 212.979L385.994 213.008L385.995 213.038L387.994 212.992ZM388 213.408H390V213.408L388 213.408ZM388 421H390V421H388ZM2.28882e-05 421H-1.99998V421H2.28882e-05ZM2.28882e-05 213.408L-1.99998 213.408V213.408H2.28882e-05ZM0.0049057 212.992L2.00439 213.038L2.00505 213.008L2.00486 212.979L0.0049057 212.992ZM2.28882e-05 211.47H-1.99998V211.47H2.28882e-05ZM194 0V2C299.88 2 386 95.6171 386 211.47H388H390C390 93.7396 302.407 -2 194 -2V0ZM388 211.47H386C386 211.971 385.997 212.474 385.994 212.979L387.994 212.992L389.994 213.005C389.997 212.497 390 211.984 390 211.47H388ZM387.994 212.992L385.995 213.038C385.998 213.174 386 213.293 386 213.408L388 213.408L390 213.408C390 213.245 389.997 213.087 389.994 212.947L387.994 212.992ZM388 213.408H386V421H388H390V213.408H388ZM388 421H386C386 429.837 378.837 437 370 437V439V441C381.046 441 390 432.046 390 421H388ZM370 439V437H18V439V441H370V439ZM18 439V437C9.16351 437 2.00007 429.837 2.00002 421H2.28882e-05H-1.99998C-1.99992 432.046 6.95435 441 18 441V439ZM2.28882e-05 421H2.00002V213.408H2.28882e-05H-1.99998V421H2.28882e-05ZM2.28882e-05 213.408L2.00002 213.408C2.00002 213.286 2.00156 213.162 2.00439 213.038L0.0049057 212.992L-1.99458 212.947C-1.99802 213.099 -1.99997 213.252 -1.99998 213.408L2.28882e-05 213.408ZM0.0049057 212.992L2.00486 212.979C2.00161 212.477 2.00002 211.973 2.00002 211.47H2.28882e-05H-1.99998C-1.99998 211.982 -1.99836 212.494 -1.99505 213.005L0.0049057 212.992ZM2.28882e-05 211.47H2.00002C2.00002 95.6171 88.1202 2 194 2V0V-2C85.5934 -2 -1.99998 93.7396 -1.99998 211.47H2.28882e-05Z" fill="#1E1E1E" mask="url(#path-1-inside-1_83_1229)"/>
<circle cx="10" cy="10" r="10" transform="matrix(-1 0 0 1 283 309)" fill="#FFD168"/>
<ellipse cx="8.5" cy="9.5" rx="8.5" ry="9.5" transform="matrix(-1 0 0 1 332 188)" fill="#FFD168"/>
<path d="M341.208 162.785C343.309 161.368 346.112 163.033 345.872 165.556L344.053 184.689C343.844 186.88 341.426 188.108 339.534 186.984L325.419 178.598C323.527 177.473 323.449 174.762 325.274 173.531L341.208 162.785Z" fill="#FFD168"/>
<path d="M271 281.438C271 281.438 318.527 280.822 327.192 285.122C335.856 289.422 306.326 355.916 306.326 355.916" stroke="#FFD168" stroke-width="10" stroke-linecap="round"/>
<path fill-rule="evenodd" clip-rule="evenodd" d="M327.66 166.913C315.229 173.008 304.999 182.283 298.762 193.112C295.24 199.231 292.564 201.89 287.532 204.278C279.243 208.21 275.594 213.189 272.596 224.657C269.226 237.55 270.452 239.338 278.205 232.836C285.222 226.948 288.79 227.771 284.442 234.272C281.82 238.196 281.824 238.362 284.588 239.908C291.404 243.718 294.426 247.897 293.378 252.065C291.793 258.373 288.221 262.95 285.641 261.979C284.205 261.44 280.979 263.416 276.914 267.325C273.368 270.737 270.467 273.18 270.467 272.758C270.467 272.334 271.524 268.497 272.817 264.23C274.111 259.964 274.761 254.882 274.263 252.939C273.577 250.26 274.426 248.357 277.761 245.087C280.184 242.712 281.316 240.77 280.275 240.77C275.863 240.77 267.154 256.003 270.868 257.223C272.238 257.673 271.888 260.293 269.484 267.564C267.713 272.92 266.802 277.302 267.458 277.302C268.115 277.302 272.138 274.232 276.398 270.478C282.01 265.533 284.465 264.166 285.315 265.513C286.952 268.108 293.998 258.817 295.306 252.338C296.374 247.039 301.388 239.309 303.756 239.309C304.594 239.309 304.779 242.584 304.208 247.346C303.648 252.009 303.826 255.383 304.632 255.383C305.396 255.383 308.924 253.237 312.472 250.614C320.601 244.603 325.883 234.852 325.41 226.725C325.142 222.114 326.145 219.053 329.725 213.573C338.759 199.738 340.971 192.956 341.698 176.84C342.493 159.236 342.833 159.475 327.66 166.913ZM340.546 173.552C340.546 180.015 339.942 183.781 338.905 183.781C336.612 183.781 321.256 174.537 321.204 173.125C321.173 172.235 338.407 163.33 340.173 163.324C340.379 163.323 340.546 167.926 340.546 173.552ZM326.76 179.762C330.823 182.375 335.351 185.198 336.822 186.038C339.372 187.494 339.378 187.915 336.951 195.079C332.518 208.161 316.919 228.462 305.827 235.584C302.283 237.86 301.788 237.781 295.234 233.902C290.603 231.161 288.359 228.842 288.359 226.799C288.359 221.29 292.996 208.039 298.3 198.393C302.986 189.87 315.726 175.013 318.347 175.013C318.911 175.013 322.696 177.149 326.76 179.762ZM317.05 185.391C311.78 187.311 309.757 193.074 312.769 197.579C316.034 202.463 321.653 203.756 326.391 200.712C335.169 195.076 327.044 181.751 317.05 185.391ZM326.452 190.258C329.677 195.082 327.168 199.855 321.408 199.855C316.491 199.855 313.707 197.479 313.707 193.279C313.707 186.304 322.426 184.238 326.452 190.258ZM289.305 214.372C286.552 223.14 285.24 225.13 279.568 229.147L273.015 233.791L274.039 227.506C275.395 219.203 280.422 210.677 286.048 207.143C288.55 205.573 291.021 204.277 291.541 204.263C292.061 204.25 291.055 208.799 289.305 214.372ZM323.089 231.203C321.738 238.19 318.703 243.057 312.653 247.945C305.791 253.488 304.385 253.619 306.359 248.533C307.197 246.372 307.686 243.136 307.446 241.342C307.137 239.032 309.182 236.015 314.458 231C322.228 223.615 324.544 223.669 323.089 231.203ZM293.942 235.691C298.786 238.583 300.061 241.294 297.349 242.936C295.808 243.868 287.629 240.237 286.212 237.99C285.203 236.39 286.834 231.681 288.17 232.342C288.684 232.596 291.282 234.104 293.942 235.691ZM281.146 247.409C279.052 251.913 278.906 256.365 280.815 257.521C282.401 258.481 293.377 249.583 292.121 248.354C291.675 247.918 289.312 249.436 286.868 251.73C281.581 256.694 280.29 256.086 282.561 249.7C284.602 243.963 283.545 242.251 281.146 247.409Z" fill="black"/>
<path fill-rule="evenodd" clip-rule="evenodd" d="M139.83 154.328C130.326 158.889 116.595 170.702 116.595 174.317C116.595 175.216 113.029 175.953 108.669 175.953C98.997 175.953 89.2203 183.369 87.2868 192.173C84.2461 206.019 93.049 220.829 106.467 224.441C112.52 226.072 115.383 228.505 119.482 235.501C122.373 240.433 126.65 245.81 128.986 247.447C133.205 250.401 133.184 250.468 126.244 256.562C118.118 263.697 108.291 281.319 103.583 297.194C101.769 303.306 99.7244 318.572 99.0355 331.119L97.7848 353.928L92.0731 348.454C82.0539 338.856 79.391 328.252 81.3447 305.731C82.2822 294.923 83.0964 276.078 83.153 263.853C83.252 242.967 82.9025 240.983 77.3524 230.966C67.7656 213.659 49.8648 206.421 45.5714 218.117C44.0521 222.257 45.1592 224.114 53.8712 232.017C59.6739 237.283 64.9431 244.228 66.3351 248.447C69.4001 257.732 69.2566 274.926 65.9876 290.281C64.5875 296.862 63.4136 309.071 63.3813 317.417C63.3207 332.206 64.5592 336.298 75.7523 358.319C76.1765 359.152 71.4468 359.835 65.2421 359.835H53.9622V376H318.636V359.835H310.318C300.06 359.835 299.814 361.471 316.397 319.53C323.184 302.365 328.738 287.165 328.738 285.755C328.738 284.344 326.98 282.251 324.83 281.099C320.365 278.709 238.106 278.212 234.56 280.554C233.326 281.37 230.518 285.567 228.321 289.879L224.329 297.717L219.496 289.879C216.839 285.567 209.873 276.383 204.018 269.47C198.161 262.557 193.37 256.419 193.37 255.827C193.37 255.234 196.856 251.601 201.113 247.754C205.372 243.905 210.477 237.16 212.459 232.763C214.704 227.786 217.821 224.328 220.725 223.601C227.457 221.91 236.896 213.372 239.809 206.338C245.428 192.771 236.217 175.953 223.167 175.953C217.916 175.953 214.639 174.119 208.428 167.699C196.066 154.922 187.026 151.101 167.105 150.23C152.196 149.58 148.598 150.119 139.83 154.328ZM159.904 176.998L169.469 182.084L175.764 176.786C189.396 165.315 209.534 176.364 209.534 195.315C209.534 204.493 206.867 212.053 202.664 214.779C201.442 215.573 200.399 220.337 200.347 225.367C200.175 241.633 188.075 252.998 169.499 254.341C148.764 255.841 133.653 244.016 135.084 227.41C135.488 222.728 134.35 219.159 131.437 215.961C122.046 205.659 120.143 194.758 125.818 183.784C129.026 177.576 138.383 172.134 146.095 171.991C148.43 171.948 154.643 174.201 159.904 176.998ZM109.538 200.191C109.529 209.078 108.915 216.353 108.174 216.357C101.856 216.401 94.3703 206.746 94.3703 198.555C94.3703 193.345 101.923 184.036 106.147 184.036C109.055 184.036 109.548 186.388 109.538 200.191ZM230.633 188.528C236.417 196.785 233.217 209.24 224.052 214.146C220.923 215.821 220.593 214.473 220.593 200.016C220.593 186.299 221.08 184.036 224.04 184.036C225.937 184.036 228.903 186.057 230.633 188.528ZM172.437 213.728C170.162 216.003 171.053 218.388 174.176 218.388C175.843 218.388 177.207 217.533 177.207 216.486C177.207 213.938 174.051 212.113 172.437 213.728ZM63.3267 218.224C71.867 223.431 80.2861 241.068 81.7044 256.724C82.363 263.99 81.3528 279.151 79.2334 293.783C75.8593 317.071 75.8472 319.237 79.0273 330.181C81.0801 337.243 85.1572 344.857 89.4001 349.555C93.2449 353.811 96.3907 357.917 96.3907 358.681C96.3907 359.443 92.6287 359.788 88.0323 359.445C80.2659 358.869 79.2455 358.065 73.651 348.139C65.535 333.742 64.345 317.73 69.1779 287.984C72.3741 268.302 72.5237 263.649 70.279 253.432C68.0949 243.48 66.1311 240.15 57.7949 232.243C48.4848 223.413 46.1149 218.826 49.2486 215.694C51.6205 213.322 56.819 214.255 63.3267 218.224ZM148.921 228.897C148.921 229.956 151.578 233.48 154.827 236.729C162.284 244.187 172.603 244.743 180.05 238.089C189.622 229.536 187.986 228.147 167.61 227.535C156.726 227.208 148.921 227.778 148.921 228.897ZM181.248 232.565C181.248 233.694 178.211 236.066 174.5 237.837C168.309 240.789 167.228 240.783 161.367 237.752C151.619 232.71 153.667 230.512 168.115 230.512C175.663 230.512 181.248 231.385 181.248 232.565ZM165.654 262.822C170.968 262.834 178.502 261.511 182.393 259.884L189.473 256.928L196.977 265.132C206.632 275.686 219.357 294.371 220.797 300.106C221.448 302.698 219.759 309.451 216.775 316.202L211.631 327.833L205.527 323.487C197.262 317.601 196.076 314.78 194.467 297.194C193.704 288.858 192.609 280.38 192.031 278.351C189.568 269.7 189.693 277.868 192.409 303.335C194.005 318.296 195.328 334.853 195.35 340.133L195.391 349.731H164.216C133.423 349.731 133.031 349.788 132.394 354.278C132.039 356.779 130.839 358.58 129.727 358.279C126.939 357.527 127.483 317.752 130.517 300.494C131.861 292.861 132.548 286.207 132.045 285.704C129.79 283.449 126.145 308.637 125.194 333.061L124.149 359.835H102.452L102.482 337.102C102.498 323.998 103.804 308.885 105.563 301.423C109.388 285.193 119.219 266.526 128.004 258.811L134.732 252.903L145.361 257.853C151.938 260.915 159.678 262.81 165.654 262.822ZM324.697 287.098C324.697 289.325 318.654 306.602 311.269 325.491L297.84 359.835H250.657C220.042 359.835 203.472 359.113 203.472 357.782C203.472 355.753 219.169 317.207 229.174 294.668L234.33 283.049H279.514C323.378 283.049 324.697 283.166 324.697 287.098ZM261.367 315.034C252.116 325.259 265.309 338.114 275.053 328.371C281.115 322.307 276.763 311.338 268.295 311.338C266.323 311.338 263.206 313.001 261.367 315.034ZM273.033 316.534C277.039 320.543 277.021 322.359 272.932 326.451C265.911 333.471 256.316 324.871 262.967 317.52C267.487 312.525 268.885 312.387 273.033 316.534ZM209.534 331.885C209.534 335.479 202.905 349.731 201.232 349.731C200.242 349.731 199.432 347.585 199.432 344.962C199.432 342.338 198.836 335.841 198.106 330.523L196.781 320.856L203.157 325.57C206.665 328.163 209.534 331.004 209.534 331.885ZM201.422 353.267C201.298 359.269 197.551 359.934 166.978 359.384C139.189 358.885 135.766 358.444 135.16 355.288C134.536 352.035 137.165 351.752 167.968 351.752C186.384 351.752 201.438 352.435 201.422 353.267ZM316.615 373.979H58.003V361.855H316.615V373.979Z" fill="black"/>
<path d="M185.418 202.537C185.418 200.666 185.454 198.256 187.154 196.556C190.574 193.135 195.276 194.069 196.977 198.502C198.427 202.281 196.579 206.856 193.059 208.207C190.229 209.295 185.418 205.773 185.418 202.537Z" fill="black"/>
<path d="M135.575 203.105C135.575 201.489 136.666 199.074 137.999 197.74C139.333 196.407 142.333 195.315 144.666 195.315C149.473 195.315 153.758 198.862 153.758 202.839C153.758 204.879 152.55 204.72 148.655 202.168C146.02 199.506 143.299 199.054 139.563 202.434C136.381 205.316 135.575 205.451 135.575 203.105Z" fill="black"/>
<path d="M163.194 218.388C160.07 218.388 159.179 216.003 161.454 213.728C163.069 212.113 166.224 213.938 166.224 216.486C166.224 217.533 164.861 218.388 163.194 218.388Z" fill="black"/>
</svg>
