<svg width="388" height="439" viewBox="0 0 388 439" fill="none" xmlns="http://www.w3.org/2000/svg">
<mask id="path-1-inside-1_83_1147" fill="white">
<path d="M194 0C301.143 0 388 94.6783 388 211.47C388 211.978 387.997 212.485 387.994 212.992C387.997 213.13 388 213.269 388 213.408V421C388 430.941 379.941 439 370 439H18C8.05891 439 4.972e-05 430.941 0 421V213.408C1.93127e-06 213.269 0.00174455 213.13 0.00488281 212.992C0.00160247 212.485 4.60728e-07 211.978 0 211.47C0 94.6783 86.8568 0 194 0Z"/>
</mask>
<path d="M194 0C301.143 0 388 94.6783 388 211.47C388 211.978 387.997 212.485 387.994 212.992C387.997 213.13 388 213.269 388 213.408V421C388 430.941 379.941 439 370 439H18C8.05891 439 4.972e-05 430.941 0 421V213.408C1.93127e-06 213.269 0.00174455 213.13 0.00488281 212.992C0.00160247 212.485 4.60728e-07 211.978 0 211.47C0 94.6783 86.8568 0 194 0Z" fill="#F3EFEB"/>
<path d="M388 211.47H390V211.47H388ZM387.994 212.992L385.994 212.979L385.994 213.008L385.995 213.038L387.994 212.992ZM388 213.408H390V213.408L388 213.408ZM388 421H390V421H388ZM0 421H-2V421H0ZM0 213.408L-2 213.408V213.408H0ZM0.00488281 212.992L2.00437 213.038L2.00503 213.008L2.00484 212.979L0.00488281 212.992ZM0 211.47H-2V211.47H0ZM194 0V2C299.88 2 386 95.6171 386 211.47H388H390C390 93.7396 302.407 -2 194 -2V0ZM388 211.47H386C386 211.971 385.997 212.474 385.994 212.979L387.994 212.992L389.994 213.005C389.997 212.497 390 211.984 390 211.47H388ZM387.994 212.992L385.995 213.038C385.998 213.174 386 213.293 386 213.408L388 213.408L390 213.408C390 213.245 389.997 213.087 389.994 212.947L387.994 212.992ZM388 213.408H386V421H388H390V213.408H388ZM388 421H386C386 429.837 378.837 437 370 437V439V441C381.046 441 390 432.046 390 421H388ZM370 439V437H18V439V441H370V439ZM18 439V437C9.16348 437 2.00004 429.837 2 421H0H-2C-1.99994 432.046 6.95433 441 18 441V439ZM0 421H2V213.408H0H-2V421H0ZM0 213.408L2 213.408C2 213.286 2.00154 213.162 2.00437 213.038L0.00488281 212.992L-1.9946 212.947C-1.99805 213.099 -2 213.252 -2 213.408L0 213.408ZM0.00488281 212.992L2.00484 212.979C2.00159 212.477 2 211.973 2 211.47H0H-2C-2 211.982 -1.99838 212.494 -1.99508 213.005L0.00488281 212.992ZM0 211.47H2C2 95.6171 88.1202 2 194 2V0V-2C85.5934 -2 -2 93.7396 -2 211.47H0Z" fill="#1E1E1E" mask="url(#path-1-inside-1_83_1147)"/>
<path d="M355.5 206.5C364.5 210 375.667 217.5 375 220C363 240.8 341 274 327.5 290C314 306 323.5 329.5 315 338.5C307.611 346.323 291.5 342 291.5 342C285.5 348 272 363.5 261.5 363.5" stroke="#FFD168" stroke-width="10" stroke-linecap="round"/>
<ellipse cx="152.285" cy="183.991" rx="18.6585" ry="26.1898" transform="rotate(-5.97884 152.285 183.991)" fill="#FFD168"/>
<path fill-rule="evenodd" clip-rule="evenodd" d="M159.564 152.452C159.564 160.686 163.299 160.139 164.002 151.804C164.375 147.389 163.903 146 162.028 146C160.197 146 159.564 147.659 159.564 152.452ZM135.234 156.819C134.779 157.556 136.493 160.157 139.042 162.601C143.088 166.479 143.809 166.703 144.706 164.365C146.504 159.672 137.771 152.713 135.234 156.819ZM180.077 159.452C177.223 162.491 176.782 163.859 178.2 165.278C179.619 166.697 180.986 166.256 184.024 163.401C186.206 161.35 187.992 158.728 187.992 157.576C187.992 154.228 184.12 155.146 180.077 159.452ZM151.479 165.757C146.904 168.246 142.177 176.834 142.218 182.583C142.232 184.624 144.353 189.85 146.929 194.195C149.505 198.541 151.626 203.34 151.641 204.861C151.663 207.186 153.184 207.627 161.192 207.627C168.897 207.627 170.877 207.097 171.547 204.861C172.003 203.34 174.113 198.792 176.236 194.753C181.977 183.829 181.495 175.527 174.726 168.754C170.231 164.257 168.236 163.393 162.486 163.445C158.707 163.48 153.755 164.52 151.479 165.757ZM167.273 168.293C172.185 170.008 176.937 176.504 176.937 181.505C176.937 183.823 168.513 200.873 166.415 202.801C165.893 203.283 165.831 198.877 166.281 193.01C166.894 184.997 166.597 182.344 165.086 182.344C163.978 182.344 163.107 183.234 163.148 184.319C163.459 192.729 162.481 202.886 161.36 202.886C160.61 202.886 159.623 198.225 159.166 192.527C158.708 186.828 157.901 181.732 157.37 181.201C155.23 179.06 154.788 182.38 156.099 190.746C156.859 195.595 157.043 200.273 156.508 201.14C155.973 202.006 153.067 198.128 150.049 192.523L144.56 182.333L147.719 176.45C150.636 171.019 156.326 166.621 160.513 166.566C161.469 166.553 164.511 167.331 167.273 168.293ZM124.818 179.974C124.818 181.685 126.573 182.344 131.136 182.344C135.699 182.344 137.453 181.685 137.453 179.974C137.453 178.262 135.699 177.603 131.136 177.603C126.573 177.603 124.818 178.262 124.818 179.974ZM185.961 178.582C182.809 181.737 185.053 184.096 190.756 183.624C198.198 183.008 199.065 178.627 191.884 177.924C189.246 177.665 186.582 177.962 185.961 178.582ZM345.702 207.232C343.516 209.622 335.401 220.69 327.667 231.829L313.608 252.08L310.926 245.764C307.654 238.054 302.278 234.3 293.89 233.869C288.596 233.597 286.618 232.457 281.926 226.971C270.214 213.284 245.328 205.979 226.368 210.667C216.615 213.078 203.21 221.926 198.659 228.951C195.63 233.632 194.206 234.453 189.098 234.471C180.873 234.498 174.696 238.054 171.623 244.535C165.228 258.017 172.635 272.945 187.805 277.146C192.284 278.387 194.545 280.469 198.258 286.773C204.141 296.759 215.917 307.966 224.741 311.973C244.35 320.879 267.184 310.913 282.951 286.566C287.174 280.048 293.042 275.859 295.087 277.905C295.43 278.249 291.358 284.444 286.037 291.67C265.633 319.38 262.514 325.541 258.994 345.102C257.233 354.889 256.205 363.31 256.71 363.816C257.214 364.321 259.194 363.751 261.109 362.548C263.024 361.347 269.781 357.56 276.123 354.131C282.468 350.703 288.758 346.216 290.106 344.16C292.04 341.206 293.158 340.748 295.445 341.973C303.456 346.261 316.002 341.026 318.895 332.187C319.973 328.897 320.143 323.96 319.352 318.999C318.357 312.767 318.692 309.722 320.911 304.777C322.463 301.318 323.752 297.545 323.776 296.394C323.798 295.244 334.465 279.4 347.48 261.183C360.494 242.967 371.927 226.598 372.884 224.808C375.653 219.633 373.307 214.497 365.428 208.478C356.506 201.662 351.108 201.322 345.702 207.232ZM362.727 209.602C367.679 212.912 370.597 216.074 370.94 218.5C371.477 222.303 366.763 232.909 364.534 232.909C363.871 232.909 360.24 230.598 356.465 227.774C352.69 224.95 347.599 221.189 345.149 219.418L340.697 216.199L345.846 210.332C348.676 207.107 351.906 204.466 353.021 204.466C354.134 204.466 358.503 206.778 362.727 209.602ZM66.0081 213.091C57.6391 216.292 47.0874 223.879 42.3351 230.111C39.0706 234.393 37.1786 235.438 32.679 235.438C21.3787 235.438 14 243.449 14 255.718C14 267.582 20.5859 275.971 31.635 278.181C34.7163 278.798 37.5087 280.988 39.6661 284.48C41.4839 287.424 45.3959 292.735 48.3604 296.284C54.3872 303.502 54.7899 305.875 51.3785 314.045C46.4162 325.928 49.1469 336.319 58.503 341.161C64.9483 344.495 69.6848 344.112 78.8277 339.517C85.3915 336.219 87.0814 334.48 88.4254 329.641C89.3209 326.411 90.0584 323.053 90.0631 322.18C90.0679 321.306 93.5883 318.977 97.8857 317.005C108.343 312.204 121.876 299.566 128.841 288.094C132.14 282.66 135.634 278.731 137.172 278.728C141.556 278.719 149.914 272.776 153.255 267.292C156.958 261.217 157.386 250.451 154.171 244.231C151.457 238.982 145.588 235.629 138.663 235.371C134.713 235.224 131.655 233.328 125.608 227.278C113.839 215.502 105.119 211.906 86.9139 211.318C76.6655 210.986 70.0386 211.549 66.0081 213.091ZM153.247 213.631C153.247 218.189 163.434 220.505 167.145 216.792C170.549 213.386 169.167 212.367 161.143 212.367C156.8 212.367 153.247 212.936 153.247 213.631ZM358.771 232.135C361.917 234.722 362.569 236.19 361.456 238.181C359.491 241.694 356.516 241.498 353.014 237.626C351.43 235.875 347.057 232.499 343.296 230.12C336.199 225.636 335.191 223.741 338.263 220.668C340.073 218.857 348.02 223.302 358.771 232.135ZM339.61 230.664C339.61 231.106 332.723 241.215 324.306 253.126C315.888 265.037 305.182 280.296 300.512 287.03C292.486 298.61 288.949 301.334 286.694 297.684C286.152 296.807 289.332 290.94 293.759 284.647C298.185 278.354 309.032 262.765 317.863 250.008C331.688 230.03 334.312 227.023 336.764 228.336C338.329 229.174 339.61 230.222 339.61 230.664ZM229.845 231.331C233.32 233.031 237.32 235.269 238.734 236.302C240.812 237.821 242.137 237.528 245.629 234.779C255.573 226.954 268.23 227.54 275.482 236.163C283.344 245.511 282.322 260.605 273.314 268.19C269.282 271.586 268.846 272.714 270.008 276.77C271.921 283.443 270.52 288.588 264.948 295.353C259.068 302.489 249.559 307.095 240.609 307.143C231.826 307.189 227.334 305.308 219.658 298.37C212.558 291.951 209.952 285.087 211.928 278.004C213.033 274.043 212.537 272.588 208.699 268.523C202.529 261.991 200.627 257.863 200.627 251.006C200.627 239.793 210.642 228.243 220.369 228.24C222.106 228.238 226.371 229.629 229.845 231.331ZM75.6326 234.374C78.9129 236.049 82.5234 238.536 83.6558 239.902C85.4925 242.116 86.2885 241.878 91.0187 237.724C105.495 225.007 126.398 234.017 126.398 252.974C126.398 260.866 123.283 267.937 118.256 271.459C115.447 273.428 114.808 275.508 114.693 283.051C114.548 292.521 111.509 298.502 104.258 303.583C101.578 305.46 100.59 305.294 96.5101 302.276C92.5712 299.362 90.469 298.957 83.1945 299.708C74.8445 300.571 74.4939 300.449 72.6935 296.102C69.8032 289.121 65.6511 286.152 59.9465 286.989L54.9652 287.721L55.8797 281.051C56.6314 275.557 56.2066 273.86 53.468 271.421C49.6396 268.016 44.3567 257.258 44.3062 252.766C44.2477 247.588 50.2556 237.005 54.8831 234.137C60.6825 230.541 68.2918 230.628 75.6326 234.374ZM346.757 235.112C349.653 237.233 349.54 237.637 343.781 245.778C340.49 250.434 332.341 262.192 325.674 271.91C319.006 281.626 311.949 290.322 309.994 291.234C308.037 292.145 305.195 294.885 303.677 297.322C301.974 300.054 299.856 301.536 298.152 301.189C296.633 300.879 295.388 300.131 295.388 299.528C295.388 297.063 340.806 232.909 342.551 232.909C343.208 232.909 345.1 233.9 346.757 235.112ZM356.983 243.176C356.983 243.546 349.134 254.907 339.541 268.421C323.736 290.684 321.801 292.833 318.937 291.3C315.912 289.68 316.072 289.189 322.678 279.826C326.473 274.446 334.375 263.113 340.236 254.642C349.649 241.041 351.25 239.431 353.938 240.872C355.612 241.768 356.983 242.804 356.983 243.176ZM188.861 255.664C188.785 269.987 188.67 270.459 185.623 268.91C177.821 264.943 174.137 252.826 178.911 246.839C180.781 244.495 186.19 240.962 188.071 240.858C188.548 240.832 188.904 247.494 188.861 255.664ZM302.101 245.864C306.738 251.228 305.667 259.286 299.495 265.461C292.043 272.916 290.796 272.411 292.568 262.656C293.504 257.497 293.495 252.276 292.539 248.51C291.705 245.228 291.423 242.146 291.908 241.659C293.428 240.137 299.215 242.525 302.101 245.864ZM33.6408 246.736C32.9728 249.125 32.5258 255.874 32.6458 261.733L32.8654 272.385L28.4368 269.769C18.1821 263.707 17.7699 249.643 27.6882 244.216C33.2112 241.193 34.9801 241.943 33.6408 246.736ZM146.211 246.27C152.992 253.053 150.101 265.753 140.621 270.829C137.924 272.273 137.734 271.624 137.979 261.733C138.124 255.874 137.696 249.125 137.028 246.736C135.986 243.007 136.275 242.39 139.074 242.39C140.868 242.39 144.079 244.137 146.211 246.27ZM58.195 252.668C55.8402 257.841 57.8665 259.78 60.981 255.332C63.9991 251.02 67.3331 250.903 69.5411 255.032C71.4663 258.63 74.2791 259.245 74.2791 256.067C74.2791 252.674 68.8761 248.711 64.2502 248.711C61.2447 248.711 59.468 249.871 58.195 252.668ZM101.444 250.607C100.402 251.65 99.5488 253.942 99.5488 255.7C99.5488 258.772 99.6435 258.759 102.008 255.384C105.092 250.977 110.614 250.778 111.726 255.032C112.754 258.966 115.342 259.192 115.342 255.348C115.342 251.323 112.234 248.711 107.446 248.711C105.187 248.711 102.486 249.564 101.444 250.607ZM213.578 250.607C211.278 252.908 211.083 256.612 213.262 256.612C214.131 256.612 214.841 255.977 214.841 255.201C214.841 252.341 220.107 251.859 222.977 254.457C226.933 258.039 228.729 255.876 225.117 251.881C221.907 248.335 216.452 247.731 213.578 250.607ZM257.089 250.418C254.134 252.14 253.278 256.612 255.905 256.612C256.773 256.612 257.484 255.879 257.484 254.983C257.484 251.905 262.342 251.491 265.449 254.303C269.53 257.998 271.46 255.972 267.759 251.881C264.61 248.4 261.325 247.95 257.089 250.418ZM232.966 266.155C231.374 268.73 234.91 271.929 237.019 269.819C238.162 268.675 237.963 267.588 236.37 266.265C234.673 264.857 233.786 264.827 232.966 266.155ZM245.165 266.409C244.123 267.452 243.27 268.874 243.27 269.569C243.27 271.453 247.659 271.097 248.883 269.116C250.51 266.483 247.373 264.2 245.165 266.409ZM78.1185 267.85C76.7571 270.055 80.8682 272.774 82.7366 270.905C84.2543 269.386 82.7918 266.093 80.5965 266.093C79.8305 266.093 78.7155 266.883 78.1185 267.85ZM89.283 267.673C87.5757 270.437 90.1074 272.772 92.5822 270.717C93.8078 269.699 94.8107 268.242 94.8107 267.48C94.8107 265.575 90.4864 265.726 89.283 267.673ZM84.9397 278.335C74.734 278.61 66.3855 279.346 66.3887 279.97C66.4013 282.598 72.793 291.314 75.9422 293C81.1114 295.769 92.4527 295.41 97.1529 292.329C103.745 288.008 109.832 275.862 104.588 277.494C103.988 277.68 95.1455 278.06 84.9397 278.335ZM221.881 278.847C221.574 279.343 222.722 282.051 224.434 284.867C228.34 291.292 237.088 295.159 244.552 293.757C250.934 292.559 259.063 285.161 259.063 280.548C259.063 277.541 258.124 277.393 240.751 277.661C230.679 277.816 222.187 278.35 221.881 278.847ZM101.209 284.903C99.1602 288.735 91.6662 292.956 86.9139 292.956C82.2564 292.956 74.6819 288.762 72.7219 285.096C71.1425 282.144 71.7459 281.99 86.4938 281.557C94.9765 281.308 102.153 281.222 102.441 281.364C102.728 281.508 102.174 283.1 101.209 284.903ZM255.905 281.62C255.905 283.979 248.881 289.541 244.538 290.619C236.974 292.496 225.897 286.905 225.897 281.209C225.897 280.718 232.649 280.315 240.901 280.315C249.153 280.315 255.905 280.902 255.905 281.62ZM67.4516 297.11C70.0765 301.121 70.0512 301.362 66.6982 304.079C61.6933 308.133 62.415 308.935 68.7008 306.307C74.6992 303.799 88.0384 303.276 91.4119 305.416C94.1584 307.157 93.0371 312.787 90.0126 312.454C88.7428 312.315 85.3946 311.692 82.5707 311.071C76.6023 309.759 75.3184 312.623 81.2125 314.103C83.2878 314.625 85.4183 316.177 85.9458 317.553C86.7181 319.568 85.9316 319.956 81.9106 319.542C75.3199 318.864 74.5381 321.788 80.6897 324.111C84.8781 325.692 85.3188 326.377 83.8832 329.061C82.8139 331.059 81.1414 331.895 79.2162 331.39C77.5658 330.957 75.7368 331.378 75.1541 332.323C73.0267 335.766 64.6972 334.178 59.9433 329.422C54.6494 324.125 54.4488 322.706 57.6959 313.498C58.9989 309.804 60.065 303.669 60.065 299.868C60.065 291.73 63.1684 290.571 67.4516 297.11ZM314.54 301.016C314.216 303.102 314.053 309.712 314.18 315.706C314.432 327.638 312.873 330.722 304.926 334.015C298.932 336.499 286.702 332.647 286.702 328.274C286.702 326.242 288.057 325.195 291.138 324.841C296.71 324.201 295.846 320.587 290.142 320.667C284.413 320.75 283.321 316.937 288.731 315.753C295.861 314.192 297.47 313.474 296.349 312.351C295.76 311.762 292.801 311.447 289.775 311.651C283.772 312.055 280.452 308.102 284.497 305.37C287.833 303.118 299.804 305.152 304.999 308.854C309.941 312.375 310.58 311.959 307.911 306.967C306.616 304.547 306.824 302.883 308.802 299.863C311.926 295.091 315.356 295.781 314.54 301.016ZM279.311 312.934C280.364 314.816 279.453 317.64 275.994 323.205C270.937 331.346 270.559 331.612 267.15 329.45C265.397 328.341 266.016 326.343 270.308 319.248C276.089 309.696 277.103 308.985 279.311 312.934ZM282.73 328.115C282.716 331.809 282.029 335.897 281.203 337.201C279.912 339.236 279.214 339.087 276.275 336.153L272.849 332.735L276.351 327.067C280.955 319.615 282.758 319.911 282.73 328.115ZM278.41 340.736C281.669 343.283 284.333 345.896 284.333 346.544C284.333 347.192 280.814 349.37 276.515 351.386C269.008 354.903 268.532 354.941 264.55 352.331C260.823 349.888 260.507 348.945 261.428 343.011C263.38 330.442 263.474 330.31 268.28 333.399C270.594 334.886 275.154 338.188 278.41 340.736ZM288.897 337.781C290.262 339.427 290.104 340.427 288.234 341.981C285.216 344.487 281.847 341.845 283.284 338.097C284.455 335.047 286.531 334.93 288.897 337.781Z" fill="black"/>
</svg>
