<svg width="28" height="34" viewBox="0 0 28 34" fill="none" xmlns="http://www.w3.org/2000/svg">
<path d="M13.7879 0.394287C21.1807 0.394287 27.1815 6.39504 27.1815 13.7878C27.1815 17.9803 25.2519 21.9597 22.8914 25.1736L22.8924 25.1746C21.2225 27.4498 19.3453 29.3485 17.8885 30.6775C17.1595 31.3426 16.5336 31.8664 16.0897 32.2244C15.8677 32.4033 15.6909 32.5412 15.5692 32.6345C15.5084 32.6811 15.4616 32.7169 15.4295 32.741C15.4194 32.7485 15.4103 32.7542 15.4031 32.7595V32.7605L15.3787 32.7791C14.4325 33.4735 13.1433 33.4735 12.1971 32.7791L12.1727 32.7605L12.1717 32.7595C12.1647 32.7543 12.1561 32.7483 12.1463 32.741C12.1142 32.7169 12.0674 32.6811 12.0067 32.6345C11.8849 32.5412 11.7081 32.4033 11.4861 32.2244C11.0422 31.8664 10.4163 31.3426 9.68732 30.6775C8.23053 29.3485 6.35335 27.4498 4.68341 25.1746V25.1736C2.32304 21.9598 0.394348 17.9801 0.394348 13.7878C0.394349 6.39504 6.3951 0.394287 13.7879 0.394287Z" fill="#FFD168" stroke="#1E1E1E" stroke-width="0.787879"/>
</svg>
