<svg width="162" height="147" viewBox="0 0 162 147" fill="none" xmlns="http://www.w3.org/2000/svg">
<path fill-rule="evenodd" clip-rule="evenodd" d="M128.745 146.006C128.745 115.006 128.745 84.006 128.745 53.006C122.745 53.006 116.745 53.006 110.745 53.006C107.385 25.294 105.045 25.294 103.745 53.006C93.0752 53.006 82.4152 53.006 71.7452 53.006C71.7452 48.339 71.7452 43.673 71.7452 39.006C70.7452 39.006 69.7452 39.006 68.7452 39.006C68.7452 43.673 68.7452 48.339 68.7452 53.006C63.5952 53.58 58.7652 52.913 54.2452 51.006C53.2452 42.145 54.0752 33.479 56.7452 25.006C55.1252 24.866 53.9552 25.533 53.2452 27.006C50.6052 35.476 49.1052 44.143 48.7452 53.006C44.0752 53.006 39.4152 53.006 34.7452 53.006C34.7452 84.006 34.7452 115.006 34.7452 146.006C31.4152 146.006 28.0752 146.006 24.7452 146.006C23.3652 144.932 22.1952 143.599 21.2452 142.006C21.0752 127.661 20.5752 113.328 19.7452 99.006C1.24519 91.003 -4.25481 77.669 3.24519 59.006C7.90519 52.83 14.0752 49.496 21.7452 49.006C25.1852 23.587 39.1852 7.421 63.7452 0.506004C69.6352 -0.502995 75.3052 -0.00299549 80.7452 2.006C104.895 -2.101 123.055 6.566 135.245 28.006C138.345 35.052 140.505 42.386 141.745 50.006C157.335 52.821 163.835 62.154 161.245 78.006C158.655 88.266 152.315 94.933 142.245 98.006C141.915 112.673 141.575 127.339 141.245 142.006C140.745 143.839 139.575 145.006 137.745 145.506C134.765 146.004 131.765 146.171 128.745 146.006Z" fill="#1E1E1E"/>
<path fill-rule="evenodd" clip-rule="evenodd" d="M110.745 53.006C116.225 53.995 121.885 54.328 127.745 54.006C127.745 84.006 127.745 114.006 127.745 144.006C125.805 145.212 124.145 144.879 122.745 143.006C123.745 143.006 124.745 143.006 125.745 143.006C126.075 134.251 125.745 126.251 124.745 119.006C118.905 126.014 112.235 132.18 104.745 137.506C103.175 138.205 101.835 137.871 100.745 136.506C110.955 130.46 118.955 122.293 124.745 112.006C125.905 100.18 126.075 88.18 125.245 76.006C124.735 77.033 124.235 78.033 123.745 79.006C120.265 84.319 115.935 88.819 110.745 92.506C116.405 109.522 111.075 121.855 94.7451 129.506C78.4951 135.767 64.6651 132.267 53.2451 119.006C48.9951 112.284 47.6651 104.951 49.2451 97.006C49.9551 95.425 50.7851 93.925 51.7451 92.506C46.1751 89.768 42.1751 85.601 39.7451 80.006C39.6851 79.463 39.3551 79.13 38.7451 79.006C37.4251 90.499 37.4251 101.832 38.7451 113.006C41.2351 116.644 43.7351 120.311 46.2451 124.006C51.5151 128.712 57.0151 133.045 62.7451 137.006C61.8851 138.089 60.8851 138.255 59.7451 137.506C51.6651 132.762 44.8351 126.596 39.2451 119.006C38.7451 126.665 38.5751 134.332 38.7451 142.006C38.7451 142.339 38.7451 142.673 38.7451 143.006C37.7451 143.673 36.7451 144.339 35.7451 145.006C35.7451 114.673 35.7451 84.339 35.7451 54.006C40.2751 54.324 44.6151 53.991 48.7451 53.006C49.1051 44.143 50.6051 35.476 53.2451 27.006C53.9551 25.533 55.1251 24.866 56.7451 25.006C54.0751 33.479 53.2451 42.145 54.2451 51.006C58.7651 52.913 63.5951 53.58 68.7451 53.006C68.7451 48.339 68.7451 43.673 68.7451 39.006C69.7451 39.006 70.7451 39.006 71.7451 39.006C71.7451 43.673 71.7451 48.339 71.7451 53.006C82.4151 53.006 93.0751 53.006 103.745 53.006C105.045 25.294 107.385 25.294 110.745 53.006Z" fill="white"/>
<path fill-rule="evenodd" clip-rule="evenodd" d="M37.7452 56.0059C40.2152 56.4529 40.3852 57.4529 38.2452 59.0059C37.7652 58.0579 37.5952 57.0579 37.7452 56.0059Z" fill="#1E1E1E"/>
<path fill-rule="evenodd" clip-rule="evenodd" d="M122.745 56.0059C123.745 56.0059 124.745 56.0059 125.745 56.0059C125.695 62.3369 124.695 62.3369 122.745 56.0059Z" fill="#1E1E1E"/>
<path fill-rule="evenodd" clip-rule="evenodd" d="M98.7455 58.006C104.765 57.283 110.265 58.617 115.245 62.006C115.725 62.954 115.895 63.954 115.745 65.006C111.485 63.811 107.155 62.811 102.745 62.006C100.065 62.343 97.4055 62.676 94.7455 63.006C94.6555 60.106 95.9855 58.439 98.7455 58.006Z" fill="#1E1E1E"/>
<path fill-rule="evenodd" clip-rule="evenodd" d="M110.745 53.0059C116.745 53.0059 122.745 53.0059 128.745 53.0059C128.745 84.0059 128.745 115.006 128.745 146.006C127.905 145.664 127.575 144.998 127.745 144.006C127.745 114.006 127.745 84.0059 127.745 54.0059C121.885 54.3279 116.225 53.9949 110.745 53.0059Z" fill="#1E1E1E"/>
<path fill-rule="evenodd" clip-rule="evenodd" d="M52.7452 58.006C56.4252 57.841 60.0952 58.007 63.7452 58.506C68.0752 59.274 68.5752 60.774 65.2452 63.006C59.1752 61.067 53.6752 62.067 48.7452 66.006C46.9652 65.158 46.4652 63.825 47.2452 62.006C49.2652 60.809 51.0952 59.476 52.7452 58.006Z" fill="#1E1E1E"/>
<path fill-rule="evenodd" clip-rule="evenodd" d="M144.745 59.0059C150.465 61.4039 153.465 65.7379 153.745 72.0059C153.725 79.7279 150.395 85.3939 143.745 89.0059C143.075 84.1839 142.745 79.1839 142.745 74.0059C142.755 68.6249 143.415 63.6249 144.745 59.0059Z" fill="white"/>
<path fill-rule="evenodd" clip-rule="evenodd" d="M20.7454 58.0059C21.0754 68.8519 20.7354 79.5189 19.7454 90.0059C11.9254 86.8849 7.92539 81.0519 7.74539 72.5059C7.70539 63.7119 12.0454 58.8779 20.7454 58.0059Z" fill="white"/>
<path fill-rule="evenodd" clip-rule="evenodd" d="M100.745 66.0059C108.815 66.6799 110.815 70.5129 106.745 77.5059C99.6653 79.5769 96.4953 77.0769 97.2453 70.0059C97.9353 68.1559 99.1053 66.8219 100.745 66.0059Z" fill="#1E1E1E"/>
<path fill-rule="evenodd" clip-rule="evenodd" d="M56.7451 66.0059C64.8151 66.5989 66.8151 70.4319 62.7451 77.5059C57.2251 79.4309 53.8951 77.5969 52.7451 72.0059C53.6751 69.7409 55.0051 67.7409 56.7451 66.0059Z" fill="#1E1E1E"/>
<path fill-rule="evenodd" clip-rule="evenodd" d="M144.746 59.006C143.416 63.625 142.756 68.625 142.746 74.006C142.746 79.184 143.076 84.184 143.746 89.006C143.686 89.549 143.356 89.882 142.746 90.006C141.746 79.36 141.416 68.693 141.746 58.006C143.036 57.769 144.036 58.102 144.746 59.006Z" fill="#1E1E1E"/>
<path fill-rule="evenodd" clip-rule="evenodd" d="M20.7451 58.0059C22.0651 68.8459 22.0651 79.8459 20.7451 91.0059C20.1351 90.8819 19.8051 90.5489 19.7451 90.0059C20.7351 79.5189 21.0751 68.8519 20.7451 58.0059Z" fill="#1E1E1E"/>
<path fill-rule="evenodd" clip-rule="evenodd" d="M48.7451 53.0059C44.6151 53.9909 40.2751 54.3239 35.7451 54.0059C35.7451 84.3389 35.7451 114.673 35.7451 145.006C34.3751 146.293 32.5451 146.959 30.2451 147.006C28.2151 147 26.3751 146.667 24.7451 146.006C28.0751 146.006 31.4151 146.006 34.7451 146.006C34.7451 115.006 34.7451 84.0059 34.7451 53.0059C39.4151 53.0059 44.0751 53.0059 48.7451 53.0059Z" fill="#1E1E1E"/>
<path fill-rule="evenodd" clip-rule="evenodd" d="M39.7449 80.0059C38.7549 90.8269 38.4149 101.827 38.7449 113.006C37.4249 101.832 37.4249 90.4989 38.7449 79.0059C39.3549 79.1299 39.6849 79.4629 39.7449 80.0059Z" fill="#1E1E1E"/>
<path fill-rule="evenodd" clip-rule="evenodd" d="M124.745 112.006C125.075 100.827 124.735 89.8269 123.745 79.0059C124.235 78.0329 124.735 77.0329 125.245 76.0059C126.075 88.1799 125.905 100.18 124.745 112.006Z" fill="#1E1E1E"/>
<path fill-rule="evenodd" clip-rule="evenodd" d="M123.745 79.0059C124.735 89.8269 125.075 100.827 124.745 112.006C118.955 122.293 110.955 130.46 100.745 136.506C101.835 137.871 103.175 138.205 104.745 137.506C112.235 132.18 118.905 126.014 124.745 119.006C124.745 126.673 124.745 134.339 124.745 142.006C96.0752 142.006 67.4153 142.006 38.7453 142.006C38.5753 134.332 38.7453 126.665 39.2453 119.006C44.8353 126.596 51.6653 132.762 59.7453 137.506C60.8853 138.255 61.8853 138.089 62.7453 137.006C57.0153 133.045 51.5153 128.712 46.2453 124.006C43.7353 120.311 41.2353 116.644 38.7453 113.006C38.4153 101.827 38.7553 90.8269 39.7453 80.0059C42.1753 85.6009 46.1753 89.7679 51.7453 92.5059C50.7853 93.9249 49.9553 95.4249 49.2453 97.0059C47.6653 104.951 48.9953 112.284 53.2453 119.006C64.6653 132.267 78.4953 135.767 94.7453 129.506C111.075 121.855 116.405 109.522 110.745 92.5059C115.935 88.8189 120.265 84.3189 123.745 79.0059Z" fill="#1E1E1E"/>
<path fill-rule="evenodd" clip-rule="evenodd" d="M60.7452 106.006C62.1152 105.849 63.4552 106.016 64.7452 106.506C75.6952 115.034 86.6952 115.034 97.7452 106.506C99.0352 106.016 100.375 105.849 101.745 106.006C101.915 109.676 100.255 112.176 96.7452 113.506C86.0952 119.457 75.4252 119.457 64.7452 113.506C61.8452 111.791 60.5152 109.291 60.7452 106.006Z" fill="#1E1E1E"/>
<path fill-rule="evenodd" clip-rule="evenodd" d="M71.7446 85.0059C76.7446 84.1769 78.9146 86.1769 78.2446 91.0059C73.5446 92.1539 71.3846 90.1539 71.7446 85.0059Z" fill="#1E1E1E"/>
<path fill-rule="evenodd" clip-rule="evenodd" d="M86.7453 84.0061C90.3153 83.9141 91.4853 85.5801 90.2453 89.0061C88.4553 90.7351 86.2853 91.4021 83.7453 91.0061C83.1553 87.8311 84.1553 85.4971 86.7453 84.0061Z" fill="#1E1E1E"/>
<path fill-rule="evenodd" clip-rule="evenodd" d="M122.745 143.006C94.7451 143.006 66.7451 143.006 38.7451 143.006C38.7451 142.673 38.7451 142.339 38.7451 142.006C67.4151 142.006 96.0751 142.006 124.745 142.006C124.745 134.339 124.745 126.673 124.745 119.006C125.745 126.251 126.075 134.251 125.745 143.006C124.745 143.006 123.745 143.006 122.745 143.006Z" fill="#1E1E1E"/>
</svg>
