<svg width="189" height="129" viewBox="0 0 189 129" fill="none" xmlns="http://www.w3.org/2000/svg">
<path fill-rule="evenodd" clip-rule="evenodd" d="M182.98 58.2348C180.5 58.2908 177.83 57.9568 174.98 57.2348C175.27 54.9998 174.94 52.9998 173.98 51.2348C172.42 45.3388 168.75 41.3388 162.98 39.2348C160.79 37.9378 158.45 37.9378 155.98 39.2348C156.1 39.8418 156.44 40.1748 156.98 40.2348C156.98 40.9018 156.98 41.5678 156.98 42.2348C156.04 45.5378 155.04 48.8708 153.98 52.2348C155.03 52.0858 156.03 52.2518 156.98 52.7348C157.83 53.9228 157.83 55.4228 156.98 57.2348C154.17 64.4628 156.5 68.2958 163.98 68.7348C164.82 69.7458 165.15 70.9128 164.98 72.2348C158.8 71.7698 152.8 72.4358 146.98 74.2348C146.21 73.4718 145.71 72.4718 145.48 71.2348C141.83 74.0378 139.33 73.7048 137.98 70.2348C136.63 71.2528 135.63 72.5858 134.98 74.2348C133.92 73.3098 133.92 72.3098 134.98 71.2348C143.14 63.2308 145.98 53.5638 143.48 42.2348C135.84 26.5728 123.67 21.4058 106.98 26.7348C102.36 28.9558 98.2005 31.7888 94.4805 35.2348C86.0225 26.9078 75.8555 23.4078 63.9805 24.7348C44.2515 34.1458 39.9175 48.3118 50.9805 67.2348C50.3925 68.9398 50.0595 70.6068 49.9805 72.2348C51.3145 72.2638 52.6475 73.0978 53.9805 74.7348C53.2895 75.8018 52.7895 76.9688 52.4805 78.2348C52.1725 77.4268 51.6725 76.7598 50.9805 76.2348C49.9625 76.9278 48.9625 77.5938 47.9805 78.2348C40.6335 73.7498 32.6335 72.0828 23.9805 73.2348C23.9805 71.9018 23.9805 70.5678 23.9805 69.2348C31.8085 69.3958 34.1415 65.7288 30.9805 58.2348C31.1005 55.5298 30.1005 54.8628 27.9805 56.2348C26.2095 55.6998 25.8765 54.8658 26.9805 53.7348C25.7425 53.8118 24.7425 53.6458 23.9805 53.2348C26.9405 50.0228 30.1075 49.3558 33.4805 51.2348C32.7735 49.4238 32.2735 47.4238 31.9805 45.2348C31.7415 43.2678 32.0745 41.4338 32.9805 39.7348C29.5925 39.0758 26.2595 39.2428 22.9805 40.2348C22.3295 39.6438 21.6625 38.9778 20.9805 38.2348C19.7125 39.1628 18.3795 39.3298 16.9805 38.7348C18.3905 38.3668 19.3905 37.5338 19.9805 36.2348C19.6345 35.0388 19.1345 35.0388 18.4805 36.2348C17.9975 35.2868 17.8315 34.2868 17.9805 33.2348C19.0805 32.1768 20.4145 31.3428 21.9805 30.7348C27.3135 30.4018 32.6475 30.0678 37.9805 29.7348C57.1435 3.89981 82.4765 -5.1002 113.98 2.7348C128.81 7.4848 140.81 16.1508 149.98 28.7348C163.9 27.2478 174.4 32.4138 181.48 44.2348C182.71 48.8198 183.21 53.4868 182.98 58.2348Z" fill="#1E1E1E"/>
<path fill-rule="evenodd" clip-rule="evenodd" d="M134.98 71.235C132.54 72.292 130.21 73.625 127.98 75.235C129.08 77.696 129.08 80.196 127.98 82.735C132.98 97.422 128.31 108.089 113.98 114.735C94.9404 122.929 78.1044 119.763 63.4804 105.235C58.0804 95.687 57.5804 85.854 61.9804 75.735C57.9224 73.377 54.2554 70.543 50.9804 67.235C39.9174 48.312 44.2514 34.146 63.9804 24.735C75.8554 23.408 86.0224 26.908 94.4804 35.235C98.2004 31.789 102.36 28.956 106.98 26.735C123.67 21.406 135.84 26.573 143.48 42.235C145.98 53.564 143.14 63.231 134.98 71.235Z" fill="white"/>
<path fill-rule="evenodd" clip-rule="evenodd" d="M162.98 39.235C160.74 38.94 158.74 39.274 156.98 40.235C156.44 40.175 156.1 39.842 155.98 39.235C158.45 37.938 160.79 37.938 162.98 39.235Z" fill="white"/>
<path fill-rule="evenodd" clip-rule="evenodd" d="M31.9804 45.2347C31.0464 46.3027 30.7124 47.6357 30.9804 49.2347C26.8864 48.4397 23.7194 49.7727 21.4804 53.2347C19.6854 56.7867 18.1854 60.4527 16.9804 64.2347C12.7704 54.5217 14.7704 46.5217 22.9804 40.2347C26.2594 39.2427 29.5924 39.0757 32.9804 39.7347C32.0744 41.4337 31.7414 43.2677 31.9804 45.2347Z" fill="white"/>
<path fill-rule="evenodd" clip-rule="evenodd" d="M69.9809 35.2349C73.3139 35.2349 76.6479 35.2349 79.9809 35.2349C80.1949 36.8789 79.8609 38.3789 78.9809 39.7349C71.3259 39.9799 64.8259 42.8139 59.4809 48.2349C57.2929 47.6759 56.6269 46.3419 57.4809 44.2349C60.7799 39.8529 64.9469 36.8529 69.9809 35.2349Z" fill="#1E1E1E"/>
<path fill-rule="evenodd" clip-rule="evenodd" d="M108.98 35.2349C118.84 34.2319 126.51 37.7319 131.98 45.7349C131.81 47.2349 130.98 48.0679 129.48 48.2349C126.2 44.9639 122.36 42.4639 117.98 40.7349C115 40.2369 112 40.0699 108.98 40.2349C108.98 38.5679 108.98 36.9019 108.98 35.2349Z" fill="#1E1E1E"/>
<path fill-rule="evenodd" clip-rule="evenodd" d="M162.98 39.2347C168.75 41.3387 172.42 45.3387 173.98 51.2347C174.15 54.5847 173.98 57.9177 173.48 61.2347C173.06 62.4067 172.39 63.4067 171.48 64.2347C170.21 59.7557 168.54 55.4227 166.48 51.2347C163.99 49.2377 161.16 48.2377 157.98 48.2347C158.27 45.9997 157.94 43.9997 156.98 42.2347C156.98 41.5677 156.98 40.9017 156.98 40.2347C158.74 39.2737 160.74 38.9397 162.98 39.2347Z" fill="white"/>
<path fill-rule="evenodd" clip-rule="evenodd" d="M17.9802 33.2349C17.8312 34.2869 17.9972 35.2869 18.4802 36.2349C19.1342 35.0389 19.6342 35.0389 19.9802 36.2349C19.3902 37.5339 18.3902 38.3669 16.9802 38.7349C18.3792 39.3299 19.7122 39.1629 20.9802 38.2349C21.6622 38.9779 22.3292 39.6439 22.9802 40.2349C14.7702 46.5219 12.7702 54.5219 16.9802 64.2349C18.1852 60.4529 19.6852 56.7869 21.4802 53.2349C23.7192 49.7729 26.8862 48.4399 30.9802 49.2349C30.7122 47.6359 31.0462 46.3029 31.9802 45.2349C32.2732 47.4239 32.7732 49.4239 33.4802 51.2349C30.1072 49.3559 26.9402 50.0229 23.9802 53.2349C24.7422 53.6459 25.7422 53.8119 26.9802 53.7349C25.8762 54.8659 26.2092 55.6999 27.9802 56.2349C30.1002 54.8629 31.1002 55.5299 30.9802 58.2349C29.4702 57.0069 27.9702 57.0069 26.4802 58.2349C25.3932 62.5009 23.7262 66.5009 21.4802 70.2349C18.1472 73.5679 14.8132 76.9019 11.4802 80.2349C8.4142 88.3729 10.2482 95.2069 16.9802 100.735C22.1972 101.674 27.3632 102.84 32.4802 104.235C38.5852 100.25 38.2522 96.5829 31.4802 93.2349C30.9972 92.2869 30.8312 91.2869 30.9802 90.2349C34.3592 90.5879 37.3592 91.9219 39.9802 94.2349C41.8642 93.0419 42.3642 91.3759 41.4802 89.2349C39.7722 87.1919 37.7722 85.5249 35.4802 84.2349C34.9972 83.2869 34.8312 82.2869 34.9802 81.2349C39.7242 81.4599 43.3902 83.6269 45.9802 87.7349C51.4802 88.9019 53.6472 86.7349 52.4802 81.2349C50.8282 80.3359 49.3282 79.3359 47.9802 78.2349C48.9622 77.5939 49.9622 76.9279 50.9802 76.2349C51.6722 76.7599 52.1722 77.4269 52.4802 78.2349C52.7892 76.9689 53.2892 75.8019 53.9802 74.7349C52.6472 73.0979 51.3142 72.2639 49.9802 72.2349C50.0592 70.6069 50.3922 68.9399 50.9802 67.2349C54.2552 70.5429 57.9222 73.3769 61.9802 75.7349C57.5802 85.8539 58.0802 95.6869 63.4802 105.235C78.1042 119.763 94.9402 122.929 113.98 114.735C128.31 108.089 132.98 97.4219 127.98 82.7349C129.08 80.1959 129.08 77.6959 127.98 75.2349C130.21 73.6249 132.54 72.2919 134.98 71.2349C133.92 72.3099 133.92 73.3099 134.98 74.2349C135.63 72.5859 136.63 71.2529 137.98 70.2349C139.33 73.7049 141.83 74.0379 145.48 71.2349C145.71 72.4719 146.21 73.4719 146.98 74.2349C143.29 76.1729 139.79 78.5059 136.48 81.2349C135.15 86.2329 136.98 88.3989 141.98 87.7349C145.17 85.0429 148.51 82.5429 151.98 80.2349C152.98 80.5679 153.65 81.2349 153.98 82.2349C152.47 84.2419 150.64 85.9089 148.48 87.2349C146.97 94.1089 148.47 95.2759 152.98 90.7349C154.5 89.7259 156.17 89.2259 157.98 89.2349C157.85 92.2029 156.35 94.2029 153.48 95.2349C151.09 99.3689 152.26 102.035 156.98 103.235C162.75 102.059 168.41 100.559 173.98 98.7349C179.04 92.9389 180.21 86.4389 177.48 79.2349C173.81 75.5679 170.15 71.9019 166.48 68.2349C164.42 64.7859 162.92 61.1189 161.98 57.2349C160.31 56.0689 158.65 56.0689 156.98 57.2349C157.83 55.4229 157.83 53.9229 156.98 52.7349C156.03 52.2519 155.03 52.0859 153.98 52.2349C155.04 48.8709 156.04 45.5379 156.98 42.2349C157.94 43.9999 158.27 45.9999 157.98 48.2349C161.16 48.2379 163.99 49.2379 166.48 51.2349C168.54 55.4229 170.21 59.7559 171.48 64.2349C172.39 63.4069 173.06 62.4069 173.48 61.2349C173.98 57.9179 174.15 54.5849 173.98 51.2349C174.94 52.9999 175.27 54.9999 174.98 57.2349C177.83 57.9569 180.5 58.2909 182.98 58.2349C182.17 62.8699 180.5 67.2029 177.98 71.2349C191.44 81.6449 192.44 93.1449 180.98 105.735C178.76 107.01 176.43 108.01 173.98 108.735C168.95 109.006 163.95 109.506 158.98 110.235C153.14 108.065 148.48 104.398 144.98 99.2349C137.28 110.43 127.28 118.93 114.98 124.735C89.3502 133.418 67.8482 127.251 50.4802 106.235C48.4802 103.568 46.4802 100.902 44.4802 98.2349C42.2252 103.276 38.7252 107.11 33.9802 109.735C26.9802 110.402 19.9802 110.402 12.9802 109.735C-0.153804 102.64 -3.3208 92.4739 3.4802 79.2349C6.1632 76.7189 8.6632 74.0519 10.9802 71.2349C4.2272 60.0369 4.3932 49.0369 11.4802 38.2349C13.2382 35.9699 15.4052 34.3029 17.9802 33.2349Z" fill="#1E1E1E"/>
<path fill-rule="evenodd" clip-rule="evenodd" d="M146.98 74.2349C152.8 72.4359 158.8 71.7699 164.98 72.2349C165.15 70.9129 164.82 69.7459 163.98 68.7349C156.5 68.2959 154.17 64.4629 156.98 57.2349C158.65 56.0689 160.31 56.0689 161.98 57.2349C162.92 61.1189 164.42 64.7859 166.48 68.2349C170.15 71.9019 173.81 75.5679 177.48 79.2349C180.21 86.4389 179.04 92.9389 173.98 98.7349C168.41 100.559 162.75 102.059 156.98 103.235C152.26 102.035 151.09 99.3689 153.48 95.2349C156.35 94.2029 157.85 92.2029 157.98 89.2349C156.17 89.2259 154.5 89.7259 152.98 90.7349C148.47 95.2759 146.97 94.1089 148.48 87.2349C150.64 85.9089 152.47 84.2419 153.98 82.2349C153.65 81.2349 152.98 80.5679 151.98 80.2349C148.51 82.5429 145.17 85.0429 141.98 87.7349C136.98 88.3989 135.15 86.2329 136.48 81.2349C139.79 78.5059 143.29 76.1729 146.98 74.2349Z" fill="white"/>
<path fill-rule="evenodd" clip-rule="evenodd" d="M100.98 66.2349C105.16 65.5769 106.66 67.2429 105.48 71.2349C103.45 73.4279 100.95 74.4279 97.98 74.2349C97.5 70.9469 98.5 68.2799 100.98 66.2349Z" fill="#1E1E1E"/>
<path fill-rule="evenodd" clip-rule="evenodd" d="M84.9803 66.2349C90.2703 66.3619 92.2703 68.8619 90.9803 73.7349C85.4263 74.0179 83.4263 71.5179 84.9803 66.2349Z" fill="#1E1E1E"/>
<path fill-rule="evenodd" clip-rule="evenodd" d="M30.9809 58.235C34.1419 65.729 31.8089 69.396 23.9809 69.235C23.9809 70.568 23.9809 71.902 23.9809 73.235C32.6339 72.083 40.6339 73.75 47.9809 78.235C49.3289 79.336 50.8289 80.336 52.4809 81.235C53.6479 86.735 51.4809 88.902 45.9809 87.735C43.3909 83.627 39.7249 81.46 34.9809 81.235C34.8319 82.287 34.9979 83.287 35.4809 84.235C37.7729 85.525 39.7729 87.192 41.4809 89.235C42.3649 91.376 41.8649 93.042 39.9809 94.235C37.3599 91.922 34.3599 90.588 30.9809 90.235C30.8319 91.287 30.9979 92.287 31.4809 93.235C38.2529 96.583 38.5859 100.25 32.4809 104.235C27.3639 102.84 22.1979 101.674 16.9809 100.735C10.2489 95.207 8.41488 88.373 11.4809 80.235C14.8139 76.902 18.1479 73.568 21.4809 70.235C23.7269 66.501 25.3939 62.501 26.4809 58.235C27.9709 57.007 29.4709 57.007 30.9809 58.235Z" fill="white"/>
<path fill-rule="evenodd" clip-rule="evenodd" d="M69.9805 47.235C77.8595 46.951 80.6925 50.618 78.4805 58.235C70.5595 63.653 66.2265 61.653 65.4805 52.235C66.5055 50.048 68.0055 48.381 69.9805 47.235Z" fill="#1E1E1E"/>
<path fill-rule="evenodd" clip-rule="evenodd" d="M113.981 47.2349C122.881 47.5439 125.551 51.7099 121.981 59.7349C113.301 63.3799 109.461 60.5469 110.481 51.2349C111.861 50.0299 113.021 48.6969 113.981 47.2349Z" fill="#1E1E1E"/>
<path fill-rule="evenodd" clip-rule="evenodd" d="M111.981 82.2349C117.251 82.8339 120.251 85.8339 120.981 91.2349C119.641 96.1929 117.471 96.5259 114.481 92.2349C107.071 95.8469 99.4009 96.8469 91.4809 95.2349C90.8009 93.9509 90.9609 92.7839 91.9809 91.7349C98.9009 91.6509 105.561 90.3179 111.981 87.7349C112.331 86.1089 112.331 84.2759 111.981 82.2349Z" fill="#1E1E1E"/>
</svg>
