<svg width="139" height="123" viewBox="0 0 139 123" fill="none" xmlns="http://www.w3.org/2000/svg">
<path fill-rule="evenodd" clip-rule="evenodd" d="M127.104 47.6059C124.184 48.3149 121.184 48.8149 118.104 49.1059C119.874 50.5939 120.204 52.0939 119.104 53.6059C117.584 51.4849 116.584 49.1519 116.104 46.6059C116.104 46.2729 116.104 45.9389 116.104 45.6059C117.434 45.6059 118.774 45.6059 120.104 45.6059C115.154 25.8239 102.824 12.9909 83.1035 7.10588C57.5435 1.17988 37.3735 9.01288 22.6035 30.6059C20.2495 34.3089 18.7495 38.3089 18.1035 42.6059C17.4365 42.6059 17.1035 42.9389 17.1035 43.6059C15.7815 43.7759 14.6145 43.4429 13.6035 42.6059C13.1475 43.8499 13.6475 44.6829 15.1035 45.1059C14.5535 47.2639 13.5535 47.7639 12.1035 46.6059C16.2755 25.6029 28.2755 11.1029 48.1035 3.10588C77.0435 -5.02512 100.544 2.80888 118.604 26.6059C122.524 33.2059 125.354 40.2059 127.104 47.6059Z" fill="#1E1E1E"/>
<path fill-rule="evenodd" clip-rule="evenodd" d="M116.104 45.6061C116.344 44.3151 116.004 43.3151 115.104 42.6061C106.514 21.7031 90.8435 11.0371 68.1035 10.6061C45.5035 11.5491 30.1695 22.5491 22.1035 43.6061C20.1475 45.2811 18.8145 44.9481 18.1035 42.6061C18.7495 38.3091 20.2495 34.3091 22.6035 30.6061C37.3735 9.01313 57.5435 1.18013 83.1035 7.10613C102.824 12.9911 115.154 25.8241 120.104 45.6061C118.774 45.6061 117.434 45.6061 116.104 45.6061Z" fill="white"/>
<path fill-rule="evenodd" clip-rule="evenodd" d="M115.103 42.606C114.503 44.006 113.503 45.006 112.103 45.606C110.343 46.368 109.343 47.702 109.103 49.606C108.433 50.273 107.773 50.939 107.103 51.606C104.483 47.815 101.653 44.149 98.603 40.606C98.683 43.225 98.853 45.892 99.103 48.606C95.103 48.606 91.103 48.606 87.103 48.606C86.273 43.946 84.603 39.613 82.103 35.606C81.823 34.817 81.323 34.15 80.603 33.606C80.103 38.595 79.933 43.595 80.103 48.606C72.433 48.606 64.773 48.606 57.103 48.606C57.273 43.927 57.103 39.261 56.603 34.606C53.363 38.749 51.533 43.416 51.103 48.606C47.103 48.606 43.103 48.606 39.103 48.606C41.513 41.31 40.343 40.31 35.603 45.606C29.564 52.953 28.564 60.953 32.603 69.606C35.613 73.78 39.113 77.447 43.103 80.606C38.073 92.38 40.743 102.213 51.103 110.106C67.303 119.129 81.803 116.962 94.603 103.606C99.853 95.863 100.353 87.863 96.103 79.606C103.033 76.37 106.703 71.036 107.103 63.606C107.773 69.273 108.433 74.939 109.103 80.606C109.573 84.072 111.573 85.738 115.103 85.606C116.103 72.783 116.433 59.783 116.103 46.606C116.583 49.152 117.583 51.485 119.103 53.606C120.203 52.094 119.873 50.594 118.103 49.106C121.183 48.815 124.183 48.315 127.103 47.606C137.863 54.383 140.693 63.716 135.603 75.606C132.623 78.392 130.793 81.725 130.103 85.606C132.263 97.854 133.593 110.187 134.103 122.606C109.403 122.777 84.733 122.777 60.103 122.606C41.433 121.939 22.77 121.273 4.10303 120.606C5.10603 108.573 6.43903 96.573 8.10303 84.606C4.82703 80.39 2.32703 75.724 0.603027 70.606C-1.59997 59.66 2.23303 51.66 12.103 46.606C13.553 47.764 14.553 47.264 15.103 45.106C13.647 44.683 13.147 43.85 13.603 42.606C14.614 43.443 15.781 43.776 17.103 43.606C18.208 45.329 19.875 46.329 22.103 46.606C22.103 59.606 22.103 72.606 22.103 85.606C25.164 85.662 27.331 84.328 28.603 81.606C29.27 70.939 29.27 60.273 28.603 49.606C27.855 47.355 26.355 46.022 24.103 45.606C23.436 44.939 22.77 44.273 22.103 43.606C30.169 22.549 45.503 11.549 68.103 10.606C90.843 11.037 106.513 21.703 115.103 42.606Z" fill="#1E1E1E"/>
<path fill-rule="evenodd" clip-rule="evenodd" d="M18.1035 42.606C18.8145 44.948 20.1475 45.281 22.1035 43.606C22.7705 44.273 23.4365 44.939 24.1035 45.606C23.1115 45.434 22.4455 45.768 22.1035 46.606C19.8755 46.329 18.2085 45.329 17.1035 43.606C17.1035 42.939 17.4365 42.606 18.1035 42.606Z" fill="#1E1E1E"/>
<path fill-rule="evenodd" clip-rule="evenodd" d="M82.103 35.606C81.433 39.939 80.773 44.273 80.103 48.606C79.933 43.595 80.103 38.595 80.603 33.606C81.323 34.15 81.823 34.817 82.103 35.606Z" fill="#1E1E1E"/>
<path fill-rule="evenodd" clip-rule="evenodd" d="M80.1039 48.606C80.7739 44.273 81.4339 39.939 82.1039 35.606C84.6039 39.613 86.2739 43.946 87.1039 48.606C91.1039 48.606 95.1039 48.606 99.1039 48.606C98.8539 45.892 98.6839 43.225 98.6039 40.606C101.654 44.149 104.484 47.815 107.104 51.606C107.104 55.606 107.104 59.606 107.104 63.606C106.704 71.036 103.034 76.37 96.1039 79.606C100.354 87.863 99.8539 95.863 94.6039 103.606C81.8039 116.962 67.3039 119.129 51.1039 110.106C40.7439 102.213 38.0739 92.38 43.1039 80.606C39.1139 77.447 35.6139 73.78 32.6039 69.606C28.5649 60.953 29.5649 52.953 35.6039 45.606C40.3439 40.31 41.5139 41.31 39.1039 48.606C43.1039 48.606 47.1039 48.606 51.1039 48.606C51.5339 43.416 53.3639 38.749 56.6039 34.606C57.1039 39.261 57.2739 43.927 57.1039 48.606C64.7739 48.606 72.4339 48.606 80.1039 48.606Z" fill="white"/>
<path fill-rule="evenodd" clip-rule="evenodd" d="M24.1035 45.6059C26.3555 46.0219 27.8555 47.3549 28.6035 49.6059C29.2705 60.2729 29.2705 70.9389 28.6035 81.6059C27.3315 84.3279 25.1645 85.6619 22.1035 85.6059C22.1035 72.6059 22.1035 59.6059 22.1035 46.6059C22.4455 45.7679 23.1115 45.4339 24.1035 45.6059Z" fill="white"/>
<path fill-rule="evenodd" clip-rule="evenodd" d="M85.1039 55.6061C93.9639 54.4441 96.6339 57.7781 93.1039 65.6061C84.1339 67.3081 81.4739 63.9741 85.1039 55.6061Z" fill="#1E1E1E"/>
<path fill-rule="evenodd" clip-rule="evenodd" d="M47.1035 55.606C55.6235 55.167 57.9635 58.667 54.1035 66.106C48.6235 68.701 45.2935 67.034 44.1035 61.106C44.4635 58.914 45.4635 57.08 47.1035 55.606Z" fill="#1E1E1E"/>
<path fill-rule="evenodd" clip-rule="evenodd" d="M109.104 49.606C109.104 59.939 109.104 70.273 109.104 80.606C108.434 74.939 107.774 69.273 107.104 63.606C107.104 59.606 107.104 55.606 107.104 51.606C107.774 50.939 108.434 50.273 109.104 49.606Z" fill="#1E1E1E"/>
<path fill-rule="evenodd" clip-rule="evenodd" d="M61.1035 72.606C66.1035 71.606 68.1035 73.606 67.1035 78.606C63.4335 78.273 61.4335 76.273 61.1035 72.606Z" fill="#1E1E1E"/>
<path fill-rule="evenodd" clip-rule="evenodd" d="M75.1037 71.6061C78.2837 71.2821 79.4537 72.6161 78.6037 75.6061C76.8137 77.3351 74.6437 78.0021 72.1037 77.6061C72.0637 75.0171 73.0637 73.0171 75.1037 71.6061Z" fill="#1E1E1E"/>
<path fill-rule="evenodd" clip-rule="evenodd" d="M115.104 42.606C116.004 43.315 116.344 44.315 116.104 45.606C116.104 45.939 116.104 46.273 116.104 46.606C116.434 59.783 116.104 72.783 115.104 85.606C115.104 72.273 115.104 58.939 115.104 45.606C114.104 45.606 113.104 45.606 112.104 45.606C113.504 45.006 114.504 44.006 115.104 42.606Z" fill="#1E1E1E"/>
<path fill-rule="evenodd" clip-rule="evenodd" d="M112.104 45.606C113.104 45.606 114.104 45.606 115.104 45.606C115.104 58.939 115.104 72.273 115.104 85.606C111.574 85.738 109.574 84.072 109.104 80.606C109.104 70.273 109.104 59.939 109.104 49.606C109.344 47.702 110.344 46.368 112.104 45.606Z" fill="white"/>
<path fill-rule="evenodd" clip-rule="evenodd" d="M51.1035 92.606C63.2635 92.757 75.6035 92.59 88.1035 92.106C81.1435 103.406 71.4735 106.406 59.1035 101.106C56.2035 98.377 53.5335 95.544 51.1035 92.606Z" fill="#1E1E1E"/>
<path fill-rule="evenodd" clip-rule="evenodd" d="M4.10352 120.606C22.7705 121.273 41.4335 121.939 60.1035 122.606C41.0935 122.939 22.0915 122.606 3.10352 121.606C3.22752 120.999 3.56052 120.666 4.10352 120.606Z" fill="#1E1E1E"/>
</svg>
