<svg width="146" height="141" viewBox="0 0 146 141" fill="none" xmlns="http://www.w3.org/2000/svg">
<path fill-rule="evenodd" clip-rule="evenodd" d="M123.547 47.782C120.267 44.615 117.437 40.948 115.047 36.782C106.617 27.318 96.1166 21.651 83.5466 19.782C82.4466 18.681 82.2866 17.348 83.0466 15.782C92.5366 -0.219975 105.707 -4.05297 122.547 4.28203C138.137 18.518 138.477 33.018 123.547 47.782Z" fill="#1E1E1E"/>
<path fill-rule="evenodd" clip-rule="evenodd" d="M78.5464 21.7823C98.2264 24.4693 112.226 34.8033 120.546 52.7823C120.876 54.7823 121.216 56.7823 121.546 58.7823C135.566 57.9513 143.566 64.4513 145.546 78.2823C143.826 93.1723 135.486 101.672 120.546 103.782C113.406 119.42 102.076 130.92 86.5464 138.282C71.5664 143.412 57.8964 141.079 45.5464 131.282C36.6874 123.097 29.3544 113.763 23.5464 103.282C3.22137 99.4693 -3.94563 87.6363 2.04637 67.7823C6.99537 60.5593 13.8284 57.5593 22.5464 58.7823C28.5314 39.3023 41.5364 27.1353 61.5464 22.2823C67.2064 21.7833 72.8664 21.6163 78.5464 21.7823Z" fill="#1E1E1E"/>
<path fill-rule="evenodd" clip-rule="evenodd" d="M83.5469 19.7822C96.1169 21.6512 106.617 27.3182 115.047 36.7822C117.437 40.9482 120.267 44.6152 123.547 47.7822C121.357 48.6562 120.357 50.3232 120.547 52.7822C112.227 34.8032 98.2269 24.4692 78.5469 21.7822C80.5969 21.8802 82.2669 21.2132 83.5469 19.7822Z" fill="white"/>
<path fill-rule="evenodd" clip-rule="evenodd" d="M87.5471 53.782C105.867 53.599 114.367 62.599 113.047 80.782C110.517 87.805 106.017 93.139 99.5471 96.782C105.157 109.421 102.157 119.588 90.5471 127.282C74.6671 136.03 60.1671 134.196 47.0471 121.782C42.1171 113.908 41.2871 105.574 44.5471 96.782C39.8471 93.242 36.0091 88.909 33.0471 83.782C31.7081 78.546 31.2081 73.212 31.5471 67.782C44.8771 68.947 57.5471 66.614 69.5471 60.782C70.5471 61.449 71.5471 62.115 72.5471 62.782C77.4471 59.505 82.4471 56.505 87.5471 53.782Z" fill="white"/>
<path fill-rule="evenodd" clip-rule="evenodd" d="M15.5471 65.7822C17.2141 65.7822 18.8801 65.7822 20.5471 65.7822C18.2971 75.3652 17.9641 85.0322 19.5471 94.7822C9.59705 91.9042 5.43005 85.2382 7.04705 74.7822C8.73505 70.5972 11.5681 67.5972 15.5471 65.7822Z" fill="white"/>
<path fill-rule="evenodd" clip-rule="evenodd" d="M123.547 65.7822C137.417 68.1802 141.247 75.8472 135.047 88.7822C132.637 92.8942 129.137 94.7272 124.547 94.2822C127.347 84.6832 127.007 75.1832 123.547 65.7822Z" fill="white"/>
<path fill-rule="evenodd" clip-rule="evenodd" d="M49.5472 71.7822C58.8672 71.9372 60.8672 75.7702 55.5472 83.2822C46.1472 83.4232 44.1472 79.5902 49.5472 71.7822Z" fill="#1E1E1E"/>
<path fill-rule="evenodd" clip-rule="evenodd" d="M88.5466 74.7822C91.9866 74.5832 95.3166 75.0832 98.5466 76.2822C100.207 77.7262 100.867 79.5602 100.547 81.7822C97.7566 80.9762 94.9266 80.3102 92.0466 79.7822C89.2866 80.7002 86.4566 81.3662 83.5466 81.7822C83.3866 80.4092 83.5566 79.0752 84.0466 77.7822C85.6966 76.8832 87.1966 75.8832 88.5466 74.7822Z" fill="#1E1E1E"/>
<path fill-rule="evenodd" clip-rule="evenodd" d="M77.547 88.7822C80.287 89.3542 81.127 91.0202 80.047 93.7822C78.607 95.4372 76.767 96.1042 74.547 95.7822C73.957 92.6072 74.957 90.2732 77.547 88.7822Z" fill="#1E1E1E"/>
<path fill-rule="evenodd" clip-rule="evenodd" d="M63.547 89.7822C68.547 88.7822 70.547 90.7822 69.547 95.7822C64.977 95.8832 62.977 93.8832 63.547 89.7822Z" fill="#1E1E1E"/>
<path fill-rule="evenodd" clip-rule="evenodd" d="M68.5468 106.782C72.7268 105.986 75.8968 107.319 78.0468 110.782C78.7168 114.115 78.7168 117.449 78.0468 120.782C74.4768 125.692 70.4768 126.025 66.0468 121.782C63.4968 116.131 64.3268 111.131 68.5468 106.782Z" fill="#1E1E1E"/>
</svg>
