<svg width="160" height="157" viewBox="0 0 160 157" fill="none" xmlns="http://www.w3.org/2000/svg">
<path fill-rule="evenodd" clip-rule="evenodd" d="M146.435 145C145.465 147.448 145.125 150.115 145.435 153C136.435 153 127.435 153 118.435 153C118.435 151.667 118.435 150.333 118.435 149C125.355 126.989 129.195 104.322 129.935 80.9998C131.275 83.5218 132.105 86.1888 132.435 88.9998C132.925 92.1548 133.595 95.1548 134.435 97.9998C134.935 113.775 133.935 129.442 131.435 145C132.765 145 134.105 145 135.435 145C135.855 139.298 136.525 133.631 137.435 128C138.595 117.842 138.765 107.508 137.935 96.9998C137.325 91.7418 136.155 86.7418 134.435 81.9998C133.365 75.6328 131.035 69.7998 127.435 64.4998C111.445 61.0068 100.115 51.8408 93.4347 36.9998C98.3847 30.1448 100.715 22.4778 100.435 13.9998C98.8147 13.8598 97.6447 14.5268 96.9347 15.9998C96.4847 22.0228 94.8147 27.6898 91.9347 32.9998C83.5347 43.2968 73.0347 50.7968 60.4347 55.4998C52.2247 57.8028 43.8847 59.6358 35.4347 60.9998C31.4247 72.0758 28.4247 83.4088 26.4347 94.9998C24.8747 102.768 24.2147 110.768 24.4347 119C24.6047 125 24.7647 131 24.9347 137C25.1447 138.558 25.6447 139.891 26.4347 141C26.4347 143.333 26.4347 145.667 26.4347 148C27.7647 148 29.1047 148 30.4347 148C30.6047 145.879 30.2747 143.879 29.4347 142C28.6447 131.018 28.3147 120.018 28.4347 109C28.3047 102.87 29.1347 96.8698 30.9347 90.9998C32.0547 101.526 33.5547 111.86 35.4347 122C36.6647 132.593 39.0047 142.926 42.4347 153C33.1047 153 23.7647 153 14.4347 153C11.6247 124.956 12.1247 96.9558 15.9347 68.9998C20.2147 35.8528 38.0547 14.0188 69.4347 3.49981C77.9647 1.93101 85.9647 3.26431 93.4347 7.49981C94.9547 8.85081 96.2847 10.3508 97.4347 11.9998C109.005 12.5368 118.505 17.2028 125.935 25.9998C138.335 42.8738 145.005 61.8738 145.935 82.9998C147.745 103.653 147.915 124.32 146.435 145Z" fill="white"/>
<path fill-rule="evenodd" clip-rule="evenodd" d="M152.434 93C151.794 107.795 151.134 122.462 150.434 137C150.264 122.663 150.434 108.329 150.934 94C151.314 93.444 151.814 93.111 152.434 93Z" fill="#1E1E1E"/>
<path fill-rule="evenodd" clip-rule="evenodd" d="M152.434 93C151.814 93.111 151.314 93.444 150.934 94C150.434 108.329 150.264 122.663 150.434 137C149.664 140.952 149.324 144.952 149.434 149C148.714 149.418 148.214 150.084 147.934 151C146.614 149.25 146.114 147.25 146.434 145C147.914 124.32 147.744 103.653 145.934 83C145.004 61.874 138.334 42.874 125.934 26C118.504 17.203 109.004 12.537 97.4345 12C96.2845 10.351 94.9545 8.85102 93.4345 7.50002C85.9645 3.26452 77.9645 1.93123 69.4345 3.50003C38.0545 14.019 20.2145 35.853 15.9345 69C12.1245 96.956 11.6245 124.956 14.4345 153C23.7645 153 33.1045 153 42.4345 153C39.0045 142.926 36.6645 132.593 35.4345 122C37.3245 122.203 38.8245 121.537 39.9345 120C42.7845 123.584 45.9445 126.084 49.4345 127.5C49.1045 127.833 48.7645 128.167 48.4345 128.5C49.4345 129.167 50.4345 129.167 51.4345 128.5C50.4745 127.353 50.8145 126.353 52.4345 125.5C51.3145 124.426 50.3145 123.26 49.4345 122C48.8445 122.209 48.3445 122.543 47.9345 123C46.8445 121.115 46.0145 119.115 45.4345 117C45.2745 115.145 45.9445 113.812 47.4345 113C53.4145 126.952 64.0745 134.285 79.4345 135C84.2545 134.629 88.9145 133.629 93.4345 132C93.5245 132.996 93.1845 133.829 92.4345 134.5C93.1045 134.833 93.7645 135.167 94.4345 135.5C92.4345 136.333 90.4345 137.167 88.4345 138C88.9645 138.692 89.6245 139.192 90.4345 139.5C90.1045 139.833 89.7645 140.167 89.4345 140.5C90.7245 140.99 92.0645 141.157 93.4345 141C91.9045 142.63 89.9045 143.463 87.4345 143.5C75.3745 145.893 64.3745 143.56 54.4345 136.5C49.3045 132.367 44.4645 127.867 39.9345 123C41.7745 134.358 43.9345 145.691 46.4345 157C34.7645 157 23.1045 157 11.4345 157C8.96447 136.09 7.79447 115.09 7.93447 94C0.834475 86.741 -1.50552 78.075 0.934475 68C3.96448 60.974 8.96448 55.974 15.9345 53C23.2545 26.344 40.0945 8.84402 66.4345 0.500025C72.7645 -0.166675 79.1045 -0.166675 85.4345 0.500025C91.0045 1.61703 95.6745 4.28372 99.4345 8.50002C111.914 9.65602 122.074 15.156 129.934 25C136.704 33.624 141.364 43.29 143.934 54C161.244 63.751 164.084 76.751 152.434 93Z" fill="#1E1E1E"/>
<path fill-rule="evenodd" clip-rule="evenodd" d="M134.435 82C136.155 86.742 137.325 91.742 137.935 97C138.765 107.508 138.595 117.842 137.435 128C137.605 118.661 137.435 109.327 136.935 100C136.745 97.6 136.245 95.266 135.435 93C134.485 94.545 134.145 96.212 134.435 98C133.595 95.155 132.925 92.155 132.435 89C133.055 88.889 133.555 88.556 133.935 88C134.435 86.027 134.595 84.027 134.435 82Z" fill="#1E1E1E"/>
<path fill-rule="evenodd" clip-rule="evenodd" d="M134.435 82.0002C134.595 84.0272 134.435 86.0272 133.935 88.0002C133.555 88.5562 133.055 88.8892 132.435 89.0002C132.105 86.1892 131.275 83.5222 129.935 81.0002C129.195 104.322 125.355 126.989 118.435 149C116.755 148.317 116.095 146.983 116.435 145C118.725 136.356 120.565 127.69 121.935 119C116.395 126.207 109.895 132.374 102.435 137.5C99.6248 139.241 96.6248 140.408 93.4348 141C92.0648 141.157 90.7248 140.99 89.4348 140.5C89.7648 140.167 90.1048 139.833 90.4348 139.5C89.6248 139.192 88.9648 138.692 88.4348 138C90.4348 137.167 92.4348 136.333 94.4348 135.5C93.7648 135.167 93.1048 134.833 92.4348 134.5C93.1848 133.829 93.5248 132.996 93.4348 132C109.605 123.998 115.105 111.331 109.935 94.0002C120.725 88.2572 125.225 79.4241 123.435 67.5001C120.105 66.7111 116.935 65.5441 113.935 64.0001C113.445 65.2931 113.275 66.6271 113.435 68.0001C111.095 67.9961 109.095 67.1631 107.435 65.5001C103.185 64.7041 99.0148 64.8711 94.9348 66.0001C92.8648 63.6631 93.3648 61.9961 96.4348 61.0001C100.825 61.0431 105.165 61.2091 109.435 61.5001C107.735 60.3241 106.075 59.1571 104.435 58.0001C101.075 55.1361 97.9048 52.1361 94.9348 49.0001C89.2448 51.0961 84.0748 54.0961 79.4348 58.0001C77.2248 56.3981 74.8948 55.0641 72.4348 54.0001C67.4448 56.1641 62.4448 58.3301 57.4348 60.5001C60.2248 60.7411 62.8948 61.4081 65.4348 62.5001C66.7748 64.3261 66.2748 65.4931 63.9348 66.0001C57.7948 63.9581 52.2948 64.9581 47.4348 69.0001C45.3148 68.0971 44.9848 66.7631 46.4348 65.0001C39.3748 61.9871 35.8748 64.3211 35.9348 72.0001C34.6248 77.7041 35.9548 82.7042 39.9348 87.0002C43.4748 89.6712 46.6348 92.6712 49.4348 96.0002C47.6548 101.499 46.9848 107.166 47.4348 113C45.9448 113.812 45.2748 115.145 45.4348 117C46.0148 119.115 46.8448 121.115 47.9348 123C48.3448 122.543 48.8448 122.209 49.4348 122C50.3148 123.26 51.3148 124.426 52.4348 125.5C50.8148 126.353 50.4748 127.353 51.4348 128.5C50.4348 129.167 49.4348 129.167 48.4348 128.5C48.7648 128.167 49.1048 127.833 49.4348 127.5C45.9448 126.084 42.7848 123.584 39.9348 120C38.8248 121.537 37.3248 122.203 35.4348 122C33.5548 111.86 32.0548 101.526 30.9348 91.0002C29.1348 96.8702 28.3048 102.87 28.4348 109C27.7648 116.51 27.1048 124.177 26.4348 132C25.2848 119.666 25.2848 107.333 26.4348 95.0002C28.4248 83.4092 31.4248 72.0761 35.4348 61.0001C43.8848 59.6361 52.2248 57.8031 60.4348 55.5001C73.0348 50.7971 83.5348 43.2972 91.9348 33.0002C94.8148 27.6902 96.4848 22.0231 96.9348 16.0001C97.6448 14.5271 98.8148 13.8601 100.435 14.0001C100.715 22.4781 98.3848 30.1452 93.4348 37.0002C100.115 51.8412 111.445 61.0071 127.435 64.5001C131.035 69.8001 133.365 75.6332 134.435 82.0002Z" fill="#1E1E1E"/>
<path fill-rule="evenodd" clip-rule="evenodd" d="M11.435 66C12.085 66.774 12.415 67.774 12.435 69C12.055 73.836 11.225 78.503 9.93497 83C7.62497 77.064 8.12497 71.398 11.435 66Z" fill="white"/>
<path fill-rule="evenodd" clip-rule="evenodd" d="M147.435 67C149.105 67.843 150.275 69.176 150.935 71C151.775 74.795 151.435 78.461 149.935 82C148.515 77.088 147.685 72.088 147.435 67Z" fill="white"/>
<path fill-rule="evenodd" clip-rule="evenodd" d="M104.435 58C106.075 59.157 107.735 60.324 109.435 61.5C105.165 61.209 100.825 61.043 96.4346 61C99.4146 60.598 102.075 59.598 104.435 58Z" fill="white"/>
<path fill-rule="evenodd" clip-rule="evenodd" d="M102.435 22C106.535 22.384 110.205 23.884 113.435 26.5C122.645 34.089 128.975 43.589 132.435 55C131.615 56.611 130.285 57.278 128.435 57C124.985 42.598 116.655 32.098 103.435 25.5C102.595 24.489 102.265 23.322 102.435 22Z" fill="#1E1E1E"/>
<path fill-rule="evenodd" clip-rule="evenodd" d="M104.435 58C102.075 59.598 99.4146 60.598 96.4346 61C93.3646 61.996 92.8646 63.663 94.9346 66C99.0146 64.871 103.185 64.704 107.435 65.5C109.095 67.163 111.095 67.996 113.435 68C113.275 66.627 113.445 65.293 113.935 64C116.935 65.544 120.105 66.711 123.435 67.5C125.225 79.424 120.725 88.257 109.935 94C115.105 111.331 109.605 123.998 93.4346 132C88.9146 133.629 84.2546 134.629 79.4346 135C64.0746 134.285 53.4146 126.952 47.4346 113C46.9846 107.166 47.6546 101.499 49.4346 96C46.6346 92.671 43.4746 89.671 39.9346 87C35.9546 82.704 34.6246 77.704 35.9346 72C35.8746 64.321 39.3746 61.987 46.4346 65C44.9846 66.763 45.3146 68.097 47.4346 69C52.2946 64.958 57.7946 63.958 63.9346 66C66.2746 65.493 66.7746 64.326 65.4346 62.5C62.8946 61.408 60.2246 60.741 57.4346 60.5C62.4446 58.33 67.4446 56.164 72.4346 54C74.8946 55.064 77.2246 56.398 79.4346 58C84.0746 54.096 89.2446 51.096 94.9346 49C97.9046 52.136 101.075 55.136 104.435 58Z" fill="white"/>
<path fill-rule="evenodd" clip-rule="evenodd" d="M58.4343 108C59.8043 107.843 61.1443 108.01 62.4343 108.5C71.1843 115.564 80.8543 116.898 91.4343 112.5C93.6143 110.985 95.7743 109.485 97.9343 108C99.4343 108.167 100.264 109 100.434 110.5C95.1243 117.155 88.1243 120.655 79.4343 121C71.4443 120.59 64.6143 117.59 58.9343 112C58.4443 110.707 58.2743 109.373 58.4343 108Z" fill="#1E1E1E"/>
<path fill-rule="evenodd" clip-rule="evenodd" d="M70.4343 87.0002C75.2543 86.8272 77.2543 89.1612 76.4343 94.0002C70.6943 94.6052 68.6943 92.2722 70.4343 87.0002Z" fill="#1E1E1E"/>
<path fill-rule="evenodd" clip-rule="evenodd" d="M84.4345 87.0002C88.0045 86.9082 89.1745 88.5742 87.9345 92.0002C86.1445 93.7292 83.9745 94.3962 81.4345 94.0002C81.1045 91.0092 82.1045 88.6762 84.4345 87.0002Z" fill="#1E1E1E"/>
<path fill-rule="evenodd" clip-rule="evenodd" d="M55.4351 69C63.5151 69.59 65.5151 73.424 61.4351 80.5C54.6051 82.324 51.4451 79.824 51.9351 73C52.6251 71.15 53.7951 69.816 55.4351 69Z" fill="#1E1E1E"/>
<path fill-rule="evenodd" clip-rule="evenodd" d="M98.4348 69.0002C107.245 68.9652 109.575 72.7982 105.435 80.5002C95.3548 81.2602 93.0148 77.4272 98.4348 69.0002Z" fill="#1E1E1E"/>
<path fill-rule="evenodd" clip-rule="evenodd" d="M70.4346 12C75.7646 12 81.1046 12 86.4346 12C86.4346 13.333 86.4346 14.667 86.4346 16C64.7446 14.096 48.2446 22.429 36.9346 41C33.0246 48.385 29.6946 56.051 26.9346 64C25.5346 63.274 24.7046 62.107 24.4346 60.5C30.6746 35.38 46.0146 19.213 70.4346 12Z" fill="#1E1E1E"/>
<path fill-rule="evenodd" clip-rule="evenodd" d="M86.4346 24C87.7246 25.042 87.7246 26.208 86.4346 27.5C69.8546 28.705 57.0146 36.205 47.9346 50C47.4546 50.948 47.2846 51.948 47.4346 53C45.5846 53.278 44.2546 52.611 43.4346 51C50.5146 37.302 61.5146 28.635 76.4346 25C79.7446 24.449 83.0746 24.116 86.4346 24Z" fill="#1E1E1E"/>
<path fill-rule="evenodd" clip-rule="evenodd" d="M86.4346 23.9999C83.0746 24.1159 79.7446 24.4489 76.4346 24.9999C79.6446 22.9689 82.9746 22.6349 86.4346 23.9999Z" fill="#1E1E1E"/>
<path fill-rule="evenodd" clip-rule="evenodd" d="M26.4348 95C25.2848 107.333 25.2848 119.666 26.4348 132C27.1048 124.177 27.7648 116.51 28.4348 109C28.3148 120.018 28.6448 131.018 29.4348 142C28.7648 139.802 28.1048 137.469 27.4348 135C26.4648 136.896 26.1348 138.896 26.4348 141C25.6448 139.891 25.1448 138.558 24.9348 137C24.7648 131 24.6048 125 24.4348 119C24.2148 110.768 24.8748 102.768 26.4348 95Z" fill="#1E1E1E"/>
<path fill-rule="evenodd" clip-rule="evenodd" d="M137.435 128C136.525 133.631 135.855 139.298 135.435 145C134.105 145 132.765 145 131.435 145C133.935 129.442 134.935 113.775 134.435 98C134.145 96.212 134.485 94.545 135.435 93C136.245 95.266 136.745 97.6 136.935 100C137.435 109.327 137.605 118.661 137.435 128Z" fill="#1E1E1E"/>
<path fill-rule="evenodd" clip-rule="evenodd" d="M29.4342 142C30.2742 143.879 30.6042 145.879 30.4342 148C29.1042 148 27.7642 148 26.4342 148C26.4342 145.667 26.4342 143.333 26.4342 141C26.1342 138.896 26.4642 136.896 27.4342 135C28.1042 137.469 28.7642 139.802 29.4342 142Z" fill="#1E1E1E"/>
<path fill-rule="evenodd" clip-rule="evenodd" d="M116.435 145C116.095 146.983 116.755 148.317 118.435 149C118.435 150.333 118.435 151.667 118.435 153C127.435 153 136.435 153 145.435 153C145.125 150.115 145.465 147.448 146.435 145C146.115 147.25 146.615 149.25 147.935 151C148.215 150.084 148.715 149.418 149.435 149C149.525 151.652 148.855 153.985 147.435 156C137.305 154.624 126.965 153.29 116.435 152C115.225 153.077 114.565 154.41 114.435 156C113.815 155.583 113.475 154.916 113.435 154C114.275 150.823 115.275 147.823 116.435 145Z" fill="#1E1E1E"/>
<path fill-rule="evenodd" clip-rule="evenodd" d="M147.435 156C136.435 157.333 125.435 157.333 114.435 156C114.565 154.41 115.225 153.077 116.435 152C126.965 153.29 137.305 154.624 147.435 156Z" fill="#1E1E1E"/>
</svg>
