<svg width="143" height="118" viewBox="0 0 143 118" fill="none" xmlns="http://www.w3.org/2000/svg">
<path fill-rule="evenodd" clip-rule="evenodd" d="M126 79C125.007 87.15 124.674 95.483 125 104C116.816 103.674 108.816 104.008 101 105C84.114 120.388 66.114 121.888 47 109.5C45.333 107.833 43.667 106.167 42 104.5C34.007 104 26.007 103.834 18 104C18 95.667 18 87.333 18 79C6.223 75.486 0.223 67.486 0 55C0.539 46.276 4.872 40.11 13 36.5C15.646 36.003 18.313 35.836 21 36C24.265 14.232 36.765 2.232 58.5 0C66.503 1.251 74.503 1.251 82.5 0C104.227 1.888 117.393 13.555 122 35C138.011 37.018 144.844 46.018 142.5 62C139.677 70.348 134.177 76.015 126 79Z" fill="#1E1E1E"/>
<path fill-rule="evenodd" clip-rule="evenodd" d="M65 45.9999C63.128 42.2009 61.461 42.2009 60 45.9999C62.277 20.7949 63.944 20.7949 65 45.9999Z" fill="white"/>
<path fill-rule="evenodd" clip-rule="evenodd" d="M13.9998 44C15.9998 44 17.9998 44 19.9998 44C18.4858 53.252 17.6528 62.586 17.4998 72C9.09178 67.515 5.75878 60.515 7.49978 51C9.19378 48.142 11.3608 45.809 13.9998 44Z" fill="white"/>
<path fill-rule="evenodd" clip-rule="evenodd" d="M64.9998 46.0001C72.1548 46.8291 79.4888 47.3291 86.9998 47.5001C85.5008 48.3381 85.1678 49.1711 85.9998 50.0001C83.5538 58.6731 86.5538 61.8401 94.9998 59.5001C98.1148 54.7911 97.1148 51.2911 91.9998 49.0001C91.8888 48.3831 91.5558 47.8831 90.9998 47.5001C97.3328 46.8331 103.667 46.8331 110 47.5001C110.944 50.2191 111.277 53.0521 111 56.0001C109.389 63.6271 105.056 69.2941 97.9998 73.0001C103.844 90.1501 98.1778 101.983 80.9998 108.5C66.4028 112.116 54.5698 107.949 45.4998 96.0001C41.0448 88.5801 40.8778 81.0801 44.9998 73.5001C34.9238 67.5131 30.5898 58.6801 31.9998 47.0001C38.7548 46.3771 45.0878 47.0441 50.9998 49.0001C47.1678 50.7341 46.0018 53.7341 47.4998 58.0001C49.7978 61.0261 52.6308 61.6921 55.9998 60.0001C56.9958 60.0861 57.8288 59.7521 58.4998 59.0001C59.4898 55.0561 58.9898 51.3891 56.9998 48.0001C58.1018 47.3241 59.1018 46.6581 59.9998 46.0001C61.4608 42.2011 63.1278 42.2011 64.9998 46.0001Z" fill="white"/>
<path fill-rule="evenodd" clip-rule="evenodd" d="M65 46.0001C80.337 45.8331 95.67 46.0001 111 46.5001C112.318 49.7691 112.318 52.9351 111 56.0001C111.277 53.0521 110.944 50.2191 110 47.5001C103.667 46.8331 97.333 46.8331 91 47.5001C91.556 47.8831 91.889 48.3831 92 49.0001C89.935 49.0171 87.935 49.3501 86 50.0001C85.168 49.1711 85.501 48.3381 87 47.5001C79.489 47.3291 72.155 46.8291 65 46.0001Z" fill="white"/>
<path fill-rule="evenodd" clip-rule="evenodd" d="M123 43C133.624 44.886 137.791 51.219 135.5 62C133.5 66.667 130.167 70 125.5 72C125.363 62.253 124.53 52.587 123 43Z" fill="white"/>
<path fill-rule="evenodd" clip-rule="evenodd" d="M32 46.9999C41.152 46.0059 50.485 45.6729 60 45.9999C59.102 46.6579 58.102 47.3239 57 47.9999C58.99 51.3889 59.49 55.0559 58.5 58.9999C57.829 59.7519 56.996 60.0859 56 59.9999C59.803 53.7609 58.137 50.0949 51 48.9999C45.088 47.0439 38.755 46.3769 32 46.9999Z" fill="white"/>
<path fill-rule="evenodd" clip-rule="evenodd" d="M50.9999 49C58.1369 50.095 59.8029 53.761 55.9999 60C52.6309 61.692 49.7979 61.026 47.4999 58C46.0019 53.734 47.1679 50.734 50.9999 49Z" fill="#1E1E1E"/>
<path fill-rule="evenodd" clip-rule="evenodd" d="M91.9997 49C97.1147 51.291 98.1147 54.791 94.9997 59.5C86.5537 61.84 83.5537 58.673 85.9997 50C87.9347 49.35 89.9347 49.017 91.9997 49Z" fill="#1E1E1E"/>
<path fill-rule="evenodd" clip-rule="evenodd" d="M76.0003 66C77.3333 66 78.6673 66 80.0003 66C80.3333 70.333 78.3333 72.333 74.0003 72C73.7533 69.642 74.4193 67.642 76.0003 66Z" fill="#1E1E1E"/>
<path fill-rule="evenodd" clip-rule="evenodd" d="M63.0005 66C67.3335 65.667 69.3335 67.667 69.0005 72C64.6675 72.333 62.6675 70.333 63.0005 66Z" fill="#1E1E1E"/>
<path fill-rule="evenodd" clip-rule="evenodd" d="M86 85.0001C87.478 84.7381 88.811 85.0711 90 86.0001C82.609 98.0751 72.609 100.908 60 94.5001C57.294 92.1291 54.961 89.4631 53 86.5001C62.974 86.9981 72.974 86.9981 83 86.5001C84.237 86.2681 85.237 85.7681 86 85.0001Z" fill="#1E1E1E"/>
<path fill-rule="evenodd" clip-rule="evenodd" d="M126 79C126 87.667 126 96.333 126 105C117.667 105 109.333 105 101 105C108.816 104.008 116.816 103.674 125 104C124.674 95.483 125.007 87.15 126 79Z" fill="#1E1E1E"/>
</svg>
