<svg width="145" height="155" viewBox="0 0 145 155" fill="none" xmlns="http://www.w3.org/2000/svg">
<path fill-rule="evenodd" clip-rule="evenodd" d="M75.082 4C75.082 10.333 75.082 16.667 75.082 23C76.415 23 77.749 23 79.082 23C75.738 10.498 79.738 6.998 91.082 12.5C88.1 12.998 85.1 13.165 82.082 13C82.082 16.333 82.082 19.667 82.082 23C85.247 22.464 87.913 23.297 90.082 25.5C88.915 25.667 87.749 25.833 86.582 26C77.073 24.709 67.573 24.709 58.082 26C56.013 25.676 55.68 24.842 57.082 23.5C59.055 23.005 61.055 22.838 63.082 23C63.082 20 63.082 17 63.082 14C61.082 13.333 59.082 12.667 57.082 12C59.973 11.097 62.973 10.764 66.082 11C66.082 15.333 66.082 19.667 66.082 24C67.681 24.268 69.014 23.934 70.082 23C71.235 16.847 71.402 10.514 70.582 4C68.706 2.891 66.873 1.891 65.082 1C66.787 0.412 68.454 0.079 70.082 0C71.174 1.331 72.508 2.164 74.082 2.5C72.924 3.509 72.257 4.842 72.082 6.5C72.568 8.922 72.901 11.089 73.082 13C73.749 9.858 74.416 6.858 75.082 4Z" fill="white"/>
<path fill-rule="evenodd" clip-rule="evenodd" d="M65.0817 0.999979C66.8727 1.89098 68.7057 2.89098 70.5817 3.99998C71.4017 10.514 71.2347 16.847 70.0817 23C69.0817 23 68.0817 23 67.0817 23C67.3987 18.798 67.0647 14.798 66.0817 11C62.9727 10.764 59.9727 11.097 57.0817 12C56.5387 12.06 56.2057 12.393 56.0817 13C58.3247 13.974 60.6577 14.308 63.0817 14C63.0817 17 63.0817 20 63.0817 23C61.0547 22.838 59.0547 23.005 57.0817 23.5C55.6797 24.842 56.0127 25.676 58.0817 26C67.5727 24.709 77.0727 24.709 86.5817 26C87.7487 25.833 88.9147 25.667 90.0817 25.5C87.9127 23.297 85.2467 22.464 82.0817 23C82.0817 19.667 82.0817 16.333 82.0817 13C85.0997 13.165 88.0997 12.998 91.0817 12.5C79.7377 6.99798 75.7377 10.498 79.0817 23C77.7487 23 76.4147 23 75.0817 23C75.0817 16.667 75.0817 10.333 75.0817 3.99998C77.4927 1.63998 80.4927 0.639979 84.0817 0.999979C87.9197 0.753979 91.2537 1.91998 94.0817 4.49998C97.7487 4.83298 101.415 5.16698 105.082 5.49998C109.459 6.70498 111.792 9.53898 112.082 14C120.729 15.314 125.729 20.314 127.082 29C135.129 34.426 138.962 42.093 138.582 52C145.326 61.253 145.826 70.919 140.082 81C141.343 85.658 141.343 90.324 140.082 95C142.724 100.773 142.724 106.607 140.082 112.5C141.903 120.23 142.07 128.064 140.582 136C137.249 140 133.915 140 130.582 136C129.836 131.046 130.336 126.213 132.082 121.5C129.418 115.485 129.418 109.485 132.082 103.5C130.139 98.408 129.472 93.241 130.082 88C128.25 88.748 126.583 89.748 125.082 91C126.384 94.072 127.384 97.238 128.082 100.5C125.763 106.861 125.429 113.361 127.082 120C126.434 127.656 125.934 135.323 125.582 143C122.582 145.667 119.582 145.667 116.582 143C116.232 138.316 115.732 133.649 115.082 129C115.395 125.891 116.395 123.058 118.082 120.5C115.821 114.285 115.487 107.952 117.082 101.5C116.749 100.333 116.415 99.167 116.082 98C114.915 99.667 113.749 101.333 112.582 103C111.756 110.106 112.256 117.106 114.082 124C111.834 131.234 111.501 138.568 113.082 146C113.909 152.336 111.243 155.17 105.082 154.5C104.582 154 104.082 153.5 103.582 153C103.054 146.836 102.554 140.669 102.082 134.5C101.99 130.673 102.656 127.007 104.082 123.5C103.661 121.315 103.161 119.149 102.582 117C102.168 116.543 101.668 116.209 101.082 116C88.9907 127.023 74.9907 130.523 59.0817 126.5C53.3787 123.715 48.0457 120.715 43.0817 117.5C41.7337 119.074 41.0677 120.907 41.0817 123C44.5747 129.796 44.9077 136.796 42.0817 144C44.6097 151.635 41.9427 154.802 34.0817 153.5C31.5817 147.251 31.5817 140.917 34.0817 134.5C32.6557 130.993 31.9897 127.327 32.0817 123.5C32.9147 117.009 33.0817 110.509 32.5817 104C31.6287 102.045 30.2947 100.378 28.5817 99C28.3197 102.734 28.8197 106.401 30.0817 110C29.3877 113.582 28.3877 117.082 27.0817 120.5C30.2497 127.752 30.7497 135.252 28.5817 143C26.4287 144.944 23.9287 145.444 21.0817 144.5C19.5447 143.39 18.8787 141.89 19.0817 140C19.0867 136.968 19.4197 133.968 20.0817 131C17.5087 124.136 17.5087 117.303 20.0817 110.5C17.4607 104.661 17.4607 98.827 20.0817 93C19.1727 90.686 17.5057 89.02 15.0817 88C15.5807 93.346 14.9137 98.679 13.0817 104C14.4657 106.828 15.1327 109.828 15.0817 113C13.7957 118.503 13.7957 124.003 15.0817 129.5C15.1007 132.53 14.4347 135.363 13.0817 138C10.2757 139.67 7.7757 139.337 5.5817 137C4.2657 129.002 4.0987 121.002 5.0817 113C4.6537 110.088 3.9867 107.255 3.0817 104.5C3.7487 101.167 4.4147 97.833 5.0817 94.5C3.9327 90.478 3.9327 86.478 5.0817 82.5C0.547697 75.644 -0.952304 68.144 0.581696 60C1.9307 55.967 4.2637 52.634 7.5817 50C8.0177 41.128 11.6847 33.794 18.5817 28C20.0617 19.684 24.8947 15.017 33.0817 14C33.7187 10.232 35.7187 7.39898 39.0817 5.49998C43.4147 5.16698 47.7487 4.83298 52.0817 4.49998C55.8717 1.47898 60.2047 0.311979 65.0817 0.999979Z" fill="#1E1E1E"/>
<path fill-rule="evenodd" clip-rule="evenodd" d="M123.082 54C131.367 54.118 136.034 58.285 137.082 66.5C136.644 74.895 132.477 80.395 124.582 83C125.655 73.262 125.155 63.595 123.082 54Z" fill="white"/>
<path fill-rule="evenodd" clip-rule="evenodd" d="M15.0816 54C17.0816 54 19.0816 54 21.0816 54C18.7546 63.565 18.4216 73.231 20.0816 83C9.78764 79.757 5.62164 72.757 7.58164 62C9.60964 58.808 12.1096 56.141 15.0816 54Z" fill="white"/>
<path fill-rule="evenodd" clip-rule="evenodd" d="M20.082 40C21.043 41.765 21.377 43.765 21.082 46C20.082 46 19.082 46 18.082 46C18.186 43.797 18.852 41.797 20.082 40Z" fill="white"/>
<path fill-rule="evenodd" clip-rule="evenodd" d="M124.082 39C126.619 41.073 127.786 43.74 127.582 47C124.973 45.019 123.806 42.352 124.082 39Z" fill="white"/>
<path fill-rule="evenodd" clip-rule="evenodd" d="M47.0815 40.9999C56.6635 40.6379 64.9965 43.6379 72.0815 49.9999C75.9135 47.2499 79.9135 44.7499 84.0815 42.4999C96.6495 39.2009 105.817 43.3679 111.582 54.9999C114.103 67.2779 110.103 76.6109 99.5815 82.9999C104.544 102.727 97.0435 114.894 77.0815 119.5C61.7965 121.442 50.6295 115.608 43.5815 102C42.5925 95.9999 43.0925 90.1659 45.0815 84.4999C34.5265 77.5399 30.3595 67.7059 32.5815 54.9999C35.9895 48.7569 40.8235 44.0899 47.0815 40.9999Z" fill="white"/>
<path fill-rule="evenodd" clip-rule="evenodd" d="M94.082 58C95.082 58 96.082 58 97.082 58C97.255 61.67 95.589 64.17 92.082 65.5C93.8 65.846 95.467 66.346 97.082 67C98.584 69.333 98.084 70.999 95.582 72C92.082 70.833 88.582 69.667 85.082 68.5C84.56 67.939 84.227 67.272 84.082 66.5C87.202 63.436 90.536 60.603 94.082 58Z" fill="#1E1E1E"/>
<path fill-rule="evenodd" clip-rule="evenodd" d="M49.0825 58.9999C57.8225 58.2169 60.4895 61.7169 57.0825 69.4999C49.3175 72.0749 46.1505 69.2419 47.5825 60.9999C48.2995 60.4559 48.7995 59.7889 49.0825 58.9999Z" fill="#1E1E1E"/>
<path fill-rule="evenodd" clip-rule="evenodd" d="M96.082 21.9998C97.183 20.9018 98.516 20.7348 100.082 21.4998C103.749 23.1668 107.415 24.8328 111.082 26.4998C107.987 30.5868 108.987 33.4208 114.082 34.9998C115.409 37.9968 116.743 40.9968 118.082 43.9998C117.749 44.3328 117.415 44.6668 117.082 44.9998C113.823 39.5728 109.99 34.5728 105.582 29.9998C101.655 28.1358 98.488 25.4688 96.082 21.9998Z" fill="white"/>
<path fill-rule="evenodd" clip-rule="evenodd" d="M47.082 20.0001C48.937 19.7721 49.77 20.4391 49.582 22.0001C41.643 28.4401 34.477 35.7741 28.082 44.0001C27.749 43.8331 27.415 43.6671 27.082 43.5001C28.805 40.5571 29.805 37.3901 30.082 34.0001C35.439 33.2191 36.772 30.7191 34.082 26.5001C38.755 24.8301 43.089 22.6631 47.082 20.0001Z" fill="white"/>
<path fill-rule="evenodd" clip-rule="evenodd" d="M66.082 11C67.065 14.798 67.399 18.798 67.082 23C68.082 23 69.082 23 70.082 23C69.014 23.934 67.681 24.268 66.082 24C66.082 19.667 66.082 15.333 66.082 11Z" fill="white"/>
<path fill-rule="evenodd" clip-rule="evenodd" d="M57.082 12C59.082 12.667 61.082 13.333 63.082 14C60.658 14.308 58.325 13.974 56.082 13C56.206 12.393 56.539 12.06 57.082 12Z" fill="white"/>
<path fill-rule="evenodd" clip-rule="evenodd" d="M63.0822 75.9998C67.9212 75.1768 70.2552 77.1768 70.0822 81.9998C65.2432 82.8228 62.9092 80.8228 63.0822 75.9998Z" fill="#1E1E1E"/>
<path fill-rule="evenodd" clip-rule="evenodd" d="M76.082 76C81.71 76.087 82.377 77.92 78.082 81.5C76.789 81.99 75.455 82.157 74.082 82C74.186 79.797 74.852 77.797 76.082 76Z" fill="#1E1E1E"/>
<path fill-rule="evenodd" clip-rule="evenodd" d="M67.082 97C73.676 96.144 79.509 97.811 84.582 102C85.065 102.948 85.231 103.948 85.082 105C80.76 103.267 76.26 101.933 71.582 101C67.112 101.697 62.945 103.031 59.082 105C60.079 100.67 62.746 98.003 67.082 97Z" fill="#1E1E1E"/>
<path fill-rule="evenodd" clip-rule="evenodd" d="M19.082 140C18.28 138.548 17.78 136.882 17.582 135C16.674 136.939 15.174 137.939 13.082 138C14.435 135.363 15.101 132.53 15.082 129.5C13.796 124.003 13.796 118.503 15.082 113C15.133 109.828 14.466 106.828 13.082 104C14.914 98.679 15.581 93.346 15.082 88C17.506 89.02 19.173 90.686 20.082 93C17.461 98.827 17.461 104.661 20.082 110.5C17.509 117.303 17.509 124.136 20.082 131C19.42 133.968 19.087 136.968 19.082 140Z" fill="white"/>
</svg>
