<svg width="150" height="146" viewBox="0 0 150 146" fill="none" xmlns="http://www.w3.org/2000/svg">
<path fill-rule="evenodd" clip-rule="evenodd" d="M125.187 50.0003C121.52 50.0003 117.854 50.0003 114.187 50.0003C114.439 44.9813 114.939 39.9813 115.687 35.0003C116.354 34.3333 117.02 33.6673 117.687 33.0003C118.511 29.6183 118.344 26.2842 117.187 23.0002C112.637 25.0722 107.97 26.7382 103.187 28.0002C103.187 33.3333 103.187 38.6673 103.187 44.0003C96.2152 42.9923 89.2152 42.8253 82.1872 43.5003C79.1582 44.2853 76.3252 45.4513 73.6872 47.0003C63.8842 42.8763 53.7172 41.8763 43.1872 44.0003C43.1872 38.6673 43.1872 33.3333 43.1872 28.0002C36.5192 25.9442 29.8522 23.7782 23.1872 21.5002C21.7142 20.7902 21.0472 19.6242 21.1872 18.0002C37.5232 12.2762 53.8562 6.44325 70.1872 0.50025C71.8542 -0.16675 73.5202 -0.16675 75.1872 0.50025C92.1872 6.83325 109.187 13.1672 126.187 19.5002C125.187 20.0002 124.187 20.5002 123.187 21.0002C122.854 23.1672 122.52 25.3332 122.187 27.5002C124.472 34.6322 125.472 42.1323 125.187 50.0003Z" fill="#1E1E1E"/>
<path fill-rule="evenodd" clip-rule="evenodd" d="M125.188 50C121.52 50.667 117.855 51.333 114.188 52C111.822 49.64 109.155 47.64 106.188 46C105.302 46.825 104.969 47.825 105.188 49C94.0695 45.521 83.4035 46.521 73.1875 52C63.2925 46.616 52.9585 45.616 42.1875 49C42.4245 47.709 42.0915 46.709 41.1875 46C41.5205 45 42.1875 44.333 43.1875 44C53.7175 41.876 63.8845 42.876 73.6875 47C76.3255 45.451 79.1585 44.285 82.1875 43.5C89.2155 42.825 96.2155 42.992 103.188 44C103.188 38.667 103.188 33.333 103.188 28C107.97 26.738 112.637 25.072 117.188 23C118.344 26.284 118.512 29.618 117.688 33C117.021 33.667 116.354 34.333 115.688 35C114.939 39.981 114.44 44.981 114.188 50C117.855 50 121.52 50 125.188 50Z" fill="white"/>
<path fill-rule="evenodd" clip-rule="evenodd" d="M41.1871 46C42.0911 46.709 42.4241 47.709 42.1871 49C52.9581 45.616 63.2921 46.616 73.1871 52C83.4031 46.521 94.0691 45.521 105.187 49C104.968 47.825 105.301 46.825 106.187 46C109.155 47.64 111.822 49.64 114.187 52C116.974 54.22 119.307 56.886 121.187 60C137.367 58.865 146.701 66.198 149.187 82C146.921 96.933 138.254 105.6 123.187 108C115.143 125.547 102.143 137.713 84.1871 144.5C69.1231 148.067 55.7891 144.734 44.1871 134.5C36.1841 126.653 29.5171 117.819 24.1871 108C2.68808 103.285 -4.47892 90.619 2.68708 70C8.51708 62.005 16.3511 58.838 26.1871 60.5C30.3951 54.791 35.3951 49.958 41.1871 46Z" fill="#1E1E1E"/>
<path fill-rule="evenodd" clip-rule="evenodd" d="M90.1876 56C110.831 57.154 118.665 67.82 113.688 88C110.993 93.529 106.826 97.529 101.188 100C106.342 110.989 104.675 120.822 96.1876 129.5C81.1216 139.47 66.1216 139.47 51.1876 129.5C42.6006 121.063 40.9336 111.396 46.1876 100.5C32.4096 90.841 29.5756 78.674 37.6876 64C45.3946 56.475 54.2276 54.975 64.1876 59.5C67.2846 61.796 70.4506 63.963 73.6876 66C78.6856 61.755 84.1856 58.422 90.1876 56Z" fill="white"/>
<path fill-rule="evenodd" clip-rule="evenodd" d="M86.1871 63.0001C94.1481 61.5461 100.981 63.5461 106.687 69.0001C107.52 72.1671 106.354 73.3331 103.187 72.5001C97.9171 67.0001 91.5841 65.5001 84.1871 68.0001C84.0791 65.9861 84.7451 64.3201 86.1871 63.0001Z" fill="#1E1E1E"/>
<path fill-rule="evenodd" clip-rule="evenodd" d="M15.1878 69C17.6118 68.692 19.9448 69.026 22.1878 70C20.8958 72.167 20.0628 74.5 19.6878 77C19.1058 84.352 19.2728 91.685 20.1878 99C9.58584 95.474 5.41884 88.141 7.68784 77C9.71585 73.808 12.2158 71.141 15.1878 69Z" fill="white"/>
<path fill-rule="evenodd" clip-rule="evenodd" d="M126.188 68C141.342 70.979 145.174 79.312 137.688 93C135.468 95.861 132.635 97.861 129.188 99C129.013 92.053 128.846 85.053 128.688 78C128.155 74.571 127.321 71.238 126.188 68Z" fill="white"/>
<path fill-rule="evenodd" clip-rule="evenodd" d="M51.1874 75.0002C58.4644 73.7792 61.6314 76.7792 60.6874 84.0002C56.6384 89.3182 52.6384 89.3182 48.6874 84.0002C47.6144 80.4002 48.4474 77.4002 51.1874 75.0002Z" fill="#1E1E1E"/>
<path fill-rule="evenodd" clip-rule="evenodd" d="M90.1874 75C97.5144 73.829 100.681 76.829 99.6874 84C95.6874 89.333 91.6874 89.333 87.6874 84C86.6144 80.4 87.4474 77.4 90.1874 75Z" fill="#1E1E1E"/>
<path fill-rule="evenodd" clip-rule="evenodd" d="M65.1872 93.0002C70.0102 92.8272 72.0102 95.1612 71.1872 100C66.3142 100.127 64.3142 97.7942 65.1872 93.0002Z" fill="#1E1E1E"/>
<path fill-rule="evenodd" clip-rule="evenodd" d="M78.1878 93C83.2748 92.784 84.2748 94.618 81.1878 98.5C79.5538 98.994 77.8868 99.16 76.1878 99C75.9408 96.642 76.6068 94.642 78.1878 93Z" fill="#1E1E1E"/>
<path fill-rule="evenodd" clip-rule="evenodd" d="M65.1871 113C75.1481 111.381 83.9811 113.714 91.6871 120C92.4701 121.819 91.9701 123.152 90.1871 124C85.1241 119.811 79.2911 117.478 72.6871 117C66.9071 117.986 61.4071 119.653 56.1871 122C55.9251 120.522 56.2581 119.189 57.1871 118C59.9181 116.308 62.5851 114.642 65.1871 113Z" fill="#1E1E1E"/>
</svg>
