<svg width="144" height="119" viewBox="0 0 144 119" fill="none" xmlns="http://www.w3.org/2000/svg">
<path fill-rule="evenodd" clip-rule="evenodd" d="M138.06 43.2325C135.881 41.5685 134.048 41.9025 132.56 44.2325C130.974 43.3565 129.474 42.3565 128.06 41.2325C126.727 42.5655 125.393 42.5655 124.06 41.2325C122.825 42.0725 121.825 43.0725 121.06 44.2325C116.45 24.7865 104.45 12.2865 85.0596 6.73247C55.1126 0.787469 33.9466 11.6205 21.5596 39.2325C21.0656 40.8665 20.8996 42.5335 21.0596 44.2325C23.0426 43.8895 24.3766 44.5565 25.0596 46.2325C24.4426 46.1215 23.9426 45.7885 23.5596 45.2325C22.8926 46.5655 22.2266 47.8995 21.5596 49.2325C20.6036 48.1535 19.7706 46.9875 19.0596 45.7325C20.2906 44.5495 20.2906 43.3835 19.0596 42.2325C17.0806 43.6955 15.4136 45.3615 14.0596 47.2325C13.9996 46.6895 13.6666 46.3565 13.0596 46.2325C12.0416 46.9255 11.0416 47.5915 10.0596 48.2325C9.29657 47.4645 8.29657 46.9645 7.05957 46.7325C8.39257 46.0655 8.39257 45.3995 7.05957 44.7325C6.11157 44.2495 5.11157 44.0835 4.05957 44.2325C7.48857 40.0105 11.8216 37.0105 17.0596 35.2325C32.2906 5.20347 56.2906 -5.63053 89.0596 2.73247C106.264 8.60347 118.264 19.9375 125.06 36.7325C130.268 37.3365 134.601 39.5025 138.06 43.2325Z" fill="#1E1E1E"/>
<path fill-rule="evenodd" clip-rule="evenodd" d="M121.06 44.2322C119.461 43.9642 118.128 44.2982 117.06 45.2322C116.393 58.8992 115.727 72.5652 115.06 86.2322C114.102 85.7792 113.268 85.1132 112.56 84.2322C111.893 71.5652 111.893 58.8992 112.56 46.2322C115.669 44.3462 116.669 41.6792 115.56 38.2322C108.027 22.6882 95.5268 13.8552 78.0598 11.7322C54.3038 9.19222 36.8038 18.3582 25.5598 39.2322C25.3928 39.8992 25.2268 40.5652 25.0598 41.2322C26.0068 43.1322 27.5068 44.4652 29.5598 45.2322C30.0428 46.1802 30.2088 47.1802 30.0598 48.2322C30.0598 59.8992 30.0598 71.5652 30.0598 83.2322C29.3928 84.2322 28.7268 85.2322 28.0598 86.2322C26.3998 73.0972 25.3998 59.7632 25.0598 46.2322C24.3768 44.5562 23.0428 43.8892 21.0598 44.2322C20.8998 42.5332 21.0658 40.8662 21.5598 39.2322C33.9468 11.6202 55.1128 0.787221 85.0598 6.73222C104.45 12.2862 116.45 24.7862 121.06 44.2322Z" fill="white"/>
<path fill-rule="evenodd" clip-rule="evenodd" d="M32.0596 57.2326C32.0596 54.2326 32.0596 51.2326 32.0596 48.2326C36.6886 34.4556 46.0216 29.6226 60.0596 33.7326C64.4586 35.6386 68.4586 38.1386 72.0596 41.2326C82.7686 30.5446 94.2686 29.5446 106.56 38.2326C110.457 42.2586 111.957 47.0916 111.06 52.7326C111.392 57.1726 110.559 61.3386 108.56 65.2326C105.502 68.7946 102.002 71.7946 98.0596 74.2326C104.015 90.1756 99.0146 101.342 83.0596 107.733C68.2016 112.726 55.7016 109.226 45.5596 97.2326C41.0706 89.6776 40.9046 82.0116 45.0596 74.2326C38.0596 70.5486 33.7256 64.8816 32.0596 57.2326Z" fill="white"/>
<path fill-rule="evenodd" clip-rule="evenodd" d="M25.0596 46.2324C25.0596 59.8994 25.0596 73.5654 25.0596 87.2324C22.7266 87.2324 20.3926 87.2324 18.0596 87.2324C13.3936 85.3134 9.55961 82.3134 6.55961 78.2324C5.05861 72.0534 3.05861 66.0534 0.559612 60.2324C-0.818388 54.2214 0.348612 48.8874 4.05961 44.2324C5.11161 44.0834 6.11161 44.2494 7.05961 44.7324C8.39261 45.3994 8.39261 46.0654 7.05961 46.7324C8.29661 46.9644 9.29661 47.4644 10.0596 48.2324C9.60661 49.1904 8.94061 50.0244 8.05961 50.7324C8.39261 50.8994 8.72661 51.0654 9.05961 51.2324C10.7456 49.8754 12.4116 48.5424 14.0596 47.2324C15.4136 45.3614 17.0806 43.6954 19.0596 42.2324C20.2906 43.3834 20.2906 44.5494 19.0596 45.7324C19.7706 46.9874 20.6036 48.1534 21.5596 49.2324C22.2266 47.8994 22.8926 46.5654 23.5596 45.2324C23.9426 45.7884 24.4426 46.1214 25.0596 46.2324Z" fill="#1E1E1E"/>
<path fill-rule="evenodd" clip-rule="evenodd" d="M138.06 43.2324C143.186 49.5054 144.353 56.5054 141.56 64.2324C138.847 69.0274 136.514 74.0274 134.56 79.2324C129.798 84.8734 123.965 87.5404 117.06 87.2324C117.06 73.2324 117.06 59.2324 117.06 45.2324C118.128 44.2984 119.461 43.9644 121.06 44.2324C121.825 43.0724 122.825 42.0724 124.06 41.2324C125.393 42.5654 126.727 42.5654 128.06 41.2324C129.474 42.3564 130.974 43.3564 132.56 44.2324C134.048 41.9024 135.881 41.5684 138.06 43.2324Z" fill="#1E1E1E"/>
<path fill-rule="evenodd" clip-rule="evenodd" d="M14.0596 47.2324C12.4116 48.5424 10.7456 49.8754 9.05957 51.2324C8.72657 51.0654 8.39257 50.8994 8.05957 50.7324C8.94057 50.0244 9.60657 49.1904 10.0596 48.2324C11.0416 47.5914 12.0416 46.9254 13.0596 46.2324C13.6666 46.3564 13.9996 46.6894 14.0596 47.2324Z" fill="white"/>
<path fill-rule="evenodd" clip-rule="evenodd" d="M133.06 50.2323C131.202 49.1373 129.535 47.8033 128.06 46.2323C130.707 45.8373 132.373 47.1703 133.06 50.2323Z" fill="white"/>
<path fill-rule="evenodd" clip-rule="evenodd" d="M133.06 50.2324C134.645 50.7344 135.145 51.7344 134.56 53.2324C133.521 52.4884 133.021 51.4884 133.06 50.2324Z" fill="white"/>
<path fill-rule="evenodd" clip-rule="evenodd" d="M88.0596 49.2324C97.3776 49.3874 99.3776 53.2204 94.0596 60.7324C88.8486 61.9644 85.8486 59.9644 85.0596 54.7324C85.4226 52.5404 86.4226 50.7064 88.0596 49.2324Z" fill="#1E1E1E"/>
<path fill-rule="evenodd" clip-rule="evenodd" d="M49.0597 49.2324C58.3827 49.4734 60.3827 53.3064 55.0597 60.7324C45.6557 60.8734 43.6557 57.0404 49.0597 49.2324Z" fill="#1E1E1E"/>
<path fill-rule="evenodd" clip-rule="evenodd" d="M30.0596 48.2324C30.7266 48.2324 31.3926 48.2324 32.0596 48.2324C32.0596 51.2324 32.0596 54.2324 32.0596 57.2324C31.3926 65.8994 30.7266 74.5654 30.0596 83.2324C30.0596 71.5654 30.0596 59.8994 30.0596 48.2324Z" fill="#1E1E1E"/>
<path fill-rule="evenodd" clip-rule="evenodd" d="M115.06 86.2322C115.06 86.8992 115.06 87.5652 115.06 88.2322C107.627 101.829 96.6266 111.329 82.0596 116.732C69.7566 120.093 58.4226 118.093 48.0596 110.732C39.7566 104.601 33.0906 97.1012 28.0596 88.2322C28.0596 87.5652 28.0596 86.8992 28.0596 86.2322C28.7266 85.2322 29.3926 84.2322 30.0596 83.2322C30.7266 74.5652 31.3926 65.8992 32.0596 57.2322C33.7256 64.8812 38.0596 70.5482 45.0596 74.2322C40.9046 82.0112 41.0706 89.6772 45.5596 97.2322C55.7016 109.225 68.2016 112.725 83.0596 107.732C99.0146 101.341 104.015 90.1752 98.0596 74.2322C102.002 71.7942 105.502 68.7942 108.56 65.2322C110.559 61.3382 111.392 57.1722 111.06 52.7322C111.957 47.0912 110.457 42.2582 106.56 38.2322C94.2686 29.5442 82.7686 30.5442 72.0596 41.2322C68.4586 38.1382 64.4586 35.6382 60.0596 33.7322C46.0216 29.6222 36.6886 34.4552 32.0596 48.2322C31.3926 48.2322 30.7266 48.2322 30.0596 48.2322C30.2086 47.1802 30.0426 46.1802 29.5596 45.2322C27.5066 44.4652 26.0066 43.1322 25.0596 41.2322C25.2266 40.5652 25.3926 39.8992 25.5596 39.2322C36.8036 18.3582 54.3036 9.1922 78.0596 11.7322C95.5266 13.8552 108.027 22.6882 115.56 38.2322C116.669 41.6792 115.669 44.3462 112.56 46.2322C111.893 58.8992 111.893 71.5652 112.56 84.2322C113.268 85.1132 114.102 85.7792 115.06 86.2322Z" fill="#1E1E1E"/>
<path fill-rule="evenodd" clip-rule="evenodd" d="M77.0596 66.2326C79.1946 65.8796 80.5276 66.7126 81.0596 68.7326C80.2266 70.8996 78.7266 72.3996 76.5596 73.2326C75.0596 73.0656 74.2266 72.2326 74.0596 70.7326C74.5166 68.7926 75.5166 67.2926 77.0596 66.2326Z" fill="#1E1E1E"/>
<path fill-rule="evenodd" clip-rule="evenodd" d="M25.0596 46.2324C25.3996 59.7634 26.3996 73.0974 28.0596 86.2324C28.0596 86.8994 28.0596 87.5654 28.0596 88.2324C24.7376 88.3844 21.4046 88.0514 18.0596 87.2324C20.3926 87.2324 22.7266 87.2324 25.0596 87.2324C25.0596 73.5654 25.0596 59.8994 25.0596 46.2324Z" fill="white"/>
<path fill-rule="evenodd" clip-rule="evenodd" d="M63.0592 67.2323C67.5652 66.2593 69.7312 67.9263 69.5592 72.2323C65.1562 73.6053 62.9902 71.9393 63.0592 67.2323Z" fill="#1E1E1E"/>
<path fill-rule="evenodd" clip-rule="evenodd" d="M117.06 45.2324C117.06 59.2324 117.06 73.2324 117.06 87.2324C116.393 87.5654 115.727 87.8994 115.06 88.2324C115.06 87.5654 115.06 86.8994 115.06 86.2324C115.727 72.5654 116.393 58.8994 117.06 45.2324Z" fill="white"/>
<path fill-rule="evenodd" clip-rule="evenodd" d="M65.0593 85.2324C73.1993 84.0154 80.5323 85.8484 87.0593 90.7324C87.8963 91.7434 88.2293 92.9104 88.0593 94.2324C82.6083 92.4254 77.1083 90.7584 71.5593 89.2324C66.0553 90.0964 60.8883 91.5964 56.0593 93.7324C55.0593 91.6414 55.7263 89.9754 58.0593 88.7324C60.4843 87.5194 62.8183 86.3534 65.0593 85.2324Z" fill="#1E1E1E"/>
</svg>
