<svg width="160" height="154" viewBox="0 0 160 154" fill="none" xmlns="http://www.w3.org/2000/svg">
<path fill-rule="evenodd" clip-rule="evenodd" d="M158.897 74.6968C157.784 65.3278 155.451 64.6608 151.897 72.6968C153.112 66.4958 151.445 61.3288 146.897 57.1968C146.065 56.5088 145.399 56.6758 144.897 57.6968C147.011 64.2248 148.511 70.8918 149.397 77.6968C149.78 77.1408 150.28 76.8078 150.897 76.6968C152.074 78.2998 151.908 79.6328 150.397 80.6968C149.397 80.3638 148.397 80.0298 147.397 79.6968C147.228 93.2028 146.728 106.537 145.897 119.697C148.086 93.7568 145.253 68.4238 137.397 43.6968C124.844 14.1728 102.677 1.33877 70.8975 5.19677C69.6925 10.0788 70.0255 14.9118 71.8975 19.6968C69.9455 21.9388 67.6125 22.2728 64.8975 20.6968C66.7315 16.6828 67.3985 12.3498 66.8975 7.69677C58.7095 7.62077 51.3755 10.1208 44.8975 15.1968C29.9145 28.3258 21.0805 44.8258 18.3975 64.6968C14.2715 90.2818 13.7715 115.949 16.8975 141.697C17.4525 145.209 16.7855 148.209 14.8975 150.697C11.9255 130.497 10.4255 110.164 10.3975 89.6968C5.34345 85.9428 2.00945 80.9428 0.397452 74.6968C-1.71855 59.5878 4.61445 50.2548 19.3975 46.6968C31.1905 13.5448 54.6905 -1.95523 89.8975 0.196767C116.216 5.68477 133.55 21.1848 141.897 46.6968C156.681 50.4828 162.347 59.8158 158.897 74.6968Z" fill="#1E1E1E"/>
<path fill-rule="evenodd" clip-rule="evenodd" d="M145.897 119.697C145.263 129.041 144.429 138.375 143.397 147.697C141.016 148.632 138.516 148.965 135.897 148.697C132.488 148.446 129.155 148.78 125.897 149.697C125.011 148.872 124.678 147.872 124.897 146.697C128.386 119.39 128.72 92.0566 125.897 64.6966C125.339 60.4176 124.339 56.2506 122.897 52.1966C113.793 50.3276 105.127 47.1606 96.8975 42.6966C86.3065 37.4376 77.9735 29.7706 71.8975 19.6966C70.0255 14.9116 69.6925 10.0786 70.8975 5.19661C102.677 1.33861 124.844 14.1726 137.397 43.6966C145.253 68.4236 148.086 93.7566 145.897 119.697Z" fill="white"/>
<path fill-rule="evenodd" clip-rule="evenodd" d="M96.8973 46.6969C98.6703 48.0889 100.67 49.2559 102.897 50.1969C108.818 52.3259 114.818 54.1589 120.897 55.6969C121.532 58.6899 121.698 61.6899 121.397 64.6969C114.603 54.1649 105.77 51.9989 94.8973 58.1969C91.7323 60.7069 89.7323 63.8729 88.8973 67.6969C86.1123 66.8909 83.2783 66.2249 80.3973 65.6969C77.5163 66.2249 74.6823 66.8909 71.8973 67.6969C71.9363 65.1079 70.9363 63.1079 68.8973 61.6969C67.1343 58.6409 64.4673 56.8079 60.8973 56.1969C51.5783 53.4489 44.7453 56.2819 40.3973 64.6969C39.9903 47.9519 48.1563 41.1189 64.8973 44.1969C70.6933 46.5949 76.0273 49.7609 80.8973 53.6969C84.0513 50.9539 87.3853 48.4539 90.8973 46.1969C92.9953 45.5189 94.9953 45.6859 96.8973 46.6969Z" fill="white"/>
<path fill-rule="evenodd" clip-rule="evenodd" d="M13.8973 56.6968C14.9833 56.8168 15.6503 57.4838 15.8973 58.6968C13.9203 65.9158 12.5863 73.2488 11.8973 80.6968C6.01733 72.0488 6.68433 64.0488 13.8973 56.6968Z" fill="white"/>
<path fill-rule="evenodd" clip-rule="evenodd" d="M96.8975 42.6968C105.127 47.1608 113.793 50.3278 122.897 52.1968C124.339 56.2508 125.339 60.4178 125.897 64.6968C125.107 63.5878 124.607 62.2548 124.397 60.6968C123.045 62.7908 122.545 65.1238 122.897 67.6968C121.606 67.4598 120.606 67.7928 119.897 68.6968C115.598 60.7228 108.932 57.8888 99.8975 60.1968C91.4395 65.5228 89.6065 72.6898 94.3975 81.6968C97.9975 85.7448 102.497 87.4118 107.897 86.6968C105.092 87.5158 102.092 88.0158 98.8975 88.1968C99.4535 88.5798 99.7865 89.0798 99.8975 89.6968C92.3535 86.6428 88.1875 80.9768 87.3975 72.6968C86.0675 71.6148 84.5675 70.9478 82.8975 70.6968C80.6995 70.0318 78.3665 69.3648 75.8975 68.6968C79.5015 66.3058 83.1685 66.3058 86.8975 68.6968C87.8135 68.6538 88.4805 68.3208 88.8975 67.6968C89.7325 63.8728 91.7325 60.7068 94.8975 58.1968C105.77 51.9988 114.603 54.1648 121.397 64.6968C121.698 61.6898 121.532 58.6898 120.897 55.6968C114.818 54.1588 108.818 52.3258 102.897 50.1968C100.67 49.2558 98.6705 48.0888 96.8975 46.6968C97.3235 45.6688 97.3235 44.3358 96.8975 42.6968Z" fill="#1E1E1E"/>
<path fill-rule="evenodd" clip-rule="evenodd" d="M133.897 62.6968C133.129 61.9338 132.629 60.9338 132.397 59.6968C131.705 60.2218 131.205 60.8888 130.897 61.6968C131.771 63.9438 132.105 66.2768 131.897 68.6968C130.454 64.5818 129.454 60.2488 128.897 55.6968C130.23 55.6968 131.564 55.6968 132.897 55.6968C133.39 58.0028 133.723 60.3358 133.897 62.6968Z" fill="#1E1E1E"/>
<path fill-rule="evenodd" clip-rule="evenodd" d="M151.897 72.697C151.564 74.03 151.23 75.364 150.897 76.697C150.28 76.808 149.78 77.141 149.397 77.697C148.511 70.892 147.011 64.225 144.897 57.697C145.399 56.676 146.065 56.509 146.897 57.197C151.445 61.329 153.112 66.496 151.897 72.697Z" fill="white"/>
<path fill-rule="evenodd" clip-rule="evenodd" d="M119.898 68.6969C121.342 78.5059 117.342 84.5059 107.898 86.6969C102.498 87.4119 97.9977 85.7449 94.3977 81.6969C89.6067 72.6899 91.4397 65.5229 99.8977 60.1969C108.933 57.8889 115.599 60.7229 119.898 68.6969Z" fill="white"/>
<path fill-rule="evenodd" clip-rule="evenodd" d="M71.8975 19.6968C77.9735 29.7708 86.3065 37.4378 96.8975 42.6968C97.3235 44.3358 97.3235 45.6688 96.8975 46.6968C94.9955 45.6858 92.9955 45.5188 90.8975 46.1968C87.3855 48.4538 84.0515 50.9538 80.8975 53.6968C76.0275 49.7608 70.6935 46.5948 64.8975 44.1968C48.1565 41.1188 39.9905 47.9518 40.3975 64.6968C44.7455 56.2818 51.5785 53.4488 60.8975 56.1968C64.4675 56.8078 67.1345 58.6408 68.8975 61.6968C69.0755 62.8918 69.4085 64.0588 69.8975 65.1968C69.5615 66.2268 68.8945 66.7268 67.8975 66.6968C60.1325 56.5968 51.9655 56.2638 43.3975 65.6968C40.8485 72.0538 41.6815 77.8868 45.8975 83.1968C51.6205 87.4928 57.6205 87.8258 63.8975 84.1968C66.4695 81.8838 68.1365 79.0508 68.8975 75.6968C70.2655 73.6328 71.2655 71.2988 71.8975 68.6968C72.8265 69.8858 73.1595 71.2188 72.8975 72.6968C71.2535 85.3268 63.9205 91.6598 50.8975 91.6968C46.5185 104.013 49.5185 114.179 59.8975 122.197C77.4095 132.464 93.2425 130.298 107.397 115.697C109.138 112.888 110.305 109.888 110.897 106.697C111.558 105.063 111.891 103.23 111.897 101.197C112.037 98.0468 111.37 95.2138 109.897 92.6968C106.975 90.9688 103.642 89.9688 99.8975 89.6968C99.7865 89.0798 99.4535 88.5798 98.8975 88.1968C102.092 88.0158 105.092 87.5158 107.897 86.6968C117.341 84.5058 121.341 78.5058 119.897 68.6968C120.606 67.7928 121.606 67.4598 122.897 67.6968C122.545 65.1238 123.045 62.7908 124.397 60.6968C124.607 62.2548 125.107 63.5878 125.897 64.6968C128.72 92.0568 128.386 119.39 124.897 146.697C123.703 150.716 122.703 150.549 121.897 146.197C122.683 142.739 123.017 139.239 122.897 135.697C123.398 127.694 123.565 119.694 123.397 111.697C116.035 122.053 106.535 129.887 94.8975 135.197C77.6375 140.545 62.3035 137.212 48.8975 125.197C45.0285 121.663 41.5285 117.83 38.3975 113.697C37.7305 118.364 37.7305 123.03 38.3975 127.697C39.4765 136.41 40.4765 145.077 41.3975 153.697C35.9255 154.297 30.4255 153.964 24.8975 152.697C22.6995 152.032 20.3665 151.365 17.8975 150.697C21.1655 149.71 24.4995 149.377 27.8975 149.697C30.8975 149.697 33.8975 149.697 36.8975 149.697C34.1415 126.11 33.3085 102.443 34.3975 78.6968C34.6675 62.9438 38.6675 48.2768 46.3975 34.6968C51.3255 28.2528 57.4925 23.5858 64.8975 20.6968C67.6125 22.2728 69.9455 21.9388 71.8975 19.6968Z" fill="#1E1E1E"/>
<path fill-rule="evenodd" clip-rule="evenodd" d="M100.897 64.6966C107.217 64.5166 109.717 67.5166 108.397 73.6966C105.111 77.6816 101.778 77.6816 98.3973 73.6966C97.3273 70.0546 98.1613 67.0546 100.897 64.6966Z" fill="#1E1E1E"/>
<path fill-rule="evenodd" clip-rule="evenodd" d="M68.8975 61.6968C70.9365 63.1078 71.9365 65.1078 71.8975 67.6968C74.6825 66.8908 77.5165 66.2248 80.3975 65.6968C83.2785 66.2248 86.1125 66.8908 88.8975 67.6968C88.4805 68.3208 87.8135 68.6538 86.8975 68.6968C83.1685 66.3058 79.5015 66.3058 75.8975 68.6968C78.3665 69.3648 80.6995 70.0318 82.8975 70.6968C79.3125 70.3488 75.9795 71.0158 72.8975 72.6968C73.1595 71.2188 72.8265 69.8858 71.8975 68.6968C71.2655 71.2988 70.2655 73.6328 68.8975 75.6968C69.1335 72.5878 68.8005 69.5878 67.8975 66.6968C68.8945 66.7268 69.5615 66.2268 69.8975 65.1968C69.4085 64.0588 69.0755 62.8918 68.8975 61.6968Z" fill="#1E1E1E"/>
<path fill-rule="evenodd" clip-rule="evenodd" d="M67.8979 66.6967C68.8009 69.5877 69.1339 72.5877 68.8979 75.6967C68.1369 79.0507 66.4699 81.8837 63.8979 84.1967C57.6209 87.8257 51.6209 87.4927 45.8979 83.1967C41.6819 77.8867 40.8489 72.0537 43.3979 65.6967C51.9659 56.2637 60.1329 56.5967 67.8979 66.6967Z" fill="white"/>
<path fill-rule="evenodd" clip-rule="evenodd" d="M54.8975 64.6968C64.2155 64.8518 66.2155 68.6848 60.8975 76.1968C55.7425 77.8738 52.7425 76.0408 51.8975 70.6968C52.3815 68.3958 53.3815 66.3958 54.8975 64.6968Z" fill="#1E1E1E"/>
<path fill-rule="evenodd" clip-rule="evenodd" d="M64.8972 20.697C57.4922 23.586 51.3252 28.253 46.3972 34.697C38.6672 48.277 34.6672 62.944 34.3972 78.697C33.3082 102.443 34.1412 126.11 36.8972 149.697C33.8972 149.697 30.8972 149.697 27.8972 149.697C24.7722 148.718 21.4392 148.384 17.8972 148.697C18.1992 146.138 17.8652 143.804 16.8972 141.697C13.7712 115.949 14.2712 90.282 18.3972 64.697C21.0802 44.826 29.9142 28.326 44.8972 15.197C51.3752 10.121 58.7092 7.62099 66.8972 7.69699C67.3982 12.35 66.7312 16.683 64.8972 20.697Z" fill="white"/>
<path fill-rule="evenodd" clip-rule="evenodd" d="M82.8973 70.6969C84.5673 70.9479 86.0673 71.6149 87.3973 72.6969C88.1873 80.9769 92.3533 86.6429 99.8973 89.6969C103.642 89.9689 106.975 90.9689 109.897 92.6969C110.626 97.3269 110.96 101.994 110.897 106.697C110.305 109.888 109.138 112.888 107.397 115.697C93.2423 130.298 77.4092 132.464 59.8973 122.197C49.5183 114.179 46.5183 104.013 50.8973 91.6969C63.9203 91.6599 71.2533 85.3269 72.8973 72.6969C75.9793 71.0159 79.3123 70.3489 82.8973 70.6969Z" fill="white"/>
<path fill-rule="evenodd" clip-rule="evenodd" d="M84.8978 82.6968C86.2308 82.6968 87.5648 82.6968 88.8978 82.6968C89.8978 87.6968 87.8978 89.6968 82.8978 88.6968C82.6508 86.3388 83.3168 84.3388 84.8978 82.6968Z" fill="#1E1E1E"/>
<path fill-rule="evenodd" clip-rule="evenodd" d="M71.8976 82.6969C76.6046 82.6279 78.2706 84.7939 76.8976 89.1969C72.0046 89.4729 70.3376 87.3059 71.8976 82.6969Z" fill="#1E1E1E"/>
<path fill-rule="evenodd" clip-rule="evenodd" d="M158.897 74.6965C157.789 80.2445 155.122 84.9115 150.897 88.6965C150.064 102.685 149.564 116.685 149.397 130.697C148.47 137.377 147.47 144.043 146.397 150.697C141.358 152.056 136.192 152.723 130.897 152.697C129.198 152.857 127.531 152.691 125.897 152.197C129.247 150.711 132.581 149.544 135.897 148.697C138.516 148.965 141.016 148.632 143.397 147.697C144.429 138.375 145.263 129.041 145.897 119.697C146.728 106.537 147.228 93.2025 147.397 79.6965C148.397 80.0295 149.397 80.3635 150.397 80.6965C151.908 79.6325 152.074 78.2995 150.897 76.6965C151.23 75.3635 151.564 74.0295 151.897 72.6965C155.451 64.6605 157.784 65.3275 158.897 74.6965Z" fill="#1E1E1E"/>
<path fill-rule="evenodd" clip-rule="evenodd" d="M109.897 92.6968C111.37 95.2138 112.037 98.0468 111.897 101.197C111.891 103.23 111.558 105.063 110.897 106.697C110.96 101.994 110.626 97.3268 109.897 92.6968Z" fill="white"/>
<path fill-rule="evenodd" clip-rule="evenodd" d="M133.897 62.6968C138.546 85.7558 140.213 109.09 138.897 132.697C137.564 132.697 136.23 132.697 134.897 132.697C136.86 111.212 135.86 89.8778 131.897 68.6968C132.105 66.2768 131.771 63.9438 130.897 61.6968C131.205 60.8888 131.705 60.2218 132.397 59.6968C132.629 60.9338 133.129 61.9338 133.897 62.6968Z" fill="#1E1E1E"/>
<path fill-rule="evenodd" clip-rule="evenodd" d="M25.8979 127.697C25.8979 129.03 25.8979 130.364 25.8979 131.697C24.8979 131.697 23.8979 131.697 22.8979 131.697C20.2789 105.989 22.2789 80.655 28.8979 55.697C31.0329 55.344 32.3659 56.177 32.8979 58.197C26.4599 80.909 24.1259 104.076 25.8979 127.697Z" fill="#1E1E1E"/>
<path fill-rule="evenodd" clip-rule="evenodd" d="M72.8977 106.697C78.2417 106.531 83.5747 106.698 88.8977 107.197C91.4397 107.743 93.4397 109.076 94.8977 111.197C94.7307 112.697 93.8977 113.53 92.3977 113.697C84.2027 109.783 76.0357 109.783 67.8977 113.697C66.7837 112.474 66.6167 111.141 67.3977 109.697C69.2737 108.588 71.1067 107.588 72.8977 106.697Z" fill="#1E1E1E"/>
<path fill-rule="evenodd" clip-rule="evenodd" d="M25.8975 127.697C26.8485 129.116 27.1815 130.782 26.8975 132.697C25.2985 132.965 23.9655 132.631 22.8975 131.697C23.8975 131.697 24.8975 131.697 25.8975 131.697C25.8975 130.364 25.8975 129.03 25.8975 127.697Z" fill="#1E1E1E"/>
<path fill-rule="evenodd" clip-rule="evenodd" d="M16.8975 141.697C17.8655 143.804 18.1995 146.138 17.8975 148.697C21.4395 148.384 24.7725 148.718 27.8975 149.697C24.4995 149.377 21.1655 149.71 17.8975 150.697C20.3665 151.365 22.6995 152.032 24.8975 152.697C22.2105 152.861 19.5435 152.694 16.8975 152.197C15.9815 151.919 15.3155 151.419 14.8975 150.697C16.7855 148.209 17.4525 145.209 16.8975 141.697Z" fill="#1E1E1E"/>
<path fill-rule="evenodd" clip-rule="evenodd" d="M122.897 135.697C123.017 139.239 122.683 142.739 121.897 146.197C122.703 150.549 123.703 150.716 124.897 146.697C124.678 147.872 125.011 148.872 125.897 149.697C129.155 148.78 132.488 148.446 135.897 148.697C132.581 149.544 129.247 150.711 125.897 152.197C127.531 152.691 129.198 152.857 130.897 152.697C127.435 153.679 123.768 154.012 119.897 153.697C120.354 147.477 121.354 141.477 122.897 135.697Z" fill="#1E1E1E"/>
</svg>
