<svg width="128" height="136" viewBox="0 0 128 136" fill="none" xmlns="http://www.w3.org/2000/svg">
<path fill-rule="evenodd" clip-rule="evenodd" d="M118.07 92.2681C117.07 92.2681 116.07 92.2681 115.07 92.2681C115.22 93.3201 115.05 94.3201 114.57 95.2681C114.37 93.3861 113.87 91.7201 113.07 90.2681C109.69 90.6561 106.36 91.3231 103.07 92.2681C101.98 94.7921 100.64 97.1251 99.0704 99.2681C97.7804 98.7101 96.9504 97.7101 96.5704 96.2681C95.8204 100.747 93.6604 101.914 90.0704 99.7681C87.9704 97.9981 86.6404 95.8311 86.0704 93.2681C85.8104 90.8311 85.1504 88.4971 84.0704 86.2681C96.6804 78.2811 99.5204 67.614 92.5704 54.268C89.8404 51.037 86.6804 48.371 83.0704 46.268C82.5604 48.652 81.5604 50.652 80.0704 52.268C75.8904 52.619 71.8904 53.286 68.0704 54.268C58.0704 54.268 48.0704 54.268 38.0704 54.268C34.5904 53.445 30.9304 52.945 27.0704 52.768C24.9904 51.99 23.1504 50.823 21.5704 49.268C21.2404 49.601 20.9004 49.935 20.5704 50.268C18.9904 48.907 17.1504 48.24 15.0704 48.268C11.5204 26.869 19.8604 12.036 40.0704 3.76805C68.0604 -5.11895 91.2304 1.71405 109.57 24.268C115.6 33.346 118.6 43.346 118.57 54.268C130.92 65.012 131.09 76.0121 119.07 87.2681C118.12 88.8131 117.78 90.4801 118.07 92.2681Z" fill="#1E1E1E"/>
<path fill-rule="evenodd" clip-rule="evenodd" d="M110.07 44.2681C111.95 46.6831 112.28 49.3501 111.07 52.2681C110.09 49.6821 109.76 47.0151 110.07 44.2681Z" fill="white"/>
<path fill-rule="evenodd" clip-rule="evenodd" d="M15.0703 50.2681C15.6103 50.3281 15.9503 50.6611 16.0703 51.2681C14.8803 52.1971 13.5503 52.5301 12.0703 52.2681C13.0703 51.6011 14.0703 50.9351 15.0703 50.2681Z" fill="white"/>
<path fill-rule="evenodd" clip-rule="evenodd" d="M80.0703 52.2681C76.3903 54.0181 72.3903 54.6851 68.0703 54.2681C71.8903 53.2861 75.8903 52.6191 80.0703 52.2681Z" fill="white"/>
<path fill-rule="evenodd" clip-rule="evenodd" d="M86.0703 93.2681C86.4503 106.064 80.4503 114.231 68.0703 117.768C57.3103 120.955 47.6403 118.955 39.0703 111.768C32.0103 104.323 30.3403 95.8231 34.0703 86.2681C22.8503 77.6901 20.5203 67.1901 27.0703 54.7681C30.7203 54.2691 34.3903 54.1031 38.0703 54.2681C48.0703 54.2681 58.0703 54.2681 68.0703 54.2681C72.3903 54.6851 76.3903 54.0181 80.0703 52.2681C81.5603 50.6521 82.5603 48.6521 83.0703 46.2681C86.6803 48.3711 89.8403 51.0371 92.5703 54.2681C99.5203 67.6141 96.6803 78.2811 84.0703 86.2681C85.1503 88.4971 85.8103 90.8311 86.0703 93.2681Z" fill="white"/>
<path fill-rule="evenodd" clip-rule="evenodd" d="M31.0703 61.2681C36.7403 61.2681 42.4003 61.2681 48.0703 61.2681C48.3103 62.5591 47.9703 63.5591 47.0703 64.2681C41.7403 64.2681 36.4003 64.2681 31.0703 64.2681C31.0703 63.2681 31.0703 62.2681 31.0703 61.2681Z" fill="#1E1E1E"/>
<path fill-rule="evenodd" clip-rule="evenodd" d="M82.07 64.2683C75.74 64.2683 69.4 64.2683 63.07 64.2683C61.78 63.2263 61.78 62.0603 63.07 60.7683C69.07 60.1013 75.07 60.1013 81.07 60.7683C81.91 61.7793 82.24 62.9463 82.07 64.2683Z" fill="#1E1E1E"/>
<path fill-rule="evenodd" clip-rule="evenodd" d="M31.0703 61.2681C31.0703 62.2681 31.0703 63.2681 31.0703 64.2681C36.4003 64.2681 41.7403 64.2681 47.0703 64.2681C41.5903 65.2571 35.9303 65.5901 30.0703 65.2681C29.8003 63.6691 30.1403 62.3361 31.0703 61.2681Z" fill="white"/>
<path fill-rule="evenodd" clip-rule="evenodd" d="M63.0703 64.2681C69.4003 64.2681 75.7403 64.2681 82.0703 64.2681C78.7403 64.9351 75.4003 65.6011 72.0703 66.2681C71.0703 66.2681 70.0703 66.2681 69.0703 66.2681C67.0703 65.6011 65.0703 64.9351 63.0703 64.2681Z" fill="white"/>
<path fill-rule="evenodd" clip-rule="evenodd" d="M38.0704 66.268C42.3604 65.251 44.6904 66.918 45.0704 71.268C43.7204 75.022 41.0504 76.189 37.0704 74.768C34.4004 71.606 34.7304 68.773 38.0704 66.268Z" fill="#1E1E1E"/>
<path fill-rule="evenodd" clip-rule="evenodd" d="M69.0703 66.2681C70.0703 66.2681 71.0703 66.2681 72.0703 66.2681C73.0703 66.1821 73.9003 66.5161 74.5703 67.2681C76.7403 74.4351 74.2403 76.9351 67.0703 74.7681C64.1203 71.1141 64.7903 68.2811 69.0703 66.2681Z" fill="#1E1E1E"/>
<path fill-rule="evenodd" clip-rule="evenodd" d="M48.0706 80.268C52.4806 79.83 54.1406 81.83 53.0706 86.268C49.2606 86.117 47.5906 84.117 48.0706 80.268Z" fill="#1E1E1E"/>
<path fill-rule="evenodd" clip-rule="evenodd" d="M59.0702 80.2681C63.2202 80.3991 63.8902 81.8991 61.0702 84.7681C59.7802 85.2581 58.4402 85.4251 57.0702 85.2681C56.9602 83.2541 57.6302 81.5881 59.0702 80.2681Z" fill="#1E1E1E"/>
<path fill-rule="evenodd" clip-rule="evenodd" d="M15.0705 48.2679C17.1505 48.2399 18.9905 48.9069 20.5705 50.2679C20.9005 49.9349 21.2405 49.6009 21.5705 49.2679C23.1505 50.8229 24.9905 51.9899 27.0705 52.7679C30.9305 52.9449 34.5905 53.4449 38.0705 54.2679C34.3905 54.1029 30.7205 54.2689 27.0705 54.7679C20.5205 67.1899 22.8505 77.6899 34.0705 86.2679C30.3405 95.8229 32.0105 104.323 39.0705 111.768C47.6405 118.955 57.3105 120.955 68.0705 117.768C80.4505 114.231 86.4505 106.064 86.0705 93.2679C86.6405 95.8309 87.9705 97.9979 90.0705 99.7679C93.6605 101.914 95.8205 100.747 96.5705 96.2679C96.9505 97.7099 97.7805 98.7099 99.0705 99.2679C93.6105 107.891 86.6105 115.058 78.0705 120.768C81.2305 120.779 84.0605 121.613 86.5705 123.268C103.04 118.297 111.87 107.297 113.07 90.2679C113.87 91.7199 114.37 93.3859 114.57 95.2679C115.05 94.3199 115.22 93.3199 115.07 92.2679C116.07 92.2679 117.07 92.2679 118.07 92.2679C115.31 110.039 105.31 121.705 88.0705 127.268C85.8105 132.36 81.8105 134.86 76.0705 134.768C67.3405 137.354 63.6805 134.354 65.0705 125.768C48.2505 126.609 35.0805 120.109 25.5705 106.268C22.6505 101.427 19.9805 96.4269 17.5705 91.2679C3.74049 86.9559 -1.91951 77.6229 0.57049 63.2679C2.65049 57.6889 6.48049 54.0229 12.0705 52.2679C13.5505 52.5299 14.8805 52.1969 16.0705 51.2679C15.9505 50.6609 15.6105 50.3279 15.0705 50.2679C15.0705 49.6009 15.0705 48.9349 15.0705 48.2679Z" fill="#1E1E1E"/>
<path fill-rule="evenodd" clip-rule="evenodd" d="M71.0698 90.2681C74.8898 90.5031 76.8898 92.5031 77.0698 96.2681C72.8298 98.3871 68.4998 100.554 64.0698 102.768C57.0698 104.365 50.0698 104.531 43.0698 103.268C41.7398 101.935 41.7398 100.601 43.0698 99.2681C52.4098 101.306 61.2498 99.9721 69.5698 95.2681C69.9198 93.5211 70.4198 91.8541 71.0698 90.2681Z" fill="#1E1E1E"/>
<path fill-rule="evenodd" clip-rule="evenodd" d="M113.07 90.2681C111.87 107.297 103.04 118.297 86.5703 123.268C84.0603 121.613 81.2303 120.779 78.0703 120.768C86.6103 115.058 93.6103 107.891 99.0703 99.2681C100.64 97.1251 101.98 94.7921 103.07 92.2681C106.36 91.3231 109.69 90.6561 113.07 90.2681Z" fill="white"/>
<path fill-rule="evenodd" clip-rule="evenodd" d="M13.0703 58.2681C14.0703 58.2681 15.0703 58.2681 16.0703 58.2681C14.2503 66.6191 13.5803 74.9521 14.0703 83.2681C3.84026 75.1651 3.51025 66.8321 13.0703 58.2681Z" fill="white"/>
</svg>
