<svg width="160" height="174" viewBox="0 0 160 174" fill="none" xmlns="http://www.w3.org/2000/svg">
<path fill-rule="evenodd" clip-rule="evenodd" d="M133.455 76.9131C132.157 76.2971 131.157 76.2971 130.455 76.9131C122.1 56.2411 106.766 44.5741 84.4551 41.9131C82.3141 41.2501 79.9801 40.9161 77.4551 40.9131C73.1941 40.8241 69.1941 41.4911 65.4551 42.9131C47.4521 48.2481 34.7851 59.5811 27.4551 76.9131C26.6071 75.7881 25.6071 75.7881 24.4551 76.9131C29.6631 59.7071 40.6631 48.0411 57.4551 41.9131C58.5221 37.3221 57.6891 32.9891 54.9551 28.9131C53.1921 15.6041 58.3581 6.10411 70.4551 0.413105C92.7641 -2.20589 103.598 7.62811 102.955 29.9131C100.45 33.2321 99.4501 36.8991 99.9551 40.9131C116.894 47.6811 128.061 59.6811 133.455 76.9131Z" fill="#1E1E1E"/>
<path fill-rule="evenodd" clip-rule="evenodd" d="M70.4551 33.9132C76.1311 33.7472 81.7981 33.9142 87.4551 34.4132C89.9511 35.4932 92.2851 36.8272 94.4551 38.4132C85.8281 37.8712 77.1611 37.8712 68.4551 38.4132C66.4261 39.0942 64.4261 39.4272 62.4551 39.4132C65.0141 37.3102 67.6811 35.4772 70.4551 33.9132Z" fill="white"/>
<path fill-rule="evenodd" clip-rule="evenodd" d="M74.4553 2.91309C94.7923 3.91009 102.458 14.2441 97.4553 33.9131C91.5513 31.5631 85.3843 30.2301 78.9553 29.9131C72.8073 29.9621 67.1413 31.6291 61.9553 34.9131C54.7483 19.6751 58.9153 9.00809 74.4553 2.91309Z" fill="white"/>
<path fill-rule="evenodd" clip-rule="evenodd" d="M84.4551 41.9131C78.1101 42.0661 71.7771 42.3991 65.4551 42.9131C69.1941 41.4911 73.1941 40.8241 77.4551 40.9131C79.9801 40.9161 82.3141 41.2501 84.4551 41.9131Z" fill="#1E1E1E"/>
<path fill-rule="evenodd" clip-rule="evenodd" d="M84.4547 41.9131C106.766 44.5741 122.1 56.2411 130.455 76.9131C130.612 78.2861 130.445 79.6201 129.955 80.9131C111.986 59.1451 89.1527 51.3121 61.4547 57.4131C47.0347 61.7901 35.7017 70.2901 27.4547 82.9131C26.4357 80.9531 26.4357 78.9531 27.4547 76.9131C34.7847 59.5811 47.4517 48.2481 65.4547 42.9131C71.7767 42.3991 78.1097 42.0661 84.4547 41.9131Z" fill="white"/>
<path fill-rule="evenodd" clip-rule="evenodd" d="M130.455 76.9131C131.157 76.2971 132.157 76.2971 133.455 76.9131C134.416 78.6781 134.75 80.6781 134.455 82.9131C153.054 83.1091 161.221 92.4432 158.955 110.913C156.075 122.296 148.909 128.962 137.455 130.913C137.455 144.246 137.455 157.58 137.455 170.913C130.933 171.236 124.6 170.903 118.455 169.913C118.782 164.869 118.449 159.869 117.455 154.913C116.848 155.037 116.515 155.37 116.455 155.913C95.6768 177.462 73.0108 179.629 48.4548 162.413C45.5838 159.71 42.9168 156.877 40.4548 153.913C40.3948 153.37 40.0618 153.037 39.4548 152.913C38.4598 158.541 38.1258 164.207 38.4548 169.913C32.1218 169.913 25.7878 169.913 19.4548 169.913C19.7868 156.896 19.4538 143.896 18.4548 130.913C3.35283 124.376 -2.48017 113.043 0.95483 96.9132C5.04783 86.7832 12.5478 82.1161 23.4548 82.9131C23.4718 80.8481 23.8048 78.8481 24.4548 76.9131C25.6068 75.7881 26.6068 75.7881 27.4548 76.9131C26.4358 78.9531 26.4358 80.9531 27.4548 82.9131C35.7018 70.2901 47.0348 61.7901 61.4548 57.4131C89.1528 51.3121 111.986 59.1451 129.955 80.9131C130.445 79.6201 130.612 78.2861 130.455 76.9131Z" fill="#1E1E1E"/>
<path fill-rule="evenodd" clip-rule="evenodd" d="M51.4554 77.9131C62.3134 77.0871 71.6464 80.4201 79.4554 87.9131C84.5234 83.6791 90.1904 80.5121 96.4554 78.4131C109.88 76.8421 119.047 82.3421 123.955 94.9131C125.048 101.898 124.048 108.564 120.955 114.913C117.4 118.805 113.567 122.305 109.455 125.413C114.821 146.988 106.488 159.988 84.4554 164.413C67.8654 166.149 55.6984 159.649 47.9554 144.913C45.5114 137.795 46.3454 131.128 50.4554 124.913C35.4674 116.114 31.6344 103.781 38.9554 87.9131C42.4424 83.5781 46.6094 80.2451 51.4554 77.9131Z" fill="white"/>
<path fill-rule="evenodd" clip-rule="evenodd" d="M17.4554 90.9131C19.1224 90.9131 20.7884 90.9131 22.4554 90.9131C21.4854 101.96 21.1514 112.96 21.4554 123.913C8.18239 118.119 4.68239 108.785 10.9554 95.9131C12.9204 93.8631 15.0874 92.1961 17.4554 90.9131Z" fill="white"/>
<path fill-rule="evenodd" clip-rule="evenodd" d="M96.4555 89.913C102.231 89.188 107.564 90.354 112.456 93.413C113.993 94.523 114.659 96.023 114.456 97.913C110.262 96.327 105.928 94.993 101.456 93.913C99.0295 93.817 96.8625 94.483 94.9555 95.913C92.8855 93.288 93.3855 91.288 96.4555 89.913Z" fill="#1E1E1E"/>
<path fill-rule="evenodd" clip-rule="evenodd" d="M135.455 90.9131C150.883 93.0921 155.383 101.425 148.955 115.913C146.21 120.18 142.377 122.514 137.455 122.913C139.171 112.075 138.504 101.409 135.455 90.9131Z" fill="white"/>
<path fill-rule="evenodd" clip-rule="evenodd" d="M52.4551 89.9132C56.1371 89.7482 59.8031 89.9142 63.4551 90.4132C65.8181 91.0022 66.8181 92.5022 66.4551 94.9132C59.2101 92.4862 52.8771 93.8192 47.4551 98.9132C45.6721 98.0652 45.1721 96.7322 45.9551 94.9132C47.9201 92.8632 50.0871 91.1962 52.4551 89.9132Z" fill="#1E1E1E"/>
<path fill-rule="evenodd" clip-rule="evenodd" d="M98.4551 98.9131C107.773 99.0681 109.773 102.901 104.455 110.413C99.0621 112.021 96.0621 110.021 95.4551 104.413C95.8181 102.221 96.8181 100.387 98.4551 98.9131Z" fill="#1E1E1E"/>
<path fill-rule="evenodd" clip-rule="evenodd" d="M54.4551 98.9133C63.1151 98.1003 65.7821 101.6 62.4551 109.413C56.4221 112.661 53.0891 110.994 52.4551 104.413C52.3501 102.235 53.0161 100.401 54.4551 98.9133Z" fill="#1E1E1E"/>
<path fill-rule="evenodd" clip-rule="evenodd" d="M70.4553 116.913C75.2783 116.74 77.2783 119.074 76.4553 123.913C71.3993 123.875 69.3993 121.541 70.4553 116.913Z" fill="#1E1E1E"/>
<path fill-rule="evenodd" clip-rule="evenodd" d="M84.4548 116.913C90.2078 117.341 90.8748 119.508 86.4548 123.413C85.1618 123.903 83.8278 124.07 82.4548 123.913C82.1208 121.225 82.7868 118.892 84.4548 116.913Z" fill="#1E1E1E"/>
<path fill-rule="evenodd" clip-rule="evenodd" d="M73.455 133.913C83.278 132.126 91.111 135.126 96.955 142.913C98.157 145.09 98.657 147.424 98.455 149.913C92.146 149.087 85.813 148.42 79.455 147.913C73.291 148.129 67.291 148.962 61.455 150.413C60.158 147.868 60.324 145.368 61.955 142.913C65.138 138.875 68.971 135.875 73.455 133.913Z" fill="#1E1E1E"/>
<path fill-rule="evenodd" clip-rule="evenodd" d="M23.4551 131.913C24.6301 131.694 25.6301 132.027 26.4551 132.913C29.0371 137.746 31.8701 142.413 34.9551 146.913C35.4551 153.571 35.6211 160.238 35.4551 166.913C31.4551 166.913 27.4551 166.913 23.4551 166.913C23.4551 155.246 23.4551 143.58 23.4551 131.913Z" fill="white"/>
<path fill-rule="evenodd" clip-rule="evenodd" d="M132.455 132.913C133.45 144.067 133.783 155.401 133.455 166.913C129.455 166.913 125.455 166.913 121.455 166.913C121.289 160.904 121.456 154.904 121.955 148.913C125.727 143.686 129.227 138.352 132.455 132.913Z" fill="white"/>
<path fill-rule="evenodd" clip-rule="evenodd" d="M132.455 132.913C132.515 132.37 132.848 132.037 133.455 131.913C134.779 143.74 134.779 155.406 133.455 166.913C133.783 155.401 133.45 144.067 132.455 132.913Z" fill="#1E1E1E"/>
<path fill-rule="evenodd" clip-rule="evenodd" d="M116.455 155.913C116.515 155.37 116.848 155.037 117.455 154.913C118.449 159.869 118.782 164.869 118.455 169.913C117.788 165.246 117.122 160.58 116.455 155.913Z" fill="#1E1E1E"/>
<path fill-rule="evenodd" clip-rule="evenodd" d="M40.4551 153.913C39.4661 159.388 39.1331 165.055 39.4551 170.913C32.6011 171.237 25.9341 170.904 19.4551 169.913C25.7881 169.913 32.1221 169.913 38.4551 169.913C38.1261 164.207 38.4601 158.541 39.4551 152.913C40.0621 153.037 40.3951 153.37 40.4551 153.913Z" fill="#1E1E1E"/>
</svg>
