<svg width="161" height="151" viewBox="0 0 161 151" fill="none" xmlns="http://www.w3.org/2000/svg">
<path fill-rule="evenodd" clip-rule="evenodd" d="M130.958 54.0342C129.958 54.0342 128.958 54.0342 127.958 54.0342C127.958 52.7012 127.958 51.3672 127.958 50.0342C126.668 50.2712 125.668 49.9382 124.958 49.0342C125.578 48.6172 125.918 47.9502 125.958 47.0342C124.138 43.2322 123.138 39.2322 122.958 35.0342C124.808 35.3122 126.138 34.6452 126.958 33.0342C124.508 30.7242 121.668 29.0572 118.458 28.0342C116.968 23.0432 114.468 18.7102 110.958 15.0342C109.128 19.0522 106.128 20.5522 101.958 19.5342C97.5081 15.1302 93.1781 10.6302 88.9581 6.03416C88.1481 7.95716 87.6481 9.95716 87.4581 12.0342C86.6581 13.3382 85.4881 14.0052 83.9581 14.0342C77.7481 11.0942 71.4081 8.42816 64.9581 6.03416C64.6281 6.36716 64.2881 6.70116 63.9581 7.03416C65.2281 9.11916 66.2281 11.2862 66.9581 13.5342C67.0181 15.2452 66.3481 16.5782 64.9581 17.5342C60.1381 17.6802 55.3081 17.5132 50.4581 17.0342C47.4281 16.9162 44.5981 17.4162 41.9581 18.5342C45.5881 19.3242 47.5881 21.4912 47.9581 25.0342C42.0681 25.4802 37.0681 27.8142 32.9581 32.0342C35.2381 32.8112 37.4081 33.8112 39.4581 35.0342C39.0681 38.6852 37.8981 42.1852 35.9581 45.5342C36.1281 46.0342 36.2881 46.5342 36.4581 47.0342C37.1681 46.1532 37.9981 45.4872 38.9581 45.0342C39.9681 47.5522 41.2981 47.5522 42.9581 45.0342C43.9681 45.4722 43.9681 46.1382 42.9581 47.0342C41.5081 47.8882 40.1781 48.8882 38.9581 50.0342C36.9381 48.7212 35.7681 49.3872 35.4581 52.0342C35.0881 50.6242 34.2581 49.6242 32.9581 49.0342C32.1881 51.3472 31.5181 53.6802 30.9581 56.0342C36.2481 57.0292 41.5881 57.3622 46.9581 57.0342C44.1481 57.6992 41.1481 58.0322 37.9581 58.0342C34.5481 58.0172 31.5481 57.3502 28.9581 56.0342C30.6381 50.0022 32.6381 44.0022 34.9581 38.0342C32.7181 37.0602 30.3781 36.7262 27.9581 37.0342C27.7981 35.0072 27.9581 33.0072 28.4581 31.0342C32.0781 27.4192 36.2481 24.5852 40.9581 22.5342C35.8381 19.9692 35.8381 17.4692 40.9581 15.0342C46.5881 14.2422 52.2581 13.9092 57.9581 14.0342C59.6281 14.0342 61.2881 14.0342 62.9581 14.0342C62.5381 11.0952 61.0381 8.76216 58.4581 7.03416C57.7381 5.42216 57.9081 3.92216 58.9581 2.53416C67.6981 2.55416 75.6981 5.05416 82.9581 10.0342C84.0281 7.43616 83.6881 4.93616 81.9581 2.53416C82.3181 0.649163 83.4881 -0.184837 85.4581 0.0341625C87.4881 0.392163 89.3281 1.22616 90.9581 2.53416C95.3281 6.56716 99.3281 10.9002 102.958 15.5342C103.908 16.0172 104.908 16.1832 105.958 16.0342C105.778 13.9432 106.108 11.9432 106.958 10.0342C108.178 8.92016 109.518 8.75316 110.958 9.53416C116.228 13.9202 119.568 19.4202 120.958 26.0342C127.678 26.9262 131.518 30.5932 132.458 37.0342C130.758 37.9402 128.928 38.2732 126.958 38.0342C128.908 43.1572 130.238 48.4912 130.958 54.0342Z" fill="#1E1E1E"/>
<path fill-rule="evenodd" clip-rule="evenodd" d="M124.958 49.0342C111.908 32.9362 97.068 30.9362 80.458 43.0342C65.978 31.8292 52.148 32.4962 38.958 45.0342C37.998 45.4872 37.168 46.1532 36.458 47.0342C36.288 46.5342 36.128 46.0342 35.958 45.5342C37.898 42.1852 39.068 38.6852 39.458 35.0342C37.408 33.8112 35.238 32.8112 32.958 32.0342C37.068 27.8142 42.068 25.4802 47.958 25.0342C47.588 21.4912 45.588 19.3242 41.958 18.5342C44.598 17.4162 47.428 16.9162 50.458 17.0342C55.308 17.5132 60.138 17.6802 64.958 17.5342C66.348 16.5782 67.018 15.2452 66.958 13.5342C66.228 11.2862 65.228 9.11918 63.958 7.03418C64.288 6.70118 64.628 6.36718 64.958 6.03418C71.408 8.42818 77.748 11.0942 83.958 14.0342C85.488 14.0052 86.658 13.3382 87.458 12.0342C87.648 9.95718 88.148 7.95718 88.958 6.03418C93.178 10.6302 97.508 15.1302 101.958 19.5342C106.128 20.5522 109.128 19.0522 110.958 15.0342C114.468 18.7102 116.968 23.0432 118.458 28.0342C121.668 29.0572 124.508 30.7242 126.958 33.0342C126.138 34.6452 124.808 35.3122 122.958 35.0342C123.138 39.2322 124.138 43.2322 125.958 47.0342C125.918 47.9502 125.578 48.6172 124.958 49.0342Z" fill="white"/>
<path fill-rule="evenodd" clip-rule="evenodd" d="M57.958 14.0341C52.258 13.9091 46.588 14.2421 40.958 15.0341C43.988 13.5151 47.318 12.8491 50.958 13.0341C53.488 13.0371 55.818 13.3711 57.958 14.0341Z" fill="#1E1E1E"/>
<path fill-rule="evenodd" clip-rule="evenodd" d="M124.958 49.0342C125.668 49.9382 126.668 50.2712 127.958 50.0342C127.958 51.3672 127.958 52.7013 127.958 54.0343C128.958 54.0343 129.958 54.0343 130.958 54.0343C130.958 55.0343 130.958 56.0343 130.958 57.0343C125.288 57.0343 119.628 57.0343 113.958 57.0343C111.628 56.3673 109.288 55.7013 106.958 55.0343C105.328 54.3733 103.488 54.0403 101.458 54.0343C98.308 53.8943 95.478 54.5613 92.958 56.0343C88.578 58.3113 84.408 60.9783 80.458 64.0343C77.408 62.9883 74.908 61.1553 72.958 58.5343C66.318 54.2423 59.318 53.0763 51.958 55.0343C50.178 55.4273 48.508 56.0933 46.958 57.0343C41.588 57.3623 36.248 57.0293 30.958 56.0343C31.518 53.6803 32.188 51.3472 32.958 49.0342C34.258 49.6242 35.088 50.6243 35.458 52.0343C35.768 49.3873 36.938 48.7212 38.958 50.0342C40.178 48.8882 41.508 47.8882 42.958 47.0342C43.968 46.1382 43.968 45.4722 42.958 45.0342C41.298 47.5522 39.968 47.5522 38.958 45.0342C52.148 32.4962 65.978 31.8292 80.458 43.0342C97.068 30.9362 111.908 32.9362 124.958 49.0342Z" fill="#1E1E1E"/>
<path fill-rule="evenodd" clip-rule="evenodd" d="M106.958 55.0343C102.258 54.9713 97.588 55.3053 92.958 56.0343C95.478 54.5613 98.308 53.8943 101.458 54.0343C103.488 54.0403 105.328 54.3733 106.958 55.0343Z" fill="white"/>
<path fill-rule="evenodd" clip-rule="evenodd" d="M130.958 54.0342C131.888 55.1022 132.228 56.4352 131.958 58.0342C125.768 58.3572 119.768 58.0242 113.958 57.0342C119.628 57.0342 125.288 57.0342 130.958 57.0342C130.958 56.0342 130.958 55.0342 130.958 54.0342Z" fill="#1E1E1E"/>
<path fill-rule="evenodd" clip-rule="evenodd" d="M51.958 55.0342C51.448 56.3932 50.448 57.3932 48.958 58.0342C50.408 58.7062 51.738 59.3732 52.958 60.0342C44.108 59.7082 35.438 60.0412 26.958 61.0342C26.798 64.0522 26.958 67.0522 27.458 70.0342C28.118 71.8582 29.288 73.1912 30.958 74.0342C30.258 95.0002 40.258 104 60.958 101.034C59.268 101.838 57.598 102.838 55.958 104.034C51.308 101.867 48.638 103.2 47.958 108.034C47.958 106.701 47.958 105.367 47.958 104.034C37.828 102.079 31.328 96.0792 28.458 86.0342C28.128 82.7012 27.788 79.3672 27.458 76.0342C26.138 74.2472 25.308 72.2472 24.958 70.0342C25.268 66.1632 24.938 62.4962 23.958 59.0342C21.958 59.0342 19.958 59.0342 17.958 59.0342C21.748 58.5412 25.418 57.5412 28.958 56.0342C31.548 57.3502 34.548 58.0172 37.958 58.0342C41.148 58.0322 44.148 57.6992 46.958 57.0342C48.508 56.0932 50.178 55.4272 51.958 55.0342Z" fill="white"/>
<path fill-rule="evenodd" clip-rule="evenodd" d="M17.9584 59.0342C19.9584 59.0342 21.9584 59.0342 23.9584 59.0342C23.9584 61.7012 23.9584 64.3672 23.9584 67.0342C21.7184 66.7392 19.7184 67.0732 17.9584 68.0342C8.83842 71.7032 5.67842 78.3702 8.45842 88.0342C10.6484 94.7292 15.1484 98.7292 21.9584 100.034C20.3284 89.9382 20.6684 79.9382 22.9584 70.0342C23.6284 70.0342 24.2884 70.0342 24.9584 70.0342C25.3084 72.2472 26.1384 74.2472 27.4584 76.0342C27.7884 79.3672 28.1284 82.7012 28.4584 86.0342C31.3284 96.0792 37.8284 102.079 47.9584 104.034C47.9584 105.367 47.9584 106.701 47.9584 108.034C45.2684 120.497 49.5984 129.997 60.9584 136.534C78.8284 145.473 94.6684 142.64 108.458 128.034C114.158 120.661 115.328 112.661 111.958 104.034C126.618 100.531 133.448 91.1982 132.458 76.0342C134.898 73.5612 136.058 70.5612 135.958 67.0342C135.958 64.3672 135.958 61.7012 135.958 59.0342C153.758 59.3362 161.928 68.3362 160.458 86.0342C157.068 99.9222 148.238 107.588 133.958 109.034C127.548 121.68 118.888 132.513 107.958 141.534C89.2684 154.16 70.5984 154.16 51.9584 141.534C41.2084 132.954 32.8784 122.454 26.9584 110.034C6.64842 106.388 -2.19158 94.3882 0.458418 74.0342C3.69842 65.9542 9.53842 60.9542 17.9584 59.0342Z" fill="#1E1E1E"/>
<path fill-rule="evenodd" clip-rule="evenodd" d="M132.958 61.0342C133.778 63.8392 134.278 66.8392 134.458 70.0342C134.688 68.7972 135.188 67.7972 135.958 67.0342C136.058 70.5612 134.898 73.5612 132.458 76.0342C133.448 91.1982 126.618 100.531 111.958 104.034C109.628 103.367 107.288 102.701 104.958 102.034C122.258 101.492 130.418 92.4922 129.458 75.0342C130.458 74.0342 131.458 73.0342 132.458 72.0342C132.958 68.3822 133.128 64.7162 132.958 61.0342Z" fill="white"/>
<path fill-rule="evenodd" clip-rule="evenodd" d="M26.958 61.034C35.438 60.041 44.108 59.708 52.958 60.034C62.468 61.047 68.968 66.047 72.458 75.034C77.078 73.749 81.748 73.749 86.458 75.034C90.078 68.08 95.578 63.247 102.958 60.534C113.138 59.709 123.138 59.876 132.958 61.034C133.128 64.716 132.958 68.382 132.458 72.034C131.458 73.034 130.458 74.034 129.458 75.034C130.418 92.492 122.258 101.492 104.958 102.034C92.968 99.761 86.798 92.428 86.458 80.034C84.458 78.475 82.128 77.808 79.458 78.034C77.368 78.07 75.368 78.403 73.458 79.034C73.608 89.001 69.438 96.335 60.958 101.034C40.258 104 30.258 95 30.958 74.034C31.468 79.13 32.808 84.13 34.958 89.034C35.568 88.91 35.898 88.577 35.958 88.034C40.988 96.379 48.318 99.546 57.958 97.534C66.648 92.983 70.148 85.816 68.458 76.034C62.428 64.52 53.258 61.187 40.958 66.034C40.548 64.425 40.548 63.091 40.958 62.034C45.278 63.309 49.608 63.309 53.958 62.034C44.978 61.036 35.978 60.702 26.958 61.034Z" fill="#1E1E1E"/>
<path fill-rule="evenodd" clip-rule="evenodd" d="M136.958 67.0342C146.578 67.1512 151.908 71.9842 152.958 81.5342C152.628 91.0212 147.968 97.1882 138.958 100.034C138.628 99.3672 138.288 98.7012 137.958 98.0342C140.858 87.5562 140.528 77.2232 136.958 67.0342Z" fill="white"/>
<path fill-rule="evenodd" clip-rule="evenodd" d="M17.958 68.0343C20.238 67.6113 21.908 68.2783 22.958 70.0343C20.668 79.9383 20.328 89.9383 21.958 100.034C15.148 98.7293 10.648 94.7293 8.45797 88.0343C5.67797 78.3703 8.83797 71.7033 17.958 68.0343Z" fill="white"/>
<path fill-rule="evenodd" clip-rule="evenodd" d="M23.958 59.0342C24.938 62.4962 25.268 66.1632 24.958 70.0342C24.288 70.0342 23.628 70.0342 22.958 70.0342C21.908 68.2782 20.238 67.6112 17.958 68.0342C19.718 67.0732 21.718 66.7392 23.958 67.0342C23.958 64.3672 23.958 61.7012 23.958 59.0342Z" fill="#1E1E1E"/>
<path fill-rule="evenodd" clip-rule="evenodd" d="M102.958 64.034C118.318 62.236 125.818 68.903 125.458 84.034C120.878 96.072 112.378 100.239 99.9577 96.534C90.7477 90.306 88.5777 82.14 93.4577 72.034C96.2277 68.751 99.3977 66.084 102.958 64.034Z" fill="white"/>
<path fill-rule="evenodd" clip-rule="evenodd" d="M99.958 75.0341C105.548 73.5991 108.888 75.5991 109.958 81.0341C107.948 85.9351 104.448 87.2681 99.458 85.0341C97.328 81.5091 97.498 78.1761 99.958 75.0341Z" fill="#1E1E1E"/>
<path fill-rule="evenodd" clip-rule="evenodd" d="M35.9582 88.0344C33.3182 79.5884 34.9882 72.2554 40.9582 66.0344C53.2582 61.1874 62.4282 64.5204 68.4582 76.0344C70.1482 85.8164 66.6482 92.9834 57.9582 97.5344C48.3182 99.5464 40.9882 96.3794 35.9582 88.0344Z" fill="white"/>
<path fill-rule="evenodd" clip-rule="evenodd" d="M53.9585 75.0343C60.2885 74.2003 63.1185 76.8673 62.4585 83.0343C59.2385 87.9213 55.5685 88.2543 51.4585 84.0343C50.3885 80.4343 51.2185 77.4343 53.9585 75.0343Z" fill="#1E1E1E"/>
<path fill-rule="evenodd" clip-rule="evenodd" d="M26.9581 61.0343C35.9781 60.7023 44.9781 61.0363 53.9581 62.0343C49.6081 63.3093 45.2781 63.3093 40.9581 62.0343C40.5481 63.0913 40.5481 64.4253 40.9581 66.0343C34.9881 72.2553 33.3181 79.5883 35.9581 88.0343C35.8981 88.5773 35.5681 88.9103 34.9581 89.0343C32.8081 84.1303 31.4681 79.1303 30.9581 74.0343C29.2881 73.1913 28.1181 71.8583 27.4581 70.0343C26.9581 67.0523 26.7981 64.0523 26.9581 61.0343Z" fill="#1E1E1E"/>
<path fill-rule="evenodd" clip-rule="evenodd" d="M104.958 102.034C107.288 102.701 109.628 103.367 111.958 104.034C115.328 112.661 114.158 120.661 108.458 128.034C94.6676 142.64 78.8276 145.473 60.9576 136.534C49.5976 129.997 45.2676 120.497 47.9576 108.034C48.6376 103.2 51.3076 101.867 55.9576 104.034C57.5976 102.838 59.2676 101.838 60.9576 101.034C69.4376 96.3351 73.6076 89.0011 73.4576 79.0341C75.3676 78.4031 77.3676 78.0701 79.4576 78.0341C82.1276 77.8081 84.4576 78.4751 86.4576 80.0341C86.7976 92.4281 92.9676 99.7611 104.958 102.034Z" fill="white"/>
<path fill-rule="evenodd" clip-rule="evenodd" d="M84.9577 93.0342C86.2877 93.0342 87.6277 93.0342 88.9577 93.0342C89.9577 98.0342 87.9577 100.034 82.9577 99.0342C82.7177 96.6482 83.3877 94.6482 84.9577 93.0342Z" fill="#1E1E1E"/>
<path fill-rule="evenodd" clip-rule="evenodd" d="M70.9576 93.034C75.9476 92.839 77.6076 95.006 75.9576 99.534C71.4076 99.495 69.7476 97.328 70.9576 93.034Z" fill="#1E1E1E"/>
<path fill-rule="evenodd" clip-rule="evenodd" d="M76.9581 109.034C88.5881 110.955 91.7481 117.288 86.4581 128.034C79.2281 133.106 74.2281 131.439 71.4581 123.034C70.2681 117.087 72.1081 112.421 76.9581 109.034Z" fill="#1E1E1E"/>
</svg>
