<svg width="143" height="129" viewBox="0 0 143 129" fill="none" xmlns="http://www.w3.org/2000/svg">
<path fill-rule="evenodd" clip-rule="evenodd" d="M114.543 37C111.233 37.039 108.567 35.706 106.543 33C104.697 36.091 102.03 37.257 98.5433 36.5C96.3953 34.425 96.0613 32.092 97.5433 29.5C89.2573 29.418 87.5903 26.251 92.5433 20C90.4323 18.652 88.5983 18.985 87.0433 21C86.7923 22.933 86.2923 24.766 85.5433 26.5C83.3873 25.81 81.2203 25.977 79.0433 27C77.4322 28.71 75.9322 30.543 74.5433 32.5C72.21 33.167 69.8766 33.167 67.5433 32.5C66.21 30.833 64.8766 29.167 63.5433 27.5C59.0138 27.507 56.5138 25.341 56.0433 21C54.2356 18.657 52.069 17.99 49.5433 19C50.5716 20.861 52.0716 22.195 54.0433 23C54.6735 25.403 53.8402 27.237 51.5433 28.5C49.21 28.833 46.8766 29.167 44.5433 29.5C47.2357 32.132 46.9023 34.466 43.5433 36.5C40.4597 37.131 37.793 36.298 35.5433 34C33.7823 34.535 32.449 35.535 31.5433 37C29.8994 37.214 28.3994 36.88 27.0433 36C24.693 24.853 29.193 19.187 40.5433 19C38.8641 17.718 37.0307 16.718 35.0433 16C34.2184 13.799 34.7184 11.966 36.5433 10.5C39.8766 10.167 43.21 9.833 46.5433 9.5C43.2871 3.197 45.1205 1.031 52.0433 3C55.3602 2.282 58.5269 1.282 61.5433 0C65.0361 0.997 68.2027 2.664 71.0433 5C74.1283 3.058 77.295 1.392 80.5433 0C83.8403 0.399 86.6733 1.732 89.0433 4C91.8303 2.983 94.6633 2.816 97.5433 3.5C99.0713 6.381 98.4053 8.714 95.5433 10.5C99.2103 10.833 102.876 11.167 106.543 11.5C108.198 12.944 108.865 14.778 108.543 17C106.347 17.065 104.347 17.732 102.543 19C102.752 19.586 103.086 20.086 103.543 20.5C108.465 20.121 112.631 21.621 116.043 25C116.539 26.535 116.373 28.035 115.543 29.5C117.225 31.395 117.725 33.562 117.043 36C116.372 36.752 115.539 37.086 114.543 37Z" fill="#1E1E1E"/>
<path fill-rule="evenodd" clip-rule="evenodd" d="M59.5427 10C66.2053 12.375 65.872 13.708 58.5427 14C58.4753 12.541 58.8086 11.208 59.5427 10Z" fill="white"/>
<path fill-rule="evenodd" clip-rule="evenodd" d="M79.543 9.9998C82.953 9.8838 84.287 11.5498 83.543 14.9998C81.755 15.2848 80.088 14.9518 78.543 13.9998C79.289 12.7638 79.622 11.4298 79.543 9.9998Z" fill="white"/>
<path fill-rule="evenodd" clip-rule="evenodd" d="M68.5427 17C70.5976 18.734 71.9309 21.067 72.5427 24C70.261 25.4 68.761 24.734 68.0427 22C67.403 20.235 67.5696 18.568 68.5427 17Z" fill="white"/>
<path fill-rule="evenodd" clip-rule="evenodd" d="M114.543 37.0002C113.543 37.6672 112.543 38.3332 111.543 39.0002C109.785 38.6232 108.118 37.9562 106.543 37.0002C99.382 41.0752 95.048 39.0752 93.543 31.0002C86.441 27.2662 80.441 28.4332 75.543 34.5002C69.6683 37.0692 65.335 35.4022 62.543 29.5002C60.3448 29.1272 58.1781 28.6272 56.043 28.0002C53.8847 29.8852 51.3847 30.8852 48.543 31.0002C47.2985 39.0762 42.9651 41.0762 35.543 37.0002C34.1831 37.6802 32.8498 38.3472 31.543 39.0002C31.543 38.3332 31.543 37.6672 31.543 37.0002C32.4487 35.5352 33.782 34.5352 35.543 34.0002C37.7927 36.2982 40.4594 37.1312 43.543 36.5002C46.902 34.4662 47.2354 32.1322 44.543 29.5002C46.8763 29.1672 49.2097 28.8332 51.543 28.5002C53.8399 27.2372 54.6732 25.4032 54.043 23.0002C52.0713 22.1952 50.5713 20.8612 49.543 19.0002C52.0687 17.9902 54.2353 18.6572 56.043 21.0002C56.5135 25.3412 59.0135 27.5072 63.543 27.5002C64.8763 29.1672 66.2097 30.8332 67.543 32.5002C69.8763 33.1672 72.2097 33.1672 74.543 32.5002C75.9319 30.5432 77.4319 28.7102 79.043 27.0002C81.22 25.9772 83.387 25.8102 85.543 26.5002C86.292 24.7662 86.792 22.9332 87.043 21.0002C88.598 18.9852 90.432 18.6522 92.543 20.0002C87.59 26.2512 89.257 29.4182 97.543 29.5002C96.061 32.0922 96.395 34.4252 98.543 36.5002C102.03 37.2572 104.697 36.0912 106.543 33.0002C108.567 35.7062 111.233 37.0392 114.543 37.0002Z" fill="white"/>
<path fill-rule="evenodd" clip-rule="evenodd" d="M111.543 39C114.086 40.523 116.086 42.69 117.543 45.5C138.905 46.088 146.738 56.588 141.043 77C136.407 85.408 129.24 89.908 119.543 90.5C112.601 106.442 101.268 118.108 85.5426 125.5C70.4898 130.702 56.8232 128.369 44.5426 118.5C36.1792 110.809 29.3459 101.976 24.0426 92C2.31228 87.193 -4.68772 74.527 3.04258 54C8.80008 47.851 15.9668 45.185 24.5426 46C25.9641 42.578 28.2975 40.245 31.5426 39C32.8494 38.347 34.1827 37.68 35.5426 37C42.9647 41.076 47.2981 39.076 48.5426 31C51.3843 30.885 53.8843 29.885 56.0426 28C58.1777 28.627 60.3444 29.127 62.5426 29.5C65.3346 35.402 69.6679 37.069 75.5426 34.5C80.4406 28.433 86.4406 27.266 93.5426 31C95.0476 39.075 99.3816 41.075 106.543 37C108.118 37.956 109.785 38.623 111.543 39Z" fill="#1E1E1E"/>
<path fill-rule="evenodd" clip-rule="evenodd" d="M14.5433 54C16.5433 54 18.5433 54 20.5433 54C18.2545 63.55 17.9211 73.217 19.5433 83C9.26021 79.782 5.09351 72.782 7.04331 62C8.43041 58.178 10.9304 55.511 14.5433 54Z" fill="white"/>
<path fill-rule="evenodd" clip-rule="evenodd" d="M110.543 71.0001C109.876 69.3331 109.21 67.6671 108.543 66.0001C103.888 53.9131 95.5542 50.4131 83.5432 55.5001C80.3342 58.4851 77.5011 61.6511 75.0432 65.0001C71.5147 63.8981 68.0147 63.7321 64.5432 64.5001C59.609 54.1441 51.9424 50.9771 41.5432 55.0001C36.174 58.0431 33.0074 62.7101 32.0432 69.0001C29.0104 56.8941 33.177 48.0611 44.5432 42.5001C48.8765 41.8331 53.2099 41.8331 57.5432 42.5001C62.7094 44.5801 67.3761 47.4131 71.5432 51.0001C80.3882 41.7861 90.7222 39.6191 102.543 44.5001C111.256 51.4591 113.923 60.2921 110.543 71.0001Z" fill="white"/>
<path fill-rule="evenodd" clip-rule="evenodd" d="M122.543 54C130.783 54.07 135.45 58.237 136.543 66.5C136.254 75.274 131.921 80.441 123.543 82C125.202 72.563 124.869 63.23 122.543 54Z" fill="white"/>
<path fill-rule="evenodd" clip-rule="evenodd" d="M45.5426 58C58.0078 57.911 62.5078 63.911 59.0426 76C57.3129 77.902 55.4796 79.569 53.5426 81C41.8872 82.847 36.3872 77.847 37.0426 66C38.4555 61.752 41.2888 59.085 45.5426 58Z" fill="white"/>
<path fill-rule="evenodd" clip-rule="evenodd" d="M47.543 63C53.8269 62.119 56.6602 64.786 56.043 71C52.2767 76.296 48.61 76.296 45.043 71C44.0658 67.683 44.8992 65.016 47.543 63Z" fill="#1E1E1E"/>
<path fill-rule="evenodd" clip-rule="evenodd" d="M104.543 73.9998C103.45 75.8488 102.117 77.5158 100.543 78.9998C86.9216 84.2098 80.4216 79.5428 81.0426 64.9998C88.6686 54.4538 96.3356 54.4538 104.043 64.9998C104.541 67.9818 104.708 70.9818 104.543 73.9998Z" fill="white"/>
<path fill-rule="evenodd" clip-rule="evenodd" d="M108.543 66C109.21 67.667 109.876 69.333 110.543 71C109.933 71.891 109.6 72.891 109.543 74C108.57 71.552 108.237 68.885 108.543 66Z" fill="#1E1E1E"/>
<path fill-rule="evenodd" clip-rule="evenodd" d="M108.543 65.9999C108.237 68.8849 108.57 71.5519 109.543 73.9999C109.117 76.4579 107.784 77.6239 105.543 77.4999C108.511 75.3219 108.178 74.1559 104.543 73.9999C104.708 70.9819 104.541 67.9819 104.043 64.9999C96.336 54.4539 88.669 54.4539 81.043 64.9999C80.422 79.5429 86.922 84.2099 100.543 78.9999C99.411 83.1449 96.911 84.1449 93.043 81.9999C90.787 82.0469 89.287 83.0469 88.543 84.9999C85.354 83.9859 82.521 82.3199 80.043 79.9999C78.583 82.7099 76.5832 83.3759 74.043 81.9999C73.9922 79.2729 75.1589 77.1059 77.543 75.4999C76.338 68.2299 72.338 66.2299 65.543 69.4999C64.4889 71.8819 63.8222 74.3819 63.543 76.9999C67.8763 76.6669 69.8763 78.6669 69.543 82.9999C65.8614 83.7749 63.3614 82.4409 62.043 78.9999C60.6718 80.5409 59.1718 81.8749 57.543 82.9999C56.3715 82.1549 55.0382 81.4889 53.543 80.9999C55.48 79.5689 57.3133 77.9019 59.043 75.9999C62.5082 63.9109 58.0082 57.9109 45.543 57.9999C46.6515 57.2099 47.9849 56.7099 49.543 56.4999C48.6268 56.1259 47.7934 55.6259 47.043 54.9999C45.3363 55.6379 43.503 55.6379 41.543 54.9999C51.9422 50.9769 59.6088 54.1439 64.543 64.4999C68.0145 63.7319 71.5145 63.8979 75.043 64.9999C77.5009 61.6509 80.334 58.4849 83.543 55.4999C95.554 50.4129 103.888 53.9129 108.543 65.9999Z" fill="#1E1E1E"/>
<path fill-rule="evenodd" clip-rule="evenodd" d="M88.5431 63.0001C96.7871 62.7281 99.1211 66.2281 95.5431 73.5001C85.9611 74.4491 83.6271 70.9491 88.5431 63.0001Z" fill="#1E1E1E"/>
<path fill-rule="evenodd" clip-rule="evenodd" d="M88.5427 84.9998C91.4077 86.2828 94.4077 86.2828 97.5427 84.9998C103.589 97.1458 100.923 106.979 89.5427 114.5C75.6873 122.42 62.354 121.753 49.5427 112.5C42.2599 105.169 40.2599 96.6688 43.5427 86.9998C48.4807 86.4718 53.1473 85.1388 57.5427 82.9998C59.1715 81.8748 60.6715 80.5408 62.0427 78.9998C63.3611 82.4408 65.8611 83.7748 69.5427 82.9998C69.876 78.6668 67.876 76.6668 63.5427 76.9998C63.8219 74.3818 64.4886 71.8818 65.5427 69.4998C72.3377 66.2298 76.3377 68.2298 77.5427 75.4998C75.1586 77.1058 73.9919 79.2728 74.0427 81.9998C76.5829 83.3758 78.5827 82.7098 80.0427 79.9998C82.5207 82.3198 85.3537 83.9858 88.5427 84.9998Z" fill="white"/>
<path fill-rule="evenodd" clip-rule="evenodd" d="M62.5428 96.0001C68.2192 95.8341 73.8859 96.0011 79.5428 96.5001C81.5428 97.5001 83.5428 98.5001 85.5428 99.5001C87.0798 100.61 87.7458 102.11 87.5428 104C84.1318 103.14 80.7988 101.974 77.5428 100.5C69.7904 98.7941 62.7904 100.294 56.5428 105C54.76 104.152 54.26 102.819 55.0428 101C57.5223 99.1861 60.0223 97.5191 62.5428 96.0001Z" fill="#1E1E1E"/>
</svg>
