<svg width="146" height="144" viewBox="0 0 146 144" fill="none" xmlns="http://www.w3.org/2000/svg">
<path fill-rule="evenodd" clip-rule="evenodd" d="M134.915 100.896C133.915 100.896 132.915 100.896 131.915 100.896C131.915 102.896 131.915 104.896 131.915 106.896C129.465 112.402 125.125 114.736 118.915 113.896C117.325 120.704 112.985 123.537 105.915 122.396C104.115 121.424 102.445 120.257 100.915 118.896C95.0853 124.642 88.0853 127.976 79.9153 128.896C75.2353 129.062 70.5653 128.895 65.9153 128.396C69.4953 127.801 69.8353 126.467 66.9153 124.396C68.1753 123.979 68.8353 123.146 68.9153 121.896C84.3453 123.106 95.1853 116.773 101.415 102.896C102.375 97.5569 101.875 92.3899 99.9153 87.3959C103.105 84.7039 105.775 81.5369 107.915 77.8959C106.385 74.0529 106.725 70.3859 108.915 66.8959C105.495 63.6339 104.155 59.6339 104.915 54.8959C103.865 54.7464 102.865 54.9131 101.915 55.3959C102.795 56.752 103.125 58.252 102.915 59.8959C100.395 59.6406 98.0653 58.8073 95.9153 57.3959C92.5953 56.8976 89.2653 56.7309 85.9153 56.8959C85.9153 55.5626 85.9153 54.2292 85.9153 52.8959C90.3353 52.8625 94.6653 53.0292 98.9153 53.3959C96.9953 51.9763 95.6553 50.143 94.9153 47.8959C90.5153 50.6498 86.3453 50.3164 82.4153 46.8959C79.1553 48.4885 76.1553 50.4885 73.4153 52.8959C70.3253 49.9742 66.8253 47.6409 62.9153 45.8959C59.5253 50.2393 55.5253 50.9059 50.9153 47.8959C49.1053 52.3906 45.7653 54.724 40.9153 54.8959C41.9853 59.9391 40.3153 63.7724 35.9153 66.3959C37.4753 70.3739 38.3053 74.5409 38.4153 78.8959C40.7353 81.5439 43.4053 83.8769 46.4153 85.8959C46.2553 88.2069 46.2553 90.5399 46.4153 92.8959C48.8053 93.7859 50.3053 95.4529 50.9153 97.8959C50.9153 99.2289 50.9153 100.563 50.9153 101.896C49.0253 101.693 47.5253 102.359 46.4153 103.896C46.2053 102.338 45.7053 101.005 44.9153 99.8959C44.4553 98.5159 43.4553 97.8489 41.9153 97.8959C33.2153 101.921 27.8853 108.587 25.9153 117.896C24.9153 117.896 23.9153 117.896 22.9153 117.896C25.5453 110.365 22.8853 107.199 14.9153 108.396C14.0753 109.407 13.7453 110.574 13.9153 111.896C14.7853 113.54 15.2853 115.207 15.4153 116.896C14.0253 114.994 12.1853 114.661 9.91526 115.896C6.49526 112.813 5.99526 109.146 8.41526 104.896C9.90526 104.241 11.0653 103.241 11.9153 101.896C2.10526 98.4589 -0.224741 92.2919 4.91526 83.3959C-1.95474 76.3879 -1.62474 69.7209 5.91526 63.3959C3.99526 57.7569 4.99526 52.7569 8.91526 48.3959C7.14526 42.783 8.80526 38.6163 13.9153 35.8959C15.7853 33.7606 16.4553 31.094 15.9153 27.8959C17.9753 23.8443 21.3053 21.8443 25.9153 21.8959C26.2253 14.9282 29.8953 11.9282 36.9153 12.8959C39.4453 3.906 44.9453 1.5727 53.4153 5.8959C59.2553 -1.2298 65.7553 -1.8965 72.9153 3.8959C80.4953 -2.0456 86.9953 -1.0456 92.4153 6.8959C97.0053 2.9858 101.675 2.9858 106.415 6.8959C107.975 8.6125 108.805 10.6125 108.915 12.8959C115.815 12.1393 119.815 15.1393 120.915 21.8959C123.675 22.1935 126.175 23.1935 128.415 24.8959C130.305 28.2668 131.475 31.9335 131.915 35.8959C137.645 38.5904 139.315 42.9237 136.915 48.8959C142.145 53.0564 143.145 58.0564 139.915 63.8959C147.565 70.1009 147.895 76.7669 140.915 83.8959C145.155 89.3769 144.825 94.5439 139.915 99.3959C138.395 100.405 136.725 100.905 134.915 100.896Z" fill="#1E1E1E"/>
<path fill-rule="evenodd" clip-rule="evenodd" d="M15.915 27.896C16.455 31.0941 15.785 33.7607 13.915 35.896C14.495 33.1156 15.165 30.4489 15.915 27.896Z" fill="white"/>
<path fill-rule="evenodd" clip-rule="evenodd" d="M68.915 121.896C64.375 121.208 60.205 119.542 56.415 116.896C55.485 114.034 53.815 111.701 51.415 109.896C51.645 105.723 51.475 101.723 50.915 97.896C50.305 95.453 48.805 93.786 46.415 92.896C46.255 90.54 46.255 88.207 46.415 85.896C43.405 83.877 40.735 81.544 38.415 78.896C38.305 74.541 37.475 70.374 35.915 66.396C40.315 63.7725 41.985 59.9392 40.915 54.896C45.765 54.7241 49.105 52.3907 50.915 47.896C55.525 50.906 59.525 50.2394 62.915 45.896C66.825 47.641 70.325 49.9743 73.415 52.896C76.155 50.4886 79.155 48.4886 82.415 46.896C86.345 50.3165 90.515 50.6499 94.915 47.896C95.655 50.1431 96.995 51.9764 98.915 53.396C94.665 53.0293 90.335 52.8626 85.915 52.896C85.915 54.2293 85.915 55.5627 85.915 56.896C89.265 56.731 92.595 56.8977 95.915 57.396C98.065 58.8074 100.395 59.6407 102.915 59.896C103.125 58.2521 102.795 56.7521 101.915 55.396C102.865 54.9132 103.865 54.7465 104.915 54.896C104.155 59.634 105.495 63.634 108.915 66.896C106.725 70.386 106.385 74.053 107.915 77.896C105.775 81.537 103.105 84.704 99.915 87.396C101.875 92.39 102.375 97.557 101.415 102.896C95.185 116.773 84.345 123.106 68.915 121.896Z" fill="white"/>
<path fill-rule="evenodd" clip-rule="evenodd" d="M49.9147 52.896C53.5847 52.896 57.2447 52.896 60.9147 52.896C60.9147 54.2293 60.9147 55.5627 60.9147 56.896C57.5647 56.731 54.2347 56.8977 50.9147 57.396C49.2047 59.1469 47.2047 59.8135 44.9147 59.396C43.6847 58.2133 43.6847 57.0467 44.9147 55.896C46.8147 55.1215 48.4747 54.1215 49.9147 52.896Z" fill="#1E1E1E"/>
<path fill-rule="evenodd" clip-rule="evenodd" d="M89.9156 62.8959C96.2356 62.7155 98.7356 65.7155 97.4156 71.8959C94.0856 75.8959 90.7456 75.8959 87.4156 71.8959C86.3456 68.2959 87.1756 65.2962 89.9156 62.8959Z" fill="#1E1E1E"/>
<path fill-rule="evenodd" clip-rule="evenodd" d="M51.9156 62.8961C58.9756 62.1214 61.4756 65.1214 59.4156 71.8961C56.1656 75.7631 52.8356 75.7631 49.4156 71.8961C48.3456 68.2961 49.1756 65.2964 51.9156 62.8961Z" fill="#1E1E1E"/>
<path fill-rule="evenodd" clip-rule="evenodd" d="M64.9149 78.896C69.2449 78.563 71.2449 80.563 70.9149 84.896C66.5849 85.229 64.5849 83.229 64.9149 78.896Z" fill="#1E1E1E"/>
<path fill-rule="evenodd" clip-rule="evenodd" d="M77.9152 78.896C79.2452 78.896 80.5852 78.896 81.9152 78.896C82.2452 83.229 80.2452 85.229 75.9152 84.896C75.6652 82.538 76.3352 80.538 77.9152 78.896Z" fill="#1E1E1E"/>
<path fill-rule="evenodd" clip-rule="evenodd" d="M134.915 100.896C133.575 102.757 132.575 104.757 131.915 106.896C131.915 104.896 131.915 102.896 131.915 100.896C132.915 100.896 133.915 100.896 134.915 100.896Z" fill="white"/>
<path fill-rule="evenodd" clip-rule="evenodd" d="M55.9149 97.896C59.4849 99.682 63.1549 101.515 66.9149 103.396C75.2949 104.925 82.7949 103.092 89.4149 97.896C90.6949 98.009 91.5249 98.676 91.9149 99.896C82.1349 109.818 71.1349 111.318 58.9149 104.396C56.0449 102.794 55.0449 100.627 55.9149 97.896Z" fill="#1E1E1E"/>
<path fill-rule="evenodd" clip-rule="evenodd" d="M44.9154 99.8959C45.0754 101.269 44.9054 102.603 44.4154 103.896C42.2154 106.017 39.7154 107.684 36.9154 108.896C36.0254 109.721 35.6954 110.721 35.9154 111.896C39.1154 110.462 42.4454 109.962 45.9154 110.396C46.3754 110.81 46.7054 111.31 46.9154 111.896C45.5054 113.02 44.0054 114.02 42.4154 114.896C41.9354 115.844 41.7654 116.844 41.9154 117.896C44.6854 116.31 47.6854 115.81 50.9154 116.396C53.8154 120.375 52.9854 123.541 48.4154 125.896C47.9554 131.025 45.1154 133.859 39.9154 134.396C35.3454 135.472 31.1754 134.639 27.4154 131.896C25.0754 126.861 22.7454 121.861 20.4154 116.896C18.1254 115.342 15.9654 113.675 13.9154 111.896C13.7454 110.574 14.0754 109.407 14.9154 108.396C22.8854 107.199 25.5454 110.365 22.9154 117.896C23.9154 117.896 24.9154 117.896 25.9154 117.896C27.8854 108.587 33.2154 101.921 41.9154 97.8959C43.4554 97.8489 44.4554 98.5159 44.9154 99.8959Z" fill="white"/>
<path fill-rule="evenodd" clip-rule="evenodd" d="M50.915 97.896C51.475 101.723 51.645 105.723 51.415 109.896C53.815 111.701 55.485 114.034 56.415 116.896C60.205 119.542 64.375 121.208 68.915 121.896C68.835 123.146 68.175 123.979 66.915 124.396C69.835 126.467 69.495 127.801 65.915 128.396C70.565 128.895 75.235 129.062 79.915 128.896C72.195 130.534 64.525 129.868 56.915 126.896C56.245 127.229 55.585 127.563 54.915 127.896C51.675 140.354 43.675 145.521 30.915 143.396C28.665 142.019 26.495 140.519 24.415 138.896C21.885 133.645 19.555 128.312 17.415 122.896C15.015 120.329 12.515 117.996 9.91504 115.896C12.185 114.661 14.025 114.994 15.415 116.896C15.285 115.207 14.785 113.54 13.915 111.896C15.965 113.675 18.125 115.342 20.415 116.896C22.745 121.861 25.075 126.861 27.415 131.896C31.175 134.639 35.345 135.472 39.915 134.396C45.115 133.859 47.955 131.025 48.415 125.896C52.985 123.541 53.815 120.375 50.915 116.396C47.685 115.81 44.685 116.31 41.915 117.896C41.765 116.844 41.935 115.844 42.415 114.896C44.005 114.02 45.505 113.02 46.915 111.896C46.705 111.31 46.375 110.81 45.915 110.396C42.445 109.962 39.115 110.462 35.915 111.896C35.695 110.721 36.025 109.721 36.915 108.896C39.715 107.684 42.215 106.017 44.415 103.896C44.905 102.603 45.075 101.269 44.915 99.896C45.705 101.005 46.205 102.338 46.415 103.896C47.525 102.359 49.025 101.693 50.915 101.896C50.915 100.563 50.915 99.229 50.915 97.896Z" fill="#1E1E1E"/>
</svg>
