<svg width="20" height="20" viewBox="0 0 20 20" fill="none" xmlns="http://www.w3.org/2000/svg">
<path d="M15.3121 3.68164C14.6427 3.68164 14.1406 4.18369 14.1406 4.85308C14.1406 5.52247 14.6427 6.02451 15.3121 6.02451C15.9815 6.02451 16.4835 5.52247 16.4835 4.85308C16.4835 4.18369 15.9815 3.68164 15.3121 3.68164Z" fill="#ECE7E2"/>
<path d="M10.0413 5.1875C7.28002 5.1875 5.10449 7.4467 5.10449 10.1243C5.10449 12.8018 7.36369 15.061 10.0413 15.061C12.7188 15.061 14.978 12.8018 14.978 10.1243C14.978 7.4467 12.8025 5.1875 10.0413 5.1875ZM10.0413 13.3039C8.28411 13.3039 6.86165 11.8814 6.86165 10.1243C6.86165 8.36711 8.28411 6.94465 10.0413 6.94465C11.7984 6.94465 13.2209 8.36711 13.2209 10.1243C13.2209 11.8814 11.7984 13.3039 10.0413 13.3039Z" fill="#ECE7E2"/>
<path d="M14.0572 0H6.1082C2.67757 0 0 2.67757 0 6.02453V13.9736C0 17.3205 2.67757 19.9981 6.02453 19.9981H13.9736C17.3205 19.9981 19.9981 17.3205 19.9981 13.9736V6.02453C20.0818 2.67757 17.4042 0 14.0572 0ZM18.1573 14.0572C18.1573 16.3164 16.3164 18.2409 13.9736 18.2409H6.02453C3.76533 18.2409 1.84083 16.4001 1.84083 14.0572V6.1082C1.84083 3.84901 3.68166 1.9245 6.02453 1.9245H13.9736C16.2328 1.9245 18.1573 3.76533 18.1573 6.1082V14.0572Z" fill="#ECE7E2"/>
</svg>
