<svg width="656" height="92" viewBox="0 0 656 92" fill="none" xmlns="http://www.w3.org/2000/svg">
<path fill-rule="evenodd" clip-rule="evenodd" d="M53.6506 0.591762C48.4988 1.45851 41.3835 4.08288 36.8742 6.7784C32.2327 9.55311 25.8834 15.2925 23.3301 19.0218L21.6424 21.4859L16.8329 21.4537C9.41627 21.4049 5.08722 24.0911 1.44585 31.0034C-0.514513 34.7247 -0.474782 42.8608 1.5247 47.0343C4.04377 52.2923 11.3534 57.9153 17.0847 59.0036C19.5231 59.4663 19.4339 59.3686 25.7813 68.5564C27.7747 71.4412 32.0261 76.4734 35.2292 79.7399C44.2761 88.9636 52.4495 92.5525 63.0007 91.932C68.9331 91.583 73.7347 89.9294 79.1121 86.3838C86.0421 81.8137 94.2846 72.5214 99.5965 63.2903C101.706 59.6253 101.811 59.5437 105.412 58.7914C109.647 57.9061 115.499 54.2541 117.999 50.9374C120.975 46.9885 121.985 43.8983 122 38.6996C122.016 32.9417 121.187 30.6768 117.628 26.7538C114.089 22.8525 111.18 21.5818 105.751 21.5651L101.409 21.5515L95.3592 15.462C88.6241 8.68203 83.3054 5.16059 76.1676 2.75523C68.1165 0.0423848 60.9859 -0.642473 53.6506 0.591762ZM52.076 19.2544C53.7863 20.1329 56.4869 21.8571 58.0775 23.0858L60.9688 25.3192L64.0979 23.0443C69.5505 19.0793 72.8453 17.8506 78.0014 17.8593C83.6624 17.8686 86.7053 19.1455 90.5111 23.1093C93.7277 26.4581 95.1238 30.3928 95.1037 36.048C95.0817 42.1363 91.9837 47.3727 86.223 51.0562C84.7285 52.012 83.5047 53.0168 83.5041 53.289C83.5035 53.5606 83.9687 54.6742 84.5384 55.7636C86.1644 58.8718 86.0073 66.2735 84.2382 69.9075C81.2289 76.0905 74.9591 81.3318 67.7259 83.7112C62.4872 85.4348 55.4863 84.868 50.3424 82.3043C42.4325 78.3616 36.9879 71.6596 36.0544 64.7175C35.7592 62.5207 36.0129 60.6851 37.0753 57.3406L38.4898 52.8887L37.0037 51.9131C33.7493 49.7774 30.3017 46.0345 28.823 43.0321C26.6695 38.6582 26.628 31.9092 28.7265 27.4288C32.9608 18.3907 43.3292 14.761 52.076 19.2544ZM17.6031 28.0642C17.7804 28.243 17.5236 30.1225 17.0328 32.2401C16.3964 34.9827 16.2149 38.4484 16.4013 44.2874C16.5981 50.4499 16.4783 52.4847 15.9202 52.4847C15.5125 52.4847 13.8407 51.5796 12.2055 50.474C7.13866 47.0466 4.57374 39.9444 6.5231 34.7383C7.86241 31.16 12.1939 27.7443 15.3964 27.7406C16.4331 27.7394 17.4264 27.8847 17.6031 28.0642ZM111.631 29.7488C115.353 32.3088 117.185 37.7586 115.921 42.51C114.891 46.3791 108.955 52.4847 106.222 52.4847C105.882 52.4847 105.778 49.2924 105.964 44.5967C106.205 38.506 106.05 35.8167 105.281 32.792C104.734 30.6378 104.286 28.7589 104.286 28.616C104.286 28.4737 105.483 28.3568 106.947 28.3568C108.698 28.3568 110.298 28.8319 111.631 29.7488ZM41.1959 32.2934C38.6371 34.2613 38.7288 39.3239 41.3487 40.7431C43.1605 41.7243 46.5812 41.4384 48.1198 40.1776C50.1407 38.5214 50.1407 34.2774 48.1198 32.6213C46.4706 31.2695 42.7565 31.0938 41.1959 32.2934ZM53.6145 47.7662C52.7013 48.8797 53.2704 50.268 55.0309 51.2214C58.1429 52.9072 60.143 50.81 57.8244 48.2908C56.3885 46.7311 54.6421 46.5134 53.6145 47.7662ZM44.9925 63.3113C43.1544 65.5534 47.8117 67.4527 58.0274 68.6269C63.2281 69.2245 65.134 69.1843 69.6538 68.3807C75.684 67.3085 78.0747 65.9041 76.5301 64.3414C75.7562 63.5575 74.9927 63.5433 70.987 64.2368C65.3944 65.2051 54.6488 64.7479 50.1884 63.3528C46.385 62.1631 45.9369 62.1594 44.9925 63.3113Z" fill="white"/>
<path d="M74.3166 40.7431C71.6967 39.3239 71.605 34.2613 74.1638 32.2934C75.7243 31.0938 79.4385 31.2695 81.0877 32.6213C83.1086 34.2774 83.1086 38.5214 81.0877 40.1776C79.5491 41.4384 76.1284 41.7243 74.3166 40.7431Z" fill="white"/>
<path d="M64.563 47.8508C66.014 46.4674 67.5034 46.3578 68.27 47.5781C69.1323 48.9511 68.3807 50.551 66.4584 51.4349C63.3537 52.8618 61.9976 50.296 64.563 47.8508Z" fill="white"/>
<path d="M202.077 59.9275C203.354 59.9275 203.993 60.8102 203.993 62.5757C203.993 64.3085 201.93 66.2047 197.804 68.2644C193.679 70.3241 189.651 71.3539 185.722 71.3539H184.593C181.351 71.3539 178.273 70.7164 175.359 69.4414C169.662 66.9566 165.733 62.7228 163.572 56.7399C162.524 53.7974 162 50.8714 162 47.9616V46.7847C162 40.1805 164.177 34.4591 168.532 29.6205C170.726 27.2011 173.378 25.3539 176.489 24.0789C179.632 22.7711 182.857 22.1173 186.164 22.1173C192.385 22.1173 197.182 23.049 200.555 24.9126C202.552 26.0242 203.551 27.8387 203.551 30.3561C203.551 34.9005 202.11 37.1727 199.229 37.1727C197.461 37.1727 195.365 35.8813 192.942 33.2985C190.552 30.7157 188.014 29.4243 185.329 29.4243C182.088 29.4243 179.419 31.435 177.324 35.4563C176.145 37.7449 175.539 41.3575 175.506 46.2942C175.506 46.3596 175.506 46.425 175.506 46.4904C175.506 51.231 176.734 55.1379 179.19 58.2111C181.679 61.317 184.838 62.8699 188.669 62.8699C190.797 62.8699 193.4 62.3795 196.478 61.3987C199.589 60.4179 201.455 59.9275 202.077 59.9275Z" fill="white"/>
<path d="M246.603 25.403C246.603 23.8664 250.303 23.0981 257.703 23.0981C262.254 23.0981 264.53 24.0299 264.53 25.8934C264.53 27.1358 263.564 28.6397 261.632 30.4051C259.7 32.1379 258.243 33.9851 257.261 35.9467C257.228 36.0121 255.116 41.145 250.925 51.3454C246.734 61.4805 244.082 67.3326 242.969 68.9019C241.855 70.4712 240.186 71.2559 237.959 71.2559C235.732 71.2559 234.013 70.3731 232.802 68.6077C231.59 66.8422 229.053 61.1862 225.189 51.6397C221.326 42.0931 218.952 36.4861 218.068 34.8188C217.184 33.1514 215.71 31.4677 213.647 29.7676C211.617 28.0348 210.602 26.7434 210.602 25.8934V24.9616C210.602 23.7193 214.957 23.0981 223.667 23.0981L226.073 23.049C229.479 23.049 231.607 23.2616 232.458 23.6866C233.309 24.1116 233.735 24.7982 233.735 25.7463C233.735 26.6617 233.49 27.5608 232.998 28.4435C232.507 29.2935 232.262 30.2907 232.262 31.435C232.262 35.6198 234.439 42.5999 238.794 52.3753C239.711 54.4023 240.349 55.4158 240.709 55.4158C241.07 55.4158 241.692 54.3696 242.576 52.2772C246.636 42.6652 248.666 36.0284 248.666 32.3667C248.666 31.3532 248.322 30.1599 247.635 28.7868C246.947 27.4136 246.603 26.2857 246.603 25.403Z" fill="white"/>
<path d="M332.118 24.177C333.592 25.027 334.329 26.8252 334.329 29.5714C334.329 32.3177 334.132 34.1322 333.739 35.0149C333.346 35.8977 332.577 36.339 331.431 36.339C329.597 36.339 327.616 35.0149 325.488 32.3667C323.392 29.7186 320.74 28.3945 317.531 28.3945C315.698 28.3945 314.241 28.8685 313.16 29.8166C312.08 30.7647 311.539 31.8109 311.539 32.9552C311.539 34.9168 312.489 36.5515 314.388 37.8593C315.305 38.4805 318.235 39.8372 323.18 41.9296C328.156 43.9893 331.709 46.1308 333.837 48.3539C335.998 50.5444 337.079 53.5359 337.079 57.3284C337.079 61.1208 335.458 64.4229 332.217 67.2345C328.975 70.0462 324.817 71.452 319.742 71.452H317.138C310.786 71.452 306.022 70.7001 302.846 69.1962C300.62 68.15 299.506 65.6653 299.506 61.742C299.506 57.8188 300.243 55.8571 301.717 55.8571C303.583 55.8571 305.891 57.3774 308.642 60.4179C311.425 63.4584 314.437 64.9787 317.679 64.9787C319.643 64.9787 321.297 64.57 322.639 63.7527C324.014 62.9026 324.702 61.5949 324.702 59.8294C324.702 58.0313 323.753 56.4293 321.853 55.0235C320.838 54.2715 318.088 52.9474 313.602 51.0512C309.149 49.1222 305.973 47.2587 304.074 45.4606C301.225 42.7797 299.801 39.494 299.801 35.6034C299.801 31.6802 301.471 28.4435 304.811 25.8934C308.151 23.3106 312.047 22.0192 316.5 22.0192H317.826C324.833 22.0192 329.597 22.7385 332.118 24.177Z" fill="white"/>
<path d="M374.041 50.3156C374.041 48.8444 373.583 48.1087 372.666 48.1087H371.389C370.57 48.2722 369.948 48.3539 369.523 48.3539C366.543 48.3539 364.038 49.2203 362.008 50.9531C359.978 52.6859 358.963 54.6475 358.963 56.838V57.9659C358.963 59.6333 359.487 61.0718 360.535 62.2815C361.582 63.4911 362.859 64.096 364.366 64.096H365.937C368.098 64.096 369.948 63.4257 371.487 62.0853C373.026 60.7449 373.795 59.4371 373.795 58.162C373.926 57.5082 373.992 57.0832 373.992 56.887L374.09 56.1023V53.9936L374.139 53.209V51.0512C374.074 50.7242 374.041 50.479 374.041 50.3156ZM393.981 65.8614V66.597C393.981 67.7086 392.754 68.7548 390.298 69.7356C387.842 70.6837 384.928 71.1578 381.556 71.1578C379.493 71.1578 377.708 70.226 376.202 68.3625C375.383 67.3163 374.745 66.7932 374.287 66.7932C373.828 66.7605 373.042 67.1365 371.929 67.9211C368.196 70.4712 364.169 71.7463 359.847 71.7463C359.814 71.7463 359.781 71.7626 359.749 71.7953C355.492 71.7953 352.087 70.7001 349.533 68.5096C346.979 66.3191 345.686 63.2459 345.653 59.29C345.653 50.7896 352.201 45.4442 365.299 43.2537C368.442 42.7633 370.325 42.3874 370.947 42.1258C372.846 41.3412 373.795 39.592 373.795 36.8785C373.795 34.1649 373.173 32.2196 371.929 31.0426C370.718 29.833 369.293 29.2281 367.656 29.2281C365.069 29.2281 362.728 30.6176 360.633 33.3966C358.537 36.1429 356.098 37.516 353.315 37.516C351.678 37.516 350.433 37.0746 349.582 36.1919C348.763 35.2765 348.354 34.3447 348.354 33.3966C348.354 30.5195 349.86 28.231 352.873 26.5309C357.882 23.7193 363.187 22.3134 368.786 22.3134H371.34C374.156 22.3134 376.841 22.9183 379.395 24.1279C381.981 25.3049 383.979 27.1194 385.386 29.5714C386.794 32.0235 387.498 37.4996 387.498 46C387.498 54.5004 387.76 59.4044 388.284 60.7122C388.841 61.9872 389.921 62.9353 391.526 63.5565C393.163 64.145 393.981 64.9133 393.981 65.8614Z" fill="white"/>
<path d="M440.226 46.6375L440.128 43.9403C440.128 39.7555 438.949 36.0611 436.592 32.8571C434.824 30.4705 432.466 29.2772 429.519 29.2772L429.126 29.3262C426.278 29.3262 424.051 30.4542 422.447 32.71C421.432 34.1159 420.924 36.4861 420.924 39.8209L420.826 40.7527L420.679 45.0682V49.4819L420.728 49.9723V50.9041L420.777 51.3945C420.777 51.7214 420.777 52.0483 420.777 52.3753L420.875 53.7974L420.973 55.661C420.973 58.3746 421.726 60.5487 423.233 62.1834C424.739 63.8181 426.687 64.6354 429.077 64.6354H429.961C433.17 64.6354 435.839 62.8536 437.967 59.29C439.506 56.7399 440.275 52.8984 440.275 47.7655V47.177L440.226 46.6375ZM421.661 77.2388C421.661 79.9197 422.381 82.2083 423.822 84.1045L425.983 86.2623C427.162 87.4392 427.751 88.42 427.751 89.2047C427.751 90.2509 427.014 90.9702 425.541 91.3625C424.1 91.7548 420.973 91.951 416.16 91.951L414.883 92C409.35 92 405.928 91.7875 404.618 91.3625C403.341 90.9375 402.703 90.2672 402.703 89.3518C402.703 88.9922 403.505 87.5537 405.109 85.0362C406.714 82.5188 407.712 79.9197 408.105 77.2388C408.236 76.3561 408.302 69.3433 408.302 56.2004C408.302 43.0576 408.155 35.7996 407.86 34.4264C407.565 33.0206 406.517 31.7129 404.717 30.5032C402.916 29.2608 402.015 28.0839 402.015 26.9723C402.015 25.8607 402.785 25.0434 404.324 24.5203C408.646 23.0817 412.706 22.3625 416.504 22.3625C417.519 22.3625 418.256 22.6077 418.714 23.0981C419.205 23.5558 419.68 24.1443 420.138 24.8635C420.597 25.5828 421.055 25.9424 421.514 25.9424C421.972 25.9424 422.823 25.5828 424.068 24.8635C425.345 24.1443 426.785 23.4577 428.39 22.8038C430.027 22.1173 432.171 21.774 434.824 21.774H436.15C438.507 21.774 440.881 22.4115 443.271 23.6866C445.694 24.9289 447.741 26.58 449.411 28.6397C452.783 32.8571 454.469 38.1045 454.469 44.3817C454.469 52.1301 452.21 58.4399 447.692 63.3113C445.334 65.8614 442.78 67.6596 440.03 68.7058C437.279 69.7193 434.169 70.226 430.698 70.226C430.665 70.226 429.421 70.0952 426.965 69.8337L424.853 69.5885L423.871 69.4414C422.398 69.4414 421.661 72.0405 421.661 77.2388Z" fill="white"/>
<path d="M469.576 6.76759C469.576 4.87136 470.312 3.26937 471.786 1.96162C473.292 0.653874 474.913 0 476.648 0H478.22C478.711 0.098081 479.12 0.147122 479.448 0.147122C481.019 0.147122 482.411 0.850036 483.622 2.25586C484.834 3.66169 485.44 5.00213 485.44 6.27719V7.55224C485.374 7.87918 485.341 8.12438 485.341 8.28785C485.341 9.66098 484.572 11.0014 483.033 12.3092C481.494 13.6169 479.791 14.2708 477.925 14.2708H476.403C474.569 14.2708 472.981 13.6987 471.638 12.5544C470.329 11.3774 469.674 10.037 469.674 8.53305L469.576 8.04264V6.76759ZM478.907 70.5693H474.241C469.887 70.5693 467.267 70.4549 466.383 70.226C465.532 69.9645 465.106 69.2616 465.106 68.1173C465.106 66.9403 465.925 65.5345 467.562 63.8998C469.199 62.2651 470.23 60.6304 470.656 58.9957C471.082 57.3284 471.295 53.0291 471.295 46.0981C471.295 39.1343 471.115 35.0313 470.754 33.7889C470.394 32.5466 469.265 31.484 467.365 30.6013C465.499 29.6859 464.566 28.607 464.566 27.3646C464.566 26.0896 465.434 25.1578 467.169 24.5693C471.098 23.2616 475.437 22.6077 480.184 22.6077H480.921C482.82 22.6077 483.917 23.4087 484.212 25.0107C484.375 25.9261 484.457 31.4186 484.457 41.4883C484.457 51.5252 484.67 57.4101 485.096 59.1429C485.554 60.8429 486.7 62.6574 488.534 64.5864C490.367 66.5153 491.284 67.7249 491.284 68.2154V68.8038C491.284 69.9808 487.159 70.5693 478.907 70.5693Z" fill="white"/>
<path d="M523.531 28.5416H522.107C520.044 28.5416 518.063 29.6205 516.164 31.7783C514.298 33.9033 513.365 36.4534 513.365 39.4286V40.2132C513.365 41.4229 514.036 42.0277 515.378 42.0277L515.869 42.1258H519.357L519.602 42.0768L527.804 41.5864C528.295 41.4883 528.623 41.4392 528.787 41.4392C530.456 41.4392 531.291 40.5728 531.291 38.8401V37.2217C531.291 35.0313 530.506 33.037 528.934 31.2388C527.362 29.4407 525.561 28.5416 523.531 28.5416ZM513.954 51.8849C513.954 55.1542 515.493 57.9822 518.571 60.3689C520.863 62.167 523.777 63.0661 527.313 63.0661C528.918 63.0661 531.291 62.6084 534.435 61.693C537.611 60.7775 539.444 60.3198 539.936 60.3198C541.409 60.3198 542.146 61.1208 542.146 62.7228C542.146 64.619 540.181 66.548 536.252 68.5096C532.356 70.4385 528.312 71.403 524.121 71.403H521.96C521.894 71.403 521.812 71.403 521.714 71.403C519.062 71.403 516.361 70.8635 513.61 69.7847C508.175 67.6923 504.311 64.0306 502.019 58.7996C500.448 55.2033 499.662 51.7868 499.662 48.5501V46.2942C499.662 42.9922 500.235 39.8046 501.381 36.7313C503.542 30.9446 507.356 26.7761 512.824 24.226C516.099 22.7221 519.537 21.9701 523.138 21.9701H524.268C529.605 21.9701 534.107 23.6212 537.775 26.9232C539.706 28.6887 541.18 30.8138 542.195 33.2985C543.243 35.7832 543.766 38.317 543.766 40.8998C543.766 43.4499 542.506 45.1336 539.985 45.951C536.448 47.0952 529.9 47.6674 520.339 47.6674C517.785 47.6674 516.082 47.9943 515.231 48.6482C514.38 49.2694 513.954 50.3483 513.954 51.8849Z" fill="white"/>
<path d="M609.903 66.9403C609.903 68.15 608.904 69.049 606.907 69.6375C604.942 70.1933 601.619 70.4712 596.936 70.4712C592.287 70.4712 589.504 70.1443 588.587 69.4904C587.67 68.8365 587.212 68.0682 587.212 67.1855C587.212 66.2701 587.621 64.8969 588.44 63.0661C589.291 61.2353 589.815 59.764 590.011 58.6525C590.208 57.5409 590.306 53.7811 590.306 47.3731C590.306 40.9652 589.749 36.6006 588.636 34.2793C587.556 31.9254 585.411 30.7484 582.202 30.7484C578.993 30.7484 576.39 32.1379 574.393 34.9168C573.05 36.7804 572.379 40.1969 572.379 45.1663C572.379 53.3724 573.132 59.3881 574.638 63.2132C575.555 65.4364 576.014 66.8749 576.014 67.5288C576.014 68.7711 575.261 69.5558 573.754 69.8827C572.248 70.177 568.974 70.3241 563.931 70.3241C558.922 70.3241 555.893 69.9972 554.845 69.3433C553.798 68.6567 553.274 67.7413 553.274 66.597C553.274 65.4527 554.141 64.3085 555.877 63.1642C557.612 62.0199 558.594 60.9901 558.824 60.0746C559.053 59.1265 559.167 54.9744 559.167 47.6183C559.167 40.2296 558.922 35.914 558.431 34.6716C557.94 33.3966 556.957 31.9254 555.484 30.258C554.01 28.5906 553.274 27.7406 553.274 27.7079V26.678C553.274 26.1222 553.683 25.6155 554.501 25.1578C557.35 23.5231 561.59 22.7058 567.222 22.7058C568.794 22.7058 570.104 23.4741 571.151 25.0107C572.232 26.5473 573.018 27.3156 573.509 27.3156C574 27.3156 575.146 26.7925 576.947 25.7463C578.78 24.6674 579.779 24.0952 579.943 24.0299C582.562 22.8202 585.002 22.2154 587.261 22.2154H588.832C594.562 22.2154 598.655 24.5039 601.111 29.081C602.683 32.0561 603.469 39.1997 603.469 50.5117C603.469 56.5601 603.665 60.0092 604.058 60.8593C604.451 61.7093 605.515 62.6901 607.25 63.8017C609.018 64.8806 609.903 65.9268 609.903 66.9403Z" fill="white"/>
<path d="M651.039 24.177C652.513 25.027 653.25 26.8252 653.25 29.5714C653.25 32.3177 653.053 34.1322 652.66 35.0149C652.267 35.8977 651.498 36.339 650.352 36.339C648.518 36.339 646.537 35.0149 644.409 32.3667C642.313 29.7186 639.661 28.3945 636.452 28.3945C634.619 28.3945 633.162 28.8685 632.081 29.8166C631.001 30.7647 630.46 31.8109 630.46 32.9552C630.46 34.9168 631.41 36.5515 633.309 37.8593C634.226 38.4805 637.156 39.8372 642.101 41.9296C647.078 43.9893 650.63 46.1308 652.758 48.3539C654.919 50.5444 656 53.5359 656 57.3284C656 61.1208 654.379 64.4229 651.138 67.2345C647.896 70.0462 643.738 71.452 638.663 71.452H636.06C629.707 71.452 624.943 70.7001 621.767 69.1962C619.541 68.15 618.427 65.6653 618.427 61.742C618.427 57.8188 619.164 55.8571 620.638 55.8571C622.504 55.8571 624.812 57.3774 627.563 60.4179C630.346 63.4584 633.358 64.9787 636.6 64.9787C638.564 64.9787 640.218 64.57 641.56 63.7527C642.936 62.9026 643.623 61.5949 643.623 59.8294C643.623 58.0313 642.674 56.4293 640.775 55.0235C639.759 54.2715 637.009 52.9474 632.523 51.0512C628.07 49.1222 624.894 47.2587 622.995 45.4606C620.146 42.7797 618.722 39.494 618.722 35.6034C618.722 31.6802 620.392 28.4435 623.732 25.8934C627.072 23.3106 630.968 22.0192 635.421 22.0192H636.747C643.754 22.0192 648.518 22.7385 651.039 24.177Z" fill="white"/>
</svg>
