<svg width="494" height="316" viewBox="0 0 494 316" fill="none" xmlns="http://www.w3.org/2000/svg">
<path d="M40.0774 283.928C41.3544 283.928 41.9928 284.81 41.9928 286.576C41.9928 288.308 39.93 290.205 35.8044 292.264C31.6788 294.324 27.6514 295.354 23.7223 295.354H22.5926C19.3511 295.354 16.2732 294.716 13.3591 293.441C7.66185 290.957 3.7327 286.723 1.57166 280.74C0.523887 277.797 0 274.871 0 271.962V270.785C0 264.181 2.17741 258.459 6.53222 253.62C8.726 251.201 11.3782 249.354 14.4888 248.079C17.6321 246.771 20.8573 246.117 24.1643 246.117C30.3855 246.117 35.1823 247.049 38.5548 248.913C40.5522 250.024 41.5508 251.839 41.5508 254.356C41.5508 258.9 40.1101 261.173 37.2287 261.173C35.4606 261.173 33.3651 259.881 30.9421 257.299C28.5519 254.716 26.0143 253.424 23.3294 253.424C20.0878 253.424 17.4193 255.435 15.3237 259.456C14.145 261.745 13.5392 265.357 13.5065 270.294C13.5065 270.36 13.5065 270.425 13.5065 270.49C13.5065 275.231 14.7343 279.138 17.1901 282.211C19.6785 285.317 22.8382 286.87 26.6691 286.87C28.7974 286.87 31.4005 286.38 34.4783 285.399C37.5889 284.418 39.4553 283.928 40.0774 283.928Z" fill="#1E1E1E"/>
<path d="M84.6031 249.403C84.6031 247.866 88.3031 247.098 95.703 247.098C100.254 247.098 102.53 248.03 102.53 249.893C102.53 251.136 101.564 252.64 99.6321 254.405C97.7003 256.138 96.2432 257.985 95.2609 259.947C95.2282 260.012 93.1163 265.145 88.9252 275.345C84.7341 285.48 82.0819 291.333 80.9687 292.902C79.8554 294.471 78.1855 295.256 75.959 295.256C73.7325 295.256 72.0135 294.373 70.802 292.608C69.5905 290.842 67.0529 285.186 63.1892 275.64C59.3256 266.093 56.9517 260.486 56.0676 258.819C55.1836 257.151 53.7101 255.468 51.6473 253.768C49.6173 252.035 48.6022 250.743 48.6022 249.893V248.962C48.6022 247.719 52.9571 247.098 61.6667 247.098L64.0733 247.049C67.4786 247.049 69.6068 247.262 70.4582 247.687C71.3095 248.112 71.7351 248.798 71.7351 249.746C71.7351 250.662 71.4896 251.561 70.9984 252.443C70.5073 253.294 70.2617 254.291 70.2617 255.435C70.2617 259.62 72.4391 266.6 76.7939 276.375C77.7107 278.402 78.3492 279.416 78.7094 279.416C79.0696 279.416 79.6917 278.37 80.5757 276.277C84.6359 266.665 86.6659 260.028 86.6659 256.367C86.6659 255.353 86.3221 254.16 85.6345 252.787C84.9469 251.414 84.6031 250.286 84.6031 249.403Z" fill="#1E1E1E"/>
<path d="M170.118 248.177C171.592 249.027 172.329 250.825 172.329 253.571C172.329 256.318 172.132 258.132 171.739 259.015C171.346 259.898 170.577 260.339 169.431 260.339C167.597 260.339 165.616 259.015 163.488 256.367C161.392 253.719 158.74 252.394 155.531 252.394C153.698 252.394 152.241 252.869 151.16 253.817C150.08 254.765 149.539 255.811 149.539 256.955C149.539 258.917 150.489 260.552 152.388 261.859C153.305 262.48 156.235 263.837 161.18 265.93C166.156 267.989 169.709 270.131 171.837 272.354C173.998 274.544 175.079 277.536 175.079 281.328C175.079 285.121 173.458 288.423 170.217 291.235C166.975 294.046 162.817 295.452 157.742 295.452H155.138C148.786 295.452 144.022 294.7 140.846 293.196C138.62 292.15 137.506 289.665 137.506 285.742C137.506 281.819 138.243 279.857 139.717 279.857C141.583 279.857 143.891 281.377 146.642 284.418C149.425 287.458 152.437 288.979 155.679 288.979C157.643 288.979 159.297 288.57 160.639 287.753C162.014 286.903 162.702 285.595 162.702 283.829C162.702 282.031 161.753 280.429 159.853 279.023C158.838 278.271 156.088 276.947 151.602 275.051C147.149 273.122 143.973 271.259 142.074 269.461C139.225 266.78 137.801 263.494 137.801 259.603C137.801 255.68 139.471 252.443 142.811 249.893C146.151 247.311 150.047 246.019 154.5 246.019H155.826C162.833 246.019 167.597 246.738 170.118 248.177Z" fill="#1E1E1E"/>
<path d="M212.041 274.316C212.041 272.844 211.583 272.109 210.666 272.109H209.389C208.57 272.272 207.948 272.354 207.523 272.354C204.543 272.354 202.038 273.22 200.008 274.953C197.978 276.686 196.963 278.647 196.963 280.838V281.966C196.963 283.633 197.487 285.072 198.535 286.281C199.582 287.491 200.859 288.096 202.366 288.096H203.937C206.098 288.096 207.948 287.426 209.487 286.085C211.026 284.745 211.795 283.437 211.795 282.162C211.926 281.508 211.992 281.083 211.992 280.887L212.09 280.102V277.994L212.139 277.209V275.051C212.074 274.724 212.041 274.479 212.041 274.316ZM231.981 289.861V290.597C231.981 291.709 230.754 292.755 228.298 293.736C225.842 294.684 222.928 295.158 219.556 295.158C217.493 295.158 215.708 294.226 214.202 292.362C213.383 291.316 212.745 290.793 212.287 290.793C211.828 290.76 211.042 291.136 209.929 291.921C206.196 294.471 202.169 295.746 197.847 295.746C197.814 295.746 197.781 295.763 197.749 295.795C193.492 295.795 190.087 294.7 187.533 292.51C184.979 290.319 183.686 287.246 183.653 283.29C183.653 274.79 190.201 269.444 203.299 267.254C206.442 266.763 208.325 266.387 208.947 266.126C210.846 265.341 211.795 263.592 211.795 260.878C211.795 258.165 211.173 256.22 209.929 255.043C208.718 253.833 207.293 253.228 205.656 253.228C203.069 253.228 200.728 254.618 198.633 257.397C196.537 260.143 194.098 261.516 191.315 261.516C189.678 261.516 188.433 261.075 187.582 260.192C186.763 259.276 186.354 258.345 186.354 257.397C186.354 254.52 187.86 252.231 190.873 250.531C195.882 247.719 201.187 246.313 206.786 246.313H209.34C212.156 246.313 214.841 246.918 217.395 248.128C219.981 249.305 221.979 251.119 223.386 253.571C224.794 256.023 225.498 261.5 225.498 270C225.498 278.5 225.76 283.404 226.284 284.712C226.841 285.987 227.921 286.935 229.526 287.557C231.163 288.145 231.981 288.913 231.981 289.861Z" fill="#1E1E1E"/>
<path d="M278.226 270.638L278.128 267.94C278.128 263.756 276.949 260.061 274.592 256.857C272.824 254.471 270.466 253.277 267.519 253.277L267.126 253.326C264.278 253.326 262.051 254.454 260.447 256.71C259.432 258.116 258.924 260.486 258.924 263.821L258.826 264.753L258.679 269.068V273.482L258.728 273.972V274.904L258.777 275.394C258.777 275.721 258.777 276.048 258.777 276.375L258.875 277.797L258.973 279.661C258.973 282.375 259.726 284.549 261.233 286.183C262.739 287.818 264.687 288.635 267.077 288.635H267.961C271.17 288.635 273.839 286.854 275.967 283.29C277.506 280.74 278.275 276.898 278.275 271.765V271.177L278.226 270.638ZM259.661 301.239C259.661 303.92 260.381 306.208 261.822 308.104L263.983 310.262C265.162 311.439 265.751 312.42 265.751 313.205C265.751 314.251 265.014 314.97 263.541 315.362C262.1 315.755 258.973 315.951 254.16 315.951L252.883 316C247.35 316 243.928 315.787 242.618 315.362C241.341 314.937 240.703 314.267 240.703 313.352C240.703 312.992 241.505 311.554 243.109 309.036C244.714 306.519 245.712 303.92 246.105 301.239C246.236 300.356 246.302 293.343 246.302 280.2C246.302 267.058 246.155 259.8 245.86 258.426C245.565 257.021 244.517 255.713 242.717 254.503C240.916 253.261 240.015 252.084 240.015 250.972C240.015 249.861 240.785 249.043 242.324 248.52C246.646 247.082 250.706 246.362 254.504 246.362C255.519 246.362 256.256 246.608 256.714 247.098C257.205 247.556 257.68 248.144 258.138 248.864C258.597 249.583 259.055 249.942 259.514 249.942C259.972 249.942 260.823 249.583 262.068 248.864C263.345 248.144 264.785 247.458 266.39 246.804C268.027 246.117 270.171 245.774 272.824 245.774H274.15C276.507 245.774 278.881 246.412 281.271 247.687C283.694 248.929 285.741 250.58 287.411 252.64C290.783 256.857 292.469 262.104 292.469 268.382C292.469 276.13 290.21 282.44 285.692 287.311C283.334 289.861 280.78 291.66 278.03 292.706C275.279 293.719 272.169 294.226 268.698 294.226C268.665 294.226 267.421 294.095 264.965 293.834L262.853 293.588L261.871 293.441C260.398 293.441 259.661 296.041 259.661 301.239Z" fill="#1E1E1E"/>
<path d="M307.576 230.768C307.576 228.871 308.312 227.269 309.786 225.962C311.292 224.654 312.913 224 314.648 224H316.22C316.711 224.098 317.12 224.147 317.448 224.147C319.019 224.147 320.411 224.85 321.622 226.256C322.834 227.662 323.44 229.002 323.44 230.277V231.552C323.374 231.879 323.341 232.124 323.341 232.288C323.341 233.661 322.572 235.001 321.033 236.309C319.494 237.617 317.791 238.271 315.925 238.271H314.403C312.569 238.271 310.981 237.699 309.638 236.554C308.329 235.377 307.674 234.037 307.674 232.533L307.576 232.043V230.768ZM316.907 294.569H312.241C307.887 294.569 305.267 294.455 304.383 294.226C303.532 293.964 303.106 293.262 303.106 292.117C303.106 290.94 303.925 289.534 305.562 287.9C307.199 286.265 308.23 284.63 308.656 282.996C309.082 281.328 309.295 277.029 309.295 270.098C309.295 263.134 309.115 259.031 308.754 257.789C308.394 256.547 307.265 255.484 305.365 254.601C303.499 253.686 302.566 252.607 302.566 251.365C302.566 250.09 303.434 249.158 305.169 248.569C309.098 247.262 313.437 246.608 318.184 246.608H318.921C320.82 246.608 321.917 247.409 322.212 249.011C322.375 249.926 322.457 255.419 322.457 265.488C322.457 275.525 322.67 281.41 323.096 283.143C323.554 284.843 324.7 286.657 326.534 288.586C328.367 290.515 329.284 291.725 329.284 292.215V292.804C329.284 293.981 325.159 294.569 316.907 294.569Z" fill="#1E1E1E"/>
<path d="M361.531 252.542H360.107C358.044 252.542 356.063 253.62 354.164 255.778C352.298 257.903 351.365 260.453 351.365 263.429V264.213C351.365 265.423 352.036 266.028 353.378 266.028L353.869 266.126H357.357L357.602 266.077L365.804 265.586C366.295 265.488 366.623 265.439 366.787 265.439C368.456 265.439 369.291 264.573 369.291 262.84V261.222C369.291 259.031 368.506 257.037 366.934 255.239C365.362 253.441 363.561 252.542 361.531 252.542ZM351.954 275.885C351.954 279.154 353.493 281.982 356.571 284.369C358.863 286.167 361.777 287.066 365.313 287.066C366.918 287.066 369.291 286.608 372.435 285.693C375.611 284.778 377.444 284.32 377.936 284.32C379.409 284.32 380.146 285.121 380.146 286.723C380.146 288.619 378.181 290.548 374.252 292.51C370.356 294.439 366.312 295.403 362.121 295.403H359.96C359.894 295.403 359.812 295.403 359.714 295.403C357.062 295.403 354.361 294.864 351.61 293.785C346.175 291.692 342.311 288.031 340.019 282.8C338.448 279.203 337.662 275.787 337.662 272.55V270.294C337.662 266.992 338.235 263.805 339.381 260.731C341.542 254.945 345.356 250.776 350.824 248.226C354.099 246.722 357.537 245.97 361.138 245.97H362.268C367.605 245.97 372.107 247.621 375.775 250.923C377.706 252.689 379.18 254.814 380.195 257.299C381.243 259.783 381.766 262.317 381.766 264.9C381.766 267.45 380.506 269.134 377.985 269.951C374.448 271.095 367.9 271.667 358.339 271.667C355.785 271.667 354.082 271.994 353.231 272.648C352.38 273.269 351.954 274.348 351.954 275.885Z" fill="#1E1E1E"/>
<path d="M447.903 290.94C447.903 292.15 446.904 293.049 444.907 293.638C442.942 294.193 439.619 294.471 434.936 294.471C430.287 294.471 427.504 294.144 426.587 293.49C425.67 292.837 425.212 292.068 425.212 291.186C425.212 290.27 425.621 288.897 426.44 287.066C427.291 285.235 427.815 283.764 428.011 282.652C428.208 281.541 428.306 277.781 428.306 271.373C428.306 264.965 427.749 260.601 426.636 258.279C425.556 255.925 423.411 254.748 420.202 254.748C416.993 254.748 414.39 256.138 412.393 258.917C411.05 260.78 410.379 264.197 410.379 269.166C410.379 277.372 411.132 283.388 412.638 287.213C413.555 289.436 414.014 290.875 414.014 291.529C414.014 292.771 413.261 293.556 411.754 293.883C410.248 294.177 406.974 294.324 401.931 294.324C396.922 294.324 393.893 293.997 392.845 293.343C391.798 292.657 391.274 291.741 391.274 290.597C391.274 289.453 392.141 288.308 393.877 287.164C395.612 286.02 396.594 284.99 396.824 284.075C397.053 283.127 397.167 278.974 397.167 271.618C397.167 264.23 396.922 259.914 396.431 258.672C395.94 257.397 394.957 255.925 393.484 254.258C392.01 252.591 391.274 251.741 391.274 251.708V250.678C391.274 250.122 391.683 249.615 392.501 249.158C395.35 247.523 399.59 246.706 405.222 246.706C406.794 246.706 408.104 247.474 409.151 249.011C410.232 250.547 411.018 251.316 411.509 251.316C412 251.316 413.146 250.792 414.947 249.746C416.78 248.667 417.779 248.095 417.943 248.03C420.562 246.82 423.002 246.215 425.261 246.215H426.832C432.562 246.215 436.655 248.504 439.111 253.081C440.683 256.056 441.469 263.2 441.469 274.512C441.469 280.56 441.665 284.009 442.058 284.859C442.451 285.709 443.515 286.69 445.25 287.802C447.018 288.881 447.903 289.927 447.903 290.94Z" fill="#1E1E1E"/>
<path d="M489.039 248.177C490.513 249.027 491.25 250.825 491.25 253.571C491.25 256.318 491.053 258.132 490.66 259.015C490.267 259.898 489.498 260.339 488.352 260.339C486.518 260.339 484.537 259.015 482.409 256.367C480.313 253.719 477.661 252.394 474.452 252.394C472.619 252.394 471.162 252.869 470.081 253.817C469.001 254.765 468.46 255.811 468.46 256.955C468.46 258.917 469.41 260.552 471.309 261.859C472.226 262.48 475.156 263.837 480.101 265.93C485.078 267.989 488.63 270.131 490.758 272.354C492.919 274.544 494 277.536 494 281.328C494 285.121 492.379 288.423 489.138 291.235C485.896 294.046 481.738 295.452 476.663 295.452H474.06C467.707 295.452 462.943 294.7 459.767 293.196C457.541 292.15 456.427 289.665 456.427 285.742C456.427 281.819 457.164 279.857 458.638 279.857C460.504 279.857 462.812 281.377 465.563 284.418C468.346 287.458 471.358 288.979 474.6 288.979C476.564 288.979 478.218 288.57 479.56 287.753C480.936 286.903 481.623 285.595 481.623 283.829C481.623 282.031 480.674 280.429 478.775 279.023C477.759 278.271 475.009 276.947 470.523 275.051C466.07 273.122 462.894 271.259 460.995 269.461C458.146 266.78 456.722 263.494 456.722 259.603C456.722 255.68 458.392 252.443 461.732 249.893C465.072 247.311 468.968 246.019 473.421 246.019H474.747C481.754 246.019 486.518 246.738 489.039 248.177Z" fill="#1E1E1E"/>
<path d="M247 0C302.228 0 347 44.7715 347 100C347 155.228 302.228 200 247 200C191.772 200 147 155.228 147 100C147 44.7715 191.772 0 247 0ZM265.648 47.3838C255.75 44.0518 246.983 43.2106 237.964 44.7266C231.63 45.7911 222.881 49.0144 217.337 52.3252C211.63 55.7332 203.824 62.7827 200.685 67.3633L198.609 70.3906L192.696 70.3506C183.578 70.2906 178.254 73.59 173.777 82.0801C171.367 86.6508 171.417 96.6443 173.875 101.771C176.972 108.229 185.959 115.135 193.006 116.472C196.004 117.04 195.894 116.92 203.698 128.205C206.149 131.748 211.376 137.929 215.314 141.941C226.438 153.27 236.487 157.678 249.46 156.916C256.754 156.487 262.657 154.456 269.269 150.102C277.789 144.488 287.924 133.075 294.455 121.737C297.049 117.236 297.178 117.135 301.604 116.211C306.811 115.124 314.008 110.638 317.081 106.564C320.74 101.714 321.982 97.9184 322 91.5332C322.02 84.461 321.001 81.6787 316.625 76.8604C312.273 72.0685 308.696 70.5078 302.021 70.4873L296.684 70.4707L289.245 62.9912C280.964 54.6637 274.424 50.3382 265.648 47.3838ZM207.319 77.6895C212.525 66.5886 225.273 62.1307 236.027 67.6494C238.13 68.7284 241.451 70.8464 243.406 72.3555L246.962 75.0986L250.809 72.3047C257.513 67.4346 261.564 65.9249 267.903 65.9355C274.863 65.9469 278.605 67.5154 283.284 72.3838C287.239 76.497 288.955 81.3303 288.931 88.2764C288.904 95.7544 285.094 102.186 278.012 106.71C276.174 107.884 274.67 109.119 274.669 109.453C274.669 109.787 275.24 111.155 275.94 112.492C277.94 116.31 277.746 125.401 275.571 129.864C271.871 137.459 264.163 143.897 255.27 146.819C248.829 148.936 240.221 148.24 233.896 145.091C224.171 140.248 217.477 132.017 216.329 123.49C215.966 120.792 216.278 118.537 217.584 114.43L219.323 108.961L217.496 107.763C213.495 105.14 209.256 100.542 207.438 96.8545C204.791 91.4821 204.739 83.1925 207.319 77.6895ZM233.707 121.813C229.031 120.352 228.48 120.348 227.318 121.763C225.059 124.516 230.785 126.85 243.345 128.292C249.739 129.026 252.083 128.976 257.64 127.989C265.053 126.672 267.993 124.948 266.095 123.028C265.143 122.066 264.204 122.048 259.279 122.899C252.403 124.089 239.191 123.527 233.707 121.813ZM190.93 78.0723C192.204 78.0707 193.426 78.2494 193.644 78.4697C193.861 78.6894 193.546 80.9986 192.942 83.5996C192.16 86.9681 191.937 91.2249 192.166 98.3965C192.408 105.965 192.26 108.464 191.574 108.465C191.073 108.465 189.017 107.353 187.007 105.995C180.777 101.785 177.624 93.0623 180.021 86.668C181.667 82.2729 186.992 78.077 190.93 78.0723ZM303.491 78.8291C305.645 78.8291 307.613 79.4129 309.251 80.5391C313.827 83.6834 316.079 90.3771 314.525 96.2129C313.26 100.965 305.961 108.464 302.601 108.465C302.183 108.465 302.055 104.544 302.283 98.7764C302.58 91.2955 302.389 87.9923 301.444 84.2773C300.772 81.6314 300.221 79.323 300.221 79.1475C300.223 78.9729 301.694 78.8291 303.491 78.8291ZM255.938 102.438C254.996 100.94 253.165 101.074 251.381 102.773C248.227 105.777 249.894 108.928 253.711 107.176C256.074 106.09 256.999 104.125 255.938 102.438ZM243.096 103.313C241.33 101.398 239.183 101.131 237.92 102.669C236.797 104.037 237.497 105.742 239.661 106.913C243.487 108.984 245.946 106.408 243.096 103.313ZM231.164 84.0674C229.136 82.407 224.569 82.1916 222.65 83.665C219.505 86.0824 219.618 92.2999 222.839 94.043C225.067 95.248 229.272 94.8972 231.164 93.3486C233.648 91.3144 233.648 86.1017 231.164 84.0674ZM271.698 84.0674C269.671 82.407 265.103 82.1916 263.185 83.665C260.039 86.0825 260.152 92.2999 263.373 94.043C265.601 95.2481 269.807 94.8972 271.698 93.3486C274.183 91.3144 274.183 86.1016 271.698 84.0674Z" fill="#1E1E1E"/>
</svg>
