<svg width="623" height="92" viewBox="0 0 623 92" fill="none" xmlns="http://www.w3.org/2000/svg">
<path fill-rule="evenodd" clip-rule="evenodd" d="M44.5 0C68.5911 2.83021e-07 88.2078 19.0653 88.9736 42.8721C88.9889 42.9777 89 43.0855 89 43.1953V81.9023C89 87.4791 84.4601 92 78.8604 92H10.1396C4.5399 92 0 87.4791 0 81.9023V43.1953C0 43.0855 0.010088 42.9777 0.0253906 42.8721C0.791204 19.0653 20.4089 0 44.5 0ZM13 68V76H53C55.2091 76 57 74.2091 57 72C57 69.7909 55.2091 68 53 68H13ZM13 52V60H53C55.2091 60 57 58.2091 57 56C57 53.7909 55.2091 52 53 52H13ZM13 36V44H53C55.2091 44 57 42.2091 57 40C57 37.7909 55.2091 36 53 36H13Z" fill="#F3EFEB"/>
<path d="M169.077 59.9275C170.354 59.9275 170.993 60.8102 170.993 62.5757C170.993 64.3085 168.93 66.2047 164.804 68.2644C160.679 70.3241 156.651 71.3539 152.722 71.3539H151.593C148.351 71.3539 145.273 70.7164 142.359 69.4414C136.662 66.9566 132.733 62.7228 130.572 56.7399C129.524 53.7974 129 50.8714 129 47.9616V46.7847C129 40.1805 131.177 34.4591 135.532 29.6205C137.726 27.2011 140.378 25.3539 143.489 24.0789C146.632 22.7711 149.857 22.1173 153.164 22.1173C159.385 22.1173 164.182 23.049 167.555 24.9126C169.552 26.0242 170.551 27.8387 170.551 30.3561C170.551 34.9005 169.11 37.1727 166.229 37.1727C164.461 37.1727 162.365 35.8813 159.942 33.2985C157.552 30.7157 155.014 29.4243 152.329 29.4243C149.088 29.4243 146.419 31.435 144.324 35.4563C143.145 37.7448 142.539 41.3575 142.506 46.2942C142.506 46.3596 142.506 46.425 142.506 46.4904C142.506 51.231 143.734 55.1379 146.19 58.2111C148.679 61.317 151.838 62.8699 155.669 62.8699C157.797 62.8699 160.4 62.3795 163.478 61.3987C166.589 60.4179 168.455 59.9275 169.077 59.9275Z" fill="#F3EFEB"/>
<path d="M213.603 25.403C213.603 23.8664 217.303 23.0981 224.703 23.0981C229.254 23.0981 231.53 24.0299 231.53 25.8934C231.53 27.1358 230.564 28.6397 228.632 30.4051C226.7 32.1379 225.243 33.9851 224.261 35.9467C224.228 36.0121 222.116 41.145 217.925 51.3454C213.734 61.4805 211.082 67.3326 209.969 68.9019C208.855 70.4712 207.186 71.2559 204.959 71.2559C202.732 71.2559 201.013 70.3731 199.802 68.6077C198.59 66.8422 196.053 61.1862 192.189 51.6397C188.326 42.0931 185.952 36.4861 185.068 34.8188C184.184 33.1514 182.71 31.4677 180.647 29.7676C178.617 28.0348 177.602 26.7434 177.602 25.8934V24.9616C177.602 23.7193 181.957 23.0981 190.667 23.0981L193.073 23.049C196.479 23.049 198.607 23.2616 199.458 23.6866C200.309 24.1116 200.735 24.7982 200.735 25.7463C200.735 26.6617 200.49 27.5608 199.998 28.4435C199.507 29.2935 199.262 30.2907 199.262 31.435C199.262 35.6198 201.439 42.5999 205.794 52.3753C206.711 54.4023 207.349 55.4158 207.709 55.4158C208.07 55.4158 208.692 54.3696 209.576 52.2772C213.636 42.6652 215.666 36.0284 215.666 32.3667C215.666 31.3532 215.322 30.1599 214.635 28.7868C213.947 27.4136 213.603 26.2857 213.603 25.403Z" fill="#F3EFEB"/>
<path d="M299.118 24.177C300.592 25.027 301.329 26.8252 301.329 29.5714C301.329 32.3177 301.132 34.1322 300.739 35.0149C300.346 35.8977 299.577 36.339 298.431 36.339C296.597 36.339 294.616 35.0149 292.488 32.3667C290.392 29.7186 287.74 28.3945 284.531 28.3945C282.698 28.3945 281.241 28.8685 280.16 29.8166C279.08 30.7647 278.539 31.8109 278.539 32.9552C278.539 34.9168 279.489 36.5515 281.388 37.8593C282.305 38.4805 285.235 39.8372 290.18 41.9296C295.156 43.9893 298.709 46.1308 300.837 48.3539C302.998 50.5444 304.079 53.5359 304.079 57.3284C304.079 61.1208 302.458 64.4229 299.217 67.2345C295.975 70.0462 291.817 71.452 286.742 71.452H284.138C277.786 71.452 273.022 70.7001 269.846 69.1962C267.62 68.15 266.506 65.6652 266.506 61.742C266.506 57.8188 267.243 55.8571 268.717 55.8571C270.583 55.8571 272.891 57.3774 275.642 60.4179C278.425 63.4584 281.437 64.9787 284.679 64.9787C286.643 64.9787 288.297 64.57 289.639 63.7527C291.014 62.9026 291.702 61.5949 291.702 59.8294C291.702 58.0313 290.753 56.4293 288.853 55.0235C287.838 54.2715 285.088 52.9474 280.602 51.0512C276.149 49.1222 272.973 47.2587 271.074 45.4606C268.225 42.7797 266.801 39.494 266.801 35.6034C266.801 31.6802 268.471 28.4435 271.811 25.8934C275.151 23.3106 279.047 22.0192 283.5 22.0192H284.826C291.833 22.0192 296.597 22.7385 299.118 24.177Z" fill="#F3EFEB"/>
<path d="M341.041 50.3156C341.041 48.8444 340.583 48.1087 339.666 48.1087H338.389C337.57 48.2722 336.948 48.3539 336.523 48.3539C333.543 48.3539 331.038 49.2203 329.008 50.9531C326.978 52.6859 325.963 54.6475 325.963 56.838V57.9659C325.963 59.6333 326.487 61.0718 327.535 62.2815C328.582 63.4911 329.859 64.096 331.366 64.096H332.937C335.098 64.096 336.948 63.4257 338.487 62.0853C340.026 60.7448 340.795 59.4371 340.795 58.162C340.926 57.5082 340.992 57.0832 340.992 56.887L341.09 56.1023V53.9936L341.139 53.209V51.0512C341.074 50.7242 341.041 50.479 341.041 50.3156ZM360.981 65.8614V66.597C360.981 67.7086 359.754 68.7548 357.298 69.7356C354.842 70.6837 351.928 71.1578 348.556 71.1578C346.493 71.1578 344.708 70.226 343.202 68.3625C342.384 67.3163 341.745 66.7932 341.287 66.7932C340.828 66.7605 340.042 67.1365 338.929 67.9211C335.196 70.4712 331.169 71.7463 326.847 71.7463C326.814 71.7463 326.781 71.7626 326.749 71.7953C322.492 71.7953 319.087 70.7001 316.533 68.5096C313.979 66.3191 312.686 63.2459 312.653 59.29C312.653 50.7896 319.201 45.4442 332.299 43.2537C335.442 42.7633 337.325 42.3874 337.947 42.1258C339.846 41.3412 340.795 39.592 340.795 36.8785C340.795 34.1649 340.173 32.2196 338.929 31.0426C337.718 29.833 336.293 29.2281 334.656 29.2281C332.069 29.2281 329.728 30.6176 327.633 33.3966C325.537 36.1429 323.098 37.516 320.315 37.516C318.678 37.516 317.433 37.0746 316.582 36.1919C315.763 35.2765 315.354 34.3447 315.354 33.3966C315.354 30.5195 316.86 28.231 319.873 26.5309C324.882 23.7193 330.187 22.3134 335.786 22.3134H338.34C341.156 22.3134 343.841 22.9183 346.395 24.1279C348.981 25.3049 350.979 27.1194 352.386 29.5714C353.794 32.0235 354.498 37.4996 354.498 46C354.498 54.5004 354.76 59.4044 355.284 60.7122C355.841 61.9872 356.921 62.9353 358.526 63.5565C360.163 64.145 360.981 64.9133 360.981 65.8614Z" fill="#F3EFEB"/>
<path d="M407.226 46.6375L407.128 43.9403C407.128 39.7555 405.949 36.0611 403.592 32.8571C401.824 30.4705 399.466 29.2772 396.519 29.2772L396.126 29.3262C393.278 29.3262 391.051 30.4542 389.447 32.71C388.432 34.1159 387.924 36.4861 387.924 39.8209L387.826 40.7527L387.679 45.0682V49.4819L387.728 49.9723V50.9041L387.777 51.3945C387.777 51.7214 387.777 52.0483 387.777 52.3753L387.875 53.7974L387.973 55.661C387.973 58.3746 388.726 60.5487 390.233 62.1834C391.739 63.8181 393.687 64.6354 396.077 64.6354H396.961C400.17 64.6354 402.839 62.8536 404.967 59.29C406.506 56.7399 407.275 52.8984 407.275 47.7655V47.177L407.226 46.6375ZM388.661 77.2388C388.661 79.9197 389.381 82.2083 390.822 84.1045L392.983 86.2623C394.162 87.4392 394.751 88.42 394.751 89.2047C394.751 90.2509 394.014 90.9702 392.541 91.3625C391.1 91.7548 387.973 91.951 383.16 91.951L381.883 92C376.35 92 372.928 91.7875 371.618 91.3625C370.341 90.9375 369.703 90.2672 369.703 89.3518C369.703 88.9922 370.505 87.5537 372.109 85.0362C373.714 82.5188 374.712 79.9197 375.105 77.2388C375.236 76.3561 375.302 69.3433 375.302 56.2004C375.302 43.0576 375.155 35.7996 374.86 34.4264C374.565 33.0206 373.517 31.7129 371.717 30.5032C369.916 29.2608 369.015 28.0839 369.015 26.9723C369.015 25.8607 369.785 25.0434 371.324 24.5203C375.646 23.0817 379.706 22.3625 383.504 22.3625C384.519 22.3625 385.256 22.6077 385.714 23.0981C386.205 23.5558 386.68 24.1443 387.138 24.8635C387.597 25.5828 388.055 25.9424 388.514 25.9424C388.972 25.9424 389.823 25.5828 391.068 24.8635C392.345 24.1443 393.785 23.4577 395.39 22.8038C397.027 22.1173 399.171 21.774 401.824 21.774H403.15C405.507 21.774 407.881 22.4115 410.271 23.6866C412.694 24.9289 414.741 26.58 416.411 28.6397C419.783 32.8571 421.469 38.1045 421.469 44.3817C421.469 52.1301 419.21 58.4399 414.692 63.3113C412.334 65.8614 409.78 67.6596 407.03 68.7058C404.279 69.7193 401.169 70.226 397.698 70.226C397.665 70.226 396.421 70.0952 393.965 69.8337L391.853 69.5885L390.871 69.4414C389.398 69.4414 388.661 72.0405 388.661 77.2388Z" fill="#F3EFEB"/>
<path d="M436.576 6.76759C436.576 4.87136 437.312 3.26937 438.786 1.96162C440.292 0.653874 441.913 0 443.648 0H445.22C445.711 0.098081 446.12 0.147122 446.448 0.147122C448.019 0.147122 449.411 0.850036 450.622 2.25586C451.834 3.66169 452.44 5.00213 452.44 6.27719V7.55224C452.374 7.87918 452.341 8.12438 452.341 8.28785C452.341 9.66098 451.572 11.0014 450.033 12.3092C448.494 13.6169 446.791 14.2708 444.925 14.2708H443.403C441.569 14.2708 439.981 13.6987 438.638 12.5544C437.329 11.3774 436.674 10.037 436.674 8.53305L436.576 8.04264V6.76759ZM445.907 70.5693H441.241C436.887 70.5693 434.267 70.4549 433.383 70.226C432.532 69.9645 432.106 69.2616 432.106 68.1173C432.106 66.9403 432.925 65.5345 434.562 63.8998C436.199 62.2651 437.23 60.6304 437.656 58.9957C438.082 57.3284 438.295 53.0291 438.295 46.0981C438.295 39.1343 438.115 35.0313 437.754 33.7889C437.394 32.5466 436.265 31.484 434.365 30.6013C432.499 29.6859 431.566 28.607 431.566 27.3646C431.566 26.0896 432.434 25.1578 434.169 24.5693C438.098 23.2616 442.437 22.6077 447.184 22.6077H447.921C449.82 22.6077 450.917 23.4087 451.212 25.0107C451.375 25.9261 451.457 31.4186 451.457 41.4883C451.457 51.5252 451.67 57.4101 452.096 59.1429C452.554 60.8429 453.7 62.6574 455.534 64.5864C457.367 66.5153 458.284 67.7249 458.284 68.2154V68.8038C458.284 69.9808 454.159 70.5693 445.907 70.5693Z" fill="#F3EFEB"/>
<path d="M490.531 28.5416H489.107C487.044 28.5416 485.063 29.6205 483.164 31.7783C481.298 33.9033 480.365 36.4535 480.365 39.4286V40.2132C480.365 41.4229 481.036 42.0277 482.378 42.0277L482.869 42.1258H486.357L486.602 42.0768L494.804 41.5864C495.295 41.4883 495.623 41.4392 495.787 41.4392C497.456 41.4392 498.291 40.5729 498.291 38.8401V37.2218C498.291 35.0313 497.506 33.037 495.934 31.2388C494.362 29.4407 492.561 28.5416 490.531 28.5416ZM480.954 51.8849C480.954 55.1542 482.493 57.9822 485.571 60.3689C487.863 62.167 490.777 63.0661 494.313 63.0661C495.918 63.0661 498.291 62.6084 501.435 61.693C504.611 60.7775 506.444 60.3198 506.936 60.3198C508.409 60.3198 509.146 61.1208 509.146 62.7228C509.146 64.6191 507.181 66.548 503.252 68.5096C499.356 70.4385 495.312 71.403 491.121 71.403H488.96C488.894 71.403 488.812 71.403 488.714 71.403C486.062 71.403 483.361 70.8635 480.61 69.7847C475.175 67.6923 471.311 64.0306 469.019 58.7996C467.448 55.2033 466.662 51.7868 466.662 48.5501V46.2942C466.662 42.9922 467.235 39.8046 468.381 36.7313C470.542 30.9446 474.356 26.7761 479.824 24.226C483.099 22.7221 486.537 21.9702 490.138 21.9702H491.268C496.605 21.9702 501.107 23.6212 504.775 26.9232C506.706 28.6887 508.18 30.8138 509.195 33.2985C510.243 35.7832 510.766 38.317 510.766 40.8998C510.766 43.4499 509.506 45.1336 506.985 45.951C503.448 47.0952 496.9 47.6674 487.339 47.6674C484.785 47.6674 483.082 47.9943 482.231 48.6482C481.38 49.2694 480.954 50.3483 480.954 51.8849Z" fill="#F3EFEB"/>
<path d="M576.903 66.9403C576.903 68.15 575.904 69.049 573.907 69.6375C571.942 70.1933 568.619 70.4712 563.936 70.4712C559.287 70.4712 556.504 70.1443 555.587 69.4904C554.67 68.8365 554.212 68.0682 554.212 67.1855C554.212 66.2701 554.621 64.8969 555.44 63.0661C556.291 61.2353 556.815 59.764 557.011 58.6525C557.208 57.5409 557.306 53.7811 557.306 47.3731C557.306 40.9652 556.749 36.6006 555.636 34.2793C554.556 31.9254 552.411 30.7484 549.202 30.7484C545.993 30.7484 543.39 32.1379 541.393 34.9168C540.05 36.7804 539.379 40.1969 539.379 45.1663C539.379 53.3724 540.132 59.3881 541.638 63.2132C542.555 65.4364 543.014 66.8749 543.014 67.5288C543.014 68.7711 542.261 69.5558 540.754 69.8827C539.248 70.177 535.974 70.3241 530.931 70.3241C525.922 70.3241 522.893 69.9972 521.845 69.3433C520.798 68.6567 520.274 67.7413 520.274 66.597C520.274 65.4527 521.141 64.3085 522.877 63.1642C524.612 62.0199 525.594 60.9901 525.824 60.0746C526.053 59.1265 526.167 54.9744 526.167 47.6183C526.167 40.2296 525.922 35.914 525.431 34.6716C524.94 33.3966 523.957 31.9254 522.484 30.258C521.01 28.5906 520.274 27.7406 520.274 27.7079V26.678C520.274 26.1222 520.683 25.6155 521.501 25.1578C524.35 23.5231 528.59 22.7058 534.222 22.7058C535.794 22.7058 537.104 23.4741 538.151 25.0107C539.232 26.5473 540.018 27.3156 540.509 27.3156C541 27.3156 542.146 26.7925 543.947 25.7463C545.78 24.6674 546.779 24.0952 546.943 24.0299C549.562 22.8202 552.002 22.2154 554.261 22.2154H555.832C561.562 22.2154 565.655 24.5039 568.111 29.081C569.683 32.0561 570.469 39.1997 570.469 50.5117C570.469 56.5601 570.665 60.0092 571.058 60.8593C571.451 61.7093 572.515 62.6901 574.25 63.8017C576.018 64.8806 576.903 65.9268 576.903 66.9403Z" fill="#F3EFEB"/>
<path d="M618.039 24.177C619.513 25.027 620.25 26.8252 620.25 29.5714C620.25 32.3177 620.053 34.1322 619.66 35.0149C619.267 35.8977 618.498 36.339 617.352 36.339C615.518 36.339 613.537 35.0149 611.409 32.3667C609.313 29.7186 606.661 28.3945 603.452 28.3945C601.619 28.3945 600.162 28.8685 599.081 29.8166C598.001 30.7647 597.46 31.8109 597.46 32.9552C597.46 34.9168 598.41 36.5515 600.309 37.8593C601.226 38.4805 604.156 39.8372 609.101 41.9296C614.078 43.9893 617.63 46.1308 619.758 48.3539C621.919 50.5444 623 53.5359 623 57.3284C623 61.1208 621.379 64.4229 618.138 67.2345C614.896 70.0462 610.738 71.452 605.663 71.452H603.06C596.707 71.452 591.943 70.7001 588.767 69.1962C586.541 68.15 585.427 65.6652 585.427 61.742C585.427 57.8188 586.164 55.8571 587.638 55.8571C589.504 55.8571 591.812 57.3774 594.563 60.4179C597.346 63.4584 600.358 64.9787 603.6 64.9787C605.564 64.9787 607.218 64.57 608.56 63.7527C609.936 62.9026 610.623 61.5949 610.623 59.8294C610.623 58.0313 609.674 56.4293 607.774 55.0235C606.759 54.2715 604.009 52.9474 599.523 51.0512C595.07 49.1222 591.894 47.2587 589.995 45.4606C587.146 42.7797 585.722 39.494 585.722 35.6034C585.722 31.6802 587.392 28.4435 590.732 25.8934C594.072 23.3106 597.968 22.0192 602.421 22.0192H603.747C610.754 22.0192 615.518 22.7385 618.039 24.177Z" fill="#F3EFEB"/>
</svg>
