<svg width="494" height="266" viewBox="0 0 494 266" fill="none" xmlns="http://www.w3.org/2000/svg">
<path fill-rule="evenodd" clip-rule="evenodd" d="M234.952 0.96483C226.506 2.37801 214.842 6.65688 207.449 11.0517C199.841 15.5757 189.432 24.9334 185.246 31.0138L182.479 35.0314L174.595 34.9789C162.437 34.8992 155.34 39.279 149.37 50.5491C146.157 56.6164 146.222 69.8817 149.5 76.6863C153.629 85.2592 165.612 94.4272 175.008 96.2015C179.005 96.956 178.859 96.7966 189.264 111.777C192.532 116.48 199.502 124.685 204.753 130.011C219.584 145.049 232.983 150.901 250.28 149.889C260.005 149.32 267.877 146.624 276.692 140.843C288.053 133.392 301.565 118.241 310.273 103.191C313.731 97.2152 313.904 97.0821 319.806 95.8555C326.748 94.412 336.343 88.4577 340.441 83.0501C345.32 76.6117 346.976 71.5732 347 63.0972C347.026 53.7093 345.667 50.0165 339.833 43.6204C334.031 37.2596 329.262 35.1877 320.362 35.1605L313.244 35.1383L303.327 25.2097C292.285 14.1555 283.566 8.41401 271.865 4.49222C258.666 0.0691056 246.977 -1.04751 234.952 0.96483ZM232.37 31.393C235.174 32.8254 239.602 35.6366 242.209 37.6399L246.949 41.2812L252.079 37.5723C261.017 31.1076 266.419 29.1043 274.871 29.1184C284.152 29.1335 289.14 31.2155 295.379 37.6782C300.652 43.1382 302.941 49.5535 302.908 58.774C302.872 68.7005 297.793 77.2381 288.349 83.2438C285.899 84.8022 283.893 86.4404 283.892 86.8842C283.891 87.327 284.654 89.1426 285.587 90.9189C288.253 95.9866 287.996 108.055 285.095 113.98C280.162 124.061 269.884 132.606 258.026 136.486C249.438 139.296 237.961 138.372 229.529 134.192C216.561 127.763 207.636 116.836 206.106 105.518C205.622 101.936 206.037 98.9431 207.779 93.4901L210.098 86.2316L207.662 84.6409C202.327 81.1589 196.675 75.0563 194.251 70.1611C190.721 63.0296 190.652 52.0258 194.093 44.7209C201.034 29.9849 218.032 24.0669 232.37 31.393ZM175.858 45.7568C176.148 46.0483 175.727 49.1127 174.923 52.5655C173.879 57.037 173.582 62.6877 173.887 72.2077C174.21 82.2553 174.014 85.5729 173.099 85.5729C172.43 85.5729 169.69 84.0972 167.009 82.2946C158.703 76.7065 154.498 65.1267 157.694 56.6386C159.889 50.8043 166.99 45.2353 172.24 45.2292C173.94 45.2272 175.568 45.4643 175.858 45.7568ZM330.001 48.5035C336.103 52.6774 339.106 61.563 337.034 69.3097C335.346 75.6181 325.614 85.5729 321.134 85.5729C320.578 85.5729 320.406 80.368 320.711 72.7121C321.107 62.7815 320.852 58.3967 319.592 53.4652C318.696 49.953 317.961 46.8896 317.961 46.6565C317.961 46.4245 319.923 46.2339 322.322 46.2339C325.194 46.2339 327.817 47.0086 330.001 48.5035ZM214.534 52.6522C210.339 55.8609 210.49 64.115 214.785 66.4289C217.755 68.0287 223.363 67.5627 225.885 65.507C229.198 62.8067 229.198 55.8871 225.885 53.1868C223.181 50.9828 217.093 50.6964 214.534 52.6522ZM234.893 77.8796C233.396 79.6952 234.329 81.9587 237.215 83.5131C242.316 86.2618 245.595 82.8423 241.794 78.735C239.44 76.192 236.577 75.837 234.893 77.8796ZM220.758 103.225C217.745 106.88 225.38 109.977 242.127 111.892C250.653 112.866 253.777 112.8 261.187 111.49C271.072 109.742 274.991 107.452 272.459 104.904C271.19 103.626 269.939 103.603 263.372 104.734C254.204 106.313 236.588 105.567 229.276 103.293C223.041 101.353 222.306 101.347 220.758 103.225Z" fill="#1E1E1E"/>
<path d="M268.83 66.4289C264.536 64.115 264.385 55.8609 268.58 52.6522C271.138 50.6964 277.227 50.9828 279.931 53.1868C283.244 55.8871 283.244 62.8067 279.931 65.507C277.408 67.5627 271.801 68.0287 268.83 66.4289Z" fill="#1E1E1E"/>
<path d="M252.841 78.0175C255.22 75.762 257.661 75.5833 258.918 77.573C260.332 79.8116 259.099 82.4201 255.948 83.8612C250.859 86.1878 248.635 82.0044 252.841 78.0175Z" fill="#1E1E1E"/>
<path d="M40.0774 233.928C41.3544 233.928 41.9928 234.81 41.9928 236.576C41.9928 238.308 39.93 240.205 35.8044 242.264C31.6788 244.324 27.6514 245.354 23.7223 245.354H22.5926C19.3511 245.354 16.2732 244.716 13.3591 243.441C7.66185 240.957 3.7327 236.723 1.57166 230.74C0.523887 227.797 0 224.871 0 221.962V220.785C0 214.181 2.17741 208.459 6.53222 203.62C8.726 201.201 11.3782 199.354 14.4888 198.079C17.6321 196.771 20.8573 196.117 24.1643 196.117C30.3855 196.117 35.1823 197.049 38.5548 198.913C40.5522 200.024 41.5508 201.839 41.5508 204.356C41.5508 208.9 40.1101 211.173 37.2287 211.173C35.4606 211.173 33.3651 209.881 30.9421 207.299C28.5519 204.716 26.0143 203.424 23.3294 203.424C20.0878 203.424 17.4193 205.435 15.3237 209.456C14.145 211.745 13.5392 215.357 13.5065 220.294C13.5065 220.36 13.5065 220.425 13.5065 220.49C13.5065 225.231 14.7343 229.138 17.1901 232.211C19.6785 235.317 22.8382 236.87 26.6691 236.87C28.7974 236.87 31.4005 236.38 34.4783 235.399C37.5889 234.418 39.4553 233.928 40.0774 233.928Z" fill="#1E1E1E"/>
<path d="M84.6031 199.403C84.6031 197.866 88.3031 197.098 95.703 197.098C100.254 197.098 102.53 198.03 102.53 199.893C102.53 201.136 101.564 202.64 99.6321 204.405C97.7003 206.138 96.2432 207.985 95.2609 209.947C95.2282 210.012 93.1163 215.145 88.9252 225.345C84.7341 235.48 82.0819 241.333 80.9687 242.902C79.8554 244.471 78.1855 245.256 75.959 245.256C73.7325 245.256 72.0135 244.373 70.802 242.608C69.5905 240.842 67.0529 235.186 63.1892 225.64C59.3256 216.093 56.9517 210.486 56.0676 208.819C55.1836 207.151 53.7101 205.468 51.6473 203.768C49.6173 202.035 48.6022 200.743 48.6022 199.893V198.962C48.6022 197.719 52.9571 197.098 61.6667 197.098L64.0733 197.049C67.4786 197.049 69.6068 197.262 70.4582 197.687C71.3095 198.112 71.7351 198.798 71.7351 199.746C71.7351 200.662 71.4896 201.561 70.9984 202.443C70.5073 203.294 70.2617 204.291 70.2617 205.435C70.2617 209.62 72.4391 216.6 76.7939 226.375C77.7107 228.402 78.3492 229.416 78.7094 229.416C79.0696 229.416 79.6917 228.37 80.5757 226.277C84.6359 216.665 86.6659 210.028 86.6659 206.367C86.6659 205.353 86.3221 204.16 85.6345 202.787C84.9469 201.414 84.6031 200.286 84.6031 199.403Z" fill="#1E1E1E"/>
<path d="M170.118 198.177C171.592 199.027 172.329 200.825 172.329 203.571C172.329 206.318 172.132 208.132 171.739 209.015C171.346 209.898 170.577 210.339 169.431 210.339C167.597 210.339 165.616 209.015 163.488 206.367C161.392 203.719 158.74 202.394 155.531 202.394C153.698 202.394 152.241 202.869 151.16 203.817C150.08 204.765 149.539 205.811 149.539 206.955C149.539 208.917 150.489 210.552 152.388 211.859C153.305 212.48 156.235 213.837 161.18 215.93C166.156 217.989 169.709 220.131 171.837 222.354C173.998 224.544 175.079 227.536 175.079 231.328C175.079 235.121 173.458 238.423 170.217 241.235C166.975 244.046 162.817 245.452 157.742 245.452H155.138C148.786 245.452 144.022 244.7 140.846 243.196C138.62 242.15 137.506 239.665 137.506 235.742C137.506 231.819 138.243 229.857 139.717 229.857C141.583 229.857 143.891 231.377 146.642 234.418C149.425 237.458 152.437 238.979 155.679 238.979C157.643 238.979 159.297 238.57 160.639 237.753C162.014 236.903 162.702 235.595 162.702 233.829C162.702 232.031 161.753 230.429 159.853 229.023C158.838 228.271 156.088 226.947 151.602 225.051C147.149 223.122 143.973 221.259 142.074 219.461C139.225 216.78 137.801 213.494 137.801 209.603C137.801 205.68 139.471 202.443 142.811 199.893C146.151 197.311 150.047 196.019 154.5 196.019H155.826C162.833 196.019 167.597 196.738 170.118 198.177Z" fill="#1E1E1E"/>
<path d="M212.041 224.316C212.041 222.844 211.583 222.109 210.666 222.109H209.389C208.57 222.272 207.948 222.354 207.523 222.354C204.543 222.354 202.038 223.22 200.008 224.953C197.978 226.686 196.963 228.647 196.963 230.838V231.966C196.963 233.633 197.487 235.072 198.535 236.281C199.582 237.491 200.859 238.096 202.366 238.096H203.937C206.098 238.096 207.948 237.426 209.487 236.085C211.026 234.745 211.795 233.437 211.795 232.162C211.926 231.508 211.992 231.083 211.992 230.887L212.09 230.102V227.994L212.139 227.209V225.051C212.074 224.724 212.041 224.479 212.041 224.316ZM231.981 239.861V240.597C231.981 241.709 230.754 242.755 228.298 243.736C225.842 244.684 222.928 245.158 219.556 245.158C217.493 245.158 215.708 244.226 214.202 242.362C213.383 241.316 212.745 240.793 212.287 240.793C211.828 240.76 211.042 241.136 209.929 241.921C206.196 244.471 202.169 245.746 197.847 245.746C197.814 245.746 197.781 245.763 197.749 245.795C193.492 245.795 190.087 244.7 187.533 242.51C184.979 240.319 183.686 237.246 183.653 233.29C183.653 224.79 190.201 219.444 203.299 217.254C206.442 216.763 208.325 216.387 208.947 216.126C210.846 215.341 211.795 213.592 211.795 210.878C211.795 208.165 211.173 206.22 209.929 205.043C208.718 203.833 207.293 203.228 205.656 203.228C203.069 203.228 200.728 204.618 198.633 207.397C196.537 210.143 194.098 211.516 191.315 211.516C189.678 211.516 188.433 211.075 187.582 210.192C186.763 209.276 186.354 208.345 186.354 207.397C186.354 204.52 187.86 202.231 190.873 200.531C195.882 197.719 201.187 196.313 206.786 196.313H209.34C212.156 196.313 214.841 196.918 217.395 198.128C219.981 199.305 221.979 201.119 223.386 203.571C224.794 206.023 225.498 211.5 225.498 220C225.498 228.5 225.76 233.404 226.284 234.712C226.841 235.987 227.921 236.935 229.526 237.557C231.163 238.145 231.981 238.913 231.981 239.861Z" fill="#1E1E1E"/>
<path d="M278.226 220.638L278.128 217.94C278.128 213.756 276.949 210.061 274.592 206.857C272.824 204.471 270.466 203.277 267.519 203.277L267.126 203.326C264.278 203.326 262.051 204.454 260.447 206.71C259.432 208.116 258.924 210.486 258.924 213.821L258.826 214.753L258.679 219.068V223.482L258.728 223.972V224.904L258.777 225.394C258.777 225.721 258.777 226.048 258.777 226.375L258.875 227.797L258.973 229.661C258.973 232.375 259.726 234.549 261.233 236.183C262.739 237.818 264.687 238.635 267.077 238.635H267.961C271.17 238.635 273.839 236.854 275.967 233.29C277.506 230.74 278.275 226.898 278.275 221.765V221.177L278.226 220.638ZM259.661 251.239C259.661 253.92 260.381 256.208 261.822 258.104L263.983 260.262C265.162 261.439 265.751 262.42 265.751 263.205C265.751 264.251 265.014 264.97 263.541 265.362C262.1 265.755 258.973 265.951 254.16 265.951L252.883 266C247.35 266 243.928 265.787 242.618 265.362C241.341 264.937 240.703 264.267 240.703 263.352C240.703 262.992 241.505 261.554 243.109 259.036C244.714 256.519 245.712 253.92 246.105 251.239C246.236 250.356 246.302 243.343 246.302 230.2C246.302 217.058 246.155 209.8 245.86 208.426C245.565 207.021 244.517 205.713 242.717 204.503C240.916 203.261 240.015 202.084 240.015 200.972C240.015 199.861 240.785 199.043 242.324 198.52C246.646 197.082 250.706 196.362 254.504 196.362C255.519 196.362 256.256 196.608 256.714 197.098C257.205 197.556 257.68 198.144 258.138 198.864C258.597 199.583 259.055 199.942 259.514 199.942C259.972 199.942 260.823 199.583 262.068 198.864C263.345 198.144 264.785 197.458 266.39 196.804C268.027 196.117 270.171 195.774 272.824 195.774H274.15C276.507 195.774 278.881 196.412 281.271 197.687C283.694 198.929 285.741 200.58 287.411 202.64C290.783 206.857 292.469 212.104 292.469 218.382C292.469 226.13 290.21 232.44 285.692 237.311C283.334 239.861 280.78 241.66 278.03 242.706C275.279 243.719 272.169 244.226 268.698 244.226C268.665 244.226 267.421 244.095 264.965 243.834L262.853 243.588L261.871 243.441C260.398 243.441 259.661 246.041 259.661 251.239Z" fill="#1E1E1E"/>
<path d="M307.576 180.768C307.576 178.871 308.312 177.269 309.786 175.962C311.292 174.654 312.913 174 314.648 174H316.22C316.711 174.098 317.12 174.147 317.448 174.147C319.019 174.147 320.411 174.85 321.622 176.256C322.834 177.662 323.44 179.002 323.44 180.277V181.552C323.374 181.879 323.341 182.124 323.341 182.288C323.341 183.661 322.572 185.001 321.033 186.309C319.494 187.617 317.791 188.271 315.925 188.271H314.403C312.569 188.271 310.981 187.699 309.638 186.554C308.329 185.377 307.674 184.037 307.674 182.533L307.576 182.043V180.768ZM316.907 244.569H312.241C307.887 244.569 305.267 244.455 304.383 244.226C303.532 243.964 303.106 243.262 303.106 242.117C303.106 240.94 303.925 239.534 305.562 237.9C307.199 236.265 308.23 234.63 308.656 232.996C309.082 231.328 309.295 227.029 309.295 220.098C309.295 213.134 309.115 209.031 308.754 207.789C308.394 206.547 307.265 205.484 305.365 204.601C303.499 203.686 302.566 202.607 302.566 201.365C302.566 200.09 303.434 199.158 305.169 198.569C309.098 197.262 313.437 196.608 318.184 196.608H318.921C320.82 196.608 321.917 197.409 322.212 199.011C322.375 199.926 322.457 205.419 322.457 215.488C322.457 225.525 322.67 231.41 323.096 233.143C323.554 234.843 324.7 236.657 326.534 238.586C328.367 240.515 329.284 241.725 329.284 242.215V242.804C329.284 243.981 325.159 244.569 316.907 244.569Z" fill="#1E1E1E"/>
<path d="M361.531 202.542H360.107C358.044 202.542 356.063 203.62 354.164 205.778C352.298 207.903 351.365 210.453 351.365 213.429V214.213C351.365 215.423 352.036 216.028 353.378 216.028L353.869 216.126H357.357L357.602 216.077L365.804 215.586C366.295 215.488 366.623 215.439 366.787 215.439C368.456 215.439 369.291 214.573 369.291 212.84V211.222C369.291 209.031 368.506 207.037 366.934 205.239C365.362 203.441 363.561 202.542 361.531 202.542ZM351.954 225.885C351.954 229.154 353.493 231.982 356.571 234.369C358.863 236.167 361.777 237.066 365.313 237.066C366.918 237.066 369.291 236.608 372.435 235.693C375.611 234.778 377.444 234.32 377.936 234.32C379.409 234.32 380.146 235.121 380.146 236.723C380.146 238.619 378.181 240.548 374.252 242.51C370.356 244.439 366.312 245.403 362.121 245.403H359.96C359.894 245.403 359.812 245.403 359.714 245.403C357.062 245.403 354.361 244.864 351.61 243.785C346.175 241.692 342.311 238.031 340.019 232.8C338.448 229.203 337.662 225.787 337.662 222.55V220.294C337.662 216.992 338.235 213.805 339.381 210.731C341.542 204.945 345.356 200.776 350.824 198.226C354.099 196.722 357.537 195.97 361.138 195.97H362.268C367.605 195.97 372.107 197.621 375.775 200.923C377.706 202.689 379.18 204.814 380.195 207.299C381.243 209.783 381.766 212.317 381.766 214.9C381.766 217.45 380.506 219.134 377.985 219.951C374.448 221.095 367.9 221.667 358.339 221.667C355.785 221.667 354.082 221.994 353.231 222.648C352.38 223.269 351.954 224.348 351.954 225.885Z" fill="#1E1E1E"/>
<path d="M447.903 240.94C447.903 242.15 446.904 243.049 444.907 243.638C442.942 244.193 439.619 244.471 434.936 244.471C430.287 244.471 427.504 244.144 426.587 243.49C425.67 242.837 425.212 242.068 425.212 241.186C425.212 240.27 425.621 238.897 426.44 237.066C427.291 235.235 427.815 233.764 428.011 232.652C428.208 231.541 428.306 227.781 428.306 221.373C428.306 214.965 427.749 210.601 426.636 208.279C425.556 205.925 423.411 204.748 420.202 204.748C416.993 204.748 414.39 206.138 412.393 208.917C411.05 210.78 410.379 214.197 410.379 219.166C410.379 227.372 411.132 233.388 412.638 237.213C413.555 239.436 414.014 240.875 414.014 241.529C414.014 242.771 413.261 243.556 411.754 243.883C410.248 244.177 406.974 244.324 401.931 244.324C396.922 244.324 393.893 243.997 392.845 243.343C391.798 242.657 391.274 241.741 391.274 240.597C391.274 239.453 392.141 238.308 393.877 237.164C395.612 236.02 396.594 234.99 396.824 234.075C397.053 233.127 397.167 228.974 397.167 221.618C397.167 214.23 396.922 209.914 396.431 208.672C395.94 207.397 394.957 205.925 393.484 204.258C392.01 202.591 391.274 201.741 391.274 201.708V200.678C391.274 200.122 391.683 199.615 392.501 199.158C395.35 197.523 399.59 196.706 405.222 196.706C406.794 196.706 408.104 197.474 409.151 199.011C410.232 200.547 411.018 201.316 411.509 201.316C412 201.316 413.146 200.792 414.947 199.746C416.78 198.667 417.779 198.095 417.943 198.03C420.562 196.82 423.002 196.215 425.261 196.215H426.832C432.562 196.215 436.655 198.504 439.111 203.081C440.683 206.056 441.469 213.2 441.469 224.512C441.469 230.56 441.665 234.009 442.058 234.859C442.451 235.709 443.515 236.69 445.25 237.802C447.018 238.881 447.903 239.927 447.903 240.94Z" fill="#1E1E1E"/>
<path d="M489.039 198.177C490.513 199.027 491.25 200.825 491.25 203.571C491.25 206.318 491.053 208.132 490.66 209.015C490.267 209.898 489.498 210.339 488.352 210.339C486.518 210.339 484.537 209.015 482.409 206.367C480.313 203.719 477.661 202.394 474.452 202.394C472.619 202.394 471.162 202.869 470.081 203.817C469.001 204.765 468.46 205.811 468.46 206.955C468.46 208.917 469.41 210.552 471.309 211.859C472.226 212.48 475.156 213.837 480.101 215.93C485.078 217.989 488.63 220.131 490.758 222.354C492.919 224.544 494 227.536 494 231.328C494 235.121 492.379 238.423 489.138 241.235C485.896 244.046 481.738 245.452 476.663 245.452H474.06C467.707 245.452 462.943 244.7 459.767 243.196C457.541 242.15 456.427 239.665 456.427 235.742C456.427 231.819 457.164 229.857 458.638 229.857C460.504 229.857 462.812 231.377 465.563 234.418C468.346 237.458 471.358 238.979 474.6 238.979C476.564 238.979 478.218 238.57 479.56 237.753C480.936 236.903 481.623 235.595 481.623 233.829C481.623 232.031 480.674 230.429 478.775 229.023C477.759 228.271 475.009 226.947 470.523 225.051C466.07 223.122 462.894 221.259 460.995 219.461C458.146 216.78 456.722 213.494 456.722 209.603C456.722 205.68 458.392 202.443 461.732 199.893C465.072 197.311 468.968 196.019 473.421 196.019H474.747C481.754 196.019 486.518 196.738 489.039 198.177Z" fill="#1E1E1E"/>
</svg>
