<svg width="278" height="255" viewBox="0 0 278 255" fill="none" xmlns="http://www.w3.org/2000/svg">
<path fill-rule="evenodd" clip-rule="evenodd" d="M127.223 0.544797C101.572 3.3258 75.0479 17.1588 58.8729 36.1938C55.6329 40.0058 52.0829 44.3558 50.9829 45.8618C49.0119 48.5598 48.9049 48.5818 43.5529 47.4178C31.7919 44.8578 20.4869 48.5518 11.7249 57.8158C0.069912 70.1398 -3.05308 85.8788 3.06192 101.479C8.76492 116.029 24.4459 128.734 40.3529 131.692C45.7529 132.696 46.3549 133.093 48.9839 137.375C53.2549 144.334 64.9239 159.899 73.3389 169.86L80.8409 178.741L79.7349 184.013C79.1269 186.912 76.5709 194.488 74.0559 200.847C70.1009 210.847 69.4829 213.395 69.4839 219.695C69.4849 233.081 77.1869 244.17 90.9589 250.615C102.966 256.233 114.713 255.551 126.271 248.566C128.863 246.999 132.783 245.399 134.983 245.01C137.865 244.499 140.139 243.097 143.119 239.992C147.613 235.309 149.943 229.614 151.553 219.374C153.021 210.039 153.109 209.89 158.261 207.964C160.858 206.993 164.783 204.752 166.983 202.983C169.183 201.214 173.008 198.747 175.483 197.5C192.276 189.045 215.524 164.326 228.116 141.54L232.941 132.807L239.128 131.747C253.719 129.248 267.229 118.842 274.203 104.731C277.917 97.2168 277.983 96.8798 277.983 85.5308C277.983 74.7728 277.781 73.5668 275.041 67.9788C271.671 61.1048 263.831 52.8148 257.983 49.9428C254.698 48.3298 251.873 47.9768 242.184 47.9678L230.384 47.9568L224.527 40.8598C217.787 32.6928 207.955 24.0578 198.189 17.7278C177.838 4.5388 150.792 -2.0102 127.223 0.544797ZM107.983 40.9798C114.845 41.8978 124.161 46.5228 132.225 53.0138C139.05 58.5078 140.844 59.3218 142 57.4518C142.349 56.8868 145.803 54.1998 149.676 51.4798C165.358 40.4668 181.392 38.1698 195.979 44.8478C216.322 54.1618 225.211 80.0608 215.299 101.146C212.254 107.626 203.478 116.714 196.997 120.101C193.967 121.684 191.487 123.339 191.485 123.779C191.484 124.218 192.14 125.849 192.944 127.403C195.441 132.233 196.601 142.475 195.391 149.02C193.705 158.138 190.727 163.35 182.414 171.729C174.485 179.722 172.079 180.931 170.981 177.474C170.024 174.458 165.642 169.624 162.114 167.693C159.424 166.22 156.212 166.002 139.312 166.144L119.64 166.31L115.813 158.25C112.929 152.177 110.903 149.364 107.59 146.835C99.6959 140.807 91.4489 140.344 85.8419 145.612L83.4829 147.828V141.191C83.4829 136.873 84.2249 132.57 85.6069 128.876C87.4189 124.034 87.5189 123.078 86.2849 122.388C68.5219 112.447 58.3159 93.0418 61.5089 75.2808C64.7259 57.3898 78.1869 43.3148 94.6689 40.6078C97.5919 40.1278 100.658 39.8648 101.483 40.0228C102.308 40.1808 105.233 40.6118 107.983 40.9798ZM42.1819 62.8448C42.3779 63.0408 42.0389 64.5018 41.4269 66.0898C37.7089 75.7518 36.4029 96.0548 38.6319 109.554C39.2649 113.382 39.5329 116.762 39.2299 117.066C38.9259 117.37 36.3789 116.629 33.5699 115.421C23.3809 111.038 13.4829 96.8458 13.4829 86.6198C13.4829 73.2248 25.8179 60.4968 37.4039 61.9378C39.8359 62.2398 41.9859 62.6478 42.1819 62.8448ZM254.928 66.2108C267.741 75.1718 268.198 94.8258 255.911 108.427C252.194 112.541 244.069 117.479 241.016 117.479C239.155 117.479 239.148 118.397 241.1 107.229C243.042 96.1148 242.487 81.5248 239.711 70.7508C238.452 65.8638 238.194 63.3608 238.916 63.0208C241.818 61.6538 251.04 63.4908 254.928 66.2108ZM89.1629 76.3568C84.9099 77.0008 82.5459 78.5258 82.4979 80.6578C82.4579 82.4298 85.9729 84.4788 89.0539 84.4788C92.3939 84.4788 92.4829 84.5838 92.4829 88.5238C92.4829 93.4518 95.6099 97.0368 100.75 98.0008C107.161 99.2038 113.483 93.7558 113.483 87.0288C113.483 85.0108 113.979 84.4788 115.861 84.4788C121.017 84.4788 122.056 78.6768 117.135 77.3608C112.762 76.1918 94.5669 75.5378 89.1629 76.3568ZM171.244 76.1828C165.822 76.4938 164.3 76.9518 163.459 78.5238C161.757 81.7038 163.882 84.4788 168.018 84.4788C171.36 84.4788 171.483 84.6128 171.483 88.2558C171.483 93.0688 173.564 96.0198 177.986 97.4798C184.72 99.7028 191.275 95.7218 192.403 88.7258C192.907 85.5968 193.447 84.9278 195.672 84.6698C201.859 83.9508 201.874 78.0008 195.691 77.1008C189.454 76.1928 178.339 75.7758 171.244 76.1828ZM121.844 112.981C120.124 117.464 126.102 123.832 131.483 123.25C135.18 122.849 135.535 117.44 132.091 113.996C129.174 111.079 122.815 110.45 121.844 112.981ZM147.301 113.408C144.465 115.638 143.304 119.408 144.69 121.884C147.281 126.514 156.973 120.642 156.31 114.843C156.039 112.469 155.461 111.928 152.93 111.68C151.012 111.493 148.919 112.135 147.301 113.408ZM133.83 146.529C126.524 147.813 117.778 151.268 117.053 153.157C116.56 154.442 118.741 159.479 119.791 159.479C119.935 159.479 122.675 158.557 125.879 157.431C138.023 153.163 150.899 153.908 162.03 159.522C168.093 162.58 170.814 162.665 171.902 159.829C172.842 157.38 170.923 155.036 165.613 152.146C155.97 146.898 143.887 144.762 133.83 146.529ZM102.13 159.202C104.534 160.738 108.484 169.109 108.482 172.664C108.481 174.398 107.235 175.679 103.518 177.767C97.7699 180.995 97.1259 181.778 97.9859 184.488C98.8409 187.183 102.211 187.028 106.528 184.094C112.613 179.96 119.305 178.183 130.562 177.712C142.797 177.2 153.897 178.639 156.601 181.086C159.614 183.812 159.06 188.816 155.406 191.89C151.514 195.165 148.653 195.148 138.462 191.791C129.869 188.96 126.983 189.259 126.983 192.979C126.983 195.145 128.747 196.173 133.883 196.999C139.348 197.878 143.715 202.385 143.297 206.716C143.076 209.009 142.537 209.877 141.483 209.634C131.748 207.398 129.267 207.126 127.687 208.122C125.33 209.609 125.517 212.872 127.983 213.291C137.602 214.924 141.483 217.588 141.483 222.556C141.483 227.416 136.783 231.479 131.161 231.479C128.085 231.479 124.857 232.447 120.835 234.575C115.928 237.17 114.228 237.583 110.311 237.131C101.31 236.092 90.1679 228.424 85.8289 220.282C84.6869 218.14 84.0539 214.695 84.0259 210.479C83.9899 204.981 84.5599 202.77 87.7289 196.133C92.5229 186.092 93.9899 177.411 92.4409 168.232C91.1349 160.49 91.4999 158.78 94.7109 157.586C97.1439 156.682 98.7269 157.027 102.13 159.202Z" fill="#1E1E1E"/>
</svg>
