<svg width="310" height="227" viewBox="0 0 310 227" fill="none" xmlns="http://www.w3.org/2000/svg">
<path fill-rule="evenodd" clip-rule="evenodd" d="M133.807 1.47049C115.467 4.73249 97.1743 12.5875 82.8953 23.3345C75.2143 29.1155 61.6033 42.8665 58.7033 47.7755L57.0593 50.5585L44.3903 50.4635L31.7213 50.3685L24.0923 54.1345C-5.88872 68.9345 -8.42272 112.819 19.4993 133.681C28.5133 140.416 41.4773 145.868 48.4803 145.868C50.3043 145.868 51.7313 146.626 52.5493 148.028C53.2413 149.216 57.2193 155.404 61.3893 161.778C84.0633 196.438 107.182 216.128 134.307 223.879C145.149 226.978 161.729 227.64 171.91 225.384C203.664 218.346 229.882 196.156 253.443 156.376L259.361 146.384L265.857 145.186C293.273 140.126 313.498 113.088 309.432 86.9325C307.801 76.4405 304.466 69.8375 297.081 62.4805C286.413 51.8535 274.925 47.9765 260.162 50.0225L252.975 51.0185L250.499 47.6935C241.939 36.1965 222.328 20.3475 207.478 12.9245C185.432 1.90253 156.591 -2.58151 133.807 1.47049ZM129.93 45.9885C135.908 47.8255 149.441 55.8595 152.179 59.1965C154.129 61.5715 154.965 61.3395 159.805 57.0785C168.125 49.7555 181.684 44.8985 193.807 44.8985C212.753 44.8985 229.14 54.6605 237.048 70.6575C240.708 78.0615 240.807 78.5535 240.807 89.3155C240.807 99.6865 240.609 100.788 237.592 107.157C233.653 115.473 225.446 124.305 217.882 128.368C214.81 130.018 212.499 131.818 212.746 132.368C218.578 145.377 218.759 146.141 218.783 157.868C218.806 168.811 218.648 169.704 215.53 176.288C207.122 194.044 183.537 208.093 159.638 209.582C141.333 210.722 120.342 203.156 106.657 190.486C91.6103 176.555 87.7563 159.49 95.2793 140.114C96.8973 135.947 98.0153 132.205 97.7643 131.798C97.5133 131.392 94.9103 129.707 91.9793 128.053C85.0053 124.117 77.7353 115.964 73.9773 107.868C68.0483 95.0925 69.4173 76.9295 77.2363 64.6295C88.8103 46.4235 108.587 39.4275 129.93 45.9885ZM278.211 67.8195C284.542 71.0495 288.989 75.5185 292.008 81.6865C294.332 86.4365 294.778 88.6105 294.726 94.9385C294.674 101.235 294.141 103.625 291.561 109.139C288.056 116.63 281.574 123.672 275.181 126.933C270.171 129.489 265.298 131.029 265.327 130.048C265.337 129.674 265.997 125.768 266.792 121.368C269.685 105.355 268.304 85.4185 263.316 71.1735C261.638 66.3815 261.625 65.9405 263.152 65.4845C266.304 64.5445 274.188 65.7675 278.211 67.8195ZM47.5203 66.4145C47.8203 66.7145 47.0063 70.2955 45.7123 74.3715C40.9983 89.2165 40.3433 105.403 43.7943 121.806C44.6463 125.854 45.1223 129.386 44.8533 129.655C43.6443 130.865 34.6203 127.183 30.1673 123.663C8.69328 106.689 10.6393 76.1035 33.7603 67.1945C36.8923 65.9875 46.5463 65.4405 47.5203 66.4145ZM121.989 88.8735C116.826 92.3795 102.648 97.8685 98.7553 97.8685C96.0093 97.8685 97.3203 100.711 101.947 104.783C113.101 114.602 125.317 111.376 128.218 97.8485C129.471 92.0065 129.658 84.8555 128.557 84.8955C128.145 84.9105 125.189 86.7005 121.989 88.8735ZM183.319 89.1185C183.335 94.8165 185.756 103.603 187.991 106.072C192.227 110.754 197.781 111.95 203.729 109.465C207.694 107.808 215.307 101.177 215.307 99.3795C215.307 98.6885 213.514 97.8375 211.317 97.4865C205.122 96.4955 197.103 93.1825 190.377 88.8355C187.002 86.6535 184.03 84.8685 183.773 84.8685C183.517 84.8685 183.312 86.7815 183.319 89.1185ZM136.624 124.486C134.942 128.868 142.002 136.279 147.273 135.665C149.396 135.417 149.856 134.781 150.109 131.751C150.362 128.735 149.892 127.697 147.283 125.501C143.631 122.428 137.632 121.857 136.624 124.486ZM164.434 124.965C161.323 127.863 160.058 131.535 161.342 133.934C162.771 136.605 165.999 136.354 170.522 133.22C174.344 130.571 176.031 127.198 174.946 124.371C174.051 122.038 167.158 122.427 164.434 124.965ZM144.307 159.431C132.519 161.976 119.853 169.787 120.5 174.11C121.14 178.389 123.579 178.374 130.752 174.048C146.184 164.74 166.229 164.894 180.401 174.431C186.308 178.407 189.632 178.605 190.141 175.011C190.866 169.886 178.745 162.097 165.807 159.376C157.3 157.587 152.797 157.597 144.307 159.431Z" fill="#1E1E1E"/>
</svg>
