<svg width="349" height="256" viewBox="0 0 349 256" fill="none" xmlns="http://www.w3.org/2000/svg">
<path fill-rule="evenodd" clip-rule="evenodd" d="M282.054 1.25C281.513 1.938 280.111 5.708 278.939 9.63C277.767 13.551 276.018 17.683 275.051 18.811C274.084 19.94 269.91 22.04 265.776 23.478C261.642 24.917 257.639 26.477 256.88 26.946C254.047 28.697 256.868 30.902 265.188 33.44C275.014 36.437 275.669 37.119 279.356 48.19C280.783 52.474 282.408 56.262 282.968 56.608C284.664 57.656 286.44 54.856 288.747 47.5C291.848 37.608 292.678 36.646 299.942 34.515C316.078 29.783 315.722 27.931 297.546 22.058C292.857 20.543 291.276 18.308 288.662 9.5C286.616 2.608 285.28 0 283.793 0C283.378 0 282.595 0.563 282.054 1.25ZM49.2934 8.75299C46.7494 13.626 45.4194 14.956 40.5464 17.5C37.3854 19.15 34.7974 21.006 34.7964 21.625C34.7944 22.244 37.3805 24.044 40.5435 25.625C45.3155 28.011 46.7724 29.393 49.1064 33.75C50.6544 36.638 52.2984 39 52.7614 39C53.2244 39 54.9974 36.527 56.7034 33.505C59.1354 29.197 61.0244 27.322 65.4584 24.82C71.7324 21.279 71.8394 21.804 63.7934 16.695C61.6444 15.33 59.1354 12.26 57.2934 8.73901C55.6434 5.58601 53.8434 3.00598 53.2934 3.00598C52.7434 3.00598 50.9434 5.59199 49.2934 8.75299ZM288.897 28.5C288.897 28.823 287.761 30.438 286.371 32.089L283.846 35.091L280.884 31.795L277.923 28.5L280.983 25.323L284.044 22.145L286.471 25.029C287.805 26.615 288.897 28.177 288.897 28.5ZM143.793 27.526C142.968 27.688 138.918 28.366 134.793 29.034C119.692 31.478 104.199 37.68 90.2934 46.849C81.5534 52.611 67.9704 65.479 61.7644 73.876L57.0524 80.252L44.6725 80.402C28.9275 80.594 23.5304 82.509 14.2374 91.201C-14.5866 118.165 2.78142 166.506 44.5564 175.591L52.2934 177.273L57.1904 185.601C74.5164 215.069 98.3374 238.153 121.793 248.204C135.629 254.133 144.386 256 158.353 256C177.758 256 194.693 250.669 212.793 238.863C227.074 229.548 247.906 205.591 259.322 185.354C263.863 177.305 263.973 177.2 268.605 176.515C280.18 174.802 292.706 168.019 301.519 158.69C311.651 147.966 316.302 135.531 315.608 121.019C315.24 113.312 314.711 111.22 311.487 104.695C302.813 87.145 284.952 77.493 265.485 79.837L258.763 80.646L254.84 75.561C236.217 51.422 204.927 33.006 174.793 28.449C166.537 27.2 148.237 26.655 143.793 27.526ZM323.82 45.179C323.273 46.455 322.03 49.975 321.059 53L319.293 58.5L311.793 61.117C301.897 64.57 301.657 66.545 310.738 69.782C318.888 72.687 319.481 73.211 321.213 79.041C324.279 89.368 326.694 90.622 329.318 83.25C330.248 80.638 331.452 77.295 331.993 75.822C333.005 73.065 336.337 71.277 344.623 69.046C348.128 68.102 348.86 67.506 348.605 65.806C348.365 64.201 346.57 63.123 340.793 61.111L333.293 58.5L330.678 51C327.896 43.021 325.585 41.06 323.82 45.179ZM18.6025 53.25C17.2015 55.793 14.7625 58.303 12.5305 59.5C10.4785 60.6 8.79744 61.979 8.79644 62.565C8.79444 63.15 10.3524 64.373 12.2574 65.281C14.1624 66.19 16.9214 68.748 18.3904 70.966C19.8584 73.185 21.3364 74.999 21.6764 74.997C22.0154 74.996 23.1944 73.309 24.2944 71.249C25.4334 69.117 27.9105 66.64 30.0425 65.501C32.1025 64.401 33.7895 63.013 33.7905 62.418C33.7925 61.822 32.1065 60.247 30.0435 58.918C27.9815 57.588 25.4685 54.813 24.4615 52.75C23.4535 50.688 22.2494 49 21.7864 49C21.3224 49 19.8895 50.913 18.6025 53.25ZM328.636 63.846L330.978 65.648L328.319 67.391C326.228 68.761 325.353 68.879 324.226 67.944C322.465 66.483 322.418 65.342 324.043 63.496C325.644 61.677 325.834 61.692 328.636 63.846ZM129.333 70.543C136.757 72.464 148.469 79.059 153.371 84.08L157.079 87.877L162.624 83.36C184.139 65.834 214.678 66.255 233.153 84.332C254.389 105.109 248.85 141.281 222.087 156.61C219.45 158.12 217.173 159.434 217.026 159.529C216.879 159.624 218.163 162.702 219.879 166.37C226.109 179.682 226.073 193.896 219.777 206.685C213.562 219.309 194.889 232.357 176.293 237.068C143.7 245.325 104.023 228.06 93.6824 201.119C89.6284 190.559 91.4124 171.544 97.3184 162.361C98.6154 160.345 98.3644 160.02 92.9314 156.666C77.1574 146.93 69.1644 131.929 69.9674 113.571C70.3164 105.581 70.8274 103.462 74.0214 96.735C84.2984 75.094 106.429 64.615 129.333 70.543ZM284.883 98.568C293.201 102.742 299.534 112.09 300.521 121.65C302.093 136.88 290.714 154.236 275.678 159.54C273.403 160.343 271.208 161 270.801 161C270.394 161 270.773 158.188 271.644 154.75C272.782 150.254 273.215 143.87 273.185 132C273.147 117.031 272.895 114.686 270.468 106.735C268.997 101.914 267.793 97.56 267.793 97.058C267.793 94.331 278.287 95.259 284.883 98.568ZM48.3634 98.25C43.8064 113.713 42.6754 120.113 42.6644 130.5C42.6554 140.008 44.0724 150.797 46.3754 158.75C47.1844 161.545 46.3785 161.565 39.3345 158.929C32.2015 156.261 24.0185 148.782 20.0475 141.303C12.7155 127.49 14.2934 113.367 24.2554 103.646C29.8684 98.168 34.9855 96.048 42.6605 96.022C48.7965 96.001 49.0024 96.081 48.3634 98.25ZM110.793 107.927C100.606 110.01 91.7264 119.533 95.9934 123.8C97.6954 125.502 102.31 125.287 103.848 123.434C108.193 118.199 118.053 117.673 124.184 122.349C129.373 126.307 134.793 125.533 134.793 120.835C134.793 118.157 129.225 112.381 124.499 110.155C119.197 107.659 115.247 107.016 110.793 107.927ZM197.09 108.074C191.595 109.127 189.09 110.474 184.543 114.821C180.73 118.466 179.829 121.636 181.993 123.8C183.831 125.638 188.277 125.228 190.259 123.038C194.639 118.198 204.082 117.94 210.933 122.474C213.38 124.093 215.971 124.999 217.612 124.81C219.844 124.552 220.347 123.941 220.613 121.161C220.885 118.327 220.298 117.235 216.735 113.946C210.991 108.644 204.4 106.674 197.09 108.074ZM138.795 144.997C138.01 146.464 138.069 147.65 139.02 149.464C140.559 152.401 146.519 157 148.787 157C152.404 157 154.004 152.131 151.763 147.945C149.343 143.422 140.69 141.455 138.795 144.997ZM167.353 145.131C163.485 148.174 162.354 151.681 164.289 154.635C166.414 157.878 168.175 157.616 173.353 153.288C176.58 150.591 177.793 148.844 177.793 146.895C177.793 142.516 171.937 141.526 167.353 145.131ZM194.908 178.015C176.134 183.612 147.789 184.446 127.793 179.99C111.694 176.403 110.262 176.355 108.304 179.343C106.231 182.506 107.281 186.573 112.347 195C118.156 204.664 126.911 211.337 139.427 215.641C146.128 217.945 148.922 218.344 158.293 218.333C168.135 218.322 170.166 217.994 177.584 215.215C190.748 210.284 201.501 201.12 206.355 190.695C211.944 178.69 207.851 174.157 194.908 178.015Z" fill="#1E1E1E"/>
</svg>
