<svg width="291" height="265" viewBox="0 0 291 265" fill="none" xmlns="http://www.w3.org/2000/svg">
<path fill-rule="evenodd" clip-rule="evenodd" d="M123.415 0.600425C113.875 2.11642 102.088 5.43942 95.0537 8.59542C79.7947 15.4414 62.5837 29.0804 53.5507 41.4844L49.1967 47.4644L39.0247 46.8884C29.5447 46.3514 28.4667 46.4884 23.1837 48.9074C16.3147 52.0524 7.69967 60.3974 4.20667 67.2914C-8.59733 92.5584 9.17265 124.755 39.3117 130.898L45.5726 132.174L49.9807 139.704C55.9317 149.87 67.8947 165.802 76.1397 174.542C89.0007 188.176 104.904 198.27 119.612 202.135C128.814 204.553 144.982 204.416 154.276 201.84L161.5 199.838L164.194 203.371L166.888 206.903L156.783 216.5C151.224 221.778 146.151 227.168 145.508 228.479C143.153 233.28 146.719 243.856 152.91 250.435C156.959 254.739 164.537 258.596 168.942 258.596C171.353 258.596 173.787 257.537 176.984 255.096C179.506 253.171 181.853 251.596 182.199 251.596C182.545 251.596 184.825 253.436 187.265 255.686C194.42 262.281 201.158 264.839 211.409 264.85C225.628 264.865 237.765 259.029 244.427 248.971C249.163 241.821 249.941 235.905 248.613 217.119C247.897 206.979 247.816 200.033 248.396 198.506C248.906 197.166 254.212 191.731 260.187 186.429C266.163 181.126 272.489 175.282 274.245 173.442C277.504 170.026 285.34 154.432 288.691 144.693C292.247 134.356 290.29 127.596 283.741 127.596C282.195 127.596 273.757 130.256 264.991 133.508L249.052 139.42L228.714 157.258C211.867 172.034 207.924 175.041 205.746 174.774C200.432 174.123 200.465 173.353 206.116 166.09C209.109 162.243 215.458 153.246 220.226 146.096C224.994 138.946 228.994 132.956 229.117 132.786C229.239 132.615 232.375 132.045 236.086 131.52C253.04 129.119 269.044 115.647 274.532 99.1584C281.173 79.2014 272.978 58.6314 254.552 49.0044C251.699 47.5134 248.984 47.2054 239.859 47.3404L228.665 47.5054L222.139 39.8014C205.542 20.2044 184.324 7.48242 159.052 1.97542C150.55 0.123425 131.13 -0.626575 123.415 0.600425ZM111.769 40.5814C118.244 42.5814 128.262 48.4164 134.337 53.7254C136.143 55.3044 138.086 56.5964 138.654 56.5964C139.222 56.5964 142.216 54.5364 145.307 52.0184C151.585 46.9034 157.447 43.7264 165.412 41.1174C173.286 38.5394 186.132 39.3214 193.805 42.8454C212.077 51.2394 220.735 71.3364 214.48 90.8384C212.402 97.3184 211.343 98.9014 204.602 105.61C200.45 109.742 195.121 113.981 192.76 115.03C189.539 116.462 188.642 117.331 189.164 118.517C192.848 126.89 193.741 131.474 193.368 140.096C193.044 147.589 192.461 150.184 189.889 155.596C188.191 159.171 185.135 164.009 183.098 166.346C179.967 169.941 178.814 170.596 175.624 170.596C170.949 170.596 164.851 174.764 162.13 179.819C159.83 184.092 156.544 185.794 146.11 188.115C130.16 191.664 116.826 188.56 102.861 178.049C88.9617 167.588 82.2077 155.321 82.1657 140.461C82.1457 133.196 82.6076 130.668 85.0756 124.537C87.0056 119.743 87.6227 117.12 86.8787 116.872C83.6807 115.806 74.6626 108.476 70.9666 103.94C64.7316 96.2864 62.1556 88.9174 62.1096 78.5964C62.0636 68.4044 63.9977 62.0924 69.5377 54.3564C79.1807 40.8894 95.5156 35.5614 111.769 40.5814ZM40.1917 62.3614C41.0257 62.8994 40.8326 65.0594 39.4736 70.3984C36.0896 83.6974 35.9807 97.7794 39.1417 113.346C39.6997 116.096 39.5126 116.593 37.9266 116.574C34.4836 116.534 27.7576 112.811 23.8456 108.78C17.9226 102.677 14.3866 95.4044 13.8016 88.1274C13.2236 80.9224 14.4477 76.4204 18.5117 70.8104C23.1837 64.3614 35.7147 59.4774 40.1917 62.3614ZM249.852 64.2104C260.357 69.5094 265.19 80.6534 262.143 92.5494C259.657 102.252 253.722 109.891 245.335 114.182C239.131 117.357 237.145 117.356 237.942 114.176C241.602 99.5974 240.708 76.5324 236.012 64.3464C235.419 62.8064 236.017 62.5964 240.995 62.5964C244.212 62.5964 248.031 63.2924 249.852 64.2104ZM94.8657 71.5464C90.8597 73.9894 89.5516 76.4134 89.5516 81.3954C89.5516 91.5744 102.75 96.2184 110.044 88.6054C112.338 86.2104 112.885 84.7384 112.885 80.9644C112.885 76.8624 112.438 75.8794 109.233 72.9434C104.905 68.9774 99.8807 68.4884 94.8657 71.5464ZM169.856 71.5524C165.18 74.4034 163.652 80.0864 166.173 85.2484C168.805 90.6384 174.302 93.2874 179.576 91.7074C181.682 91.0764 184.611 89.1264 186.085 87.3744C188.374 84.6544 188.692 83.5284 188.257 79.6744C187.262 70.8424 177.841 66.6844 169.856 71.5524ZM122.902 105.361C121.71 106.123 121.229 107.891 121.434 110.764C121.576 112.77 127.449 116.596 130.385 116.596C132.877 116.596 134.806 113.48 133.899 110.918C132.137 105.942 126.473 103.08 122.902 105.361ZM145.577 106.571C139.182 112.966 144.81 120.143 151.647 114.31C154.848 111.579 155.534 109.755 154.453 106.846C153.373 103.94 148.363 103.785 145.577 106.571ZM273.889 146.416C275.431 148.12 275.284 148.756 271.58 156.416C269.404 160.915 267.174 164.596 266.624 164.596C265.195 164.596 255.552 152.78 255.552 151.028C255.552 149.696 256.78 148.978 264.552 145.765C268.426 144.163 272.081 144.418 273.889 146.416ZM102.123 148.167C100.091 150.2 100.143 151.187 102.402 153.446C106.658 157.702 133.877 162.283 147.852 161.095C168.266 159.36 178.227 154.705 171.276 150.151C169.263 148.832 168.365 148.83 163.526 150.135C150.282 153.707 126.299 152.942 112.052 148.495C104.73 146.209 104.103 146.188 102.123 148.167ZM241.544 173.087C243.122 174.988 242.463 178.458 238.978 186.596C235.872 193.847 235.624 197.612 236.999 216.611C237.774 227.31 237.682 228.421 235.701 232.304C231.372 240.79 220.562 248.097 210.592 249.278C203.811 250.081 201.331 249.228 195.575 244.116C191.539 240.532 189.578 239.536 185.491 238.994C179.422 238.188 176.984 235.458 178.04 230.649C179.167 225.52 182.735 223.596 191.119 223.596C197.733 223.596 198.482 223.392 199.107 221.422C200.211 217.944 197.239 216.596 188.468 216.596C180.348 216.596 179.142 215.904 180.572 212.061C182.032 208.136 184.534 207.113 193.95 206.596C202.227 206.141 203.079 205.907 203.35 204.008C203.92 200.024 201.114 199.096 188.504 199.096C178.552 199.096 176.462 198.819 174.75 197.272C170.864 193.761 171.187 188.163 175.465 184.878C177.973 182.952 187.141 183.407 198.71 186.032C211.602 188.957 214.344 190.303 221.697 197.315C227.684 203.026 230.746 203.854 232.939 200.356C233.847 198.907 233.257 197.902 229.422 194.356C226.887 192.013 224.503 189.096 224.124 187.873C223.269 185.116 226.439 177.618 229.942 174.115C232.867 171.19 239.483 170.604 241.544 173.087ZM167.851 228.993C167.473 232.655 167.817 235.926 168.923 239.171C169.819 241.801 170.552 244.097 170.552 244.274C170.552 245.1 166.877 244.399 165.43 243.298C163.056 241.49 158.554 234.575 158.537 232.706C158.522 231.232 166.153 223.695 167.73 223.626C168.103 223.609 168.157 226.024 167.851 228.993Z" fill="#1E1E1E"/>
</svg>
