<svg width="273" height="351" viewBox="0 0 273 351" fill="none" xmlns="http://www.w3.org/2000/svg">
<path fill-rule="evenodd" clip-rule="evenodd" d="M132.643 1.05096C131.184 1.90096 130.893 3.54895 130.893 10.964C130.893 18.998 131.106 20.007 133.097 21.401C134.974 22.716 135.603 22.744 137.347 21.589C139.105 20.425 139.434 19.006 139.683 11.504C139.983 2.50596 139.166 -0.0570425 136.021 0.000957505C135.125 0.0179575 133.605 0.489961 132.643 1.05096ZM91.0931 17.171C88.6831 19.581 89.9311 22.571 95.7531 28.332C100.594 33.123 102.115 34.074 104.503 33.801C106.893 33.528 107.444 32.952 107.686 30.471C107.925 28.034 106.983 26.392 102.668 21.721C97.2501 15.856 93.7751 14.489 91.0931 17.171ZM167.54 21.986C161.573 28.342 161.286 28.968 162.928 32.037C164.961 35.834 169.087 34.496 175.241 28.045C181.173 21.826 181.533 21.035 179.858 17.905C177.808 14.075 173.685 15.441 167.54 21.986ZM125.893 31.906C120.944 33.417 115.325 36.872 111.695 40.636C99.7081 53.067 99.4601 73.54 111.138 86.596C115.83 91.841 117.091 94.429 118.388 101.471L119.493 107.471L135.693 107.746L151.893 108.021V105.545C151.893 99.053 154.091 93.219 158.534 87.913C161.041 84.92 163.956 80.588 165.011 78.286C172.786 61.324 165.866 41.621 149.393 33.816C144.371 31.436 142.17 30.986 135.893 31.058C131.768 31.105 127.268 31.486 125.893 31.906ZM144.393 42.892C159.24 49.857 162.661 69.526 150.93 80.471C147.273 83.883 145.191 87.497 143.491 93.387L142.312 97.471L135.589 97.767C130.738 97.981 128.761 97.702 128.489 96.767C126.494 89.892 123.934 84.958 120.148 80.695C114.661 74.517 112.662 69.983 112.662 63.713C112.662 47.441 129.933 36.108 144.393 42.892ZM73.5601 56.638C72.3641 57.833 72.8581 62.697 74.2961 63.891C75.1831 64.627 78.7231 64.948 83.9281 64.763C90.9221 64.515 92.3601 64.164 93.5121 62.425C94.6661 60.682 94.6381 60.052 93.3231 58.175C91.9311 56.188 90.9161 55.971 83.0031 55.971C78.1761 55.971 73.9261 56.271 73.5601 56.638ZM177.464 57.542C176.6 58.407 175.893 59.725 175.893 60.471C175.893 63.782 178.897 64.971 187.264 64.971C195.938 64.971 197.893 64.143 197.893 60.471C197.893 56.799 195.938 55.971 187.264 55.971C181.117 55.971 178.638 56.368 177.464 57.542ZM120.996 116.837C122.256 120.452 125.361 123.818 128.554 125.032C132.91 126.688 141.109 126.137 144.703 123.945C147.392 122.306 150.893 116.966 150.893 114.503C150.893 114.21 143.941 113.971 135.445 113.971H119.997L120.996 116.837ZM124.893 149.096C96.0711 152.421 69.7451 167.299 52.8931 189.788L48.3931 195.793L40.3581 195.249C30.7871 194.6 23.7231 196.324 16.5921 201.047C10.6761 204.966 3.61812 214.717 1.49712 221.903C-1.53588 232.172 0.13811 245.576 5.62511 254.971C11.7461 265.45 26.2241 275.643 38.6721 278.236L44.6021 279.471L53.6781 292.971C69.5541 316.587 87.9561 334.926 103.805 342.926C113.927 348.036 121.685 350.099 132.99 350.688C150.443 351.597 163.681 347.459 180.483 335.844C194.161 326.388 211.838 305.938 222.49 287.246L226.908 279.494L233.641 278.251C248.505 275.508 262.375 264.965 269.028 251.354C272.259 244.745 272.392 244.014 272.374 232.971C272.356 222.324 272.146 221.072 269.541 216.09C265.767 208.873 258.128 201.438 251.129 198.167C246.119 195.826 244.115 195.483 235.288 195.455L225.183 195.423L220.175 189.447C200.433 165.887 176.333 152.581 146.919 149.002C137.463 147.851 135.61 147.859 124.893 149.096ZM110.244 187.998C116.662 189.98 129.58 197.757 133.321 201.892C134.356 203.035 135.6 203.971 136.084 203.971C136.569 203.971 139.919 201.707 143.529 198.941C155.84 189.504 164.19 186.549 176.834 187.154C187.907 187.683 194.371 190.646 202.075 198.723C209.884 206.91 212.329 213.504 212.365 226.471C212.39 235.358 212.091 237.087 209.677 242.001C205.997 249.495 200.621 255.544 193.623 260.067C190.412 262.142 187.29 264.005 186.686 264.207C185.957 264.45 186.114 265.398 187.154 267.022C192.06 274.683 193.251 289.235 189.746 298.683C182.208 319 158.205 335.026 135.433 334.947C125.931 334.914 120.937 333.645 110.893 328.715C100.375 323.552 88.7231 312.536 84.6321 303.885C79.2691 292.546 79.1981 281.538 84.4151 270.142C85.7941 267.13 86.8031 264.59 86.6571 264.497C86.5121 264.403 84.3621 263.165 81.8791 261.745C75.5721 258.138 67.2861 249.045 64.0891 242.224C61.6621 237.045 61.3971 235.374 61.4321 225.471C61.4651 216.217 61.8321 213.682 63.7401 209.504C72.1791 191.024 91.3451 182.16 110.244 187.998ZM40.4611 210.206C40.6371 210.382 39.9011 213.878 38.8261 217.975C35.4561 230.808 35.3401 249.94 38.5591 261.878C39.1721 264.151 39.0241 264.247 35.8711 263.617C31.2741 262.697 23.6041 257.592 20.2891 253.246C16.6061 248.417 12.9461 239.311 12.9171 234.903C12.8231 220.815 24.7811 208.072 36.7671 209.487C38.6231 209.706 40.2851 210.03 40.4611 210.206ZM246.778 211.912C258.622 217.955 263.374 234.268 256.955 246.85C252.605 255.377 242.317 263.971 236.461 263.971C235.021 263.971 234.777 263.419 235.243 261.221C238.453 246.096 237.971 228.826 233.982 216.009L232.103 209.971H237.538C240.944 209.971 244.393 210.695 246.778 211.912ZM93.2071 218.921C89.2181 221.353 87.8931 223.788 87.8931 228.683C87.8931 237.45 96.8571 242.454 105.347 238.426C109.218 236.589 111.293 233.115 111.293 228.471C111.293 223.827 109.218 220.353 105.347 218.516C100.981 216.444 97.0541 216.575 93.2071 218.921ZM165.293 220.371C162.507 223.157 161.893 224.528 161.893 227.967C161.893 233.596 164.847 237.612 170.008 239.002C178.372 241.254 184.893 236.407 184.893 227.94C184.893 223.741 184.475 222.811 181.358 220.075C178.509 217.573 176.939 216.971 173.258 216.971C169.4 216.971 168.167 217.497 165.293 220.371ZM121.116 252.528C117.948 254.747 118.363 257.465 122.332 260.492C129.769 266.165 135.581 260.505 129.037 253.961C125.643 250.567 124.27 250.318 121.116 252.528ZM143.285 253.488C139.785 256.988 140.198 262.332 144.003 262.774C147.434 263.172 152.893 258.655 152.893 255.417C152.893 250.775 147.152 249.621 143.285 253.488ZM98.2481 283.487C96.3991 288.306 107.908 301.387 118.683 306.712C125.918 310.287 126.756 310.468 135.841 310.409C151.232 310.308 160.784 305.35 170.395 292.471C175.273 285.934 175.628 284.826 173.434 283.005C172.266 282.036 170.42 282.392 164.184 284.79C152.77 289.18 145.5 290.321 132.604 289.748C123.313 289.335 119.852 288.698 112.393 286.029C99.9501 281.577 99.0441 281.414 98.2481 283.487Z" fill="#1E1E1E"/>
</svg>
