<svg width="494" height="170" viewBox="0 0 494 170" fill="none" xmlns="http://www.w3.org/2000/svg">
<path d="M479.908 79.0051C478.571 77.9375 476.83 78.3796 476.016 80.1251C474.169 84.0846 474.477 86.282 474.654 90.8018C474.76 93.5307 478.779 93.6222 478.922 90.8161C478.891 89.1981 479.063 87.616 479.398 86.053C497.084 104.189 471.382 125.759 455.166 134.062C436.566 143.588 415.031 144.935 395.308 144.735C358.348 144.359 319.522 135.726 286.074 119.312C248.164 100.709 215.645 70.6563 176.028 55.9703C162.363 50.9049 132.526 44.9258 115.824 56.3532C113.373 52.651 110.274 49.3029 106.477 46.4C81.6713 27.4263 32.0545 30.611 12.1834 60.5768C5.32174 70.9257 5.83782 83.522 9.84488 94.5198C10.2939 95.7542 11.9502 94.9939 11.5789 93.7152C-3.27365 42.7008 64.7029 33.6034 92.6648 43.7997C100.496 46.6548 107.546 51.6541 112.721 58.8359C109.342 61.973 106.728 66.0583 105.254 71.3429C102.347 81.7732 102.756 92.8668 109.921 100.323C114.16 104.736 119.88 100.04 121.11 94.6035C123.861 82.4503 123.149 71.1558 118.795 61.6801C130.667 55.5373 148.086 54.8453 156.747 56.0851C175.439 58.7583 192.96 68.2429 209.351 77.8377C241.711 96.7865 271.327 121.395 306.553 133.835C334.777 143.8 364.574 149.414 394.408 150.363C420.094 151.181 447.415 147.715 469.879 131.053C488.15 117.504 500.547 95.4602 479.908 79.0051ZM118.664 74.3823C119.159 77.581 119.03 80.9743 118.817 84.2161C118.731 85.5104 115.423 105.941 108.999 90.502C103.545 77.3909 107.675 68.8929 115.582 63.5604C117.144 66.9009 118.08 70.6165 118.664 74.3823Z" fill="#AEE7C3"/>
<path d="M475.908 74.0051C474.571 72.9375 472.83 73.3796 472.016 75.1251C470.169 79.0846 470.477 81.282 470.654 85.8018C470.76 88.5307 474.779 88.6222 474.922 85.8161C474.891 84.1981 475.063 82.616 475.398 81.053C493.084 99.1888 467.382 120.759 451.166 129.062C432.566 138.588 411.031 139.935 391.308 139.735C354.348 139.359 315.522 130.726 282.074 114.312C244.164 95.7086 211.645 65.6563 172.028 50.9703C158.363 45.9049 128.526 39.9258 111.824 51.3532C109.373 47.651 106.274 44.3029 102.477 41.4C77.6713 22.4263 28.0545 25.611 8.18336 55.5768C1.32174 65.9257 1.83782 78.522 5.84488 89.5198C6.29394 90.7542 7.95016 89.9939 7.57892 88.7152C-7.27365 37.7008 60.7029 28.6034 88.6648 38.7997C96.4962 41.6548 103.546 46.6541 108.721 53.8359C105.342 56.973 102.728 61.0583 101.254 66.3429C98.3474 76.7732 98.7556 87.8668 105.921 95.3235C110.16 99.7362 115.88 95.0403 117.11 89.6035C119.861 77.4503 119.149 66.1558 114.795 56.6801C126.667 50.5373 144.086 49.8453 152.747 51.0851C171.439 53.7583 188.96 63.2429 205.351 72.8377C237.711 91.7865 267.327 116.395 302.553 128.835C330.777 138.8 360.574 144.414 390.408 145.363C416.094 146.181 443.415 142.715 465.879 126.053C484.15 112.504 496.547 90.4602 475.908 74.0051ZM114.664 69.3823C115.159 72.581 115.03 75.9743 114.817 79.2161C114.731 80.5104 111.423 100.941 104.999 85.502C99.5448 72.3909 103.675 63.8929 111.582 58.5604C113.144 61.9009 114.08 65.6165 114.664 69.3823Z" fill="#1E1E1E"/>
</svg>
